<svg width="40" height="40" viewBox="0 0 40 40" fill="none" xmlns="http://www.w3.org/2000/svg">
<path d="M33.0532 14.848C33.0487 14.1302 32.9025 13.4204 32.623 12.7593C32.3435 12.0981 31.9362 11.4987 31.4245 10.9953C30.9128 10.492 30.3067 10.0947 29.641 9.82611C28.9753 9.55757 28.2632 9.42311 27.5454 9.43046C26.8275 9.45238 26.121 9.61594 25.4665 9.91174C24.812 10.2075 24.2223 10.6298 23.7315 11.1541C23.2406 11.6785 22.8582 12.2947 22.6063 12.9673C22.3543 13.6399 22.2377 14.3557 22.2632 15.0735C22.3152 16.0333 22.6186 16.9625 23.1429 17.768C23.6672 18.5736 24.3941 19.2272 25.2505 19.6633V22.3164C25.2554 22.4724 25.3206 22.6205 25.4324 22.7294C25.5443 22.8382 25.694 22.8994 25.8501 22.9001H29.461C29.6175 22.9001 29.768 22.8392 29.8804 22.7303C29.9928 22.6213 30.0584 22.4729 30.0632 22.3164V19.6156C30.946 19.1651 31.6903 18.484 32.2172 17.6446C32.7441 16.8052 33.0312 15.8388 33.0532 14.848Z" fill="white"/>
<path d="M12.5566 22.9027C13.2141 22.918 13.868 22.8016 14.4799 22.5606C15.0918 22.3195 15.6493 21.9586 16.1197 21.4989C16.5901 21.0393 16.9639 20.4903 17.2191 19.8842C17.4743 19.2781 17.6057 18.627 17.6057 17.9694C17.6057 17.3117 17.4743 16.6607 17.2191 16.0545C16.9639 15.4484 16.5901 14.8994 16.1197 14.4398C15.6493 13.9802 15.0918 13.6192 14.4799 13.3781C13.868 13.1371 13.2141 13.0207 12.5566 13.036C11.268 13.0659 10.0422 13.5988 9.14145 14.5207C8.24065 15.4426 7.73633 16.6804 7.73633 17.9694C7.73633 19.2583 8.24065 20.4961 9.14145 21.418C10.0422 22.34 11.268 22.8728 12.5566 22.9027Z" stroke="#962C52" stroke-width="1.5" stroke-linecap="round" stroke-linejoin="round"/>
<path d="M2.81641 37.1895C2.83314 35.538 3.26856 33.9178 4.08192 32.4803C4.9376 30.9848 6.1708 29.7399 7.65828 28.8703C9.14576 28.0006 10.8354 27.5365 12.5584 27.5244C16.034 27.5324 19.3238 29.4532 21.035 32.4803C21.8479 33.917 22.2833 35.5363 22.3005 37.1869" stroke="#962C52" stroke-width="1.5" stroke-linecap="round" stroke-linejoin="round"/>
<path d="M27.6602 5.09787V2.92236" stroke="#962C52" stroke-width="1.5" stroke-linecap="round" stroke-linejoin="round"/>
<path d="M35.0859 7.76961L36.8661 6.52002" stroke="#962C52" stroke-width="1.5" stroke-linecap="round" stroke-linejoin="round"/>
<path d="M20.2282 7.76961L18.4453 6.52002" stroke="#962C52" stroke-width="1.5" stroke-linecap="round" stroke-linejoin="round"/>
<path d="M33.0532 14.848C33.0487 14.13 32.9024 13.42 32.6228 12.7587C32.3431 12.0974 31.9356 11.4978 31.4235 10.9944C30.9115 10.491 30.3051 10.0938 29.6392 9.82537C28.9732 9.55698 28.2608 9.42279 27.5428 9.43049C26.8251 9.45275 26.1189 9.61656 25.4646 9.91252C24.8104 10.2085 24.2211 10.6307 23.7305 11.1551C23.24 11.6794 22.8578 12.2955 22.606 12.9679C22.3542 13.6404 22.2377 14.356 22.2632 15.0736C22.3153 16.0333 22.6186 16.9625 23.1429 17.768C23.6672 18.5736 24.3941 19.2272 25.2506 19.6633V22.3164C25.2554 22.4724 25.3206 22.6205 25.4324 22.7294C25.5443 22.8383 25.694 22.8995 25.8501 22.9001H29.461C29.6175 22.9002 29.768 22.8393 29.8804 22.7303C29.9928 22.6213 30.0584 22.4729 30.0632 22.3164V19.6156C30.9458 19.1649 31.6899 18.4837 32.2168 17.6444C32.7437 16.805 33.0309 15.8388 33.0532 14.848Z" stroke="#962C52" stroke-width="1.5" stroke-linecap="round" stroke-linejoin="round"/>
</svg>
