<svg width="40" height="40" viewBox="0 0 40 40" fill="none" xmlns="http://www.w3.org/2000/svg">
<path d="M20.9559 37.059C20.3412 37.2961 19.6603 37.2961 19.0457 37.059C14.2455 35.1768 10.1238 31.8919 7.218 27.6326C4.31225 23.3734 2.75728 18.3374 2.75586 13.1814V5.40794C2.75586 4.70431 3.03538 4.02949 3.53292 3.53195C4.03047 3.0344 4.70528 2.75488 5.40892 2.75488H34.5926C35.2962 2.75488 35.971 3.0344 36.4686 3.53195C36.9661 4.02949 37.2457 4.70431 37.2457 5.40794V13.1549C37.2496 18.3154 35.6971 23.3572 32.791 27.6217C29.8849 31.8862 25.7603 35.1751 20.9559 37.059Z" fill="#F8F6F7"/>
<path d="M8.95312 29.8958C11.6822 33.0714 15.1471 35.5307 19.0454 37.0591C19.66 37.2963 20.3409 37.2963 20.9556 37.0591C24.8538 35.5307 28.3187 33.0714 31.0478 29.8958C29.8374 28.0748 28.1952 26.5816 26.2677 25.5493C24.3401 24.517 22.1871 23.9777 20.0005 23.9795C17.8139 23.9777 15.6608 24.517 13.7333 25.5493C11.8057 26.5816 10.1635 28.0748 8.95312 29.8958Z" fill="white"/>
<path d="M20.9559 37.059C20.3412 37.2961 19.6603 37.2961 19.0457 37.059C14.2455 35.1768 10.1238 31.8919 7.218 27.6326C4.31225 23.3734 2.75728 18.3374 2.75586 13.1814V5.40794C2.75586 4.70431 3.03538 4.02949 3.53292 3.53195C4.03047 3.0344 4.70528 2.75488 5.40892 2.75488H34.5926C35.2962 2.75488 35.971 3.0344 36.4686 3.53195C36.9661 4.02949 37.2456 4.70431 37.2456 5.40794V13.1549C37.2496 18.3154 35.6971 23.3572 32.791 27.6217C29.8849 31.8862 25.7603 35.1751 20.9559 37.059Z" stroke="#962C52" stroke-width="1.5" stroke-linecap="round" stroke-linejoin="round"/>
<path d="M8.95312 29.8958C10.1635 28.0748 11.8057 26.5816 13.7333 25.5493C15.6608 24.517 17.8139 23.9777 20.0005 23.9795C24.6088 23.9795 28.668 26.3301 31.0478 29.8958" stroke="#962C52" stroke-width="1.5" stroke-linecap="round" stroke-linejoin="round"/>
<path d="M20.0006 19.9998C20.7845 19.9998 21.5608 19.8454 22.285 19.5454C23.0093 19.2454 23.6673 18.8057 24.2216 18.2514C24.7759 17.6971 25.2156 17.039 25.5156 16.3148C25.8156 15.5906 25.97 14.8143 25.97 14.0304C25.97 13.2465 25.8156 12.4703 25.5156 11.746C25.2156 11.0218 24.7759 10.3637 24.2216 9.80943C23.6673 9.25512 23.0093 8.81542 22.285 8.51543C21.5608 8.21544 20.7845 8.06104 20.0006 8.06104C18.4175 8.06104 16.8991 8.68995 15.7796 9.80943C14.6602 10.9289 14.0312 12.4472 14.0312 14.0304C14.0312 15.6136 14.6602 17.1319 15.7796 18.2514C16.8991 19.3709 18.4175 19.9998 20.0006 19.9998Z" fill="white"/>
<path d="M20.0006 19.9998C20.7845 19.9998 21.5608 19.8454 22.285 19.5454C23.0093 19.2454 23.6673 18.8057 24.2216 18.2514C24.7759 17.6971 25.2156 17.039 25.5156 16.3148C25.8156 15.5906 25.97 14.8143 25.97 14.0304C25.97 13.2465 25.8156 12.4703 25.5156 11.746C25.2156 11.0218 24.7759 10.3637 24.2216 9.80943C23.6673 9.25512 23.0093 8.81542 22.285 8.51543C21.5608 8.21544 20.7845 8.06104 20.0006 8.06104C18.4175 8.06104 16.8991 8.68995 15.7796 9.80943C14.6602 10.9289 14.0312 12.4472 14.0312 14.0304C14.0312 15.6136 14.6602 17.1319 15.7796 18.2514C16.8991 19.3709 18.4175 19.9998 20.0006 19.9998Z" stroke="#962C52" stroke-width="1.5" stroke-linecap="round" stroke-linejoin="round"/>
</svg>
