<svg width="24" height="24" viewBox="0 0 24 24" fill="none" xmlns="http://www.w3.org/2000/svg">
<path d="M21.0077 2.69154C20.3783 2.94761 2.51522 10.7046 2.51522 10.7046C2.51522 10.7046 1.6501 11.0093 1.71872 11.572C1.78734 12.1348 2.49316 12.3923 2.49316 12.3923L7.09078 13.9863C7.09078 13.9863 8.47889 18.6749 8.7524 19.5647C9.0259 20.456 9.24451 20.4768 9.24451 20.4768C9.49841 20.591 9.73074 20.4089 9.73074 20.4089L12.7015 17.6189L17.3325 21.2758C18.5843 21.8386 19.0397 20.6664 19.0397 20.6664L22.2301 3.83095C22.5124 2.52828 21.6723 2.42208 21.0077 2.69154Z" stroke="#962C52" stroke-width="1.5" stroke-miterlimit="10"/>
<path d="M7 14L19 6L10.5 16" stroke="#962C52" stroke-width="1.5" stroke-miterlimit="10" stroke-linecap="round" stroke-linejoin="round"/>
<path d="M9.42773 19.7142L10.2849 16.2856L12.8563 17.5714" stroke="#962C52" stroke-width="1.5" stroke-miterlimit="10" stroke-linecap="round" stroke-linejoin="round"/>
</svg>
