<svg width="24" height="24" viewBox="0 0 24 24" fill="none" xmlns="http://www.w3.org/2000/svg">
<path d="M3.72965 9.56562C3.18137 8.71568 2.94254 7.70284 3.05336 6.69749C3.16417 5.69214 3.61785 4.75563 4.33808 4.0455L4.94374 3.42462C5.22225 3.15241 5.59624 3 5.98568 3C6.37513 3 6.74911 3.15241 7.02762 3.42462L9.63557 6.06024C9.90691 6.33641 10.059 6.70809 10.059 7.09526C10.059 7.48243 9.90691 7.85411 9.63557 8.13028C9.36336 8.40879 9.21094 8.78277 9.21094 9.17222C9.21094 9.56167 9.36336 9.93565 9.63557 10.2142L13.7757 14.3529C13.9118 14.491 14.074 14.6006 14.2529 14.6755C14.4317 14.7503 14.6237 14.7889 14.8176 14.7889C15.0115 14.7889 15.2035 14.7503 15.3823 14.6755C15.5612 14.6006 15.7234 14.491 15.8595 14.3529C16.1357 14.0815 16.5074 13.9295 16.8946 13.9295C17.2817 13.9295 17.6534 14.0815 17.9296 14.3529L20.55 16.976C20.8222 17.2545 20.9746 17.6285 20.9746 18.018C20.9746 18.4074 20.8222 18.7814 20.55 19.0599L19.9277 19.667C19.2174 20.3864 18.2811 20.8395 17.2761 20.95C16.2711 21.0605 15.2587 20.8218 14.409 20.274C10.1992 17.4175 6.5753 13.7828 3.72965 9.56562Z" fill="#F8F6F7"/>
<path d="M3.72965 9.56562C3.18137 8.71568 2.94255 7.70284 3.05336 6.69749C3.16417 5.69214 3.61785 4.75563 4.33808 4.0455L4.94374 3.42462C5.22225 3.15241 5.59624 3 5.98568 3C6.37513 3 6.74911 3.15241 7.02762 3.42462L9.63557 6.06024C9.90691 6.33641 10.059 6.70809 10.059 7.09526C10.059 7.48243 9.90691 7.85411 9.63557 8.13028C9.36336 8.40879 9.21094 8.78277 9.21094 9.17222C9.21094 9.56167 9.36336 9.93565 9.63557 10.2142L13.7757 14.3529C13.9118 14.491 14.074 14.6006 14.2529 14.6755C14.4317 14.7503 14.6237 14.7889 14.8176 14.7889C15.0115 14.7889 15.2035 14.7503 15.3823 14.6755C15.5612 14.6006 15.7234 14.491 15.8595 14.3529C16.1357 14.0815 16.5074 13.9295 16.8946 13.9295C17.2817 13.9295 17.6534 14.0815 17.9296 14.3529L20.55 16.976C20.8222 17.2545 20.9746 17.6285 20.9746 18.018C20.9746 18.4074 20.8222 18.7814 20.55 19.0599L19.9277 19.667C19.2174 20.3864 18.2811 20.8395 17.2761 20.95C16.2711 21.0605 15.2587 20.8218 14.409 20.274C10.1992 17.4175 6.5753 13.7828 3.72965 9.56562Z" stroke="#962C52" stroke-width="1.5" stroke-linecap="round" stroke-linejoin="round"/>
</svg>
