<svg width="40" height="40" viewBox="0 0 40 40" fill="none" xmlns="http://www.w3.org/2000/svg">
<path d="M9.0728 30.8593L2.75586 32.5493L8.60321 22.4199L15.8408 28.3867L10.7681 37.1736L9.0728 30.8593Z" fill="white"/>
<path d="M30.9255 30.8591L37.2451 32.5517L31.3977 22.4224L24.1602 28.3891L29.2328 37.176L30.9255 30.8591Z" fill="white"/>
<path d="M31.4348 22.4858L37.245 32.5516L30.9254 30.8589L29.2328 37.1758L24.1973 28.4499" stroke="#962C52" stroke-width="1.5" stroke-linecap="round" stroke-linejoin="round"/>
<path d="M33.1409 15.9728C33.1409 19.46 31.7556 22.8044 29.2898 25.2702C26.8239 27.7361 23.4795 29.1214 19.9923 29.1214C16.5051 29.1214 13.1607 27.7361 10.6949 25.2702C8.22904 22.8044 6.84375 19.46 6.84375 15.9728C6.84375 12.4856 8.22904 9.14118 10.6949 6.67535C13.1607 4.20951 16.5051 2.82422 19.9923 2.82422C23.4795 2.82422 26.8239 4.20951 29.2898 6.67535C31.7556 9.14118 33.1409 12.4856 33.1409 15.9728Z" fill="#F8F6F7"/>
<path d="M33.1409 15.9728C33.1409 19.46 31.7556 22.8044 29.2898 25.2702C26.8239 27.7361 23.4795 29.1214 19.9923 29.1214C16.5051 29.1214 13.1607 27.7361 10.6949 25.2702C8.22904 22.8044 6.84375 19.46 6.84375 15.9728C6.84375 12.4856 8.22904 9.14118 10.6949 6.67535C13.1607 4.20951 16.5051 2.82422 19.9923 2.82422C23.4795 2.82422 26.8239 4.20951 29.2898 6.67535C31.7556 9.14118 33.1409 12.4856 33.1409 15.9728Z" fill="#F8F6F7" stroke="#962C52" stroke-width="1.5" stroke-linecap="round" stroke-linejoin="round"/>
<path d="M20.5315 8.83338L22.3436 12.4787C22.3838 12.5706 22.4478 12.6503 22.5289 12.7095C22.61 12.7687 22.7053 12.8053 22.8052 12.8156L26.8299 13.4258C26.9451 13.4405 27.0536 13.4878 27.1429 13.5621C27.2321 13.6364 27.2983 13.7346 27.3337 13.8452C27.3691 13.9558 27.3722 14.0742 27.3426 14.1864C27.313 14.2987 27.2521 14.4003 27.1668 14.4791L24.1927 17.2993C24.1481 17.384 24.1248 17.4782 24.1248 17.5739C24.1248 17.6696 24.1481 17.7638 24.1927 17.8485L24.7631 21.8493C24.7879 21.9652 24.7783 22.0859 24.7356 22.1965C24.6929 22.3071 24.6189 22.4028 24.5227 22.4721C24.4265 22.5413 24.3121 22.581 24.1937 22.5863C24.0753 22.5916 23.9578 22.5623 23.8558 22.502L20.2742 20.6077C20.1816 20.5659 20.0812 20.5443 19.9797 20.5443C19.8781 20.5443 19.7778 20.5659 19.6852 20.6077L16.1036 22.502C16.0016 22.5607 15.8848 22.5887 15.7674 22.5826C15.6499 22.5765 15.5366 22.5365 15.4413 22.4675C15.346 22.3986 15.2726 22.3035 15.2301 22.1938C15.1876 22.0842 15.1776 21.9645 15.2015 21.8493L15.8754 17.8485C15.9046 17.7553 15.9102 17.6564 15.8917 17.5605C15.8732 17.4646 15.8311 17.3749 15.7693 17.2993L12.7978 14.4579C12.7181 14.3781 12.662 14.2777 12.6358 14.168C12.6096 14.0582 12.6144 13.9433 12.6496 13.8361C12.6848 13.7289 12.749 13.6336 12.8351 13.5607C12.9212 13.4878 13.0259 13.4402 13.1374 13.4232L17.1621 12.8368C17.262 12.8265 17.3573 12.7899 17.4384 12.7307C17.5195 12.6715 17.5835 12.5919 17.6238 12.4999L19.4358 8.85726C19.484 8.75379 19.5603 8.66593 19.656 8.60366C19.7517 8.54139 19.8629 8.50721 19.977 8.505C20.0912 8.50279 20.2036 8.53264 20.3017 8.59115C20.3997 8.64967 20.4793 8.73186 20.5315 8.83338Z" fill="white"/>
<path d="M20.5315 8.83338L22.3436 12.4787C22.3838 12.5706 22.4478 12.6503 22.5289 12.7095C22.61 12.7687 22.7053 12.8053 22.8052 12.8156L26.8299 13.4258C26.9451 13.4406 27.0536 13.4878 27.1429 13.5621C27.2321 13.6364 27.2983 13.7346 27.3337 13.8452C27.3691 13.9558 27.3722 14.0742 27.3426 14.1864C27.313 14.2987 27.2521 14.4003 27.1668 14.4791L24.1927 17.2993C24.1481 17.384 24.1248 17.4782 24.1248 17.5739C24.1248 17.6696 24.1481 17.7638 24.1927 17.8485L24.7631 21.8493C24.7879 21.9652 24.7783 22.0859 24.7356 22.1965C24.6929 22.3071 24.6189 22.4028 24.5227 22.4721C24.4265 22.5413 24.3121 22.581 24.1937 22.5863C24.0753 22.5916 23.9578 22.5623 23.8558 22.502L20.2742 20.6077C20.1816 20.5659 20.0812 20.5443 19.9797 20.5443C19.8781 20.5443 19.7778 20.5659 19.6852 20.6077L16.1036 22.502C16.0016 22.5607 15.8848 22.5887 15.7674 22.5826C15.6499 22.5765 15.5366 22.5365 15.4413 22.4675C15.346 22.3986 15.2726 22.3035 15.2301 22.1938C15.1876 22.0842 15.1776 21.9645 15.2015 21.8493L15.8754 17.8485C15.9046 17.7553 15.9102 17.6564 15.8917 17.5605C15.8732 17.4646 15.8311 17.3749 15.7693 17.2993L12.7978 14.4579C12.7181 14.3781 12.662 14.2777 12.6358 14.168C12.6096 14.0582 12.6144 13.9433 12.6496 13.8361C12.6848 13.7289 12.749 13.6336 12.8351 13.5607C12.9212 13.4878 13.0259 13.4402 13.1374 13.4232L17.1621 12.8368C17.262 12.8265 17.3573 12.7899 17.4384 12.7307C17.5195 12.6715 17.5835 12.5919 17.6238 12.4999L19.4358 8.85726C19.484 8.75379 19.5603 8.66593 19.656 8.60366C19.7517 8.54139 19.8629 8.50721 19.977 8.505C20.0912 8.50279 20.2036 8.53264 20.3017 8.59115C20.3997 8.64967 20.4793 8.73186 20.5315 8.83338Z" stroke="#962C52" stroke-width="1.5" stroke-linecap="round" stroke-linejoin="round"/>
<path d="M8.57137 22.478L2.75586 32.549L9.0728 30.8564L10.7681 37.176L15.8089 28.4421" stroke="#962C52" stroke-width="1.5" stroke-linecap="round" stroke-linejoin="round"/>
</svg>
