<svg width="24" height="24" viewBox="0 0 24 24" fill="none" xmlns="http://www.w3.org/2000/svg">
<g clip-path="url(#clip0_346_4079)">
<path d="M4.0401 16.7754L1.65234 22.3468H22.3462L19.9585 16.7754H4.0401Z" fill="white"/>
<path d="M19.1625 8.8161C19.1625 13.5916 11.9992 19.163 11.9992 19.163C11.9992 19.163 4.83594 13.5916 4.83594 8.8161C4.83594 4.91451 8.09761 1.65283 11.9992 1.65283C15.9008 1.65283 19.1625 4.91451 19.1625 8.8161Z" fill="#F8F6F7"/>
<path d="M11.9991 11.2037C12.3126 11.2037 12.6231 11.142 12.9128 11.022C13.2025 10.902 13.4658 10.7261 13.6875 10.5044C13.9092 10.2827 14.0851 10.0194 14.2051 9.72973C14.3251 9.44004 14.3868 9.12954 14.3868 8.81598C14.3868 8.50241 14.3251 8.19192 14.2051 7.90222C14.0851 7.61253 13.9092 7.3493 13.6875 7.12758C13.4658 6.90586 13.2025 6.72998 12.9128 6.60998C12.6231 6.48998 12.3126 6.42822 11.9991 6.42822C11.3658 6.42822 10.7585 6.67979 10.3107 7.12758C9.86289 7.57537 9.61133 8.18271 9.61133 8.81598C9.61133 9.44925 9.86289 10.0566 10.3107 10.5044C10.7585 10.9522 11.3658 11.2037 11.9991 11.2037Z" fill="white"/>
<path d="M19.1625 8.8161C19.1625 13.5916 11.9992 19.163 11.9992 19.163C11.9992 19.163 4.83594 13.5916 4.83594 8.8161C4.83594 4.91451 8.09761 1.65283 11.9992 1.65283C15.9008 1.65283 19.1625 4.91451 19.1625 8.8161Z" stroke="#962C52" stroke-width="1.5" stroke-linecap="round" stroke-linejoin="round"/>
<path d="M11.9991 11.2037C12.3126 11.2037 12.6231 11.142 12.9128 11.022C13.2025 10.902 13.4658 10.7261 13.6875 10.5044C13.9092 10.2827 14.0851 10.0194 14.2051 9.72973C14.3251 9.44004 14.3868 9.12954 14.3868 8.81598C14.3868 8.50241 14.3251 8.19192 14.2051 7.90222C14.0851 7.61253 13.9092 7.3493 13.6875 7.12758C13.4658 6.90586 13.2025 6.72998 12.9128 6.60998C12.6231 6.48998 12.3126 6.42822 11.9991 6.42822C11.3658 6.42822 10.7585 6.67979 10.3107 7.12758C9.86289 7.57537 9.61133 8.18271 9.61133 8.81598C9.61133 9.44925 9.86289 10.0566 10.3107 10.5044C10.7585 10.9522 11.3658 11.2037 11.9991 11.2037Z" stroke="#962C52" stroke-width="1.5" stroke-linecap="round" stroke-linejoin="round"/>
<path d="M18.4892 16.7754H19.9585L22.3462 22.3468H1.65234L4.0401 16.7754H5.50936" stroke="#962C52" stroke-width="1.5" stroke-linecap="round" stroke-linejoin="round"/>
</g>
<defs>
<clipPath id="clip0_346_4079">
<rect width="24" height="24" fill="white"/>
</clipPath>
</defs>
</svg>
