<svg width="24" height="24" viewBox="0 0 24 24" fill="none" xmlns="http://www.w3.org/2000/svg">
<g clip-path="url(#clip0_688_2942)">
<path d="M9.16919 7.21053C8.93927 6.66477 8.70551 6.73869 8.53127 6.73005C8.36615 6.72237 8.17751 6.71997 7.98839 6.71997C7.79927 6.71997 7.49255 6.79005 7.23239 7.07037C6.97223 7.35069 6.24023 8.02749 6.24023 9.40509C6.24023 10.7827 7.25591 12.1128 7.39751 12.3C7.53959 12.4867 9.39623 15.3134 12.2393 16.5259C12.9156 16.8139 13.4436 16.9862 13.855 17.1153C14.5337 17.3284 15.1519 17.2982 15.6406 17.2262C16.1849 17.146 17.3177 16.5489 17.5538 15.8956C17.79 15.2419 17.79 14.6817 17.719 14.5651C17.6479 14.4484 17.4588 14.3784 17.1756 14.2382C16.8924 14.098 15.4985 13.4208 15.2383 13.3281C14.9782 13.2345 14.7895 13.188 14.6004 13.4683C14.4113 13.7486 13.8684 14.3784 13.7033 14.5656C13.5382 14.7523 13.3726 14.7758 13.0894 14.6356C12.8062 14.4955 11.8922 14.2003 10.8103 13.2465C9.96743 12.5044 9.39863 11.5881 9.23351 11.3078C9.06839 11.0275 9.21576 10.8763 9.35784 10.7366C9.48552 10.6109 9.64103 10.4097 9.78311 10.2461C9.9252 10.0824 9.97224 9.96573 10.0663 9.77901C10.1604 9.59229 10.1134 9.42861 10.0423 9.28845C9.97223 9.14829 9.40535 7.77117 9.16919 7.21053Z" stroke="#962C52" stroke-width="1.5" stroke-miterlimit="10"/>
<path d="M11.9995 1.43994C6.16745 1.43994 1.43945 6.16794 1.43945 11.9999C1.43945 13.9545 1.97273 15.7843 2.89865 17.3543L1.43945 22.5599L6.85097 21.2193C8.37449 22.0718 10.1294 22.5599 11.9995 22.5599C17.8315 22.5599 22.5595 17.8319 22.5595 11.9999C22.5595 6.16794 17.8315 1.43994 11.9995 1.43994Z" stroke="#962C52" stroke-width="1.5" stroke-miterlimit="10" stroke-linejoin="round"/>
</g>
<defs>
<clipPath id="clip0_688_2942">
<rect width="24" height="24" fill="white"/>
</clipPath>
</defs>
</svg>
