<svg width="24" height="24" viewBox="0 0 24 24" fill="none" xmlns="http://www.w3.org/2000/svg">
<path d="M20.4611 4H3.53842C3.13041 4 2.7391 4.16054 2.45059 4.44631C2.16208 4.73208 2 5.11967 2 5.52381V18.4762C2 18.8803 2.16208 19.2679 2.45059 19.5537C2.7391 19.8395 3.13041 20 3.53842 20H20.4611C20.8691 20 21.2604 19.8395 21.5489 19.5537C21.8374 19.2679 21.9995 18.8803 21.9995 18.4762V5.52381C21.9995 5.11967 21.8374 4.73208 21.5489 4.44631C21.2604 4.16054 20.8691 4 20.4611 4Z" fill="#F8F6F7"/>
<path d="M20.4611 4H3.53842C3.13041 4 2.7391 4.16054 2.45059 4.44631C2.16208 4.73208 2 5.11967 2 5.52381V18.4762C2 18.8803 2.16208 19.2679 2.45059 19.5537C2.7391 19.8395 3.13041 20 3.53842 20H20.4611C20.8691 20 21.2604 19.8395 21.5489 19.5537C21.8374 19.2679 21.9995 18.8803 21.9995 18.4762V5.52381C21.9995 5.11967 21.8374 4.73208 21.5489 4.44631C21.2604 4.16054 20.8691 4 20.4611 4Z" stroke="#962C52" stroke-width="1.5" stroke-linecap="round" stroke-linejoin="round"/>
<path d="M2 5.90479L11.0152 13.5238C11.2916 13.7519 11.64 13.8768 11.9997 13.8768C12.3595 13.8768 12.7079 13.7519 12.9843 13.5238L21.9995 5.90479" stroke="#962C52" stroke-width="1.5" stroke-linecap="round" stroke-linejoin="round"/>
</svg>
