<svg width="24" height="24" viewBox="0 0 24 24" fill="none" xmlns="http://www.w3.org/2000/svg">
<g clip-path="url(#clip0_987_4466)">
<path d="M13.0529 12.022L19.2744 5.78863C19.3939 5.64249 19.455 5.45696 19.4458 5.26813C19.4366 5.07931 19.3576 4.90068 19.2244 4.767C19.0912 4.63332 18.9132 4.55414 18.725 4.54486C18.5368 4.53559 18.3519 4.59688 18.2063 4.71682L11.9941 10.9596L5.78201 4.71682C5.63637 4.59688 5.45148 4.53559 5.26329 4.54486C5.07511 4.55414 4.89709 4.63332 4.76387 4.767C4.63064 4.90068 4.55173 5.07931 4.54249 5.26813C4.53325 5.45696 4.59433 5.64249 4.71386 5.78863L10.9354 12.022L4.71386 18.2554C4.5731 18.398 4.49414 18.5906 4.49414 18.7913C4.49414 18.992 4.5731 19.1846 4.71386 19.3272C4.85714 19.4662 5.04864 19.5439 5.24794 19.5439C5.44723 19.5439 5.63874 19.4662 5.78201 19.3272L11.9941 13.0844L18.2063 19.3272C18.3495 19.4662 18.541 19.5439 18.7403 19.5439C18.9396 19.5439 19.1311 19.4662 19.2744 19.3272C19.4152 19.1846 19.4941 18.992 19.4941 18.7913C19.4941 18.5906 19.4152 18.398 19.2744 18.2554L13.0529 12.022Z" fill="#1B1743"/>
</g>
<defs>
<clipPath id="clip0_987_4466">
<rect width="24" height="24" fill="white"/>
</clipPath>
</defs>
</svg>
