<svg width="560" height="540" viewBox="0 0 560 540" fill="none" xmlns="http://www.w3.org/2000/svg">
<path d="M499.738 355.887C478.176 400.788 440.119 447.428 394.067 456.602C324.473 470.468 308.367 530.785 189.887 509.221C171.412 505.857 154.632 500.585 139.475 493.71C131.332 490.019 123.653 485.843 116.459 481.256C51.0887 439.709 24.1864 363.849 31.0437 289.138C40.0392 190.88 105.852 152.233 148.228 130.11C190.604 107.997 251.35 8.52663 367.997 28.678C385.777 31.7571 403.242 36.9241 419.821 44.5903C457.657 62.0527 494.177 94.4046 512.231 136.996C513.59 140.191 514.854 143.449 516.044 146.76C539.197 211.432 529.137 294.674 499.738 355.887Z" fill="#D3D3E3"/>
<g filter="url(#filter0_dddd_534_7001)">
<path d="M499.738 355.887C478.176 400.788 440.119 447.428 394.067 456.602C324.473 470.468 308.367 530.785 189.887 509.221C171.412 505.857 154.632 500.585 139.475 493.71C131.332 490.019 123.653 485.843 116.459 481.256C51.0887 439.709 24.1864 363.849 31.0437 289.138C40.0392 190.88 105.852 152.233 148.228 130.11C190.604 107.997 251.35 8.52663 367.997 28.678C385.777 31.7571 403.242 36.9241 419.821 44.5903C457.657 62.0527 494.177 94.4046 512.231 136.996C513.59 140.191 514.854 143.449 516.044 146.76C539.197 211.432 529.137 294.674 499.738 355.887Z" fill="white"/>
</g>
<path d="M502.118 475.763L58.5 475.763" stroke="#1B1743" stroke-width="1.5" stroke-linecap="round" stroke-linejoin="round"/>
<path d="M529.473 475.763H509.797" stroke="#1B1743" stroke-width="1.5" stroke-linecap="round" stroke-linejoin="round"/>
<path d="M507.469 265.053C499.074 267.542 479.661 264.663 479.64 264.663C479.44 264.632 485.423 252.431 485.886 251.704C491.279 243.289 506.637 230.213 517.444 233.071C525.228 235.137 528.641 243.616 525.923 250.86C523.143 258.252 514.621 262.944 507.469 265.053Z" fill="#D3D3E3"/>
<path d="M326.191 256.923C326.012 257.007 324.274 243.52 324.252 242.666C324.116 232.67 329.709 213.278 340.305 209.703C347.932 207.119 355.463 212.318 357.18 219.858C358.939 227.566 354.41 236.171 349.617 241.886C343.982 248.593 326.201 256.923 326.191 256.923Z" fill="#D3D3E3"/>
<path d="M284.635 220.849C290.492 224.139 304.333 225.562 307.767 225.868C309.484 228.22 311.285 230.75 313.213 233.598C316.573 238.628 320.312 244.332 323.967 250.807C324.947 252.526 325.926 254.424 326.906 256.238C324.61 253.517 321.408 249.837 321.06 249.51C314.613 243.552 298.655 235.844 290.092 240.684C283.93 244.164 282.908 252.146 286.826 257.693C290.829 263.366 299.119 265.454 305.66 265.665C312.496 265.886 325.726 260.593 328.612 259.401C330.73 263.461 332.815 267.679 334.732 272.213C338.05 280.016 341.179 288.516 343.233 297.563C342.948 297.69 343.001 297.658 342.717 297.785C340.905 295.022 336.965 289.296 336.586 288.853C330.835 282.22 315.814 272.804 306.777 276.674C300.267 279.458 298.381 287.271 301.668 293.219C305.028 299.293 313.033 302.287 319.522 303.215C327.001 304.291 342.959 299.535 343.559 299.356C345.382 307.813 346.603 316.639 347.341 325.676C347.889 332.224 348.162 338.878 348.394 345.553C347.172 343.581 342.011 336.052 341.579 335.557C335.817 328.924 320.807 319.507 311.769 323.377C305.26 326.161 303.374 333.975 306.661 339.922C310.021 345.996 318.026 348.991 324.515 349.919C331.815 350.963 347.13 346.481 348.415 346.101C348.51 349.138 348.626 352.165 348.7 355.202C348.952 365.125 349.153 375.079 349.658 384.896C349.827 388.292 350.132 391.645 350.406 394.988C348.489 392.077 344.887 386.858 344.528 386.446C338.767 379.814 323.756 370.397 314.719 374.267C308.209 377.051 306.324 384.865 309.61 390.823C312.97 396.896 320.976 399.891 327.454 400.819C333.974 401.758 346.93 398.267 350.564 397.234C351.07 402.802 351.702 408.327 352.586 413.726C353.018 416.046 353.303 418.44 353.84 420.644C354.335 422.879 354.83 425.083 355.315 427.276C356.484 431.769 357.548 435.944 358.738 440.099C359.328 442.208 359.928 444.169 360.518 446.215C359.012 442.978 356.547 437.895 356.263 437.452C351.575 430.029 338.156 418.44 328.644 420.897C321.787 422.668 318.743 430.102 321.081 436.482C323.483 442.999 330.94 447.164 337.208 449.073C344.118 451.171 359.433 449.189 361.298 448.946C362.783 453.923 364.279 458.753 365.753 463.256C366.954 466.925 368.123 470.363 369.271 473.674H375.728C374.285 469.836 372.79 465.744 371.262 461.379C369.84 457.351 368.397 453.048 366.954 448.619C368.681 447.934 381.985 442.493 387.399 437.421C392.929 441.059 399.228 444.159 400.345 444.697C398.839 449.663 397.427 454.524 396.184 459.09C394.762 464.279 393.509 469.14 392.382 473.685H398.691C399.629 469.562 400.64 465.228 401.82 460.577C402.852 456.423 404.021 452.046 405.264 447.554C407.15 447.944 422.244 450.971 429.28 449.357C435.674 447.892 443.406 444.254 446.25 437.927C449.03 431.726 446.513 424.092 439.793 421.856C430.47 418.746 416.282 429.375 411.089 436.45C410.752 436.904 407.434 442.704 405.791 445.698C406.549 442.988 407.297 440.289 408.14 437.484C409.309 433.435 410.689 429.196 411.995 425.072C412.753 422.964 413.512 420.833 414.281 418.672C415.018 416.478 415.976 414.485 416.83 412.355C418.136 409.266 419.653 406.134 421.148 403.012C425.193 404.457 437.149 408.496 443.479 408.032C450.02 407.557 458.205 405.132 461.976 399.301C465.673 393.596 464.325 385.666 458.026 382.429C449.283 377.937 433.652 386.288 427.447 392.499C427.247 392.7 426.067 394.155 424.698 395.884C426.257 392.879 427.795 389.874 429.47 386.879C434.231 378.39 439.34 369.891 444.427 361.349C445.491 359.567 446.523 357.775 447.577 355.993C450.979 357.226 463.882 361.719 470.518 361.233C477.049 360.759 485.255 358.334 489.015 352.502C492.712 346.797 491.364 338.868 485.065 335.641C476.322 331.159 460.691 339.5 454.487 345.711C454.265 345.933 452.865 347.662 451.316 349.623C454.013 344.942 456.646 340.249 459.111 335.504C463.43 327.216 467.243 318.811 470.287 310.386C471.477 310.829 486.508 316.396 493.882 315.859C500.423 315.384 508.607 312.959 512.378 307.127C516.076 301.423 514.727 293.493 508.428 290.256C499.686 285.774 484.054 294.115 477.85 300.326C477.407 300.769 472.393 307.075 470.676 309.384C470.708 309.279 470.761 309.184 470.792 309.078C473.91 300.199 475.785 291.342 477.155 282.853C478.534 274.385 479.124 266.297 479.461 258.842C479.82 251.376 479.693 244.533 479.535 238.48C479.419 235.2 479.261 232.206 479.072 229.411C479.103 229.432 479.24 229.538 479.24 229.538C479.388 229.654 483.496 218.434 483.675 217.696C485.739 209.154 484.718 191.45 476.333 186.314C470.297 182.613 462.84 185.597 459.89 191.724C456.888 197.977 459.09 206.244 462.081 212.075C465.157 218.054 475.912 226.88 478.608 229.042C478.735 231.953 478.85 235.053 478.893 238.49C478.924 244.533 478.893 251.366 478.376 258.779C478.24 260.761 478.018 262.881 477.839 264.937C477.418 261.405 476.786 256.554 476.67 256.1C474.574 247.57 465.515 232.322 455.709 231.636C448.651 231.141 443.406 237.225 443.606 244.027C443.816 250.965 449.578 257.282 454.929 261.078C460.512 265.032 474.458 267.932 477.523 268.533C477.049 273.088 476.459 277.76 475.564 282.589C474.026 290.941 471.962 299.756 468.686 308.435C468.38 308.382 468.433 308.393 468.138 308.34C468.148 305.029 468.022 298.08 467.948 297.51C466.8 288.8 459.469 272.656 449.799 270.895C442.837 269.619 436.959 275.102 436.411 281.872C435.864 288.79 440.888 295.707 445.786 300.073C451.432 305.092 467.369 309.953 467.959 310.133C464.809 318.189 460.975 326.224 456.604 334.175C453.454 339.933 450.02 345.637 446.523 351.332C446.597 349.012 446.429 339.88 446.344 339.226C445.196 330.516 437.865 314.372 428.195 312.6C421.233 311.324 415.344 316.808 414.807 323.578C414.26 330.506 419.284 337.412 424.182 341.768C429.691 346.671 444.933 351.395 446.228 351.785C444.638 354.369 443.068 356.952 441.446 359.536C436.18 367.951 430.871 376.365 425.888 384.833C424.161 387.765 422.56 390.717 420.948 393.67C420.948 390.179 420.822 383.842 420.748 383.304C419.6 374.594 412.269 358.45 402.599 356.678C395.636 355.402 389.759 360.885 389.211 367.655C388.663 374.573 393.688 381.49 398.586 385.845C403.505 390.221 416.24 394.471 419.842 395.62C417.198 400.545 414.681 405.501 412.437 410.489C411.521 412.661 410.436 414.823 409.678 416.953C408.856 419.093 408.045 421.202 407.244 423.301C405.738 427.688 404.327 431.768 403.031 435.892C402.357 437.969 401.777 439.951 401.156 441.976C401.683 438.443 402.431 432.834 402.441 432.317C402.62 423.533 397.817 406.461 388.526 403.255C381.838 400.946 375.191 405.459 373.632 412.081C373.432 412.925 373.327 413.779 373.285 414.633C368.692 420.981 365.953 430.303 365.669 436.124C365.637 436.682 366.059 443.357 366.354 446.763C365.49 444.085 364.626 441.428 363.783 438.612C362.53 434.584 361.34 430.292 360.16 426.127C359.623 423.944 359.086 421.751 358.548 419.526C357.948 417.29 357.664 415.097 357.19 412.851C356.579 409.55 356.115 406.102 355.641 402.675C359.812 401.642 372.01 398.415 377.034 394.534C382.227 390.527 387.726 383.979 387.652 377.04C387.589 370.239 382.101 364.365 375.065 365.156C365.3 366.242 356.863 381.838 355.114 390.453C355.062 390.738 354.872 392.594 354.683 394.798C354.324 391.434 353.956 388.07 353.703 384.654C352.997 374.942 352.576 365.03 352.102 355.096C352.007 353.029 351.881 350.963 351.775 348.896C355.294 348.042 368.534 344.657 373.801 340.597C378.994 336.59 384.492 330.042 384.418 323.103C384.355 316.301 378.867 310.439 371.831 311.219C362.066 312.305 353.629 327.901 351.881 336.516C351.817 336.822 351.607 339.047 351.386 341.525C351.059 336.137 350.659 330.759 350.101 325.444C349.131 316.143 347.678 307.032 345.571 298.322C346.814 298.038 362.414 294.379 368.271 289.855C373.464 285.848 378.962 279.299 378.888 272.361C378.825 265.559 373.337 259.696 366.301 260.477C356.536 261.563 348.099 277.169 346.351 285.774C346.224 286.386 345.519 294.41 345.361 297.289C345.339 297.184 345.318 297.078 345.297 296.973C343.001 287.851 339.683 279.426 336.154 271.58C332.636 263.756 328.665 256.68 324.852 250.28C321.039 243.858 317.163 238.216 313.687 233.25C311.78 230.582 310 228.167 308.304 225.942L308.515 225.963C308.694 225.974 305.944 214.353 305.692 213.636C302.711 205.379 292.093 191.175 282.276 191.513C275.197 191.766 270.626 198.367 271.542 205.105C272.48 211.98 278.874 217.664 284.593 220.87L284.635 220.849Z" fill="#D3D3E3"/>
<path d="M270.909 330.263C265.137 331.972 251.791 329.989 251.781 329.989C251.644 329.968 255.752 321.574 256.068 321.079C259.776 315.3 270.33 306.305 277.756 308.277C283.107 309.701 285.456 315.532 283.581 320.509C281.675 325.592 275.818 328.819 270.899 330.274L270.909 330.263Z" fill="#D3D3E3"/>
<path d="M146.29 324.675C146.163 324.738 144.973 315.469 144.963 314.868C144.868 308.003 148.713 294.664 156.002 292.207C161.247 290.435 166.419 294 167.599 299.188C168.81 304.481 165.692 310.407 162.395 314.33C158.519 318.938 146.3 324.664 146.29 324.664V324.675Z" fill="#D3D3E3"/>
<path d="M117.722 299.873C121.746 302.129 131.258 303.11 133.628 303.321C134.807 304.934 136.04 306.674 137.367 308.636C139.674 312.094 142.244 316.017 144.762 320.467C145.436 321.648 146.11 322.956 146.784 324.2C145.204 322.334 143.002 319.792 142.76 319.571C138.326 315.479 127.36 310.175 121.472 313.497C117.238 315.891 116.532 321.374 119.229 325.191C121.978 329.093 127.676 330.527 132.174 330.675C136.872 330.822 145.973 327.184 147.953 326.372C149.407 329.167 150.839 332.067 152.156 335.177C154.442 340.545 156.591 346.387 158.002 352.597C157.802 352.682 157.844 352.661 157.644 352.745C156.401 350.847 153.694 346.903 153.431 346.608C149.47 342.053 139.147 335.578 132.943 338.235C128.466 340.154 127.171 345.522 129.425 349.613C131.732 353.789 137.241 355.845 141.696 356.489C146.837 357.227 157.812 353.958 158.223 353.842C159.477 359.652 160.309 365.726 160.825 371.937C161.204 376.44 161.394 381.006 161.541 385.603C160.699 384.243 157.149 379.076 156.854 378.728C152.893 374.172 142.571 367.698 136.366 370.355C131.89 372.274 130.594 377.642 132.848 381.733C135.155 385.909 140.664 387.965 145.12 388.608C150.134 389.325 160.667 386.246 161.552 385.983C161.626 388.071 161.699 390.148 161.752 392.236C161.92 399.058 162.068 405.902 162.416 412.651C162.531 414.992 162.742 417.291 162.932 419.589C161.615 417.586 159.14 414.001 158.897 413.716C154.937 409.16 144.614 402.686 138.41 405.343C133.933 407.262 132.638 412.63 134.892 416.721C137.199 420.897 142.708 422.953 147.163 423.596C151.64 424.24 160.551 421.835 163.048 421.129C163.395 424.957 163.827 428.753 164.438 432.465C164.733 434.057 164.933 435.713 165.302 437.221C165.639 438.76 165.976 440.279 166.313 441.776C167.113 444.866 167.851 447.734 168.662 450.592C169.062 452.036 169.483 453.396 169.894 454.788C168.862 452.563 167.166 449.063 166.977 448.767C163.753 443.664 154.526 435.702 147.985 437.379C143.276 438.591 141.18 443.706 142.792 448.092C144.446 452.574 149.575 455.442 153.883 456.75C158.634 458.194 169.157 456.834 170.442 456.655C171.464 460.071 172.486 463.404 173.507 466.493C174.329 469.014 175.14 471.386 175.93 473.653H180.375C179.385 471.017 178.353 468.202 177.299 465.196C176.32 462.423 175.33 459.47 174.339 456.423C175.519 455.948 184.673 452.215 188.391 448.725C192.194 451.224 196.523 453.354 197.292 453.723C196.259 457.14 195.28 460.483 194.427 463.615C193.447 467.179 192.583 470.521 191.814 473.643H196.154C196.797 470.806 197.492 467.832 198.303 464.627C199.009 461.769 199.809 458.764 200.662 455.674C201.958 455.938 212.333 458.026 217.168 456.918C221.561 455.917 226.88 453.418 228.829 449.063C230.746 444.802 229.008 439.551 224.394 438.011C217.99 435.871 208.236 443.178 204.665 448.05C204.433 448.367 202.148 452.353 201.031 454.409C201.558 452.542 202.063 450.697 202.643 448.757C203.454 445.973 204.391 443.052 205.297 440.226C205.813 438.771 206.34 437.305 206.867 435.829C207.372 434.321 208.036 432.95 208.615 431.484C209.521 429.354 210.553 427.203 211.586 425.062C214.366 426.053 222.582 428.827 226.933 428.51C231.43 428.184 237.055 426.517 239.647 422.51C242.185 418.588 241.258 413.136 236.929 410.911C230.914 407.821 220.17 413.568 215.904 417.839C215.767 417.976 214.956 418.978 214.008 420.169C215.072 418.103 216.136 416.036 217.295 413.98C220.56 408.148 224.078 402.296 227.575 396.433C228.302 395.21 229.018 393.976 229.735 392.753C232.073 393.596 240.942 396.686 245.503 396.359C250.001 396.032 255.626 394.366 258.217 390.359C260.755 386.436 259.829 380.984 255.499 378.759C249.485 375.68 238.741 381.417 234.475 385.687C234.327 385.835 233.358 387.037 232.294 388.376C234.148 385.16 235.96 381.933 237.645 378.665C240.616 372.97 243.228 367.192 245.324 361.403C246.146 361.708 256.479 365.536 261.546 365.167C266.043 364.84 271.668 363.174 274.259 359.167C276.798 355.244 275.871 349.793 271.542 347.568C265.527 344.478 254.783 350.225 250.517 354.496C250.212 354.801 246.767 359.135 245.587 360.728C245.608 360.654 245.64 360.591 245.672 360.517C247.81 354.411 249.106 348.327 250.043 342.485C250.991 336.664 251.391 331.096 251.634 325.982C251.886 320.857 251.792 316.144 251.686 311.978C251.613 309.722 251.497 307.666 251.37 305.746C251.391 305.767 251.486 305.841 251.486 305.841C251.581 305.915 254.414 298.207 254.53 297.701C255.952 291.827 255.247 279.658 249.485 276.126C245.335 273.584 240.205 275.63 238.182 279.848C236.118 284.15 237.624 289.834 239.689 293.841C241.806 297.954 249.2 304.017 251.054 305.504C251.149 307.497 251.223 309.637 251.254 311.999C251.275 316.154 251.254 320.847 250.896 325.95C250.801 327.311 250.654 328.766 250.528 330.179C250.243 327.754 249.801 324.421 249.727 324.105C248.284 318.242 242.059 307.76 235.317 307.286C230.461 306.948 226.859 311.124 226.996 315.796C227.143 320.562 231.104 324.906 234.78 327.522C238.614 330.242 248.21 332.235 250.306 332.646C249.98 335.778 249.58 338.995 248.958 342.316C247.905 348.053 246.483 354.116 244.229 360.084C244.018 360.042 244.06 360.053 243.849 360.011C243.849 357.733 243.765 352.956 243.712 352.566C242.922 346.576 237.877 335.483 231.241 334.27C226.459 333.395 222.414 337.16 222.045 341.821C221.666 346.576 225.121 351.332 228.492 354.327C232.368 357.775 243.323 361.118 243.734 361.244C241.574 366.78 238.93 372.306 235.928 377.768C233.758 381.733 231.399 385.645 228.997 389.568C229.05 387.976 228.934 381.702 228.871 381.248C228.081 375.259 223.035 364.165 216.389 362.953C211.596 362.077 207.562 365.842 207.193 370.503C206.814 375.259 210.269 380.014 213.64 383.009C217.432 386.383 227.912 389.631 228.797 389.895C227.702 391.666 226.617 393.449 225.511 395.22C221.898 401.009 218.243 406.788 214.809 412.609C213.618 414.623 212.523 416.658 211.417 418.683C211.417 416.289 211.333 411.923 211.28 411.554C210.49 405.565 205.445 394.471 198.808 393.259C194.016 392.384 189.981 396.148 189.613 400.809C189.234 405.565 192.689 410.32 196.059 413.315C199.44 416.32 208.194 419.241 210.669 420.032C208.847 423.417 207.119 426.823 205.581 430.25C204.949 431.748 204.202 433.224 203.685 434.7C203.127 436.166 202.569 437.621 202.011 439.066C200.978 442.082 199.999 444.887 199.114 447.723C198.65 449.157 198.25 450.507 197.818 451.91C198.176 449.484 198.693 445.625 198.703 445.277C198.83 439.235 195.522 427.498 189.139 425.294C184.536 423.702 179.975 426.813 178.9 431.358C178.763 431.938 178.69 432.518 178.658 433.119C175.509 437.484 173.613 443.885 173.423 447.892C173.402 448.282 173.697 452.869 173.886 455.21C173.297 453.365 172.707 451.541 172.117 449.611C171.253 446.838 170.431 443.885 169.62 441.027C169.252 439.53 168.883 438.022 168.514 436.493C168.104 434.953 167.903 433.445 167.577 431.906C167.156 429.628 166.84 427.266 166.513 424.904C169.378 424.198 177.763 421.973 181.218 419.305C184.789 416.553 188.57 412.05 188.517 407.273C188.475 402.602 184.704 398.563 179.859 399.101C173.149 399.849 167.345 410.574 166.144 416.489C166.102 416.679 165.976 417.955 165.849 419.473C165.607 417.164 165.344 414.855 165.175 412.503C164.691 405.828 164.396 399.016 164.08 392.183C164.017 390.76 163.922 389.336 163.859 387.923C166.271 387.343 175.382 385.013 178.995 382.218C182.566 379.466 186.347 374.963 186.295 370.186C186.253 365.515 182.482 361.476 177.636 362.014C170.927 362.763 165.123 373.487 163.922 379.403C163.88 379.614 163.732 381.143 163.585 382.851C163.364 379.15 163.09 375.448 162.7 371.8C162.036 365.41 161.036 359.146 159.593 353.156C160.446 352.956 171.169 350.446 175.193 347.336C178.763 344.583 182.545 340.081 182.492 335.304C182.45 330.632 178.679 326.594 173.834 327.131C167.124 327.88 161.32 338.604 160.119 344.52C160.035 344.942 159.55 350.457 159.435 352.439C159.414 352.365 159.403 352.292 159.392 352.218C157.812 345.944 155.537 340.154 153.104 334.766C150.692 329.388 147.953 324.527 145.33 320.119C142.708 315.701 140.043 311.831 137.662 308.414C136.356 306.579 135.123 304.924 133.965 303.384H134.112C134.239 303.405 132.343 295.412 132.174 294.917C130.12 289.233 122.831 279.468 116.079 279.711C111.213 279.88 108.074 284.424 108.706 289.054C109.348 293.778 113.751 297.69 117.68 299.894L117.722 299.873Z" fill="#D3D3E3"/>
<path d="M313.58 94.8584H322.955V347.209C322.955 348.169 322.175 348.949 321.217 348.949H315.318C314.36 348.949 313.58 348.169 313.58 347.209V94.8584Z" fill="#1B1743" stroke="#1B1743" stroke-width="1.5" stroke-linecap="round" stroke-linejoin="round"/>
<path d="M319.394 86.3176H232.135C232.135 86.3176 233.8 94.2685 225.731 94.2685C220.254 94.2685 218.189 90.8836 220.854 85.242C222.687 81.351 214.734 86.2965 214.408 91.6955C214.029 97.917 221.886 100.817 228.343 99.7413C234.79 98.6657 236.665 92.9715 236.665 92.9715L319.405 101.429V86.3282L319.394 86.3176Z" fill="#1B1743" stroke="#1B1743" stroke-width="1.5" stroke-linecap="round" stroke-linejoin="round"/>
<path d="M319.395 86.3176H406.654C406.654 86.3176 404.99 94.2685 413.058 94.2685C418.536 94.2685 420.6 90.8836 417.935 85.242C416.103 81.351 424.055 86.2965 424.382 91.6955C424.761 97.917 416.903 100.817 410.446 99.7413C404 98.6657 402.125 92.9715 402.125 92.9715L319.385 101.429V86.3282L319.395 86.3176Z" fill="#1B1743" stroke="#1B1743" stroke-width="1.5" stroke-linecap="round" stroke-linejoin="round"/>
<path d="M316.792 42.7561L312.305 112.869L318.772 122.265L324.228 112.869L319.741 42.7561C319.625 40.9107 316.908 40.9107 316.781 42.7561H316.792Z" fill="#1B1743" stroke="#1B1743" stroke-width="1.5" stroke-linecap="round" stroke-linejoin="round"/>
<path d="M325.505 94.8588C325.505 90.8623 322.271 87.625 318.279 87.625C314.286 87.625 311.053 90.8623 311.053 94.8588C311.053 98.8554 314.286 102.093 318.279 102.093C322.271 102.093 325.505 98.8554 325.505 94.8588Z" fill="#1B1743" stroke="#807D9B" stroke-width="1.5" stroke-linecap="round" stroke-linejoin="round"/>
<path d="M321.037 94.8585C321.037 93.3295 319.805 92.0957 318.277 92.0957C316.75 92.0957 315.518 93.3295 315.518 94.8585C315.518 96.3875 316.75 97.6212 318.277 97.6212C319.805 97.6212 321.037 96.3875 321.037 94.8585Z" fill="#1B1743" stroke="#807D9B" stroke-width="1.5" stroke-linecap="round" stroke-linejoin="round"/>
<path d="M228.87 102.345C227.922 102.683 226.879 102.177 226.542 101.228L225.931 99.5088C225.594 98.5598 226.099 97.5159 227.047 97.1784C227.995 96.841 229.038 97.3471 229.375 98.2962L229.986 100.015C230.323 100.964 229.818 102.008 228.87 102.345Z" fill="white" stroke="#1B1743" stroke-width="1.5" stroke-linecap="round" stroke-linejoin="round"/>
<path d="M225.951 94.0466L227.71 99.0449" stroke="#1B1743" stroke-width="1.5" stroke-linecap="round" stroke-linejoin="round"/>
<path d="M231.325 109.315C230.377 109.653 229.334 109.147 228.997 108.198L228.386 106.479C228.049 105.53 228.554 104.486 229.502 104.148C230.45 103.811 231.493 104.317 231.83 105.266L232.441 106.985C232.778 107.934 232.273 108.978 231.325 109.315Z" fill="white" stroke="#1B1743" stroke-width="1.5" stroke-linecap="round" stroke-linejoin="round"/>
<path d="M228.406 101.027L230.165 106.015" stroke="#1B1743" stroke-width="1.5" stroke-linecap="round" stroke-linejoin="round"/>
<path d="M233.778 116.286C232.83 116.624 231.787 116.117 231.45 115.168L230.839 113.45C230.502 112.5 231.007 111.457 231.955 111.119C232.903 110.782 233.946 111.288 234.283 112.237L234.894 113.956C235.231 114.905 234.726 115.949 233.778 116.286Z" fill="white" stroke="#1B1743" stroke-width="1.5" stroke-linecap="round" stroke-linejoin="round"/>
<path d="M230.861 107.998L232.62 112.996" stroke="#1B1743" stroke-width="1.5" stroke-linecap="round" stroke-linejoin="round"/>
<path d="M236.221 123.256C235.273 123.593 234.23 123.087 233.893 122.138L233.282 120.419C232.945 119.47 233.451 118.426 234.399 118.089C235.347 117.751 236.39 118.258 236.727 119.207L237.338 120.925C237.675 121.874 237.169 122.918 236.221 123.256Z" fill="white" stroke="#1B1743" stroke-width="1.5" stroke-linecap="round" stroke-linejoin="round"/>
<path d="M233.314 114.968L235.063 119.966" stroke="#1B1743" stroke-width="1.5" stroke-linecap="round" stroke-linejoin="round"/>
<path d="M238.676 130.237C237.728 130.575 236.685 130.069 236.348 129.12L235.737 127.401C235.4 126.452 235.906 125.408 236.854 125.07C237.802 124.733 238.845 125.239 239.182 126.188L239.793 127.907C240.13 128.856 239.624 129.9 238.676 130.237Z" fill="white" stroke="#1B1743" stroke-width="1.5" stroke-linecap="round" stroke-linejoin="round"/>
<path d="M235.758 121.949L237.517 126.937" stroke="#1B1743" stroke-width="1.5" stroke-linecap="round" stroke-linejoin="round"/>
<path d="M241.131 137.207C240.183 137.544 239.14 137.038 238.803 136.089L238.192 134.37C237.855 133.421 238.361 132.377 239.309 132.04C240.257 131.703 241.3 132.209 241.637 133.158L242.248 134.877C242.585 135.826 242.079 136.87 241.131 137.207Z" fill="white" stroke="#1B1743" stroke-width="1.5" stroke-linecap="round" stroke-linejoin="round"/>
<path d="M238.213 128.919L239.972 133.917" stroke="#1B1743" stroke-width="1.5" stroke-linecap="round" stroke-linejoin="round"/>
<path d="M243.584 144.178C242.636 144.515 241.594 144.009 241.257 143.06L240.646 141.341C240.309 140.392 240.814 139.348 241.762 139.011C242.71 138.673 243.753 139.179 244.09 140.128L244.701 141.847C245.038 142.796 244.532 143.84 243.584 144.178Z" fill="white" stroke="#1B1743" stroke-width="1.5" stroke-linecap="round" stroke-linejoin="round"/>
<path d="M240.666 135.889L242.425 140.888" stroke="#1B1743" stroke-width="1.5" stroke-linecap="round" stroke-linejoin="round"/>
<path d="M246.028 151.158C245.08 151.496 244.037 150.989 243.7 150.04L243.089 148.322C242.752 147.373 243.257 146.329 244.205 145.991C245.153 145.654 246.196 146.16 246.533 147.109L247.144 148.828C247.481 149.777 246.976 150.821 246.028 151.158Z" fill="white" stroke="#1B1743" stroke-width="1.5" stroke-linecap="round" stroke-linejoin="round"/>
<path d="M243.121 142.859L244.87 147.857" stroke="#1B1743" stroke-width="1.5" stroke-linecap="round" stroke-linejoin="round"/>
<path d="M248.483 158.128C247.535 158.465 246.492 157.959 246.155 157.01L245.544 155.291C245.207 154.342 245.713 153.298 246.661 152.961C247.609 152.623 248.651 153.13 248.988 154.079L249.599 155.797C249.936 156.747 249.431 157.79 248.483 158.128Z" fill="white" stroke="#1B1743" stroke-width="1.5" stroke-linecap="round" stroke-linejoin="round"/>
<path d="M245.564 149.84L247.324 154.838" stroke="#1B1743" stroke-width="1.5" stroke-linecap="round" stroke-linejoin="round"/>
<path d="M250.938 165.099C249.99 165.436 248.947 164.93 248.61 163.981L247.999 162.262C247.662 161.313 248.168 160.269 249.116 159.932C250.064 159.594 251.106 160.1 251.444 161.049L252.054 162.768C252.392 163.717 251.886 164.761 250.938 165.099Z" fill="white" stroke="#1B1743" stroke-width="1.5" stroke-linecap="round" stroke-linejoin="round"/>
<path d="M248.02 156.81L249.779 161.809" stroke="#1B1743" stroke-width="1.5" stroke-linecap="round" stroke-linejoin="round"/>
<path d="M253.391 172.079C252.443 172.417 251.4 171.91 251.063 170.961L250.452 169.242C250.115 168.293 250.621 167.25 251.569 166.912C252.517 166.575 253.56 167.081 253.897 168.03L254.508 169.749C254.845 170.698 254.339 171.742 253.391 172.079Z" fill="white" stroke="#1B1743" stroke-width="1.5" stroke-linecap="round" stroke-linejoin="round"/>
<path d="M250.473 163.78L252.232 168.778" stroke="#1B1743" stroke-width="1.5" stroke-linecap="round" stroke-linejoin="round"/>
<path d="M255.834 179.05C254.886 179.387 253.844 178.881 253.507 177.932L252.896 176.213C252.559 175.264 253.064 174.22 254.012 173.883C254.96 173.545 256.003 174.051 256.34 175.001L256.951 176.719C257.288 177.668 256.782 178.712 255.834 179.05Z" fill="white" stroke="#1B1743" stroke-width="1.5" stroke-linecap="round" stroke-linejoin="round"/>
<path d="M252.928 170.761L254.676 175.749" stroke="#1B1743" stroke-width="1.5" stroke-linecap="round" stroke-linejoin="round"/>
<path d="M258.289 186.02C257.341 186.357 256.299 185.851 255.962 184.902L255.351 183.183C255.014 182.234 255.519 181.19 256.467 180.852C257.415 180.515 258.458 181.021 258.795 181.97L259.406 183.689C259.743 184.638 259.237 185.682 258.289 186.02Z" fill="white" stroke="#1B1743" stroke-width="1.5" stroke-linecap="round" stroke-linejoin="round"/>
<path d="M255.371 177.731L257.13 182.73" stroke="#1B1743" stroke-width="1.5" stroke-linecap="round" stroke-linejoin="round"/>
<path d="M260.745 193C259.797 193.337 258.754 192.831 258.417 191.882L257.806 190.163C257.469 189.214 257.974 188.17 258.922 187.833C259.87 187.496 260.913 188.002 261.25 188.951L261.861 190.67C262.198 191.619 261.693 192.663 260.745 193Z" fill="white" stroke="#1B1743" stroke-width="1.5" stroke-linecap="round" stroke-linejoin="round"/>
<path d="M257.826 184.701L259.585 189.699" stroke="#1B1743" stroke-width="1.5" stroke-linecap="round" stroke-linejoin="round"/>
<path d="M221.94 102.272C222.888 102.609 223.931 102.114 224.268 101.165L224.879 99.4459C225.216 98.4968 224.721 97.4529 223.773 97.1154C222.825 96.778 221.782 97.2736 221.445 98.2226L220.834 99.9415C220.497 100.891 220.992 101.934 221.94 102.272Z" fill="white" stroke="#1B1743" stroke-width="1.5" stroke-linecap="round" stroke-linejoin="round"/>
<path d="M224.889 93.9939L223.119 98.9816" stroke="#1B1743" stroke-width="1.5" stroke-linecap="round" stroke-linejoin="round"/>
<path d="M219.466 109.242C220.414 109.579 221.457 109.083 221.794 108.134L222.405 106.416C222.742 105.467 222.247 104.423 221.299 104.085C220.351 103.748 219.308 104.243 218.971 105.192L218.36 106.911C218.023 107.86 218.518 108.904 219.466 109.242Z" fill="white" stroke="#1B1743" stroke-width="1.5" stroke-linecap="round" stroke-linejoin="round"/>
<path d="M222.414 100.954L220.645 105.952" stroke="#1B1743" stroke-width="1.5" stroke-linecap="round" stroke-linejoin="round"/>
<path d="M216.989 116.202C217.937 116.539 218.98 116.043 219.317 115.094L219.928 113.376C220.265 112.427 219.77 111.383 218.822 111.045C217.874 110.708 216.831 111.203 216.494 112.152L215.883 113.871C215.546 114.82 216.041 115.864 216.989 116.202Z" fill="white" stroke="#1B1743" stroke-width="1.5" stroke-linecap="round" stroke-linejoin="round"/>
<path d="M219.938 107.924L218.158 112.911" stroke="#1B1743" stroke-width="1.5" stroke-linecap="round" stroke-linejoin="round"/>
<path d="M214.515 123.171C215.463 123.509 216.505 123.013 216.842 122.064L217.453 120.345C217.79 119.396 217.295 118.352 216.347 118.015C215.399 117.677 214.357 118.173 214.019 119.122L213.409 120.841C213.071 121.79 213.567 122.834 214.515 123.171Z" fill="white" stroke="#1B1743" stroke-width="1.5" stroke-linecap="round" stroke-linejoin="round"/>
<path d="M217.464 114.884L215.684 119.882" stroke="#1B1743" stroke-width="1.5" stroke-linecap="round" stroke-linejoin="round"/>
<path d="M212.038 130.131C212.986 130.469 214.029 129.973 214.366 129.024L214.977 127.305C215.314 126.356 214.819 125.312 213.871 124.975C212.923 124.637 211.88 125.133 211.543 126.082L210.932 127.801C210.595 128.75 211.09 129.794 212.038 130.131Z" fill="white" stroke="#1B1743" stroke-width="1.5" stroke-linecap="round" stroke-linejoin="round"/>
<path d="M214.987 121.853L213.207 126.841" stroke="#1B1743" stroke-width="1.5" stroke-linecap="round" stroke-linejoin="round"/>
<path d="M209.563 137.102C210.511 137.439 211.554 136.944 211.891 135.995L212.502 134.276C212.839 133.327 212.344 132.283 211.396 131.946C210.448 131.608 209.405 132.104 209.068 133.053L208.457 134.772C208.12 135.721 208.615 136.765 209.563 137.102Z" fill="white" stroke="#1B1743" stroke-width="1.5" stroke-linecap="round" stroke-linejoin="round"/>
<path d="M212.513 128.813L210.732 133.812" stroke="#1B1743" stroke-width="1.5" stroke-linecap="round" stroke-linejoin="round"/>
<path d="M207.089 144.061C208.037 144.398 209.08 143.903 209.417 142.954L210.028 141.235C210.365 140.286 209.87 139.242 208.922 138.904C207.974 138.567 206.931 139.063 206.594 140.012L205.983 141.731C205.646 142.68 206.141 143.724 207.089 144.061Z" fill="white" stroke="#1B1743" stroke-width="1.5" stroke-linecap="round" stroke-linejoin="round"/>
<path d="M210.038 135.784L208.258 140.772" stroke="#1B1743" stroke-width="1.5" stroke-linecap="round" stroke-linejoin="round"/>
<path d="M204.612 151.032C205.56 151.369 206.603 150.873 206.94 149.924L207.551 148.206C207.888 147.257 207.393 146.213 206.445 145.875C205.497 145.538 204.454 146.033 204.117 146.982L203.506 148.701C203.169 149.65 203.664 150.694 204.612 151.032Z" fill="white" stroke="#1B1743" stroke-width="1.5" stroke-linecap="round" stroke-linejoin="round"/>
<path d="M207.561 142.743L205.781 147.741" stroke="#1B1743" stroke-width="1.5" stroke-linecap="round" stroke-linejoin="round"/>
<path d="M202.138 157.991C203.086 158.328 204.128 157.832 204.465 156.883L205.076 155.165C205.413 154.216 204.918 153.172 203.97 152.834C203.022 152.497 201.98 152.992 201.643 153.941L201.032 155.66C200.695 156.609 201.19 157.653 202.138 157.991Z" fill="white" stroke="#1B1743" stroke-width="1.5" stroke-linecap="round" stroke-linejoin="round"/>
<path d="M205.087 149.714L203.307 154.701" stroke="#1B1743" stroke-width="1.5" stroke-linecap="round" stroke-linejoin="round"/>
<path d="M199.663 164.961C200.611 165.299 201.654 164.803 201.991 163.854L202.602 162.135C202.939 161.186 202.444 160.142 201.496 159.805C200.548 159.467 199.505 159.963 199.168 160.912L198.557 162.631C198.22 163.58 198.715 164.624 199.663 164.961Z" fill="white" stroke="#1B1743" stroke-width="1.5" stroke-linecap="round" stroke-linejoin="round"/>
<path d="M202.612 156.673L200.832 161.671" stroke="#1B1743" stroke-width="1.5" stroke-linecap="round" stroke-linejoin="round"/>
<path d="M197.186 171.921C198.134 172.259 199.177 171.763 199.514 170.814L200.125 169.095C200.462 168.146 199.967 167.102 199.019 166.765C198.071 166.427 197.028 166.923 196.691 167.872L196.08 169.591C195.743 170.54 196.238 171.584 197.186 171.921Z" fill="white" stroke="#1B1743" stroke-width="1.5" stroke-linecap="round" stroke-linejoin="round"/>
<path d="M200.136 163.643L198.355 168.631" stroke="#1B1743" stroke-width="1.5" stroke-linecap="round" stroke-linejoin="round"/>
<path d="M194.712 178.891C195.66 179.228 196.703 178.733 197.04 177.784L197.651 176.065C197.988 175.116 197.493 174.072 196.545 173.735C195.597 173.397 194.554 173.893 194.217 174.842L193.606 176.561C193.269 177.51 193.764 178.554 194.712 178.891Z" fill="white" stroke="#1B1743" stroke-width="1.5" stroke-linecap="round" stroke-linejoin="round"/>
<path d="M197.661 170.603L195.881 175.602" stroke="#1B1743" stroke-width="1.5" stroke-linecap="round" stroke-linejoin="round"/>
<path d="M192.235 185.851C193.183 186.188 194.226 185.693 194.563 184.744L195.174 183.025C195.511 182.076 195.016 181.032 194.068 180.695C193.12 180.357 192.077 180.853 191.74 181.802L191.129 183.521C190.792 184.47 191.287 185.514 192.235 185.851Z" fill="white" stroke="#1B1743" stroke-width="1.5" stroke-linecap="round" stroke-linejoin="round"/>
<path d="M195.184 177.573L193.404 182.561" stroke="#1B1743" stroke-width="1.5" stroke-linecap="round" stroke-linejoin="round"/>
<path d="M189.761 192.821C190.709 193.158 191.751 192.663 192.089 191.714L192.699 189.995C193.037 189.046 192.541 188.002 191.593 187.664C190.645 187.327 189.603 187.822 189.266 188.771L188.655 190.49C188.318 191.439 188.813 192.483 189.761 192.821Z" fill="white" stroke="#1B1743" stroke-width="1.5" stroke-linecap="round" stroke-linejoin="round"/>
<path d="M192.71 184.533L190.93 189.531" stroke="#1B1743" stroke-width="1.5" stroke-linecap="round" stroke-linejoin="round"/>
<path d="M224.719 103.063C225.73 103.074 226.552 102.272 226.573 101.26L226.605 99.4358C226.615 98.4235 225.815 97.601 224.804 97.5799C223.792 97.5694 222.971 98.3708 222.95 99.3831L222.918 101.207C222.908 102.22 223.708 103.042 224.719 103.063Z" fill="white" stroke="#1B1743" stroke-width="1.5" stroke-linecap="round" stroke-linejoin="round"/>
<path d="M224.846 94.2791L224.762 99.5726" stroke="#1B1743" stroke-width="1.5" stroke-linecap="round" stroke-linejoin="round"/>
<path d="M224.604 110.455C225.615 110.465 226.437 109.664 226.458 108.652L226.49 106.827C226.5 105.815 225.7 104.993 224.688 104.972C223.677 104.961 222.856 105.762 222.834 106.775L222.803 108.599C222.792 109.611 223.593 110.434 224.604 110.455Z" fill="white" stroke="#1B1743" stroke-width="1.5" stroke-linecap="round" stroke-linejoin="round"/>
<path d="M224.741 101.671L224.656 106.964" stroke="#1B1743" stroke-width="1.5" stroke-linecap="round" stroke-linejoin="round"/>
<path d="M224.499 117.847C225.51 117.857 226.331 117.056 226.352 116.043L226.384 114.219C226.395 113.207 225.594 112.384 224.583 112.363C223.572 112.353 222.75 113.154 222.729 114.166L222.697 115.991C222.687 117.003 223.487 117.825 224.499 117.847Z" fill="white" stroke="#1B1743" stroke-width="1.5" stroke-linecap="round" stroke-linejoin="round"/>
<path d="M224.625 109.063L224.551 114.357" stroke="#1B1743" stroke-width="1.5" stroke-linecap="round" stroke-linejoin="round"/>
<path d="M224.393 125.239C225.404 125.25 226.226 124.448 226.247 123.436L226.279 121.612C226.289 120.599 225.489 119.777 224.477 119.756C223.466 119.745 222.645 120.547 222.623 121.559L222.592 123.383C222.581 124.395 223.382 125.218 224.393 125.239Z" fill="white" stroke="#1B1743" stroke-width="1.5" stroke-linecap="round" stroke-linejoin="round"/>
<path d="M224.519 116.455L224.445 121.748" stroke="#1B1743" stroke-width="1.5" stroke-linecap="round" stroke-linejoin="round"/>
<path d="M224.288 132.631C225.299 132.641 226.12 131.84 226.142 130.828L226.173 129.003C226.184 127.991 225.383 127.168 224.372 127.147C223.361 127.137 222.539 127.938 222.518 128.951L222.486 130.775C222.476 131.787 223.276 132.61 224.288 132.631Z" fill="white" stroke="#1B1743" stroke-width="1.5" stroke-linecap="round" stroke-linejoin="round"/>
<path d="M224.414 123.847L224.34 129.141" stroke="#1B1743" stroke-width="1.5" stroke-linecap="round" stroke-linejoin="round"/>
<path d="M224.172 140.023C225.184 140.034 226.005 139.232 226.026 138.22L226.058 136.396C226.068 135.383 225.268 134.561 224.257 134.54C223.245 134.529 222.424 135.331 222.403 136.343L222.371 138.167C222.361 139.18 223.161 140.002 224.172 140.023Z" fill="white" stroke="#1B1743" stroke-width="1.5" stroke-linecap="round" stroke-linejoin="round"/>
<path d="M224.309 131.239L224.225 136.533" stroke="#1B1743" stroke-width="1.5" stroke-linecap="round" stroke-linejoin="round"/>
<path d="M224.067 147.415C225.078 147.425 225.9 146.624 225.921 145.612L225.952 143.787C225.963 142.775 225.162 141.953 224.151 141.931C223.14 141.921 222.318 142.722 222.297 143.735L222.266 145.559C222.255 146.571 223.056 147.394 224.067 147.415Z" fill="white" stroke="#1B1743" stroke-width="1.5" stroke-linecap="round" stroke-linejoin="round"/>
<path d="M224.193 138.631L224.119 143.924" stroke="#1B1743" stroke-width="1.5" stroke-linecap="round" stroke-linejoin="round"/>
<path d="M223.961 154.807C224.973 154.818 225.794 154.017 225.815 153.004L225.847 151.18C225.857 150.168 225.057 149.345 224.046 149.324C223.035 149.314 222.213 150.115 222.192 151.127L222.16 152.952C222.15 153.964 222.95 154.786 223.961 154.807Z" fill="white" stroke="#1B1743" stroke-width="1.5" stroke-linecap="round" stroke-linejoin="round"/>
<path d="M224.087 146.023L224.014 151.317" stroke="#1B1743" stroke-width="1.5" stroke-linecap="round" stroke-linejoin="round"/>
<path d="M223.856 162.199C224.867 162.21 225.689 161.408 225.71 160.396L225.741 158.572C225.752 157.559 224.951 156.737 223.94 156.716C222.929 156.705 222.107 157.507 222.086 158.519L222.055 160.343C222.044 161.355 222.845 162.178 223.856 162.199Z" fill="white" stroke="#1B1743" stroke-width="1.5" stroke-linecap="round" stroke-linejoin="round"/>
<path d="M223.982 153.415L223.908 158.708" stroke="#1B1743" stroke-width="1.5" stroke-linecap="round" stroke-linejoin="round"/>
<path d="M223.751 169.591C224.762 169.601 225.583 168.8 225.604 167.787L225.636 165.963C225.647 164.951 224.846 164.128 223.835 164.107C222.824 164.097 222.002 164.898 221.981 165.91L221.949 167.735C221.939 168.747 222.739 169.57 223.751 169.591Z" fill="white" stroke="#1B1743" stroke-width="1.5" stroke-linecap="round" stroke-linejoin="round"/>
<path d="M223.877 160.807L223.793 166.101" stroke="#1B1743" stroke-width="1.5" stroke-linecap="round" stroke-linejoin="round"/>
<path d="M223.635 176.983C224.647 176.994 225.468 176.192 225.489 175.18L225.521 173.356C225.531 172.343 224.731 171.521 223.72 171.5C222.708 171.489 221.887 172.291 221.866 173.303L221.834 175.127C221.824 176.14 222.624 176.962 223.635 176.983Z" fill="white" stroke="#1B1743" stroke-width="1.5" stroke-linecap="round" stroke-linejoin="round"/>
<path d="M223.761 168.199L223.688 173.493" stroke="#1B1743" stroke-width="1.5" stroke-linecap="round" stroke-linejoin="round"/>
<path d="M223.53 184.375C224.541 184.385 225.363 183.584 225.384 182.572L225.415 180.747C225.426 179.735 224.625 178.913 223.614 178.891C222.603 178.881 221.781 179.682 221.76 180.695L221.729 182.519C221.718 183.531 222.519 184.354 223.53 184.375Z" fill="white" stroke="#1B1743" stroke-width="1.5" stroke-linecap="round" stroke-linejoin="round"/>
<path d="M223.656 175.591L223.582 180.884" stroke="#1B1743" stroke-width="1.5" stroke-linecap="round" stroke-linejoin="round"/>
<path d="M223.424 191.767C224.436 191.778 225.257 190.977 225.278 189.964L225.31 188.14C225.32 187.128 224.52 186.305 223.509 186.284C222.497 186.273 221.676 187.075 221.655 188.087L221.623 189.911C221.613 190.924 222.413 191.746 223.424 191.767Z" fill="white" stroke="#1B1743" stroke-width="1.5" stroke-linecap="round" stroke-linejoin="round"/>
<path d="M223.55 182.983L223.477 188.277" stroke="#1B1743" stroke-width="1.5" stroke-linecap="round" stroke-linejoin="round"/>
<path d="M223.319 199.159C224.33 199.17 225.152 198.368 225.173 197.356L225.204 195.532C225.215 194.519 224.414 193.697 223.403 193.676C222.392 193.665 221.57 194.467 221.549 195.479L221.518 197.303C221.507 198.315 222.308 199.138 223.319 199.159Z" fill="white" stroke="#1B1743" stroke-width="1.5" stroke-linecap="round" stroke-linejoin="round"/>
<path d="M223.446 190.375L223.361 195.668" stroke="#1B1743" stroke-width="1.5" stroke-linecap="round" stroke-linejoin="round"/>
<path d="M226.079 202.701C247.283 202.701 264.558 197.893 265.463 191.861H186.705C187.6 197.893 204.886 202.701 226.09 202.701H226.079Z" fill="#1B1743" stroke="#1B1743" stroke-width="1.5" stroke-linecap="round" stroke-linejoin="round"/>
<path d="M416.565 102.346C415.617 102.683 414.574 102.177 414.237 101.228L413.626 99.5091C413.289 98.5601 413.795 97.5161 414.743 97.1787C415.691 96.8412 416.733 97.3474 417.07 98.2964L417.681 100.015C418.018 100.964 417.513 102.008 416.565 102.346Z" fill="white" stroke="#1B1743" stroke-width="1.5" stroke-linecap="round" stroke-linejoin="round"/>
<path d="M413.646 94.0469L415.406 99.0452" stroke="#1B1743" stroke-width="1.5" stroke-linecap="round" stroke-linejoin="round"/>
<path d="M419.02 109.316C418.072 109.653 417.029 109.147 416.692 108.198L416.081 106.479C415.744 105.53 416.25 104.486 417.198 104.149C418.146 103.811 419.188 104.317 419.526 105.266L420.137 106.985C420.474 107.934 419.968 108.978 419.02 109.316Z" fill="white" stroke="#1B1743" stroke-width="1.5" stroke-linecap="round" stroke-linejoin="round"/>
<path d="M416.102 101.027L417.861 106.015" stroke="#1B1743" stroke-width="1.5" stroke-linecap="round" stroke-linejoin="round"/>
<path d="M421.473 116.286C420.525 116.624 419.482 116.118 419.145 115.169L418.534 113.45C418.197 112.501 418.703 111.457 419.651 111.119C420.599 110.782 421.642 111.288 421.979 112.237L422.59 113.956C422.927 114.905 422.421 115.949 421.473 116.286Z" fill="white" stroke="#1B1743" stroke-width="1.5" stroke-linecap="round" stroke-linejoin="round"/>
<path d="M418.557 107.998L420.316 112.996" stroke="#1B1743" stroke-width="1.5" stroke-linecap="round" stroke-linejoin="round"/>
<path d="M423.916 123.256C422.968 123.594 421.926 123.087 421.589 122.138L420.978 120.419C420.641 119.47 421.146 118.427 422.094 118.089C423.042 117.752 424.085 118.258 424.422 119.207L425.033 120.926C425.37 121.875 424.864 122.919 423.916 123.256Z" fill="white" stroke="#1B1743" stroke-width="1.5" stroke-linecap="round" stroke-linejoin="round"/>
<path d="M421.01 114.968L422.758 119.966" stroke="#1B1743" stroke-width="1.5" stroke-linecap="round" stroke-linejoin="round"/>
<path d="M426.371 130.238C425.423 130.575 424.381 130.069 424.044 129.12L423.433 127.401C423.096 126.452 423.601 125.408 424.549 125.071C425.497 124.733 426.54 125.239 426.877 126.188L427.488 127.907C427.825 128.856 427.32 129.9 426.371 130.238Z" fill="white" stroke="#1B1743" stroke-width="1.5" stroke-linecap="round" stroke-linejoin="round"/>
<path d="M423.453 121.949L425.212 126.937" stroke="#1B1743" stroke-width="1.5" stroke-linecap="round" stroke-linejoin="round"/>
<path d="M428.827 137.207C427.879 137.545 426.836 137.039 426.499 136.089L425.888 134.371C425.551 133.422 426.056 132.378 427.004 132.04C427.952 131.703 428.995 132.209 429.332 133.158L429.943 134.877C430.28 135.826 429.775 136.87 428.827 137.207Z" fill="white" stroke="#1B1743" stroke-width="1.5" stroke-linecap="round" stroke-linejoin="round"/>
<path d="M425.908 128.919L427.667 133.917" stroke="#1B1743" stroke-width="1.5" stroke-linecap="round" stroke-linejoin="round"/>
<path d="M431.28 144.178C430.332 144.515 429.289 144.009 428.952 143.06L428.341 141.341C428.004 140.392 428.509 139.348 429.457 139.011C430.405 138.674 431.448 139.18 431.785 140.129L432.396 141.848C432.733 142.797 432.228 143.841 431.28 144.178Z" fill="white" stroke="#1B1743" stroke-width="1.5" stroke-linecap="round" stroke-linejoin="round"/>
<path d="M428.361 135.89L430.12 140.888" stroke="#1B1743" stroke-width="1.5" stroke-linecap="round" stroke-linejoin="round"/>
<path d="M433.723 151.158C432.775 151.496 431.732 150.99 431.395 150.041L430.784 148.322C430.447 147.373 430.953 146.329 431.901 145.991C432.849 145.654 433.892 146.16 434.229 147.109L434.84 148.828C435.177 149.777 434.671 150.821 433.723 151.158Z" fill="white" stroke="#1B1743" stroke-width="1.5" stroke-linecap="round" stroke-linejoin="round"/>
<path d="M430.816 142.859L432.565 147.858" stroke="#1B1743" stroke-width="1.5" stroke-linecap="round" stroke-linejoin="round"/>
<path d="M436.178 158.128C435.23 158.466 434.187 157.959 433.85 157.01L433.239 155.292C432.902 154.343 433.408 153.299 434.356 152.961C435.304 152.624 436.347 153.13 436.684 154.079L437.295 155.798C437.632 156.747 437.126 157.791 436.178 158.128Z" fill="white" stroke="#1B1743" stroke-width="1.5" stroke-linecap="round" stroke-linejoin="round"/>
<path d="M433.26 149.84L435.019 154.838" stroke="#1B1743" stroke-width="1.5" stroke-linecap="round" stroke-linejoin="round"/>
<path d="M438.633 165.099C437.685 165.436 436.642 164.93 436.305 163.981L435.694 162.262C435.357 161.313 435.863 160.269 436.811 159.932C437.759 159.594 438.802 160.101 439.139 161.05L439.75 162.768C440.087 163.717 439.581 164.761 438.633 165.099Z" fill="white" stroke="#1B1743" stroke-width="1.5" stroke-linecap="round" stroke-linejoin="round"/>
<path d="M435.715 156.811L437.474 161.809" stroke="#1B1743" stroke-width="1.5" stroke-linecap="round" stroke-linejoin="round"/>
<path d="M441.086 172.079C440.138 172.417 439.096 171.911 438.758 170.962L438.148 169.243C437.81 168.294 438.316 167.25 439.264 166.912C440.212 166.575 441.255 167.081 441.592 168.03L442.203 169.749C442.54 170.698 442.034 171.742 441.086 172.079Z" fill="white" stroke="#1B1743" stroke-width="1.5" stroke-linecap="round" stroke-linejoin="round"/>
<path d="M438.168 163.78L439.927 168.779" stroke="#1B1743" stroke-width="1.5" stroke-linecap="round" stroke-linejoin="round"/>
<path d="M443.53 179.05C442.582 179.387 441.539 178.881 441.202 177.932L440.591 176.213C440.254 175.264 440.759 174.22 441.707 173.883C442.655 173.546 443.698 174.052 444.035 175.001L444.646 176.72C444.983 177.669 444.478 178.713 443.53 179.05Z" fill="white" stroke="#1B1743" stroke-width="1.5" stroke-linecap="round" stroke-linejoin="round"/>
<path d="M440.623 170.762L442.372 175.749" stroke="#1B1743" stroke-width="1.5" stroke-linecap="round" stroke-linejoin="round"/>
<path d="M445.985 186.02C445.037 186.357 443.994 185.851 443.657 184.902L443.046 183.183C442.709 182.234 443.215 181.19 444.163 180.853C445.111 180.515 446.153 181.021 446.49 181.97L447.101 183.689C447.438 184.638 446.933 185.682 445.985 186.02Z" fill="white" stroke="#1B1743" stroke-width="1.5" stroke-linecap="round" stroke-linejoin="round"/>
<path d="M443.066 177.731L444.826 182.73" stroke="#1B1743" stroke-width="1.5" stroke-linecap="round" stroke-linejoin="round"/>
<path d="M448.44 193C447.492 193.338 446.449 192.832 446.112 191.882L445.501 190.164C445.164 189.215 445.67 188.171 446.618 187.833C447.566 187.496 448.608 188.002 448.946 188.951L449.556 190.67C449.893 191.619 449.388 192.663 448.44 193Z" fill="white" stroke="#1B1743" stroke-width="1.5" stroke-linecap="round" stroke-linejoin="round"/>
<path d="M445.521 184.701L447.281 189.699" stroke="#1B1743" stroke-width="1.5" stroke-linecap="round" stroke-linejoin="round"/>
<path d="M409.636 102.272C410.584 102.61 411.626 102.114 411.964 101.165L412.574 99.4461C412.912 98.4971 412.416 97.4531 411.468 97.1157C410.52 96.7782 409.478 97.2738 409.141 98.2229L408.53 99.9417C408.193 100.891 408.688 101.935 409.636 102.272Z" fill="white" stroke="#1B1743" stroke-width="1.5" stroke-linecap="round" stroke-linejoin="round"/>
<path d="M412.584 93.9941L410.814 98.9819" stroke="#1B1743" stroke-width="1.5" stroke-linecap="round" stroke-linejoin="round"/>
<path d="M407.161 109.242C408.109 109.579 409.152 109.084 409.489 108.135L410.1 106.416C410.437 105.467 409.942 104.423 408.994 104.085C408.046 103.748 407.003 104.244 406.666 105.193L406.055 106.911C405.718 107.86 406.213 108.904 407.161 109.242Z" fill="white" stroke="#1B1743" stroke-width="1.5" stroke-linecap="round" stroke-linejoin="round"/>
<path d="M410.109 100.954L408.34 105.952" stroke="#1B1743" stroke-width="1.5" stroke-linecap="round" stroke-linejoin="round"/>
<path d="M404.684 116.202C405.632 116.539 406.675 116.044 407.012 115.095L407.623 113.376C407.96 112.427 407.465 111.383 406.517 111.045C405.569 110.708 404.526 111.204 404.189 112.153L403.578 113.871C403.241 114.82 403.736 115.864 404.684 116.202Z" fill="white" stroke="#1B1743" stroke-width="1.5" stroke-linecap="round" stroke-linejoin="round"/>
<path d="M407.635 107.924L405.865 112.912" stroke="#1B1743" stroke-width="1.5" stroke-linecap="round" stroke-linejoin="round"/>
<path d="M402.21 123.172C403.158 123.509 404.201 123.013 404.538 122.064L405.149 120.346C405.486 119.396 404.991 118.353 404.043 118.015C403.095 117.678 402.052 118.173 401.715 119.122L401.104 120.841C400.767 121.79 401.262 122.834 402.21 123.172Z" fill="white" stroke="#1B1743" stroke-width="1.5" stroke-linecap="round" stroke-linejoin="round"/>
<path d="M405.158 114.884L403.389 119.882" stroke="#1B1743" stroke-width="1.5" stroke-linecap="round" stroke-linejoin="round"/>
<path d="M399.733 130.132C400.681 130.469 401.724 129.973 402.061 129.024L402.672 127.305C403.009 126.356 402.514 125.312 401.566 124.975C400.618 124.638 399.575 125.133 399.238 126.082L398.627 127.801C398.29 128.75 398.785 129.794 399.733 130.132Z" fill="white" stroke="#1B1743" stroke-width="1.5" stroke-linecap="round" stroke-linejoin="round"/>
<path d="M402.682 121.854L400.902 126.841" stroke="#1B1743" stroke-width="1.5" stroke-linecap="round" stroke-linejoin="round"/>
<path d="M397.259 137.102C398.207 137.44 399.249 136.944 399.587 135.995L400.198 134.276C400.535 133.327 400.04 132.283 399.091 131.946C398.143 131.608 397.101 132.104 396.764 133.053L396.153 134.772C395.816 135.721 396.311 136.765 397.259 137.102Z" fill="white" stroke="#1B1743" stroke-width="1.5" stroke-linecap="round" stroke-linejoin="round"/>
<path d="M400.208 128.813L398.428 133.812" stroke="#1B1743" stroke-width="1.5" stroke-linecap="round" stroke-linejoin="round"/>
<path d="M394.784 144.061C395.732 144.399 396.775 143.903 397.112 142.954L397.723 141.235C398.06 140.286 397.565 139.242 396.617 138.905C395.669 138.567 394.626 139.063 394.289 140.012L393.678 141.731C393.341 142.68 393.836 143.724 394.784 144.061Z" fill="white" stroke="#1B1743" stroke-width="1.5" stroke-linecap="round" stroke-linejoin="round"/>
<path d="M397.733 135.784L395.953 140.772" stroke="#1B1743" stroke-width="1.5" stroke-linecap="round" stroke-linejoin="round"/>
<path d="M392.307 151.032C393.255 151.369 394.298 150.874 394.635 149.925L395.246 148.206C395.583 147.257 395.088 146.213 394.14 145.875C393.192 145.538 392.149 146.034 391.812 146.983L391.201 148.701C390.864 149.651 391.359 150.694 392.307 151.032Z" fill="white" stroke="#1B1743" stroke-width="1.5" stroke-linecap="round" stroke-linejoin="round"/>
<path d="M395.257 142.743L393.477 147.741" stroke="#1B1743" stroke-width="1.5" stroke-linecap="round" stroke-linejoin="round"/>
<path d="M389.833 157.991C390.781 158.328 391.824 157.833 392.161 156.884L392.772 155.165C393.109 154.216 392.614 153.172 391.666 152.834C390.718 152.497 389.675 152.993 389.338 153.942L388.727 155.66C388.39 156.61 388.885 157.653 389.833 157.991Z" fill="white" stroke="#1B1743" stroke-width="1.5" stroke-linecap="round" stroke-linejoin="round"/>
<path d="M392.782 149.714L391.002 154.702" stroke="#1B1743" stroke-width="1.5" stroke-linecap="round" stroke-linejoin="round"/>
<path d="M387.358 164.962C388.306 165.299 389.349 164.803 389.686 163.854L390.297 162.136C390.634 161.187 390.139 160.143 389.191 159.805C388.243 159.468 387.2 159.963 386.863 160.912L386.252 162.631C385.915 163.58 386.41 164.624 387.358 164.962Z" fill="white" stroke="#1B1743" stroke-width="1.5" stroke-linecap="round" stroke-linejoin="round"/>
<path d="M390.307 156.673L388.527 161.671" stroke="#1B1743" stroke-width="1.5" stroke-linecap="round" stroke-linejoin="round"/>
<path d="M384.882 171.922C385.83 172.259 386.873 171.763 387.21 170.814L387.821 169.096C388.158 168.146 387.663 167.103 386.715 166.765C385.767 166.428 384.724 166.923 384.387 167.872L383.776 169.591C383.439 170.54 383.934 171.584 384.882 171.922Z" fill="white" stroke="#1B1743" stroke-width="1.5" stroke-linecap="round" stroke-linejoin="round"/>
<path d="M387.831 163.644L386.051 168.631" stroke="#1B1743" stroke-width="1.5" stroke-linecap="round" stroke-linejoin="round"/>
<path d="M382.407 178.891C383.355 179.229 384.398 178.733 384.735 177.784L385.346 176.065C385.683 175.116 385.188 174.072 384.24 173.735C383.292 173.397 382.249 173.893 381.912 174.842L381.301 176.561C380.964 177.51 381.459 178.554 382.407 178.891Z" fill="white" stroke="#1B1743" stroke-width="1.5" stroke-linecap="round" stroke-linejoin="round"/>
<path d="M385.356 170.604L383.576 175.602" stroke="#1B1743" stroke-width="1.5" stroke-linecap="round" stroke-linejoin="round"/>
<path d="M379.931 185.851C380.879 186.189 381.921 185.693 382.258 184.744L382.869 183.025C383.206 182.076 382.711 181.032 381.763 180.695C380.815 180.357 379.773 180.853 379.435 181.802L378.825 183.521C378.487 184.47 378.983 185.514 379.931 185.851Z" fill="white" stroke="#1B1743" stroke-width="1.5" stroke-linecap="round" stroke-linejoin="round"/>
<path d="M382.88 177.573L381.1 182.561" stroke="#1B1743" stroke-width="1.5" stroke-linecap="round" stroke-linejoin="round"/>
<path d="M377.456 192.821C378.404 193.158 379.447 192.663 379.784 191.714L380.395 189.995C380.732 189.046 380.237 188.002 379.289 187.665C378.341 187.327 377.298 187.823 376.961 188.772L376.35 190.491C376.013 191.44 376.508 192.484 377.456 192.821Z" fill="white" stroke="#1B1743" stroke-width="1.5" stroke-linecap="round" stroke-linejoin="round"/>
<path d="M380.405 184.533L378.625 189.532" stroke="#1B1743" stroke-width="1.5" stroke-linecap="round" stroke-linejoin="round"/>
<path d="M412.415 103.064C413.426 103.074 414.247 102.273 414.268 101.26L414.3 99.4361C414.311 98.4238 413.51 97.6013 412.499 97.5802C411.488 97.5696 410.666 98.371 410.645 99.3834L410.613 101.208C410.603 102.22 411.403 103.042 412.415 103.064Z" fill="white" stroke="#1B1743" stroke-width="1.5" stroke-linecap="round" stroke-linejoin="round"/>
<path d="M412.541 94.2793L412.457 99.5728" stroke="#1B1743" stroke-width="1.5" stroke-linecap="round" stroke-linejoin="round"/>
<path d="M412.299 110.455C413.311 110.466 414.132 109.664 414.153 108.652L414.185 106.828C414.195 105.815 413.395 104.993 412.384 104.972C411.372 104.961 410.551 105.763 410.53 106.775L410.498 108.599C410.488 109.612 411.288 110.434 412.299 110.455Z" fill="white" stroke="#1B1743" stroke-width="1.5" stroke-linecap="round" stroke-linejoin="round"/>
<path d="M412.436 101.671L412.352 106.964" stroke="#1B1743" stroke-width="1.5" stroke-linecap="round" stroke-linejoin="round"/>
<path d="M412.194 117.847C413.205 117.857 414.027 117.056 414.048 116.044L414.079 114.219C414.09 113.207 413.289 112.384 412.278 112.363C411.267 112.353 410.445 113.154 410.424 114.167L410.393 115.991C410.382 117.003 411.183 117.826 412.194 117.847Z" fill="white" stroke="#1B1743" stroke-width="1.5" stroke-linecap="round" stroke-linejoin="round"/>
<path d="M412.32 109.063L412.246 114.357" stroke="#1B1743" stroke-width="1.5" stroke-linecap="round" stroke-linejoin="round"/>
<path d="M412.088 125.239C413.1 125.25 413.921 124.448 413.942 123.436L413.974 121.612C413.984 120.6 413.184 119.777 412.173 119.756C411.161 119.745 410.34 120.547 410.319 121.559L410.287 123.383C410.277 124.396 411.077 125.218 412.088 125.239Z" fill="white" stroke="#1B1743" stroke-width="1.5" stroke-linecap="round" stroke-linejoin="round"/>
<path d="M412.214 116.455L412.141 121.749" stroke="#1B1743" stroke-width="1.5" stroke-linecap="round" stroke-linejoin="round"/>
<path d="M411.983 132.631C412.994 132.641 413.816 131.84 413.837 130.828L413.868 129.003C413.879 127.991 413.078 127.169 412.067 127.148C411.056 127.137 410.234 127.938 410.213 128.951L410.182 130.775C410.171 131.787 410.972 132.61 411.983 132.631Z" fill="white" stroke="#1B1743" stroke-width="1.5" stroke-linecap="round" stroke-linejoin="round"/>
<path d="M412.109 123.848L412.035 129.141" stroke="#1B1743" stroke-width="1.5" stroke-linecap="round" stroke-linejoin="round"/>
<path d="M411.868 140.024C412.879 140.034 413.701 139.233 413.722 138.22L413.753 136.396C413.764 135.384 412.963 134.561 411.952 134.54C410.941 134.53 410.119 135.331 410.098 136.343L410.067 138.168C410.056 139.18 410.857 140.002 411.868 140.024Z" fill="white" stroke="#1B1743" stroke-width="1.5" stroke-linecap="round" stroke-linejoin="round"/>
<path d="M412.004 131.239L411.92 136.533" stroke="#1B1743" stroke-width="1.5" stroke-linecap="round" stroke-linejoin="round"/>
<path d="M411.762 147.415C412.773 147.426 413.595 146.624 413.616 145.612L413.648 143.788C413.658 142.775 412.858 141.953 411.847 141.932C410.835 141.921 410.014 142.723 409.993 143.735L409.961 145.559C409.951 146.572 410.751 147.394 411.762 147.415Z" fill="white" stroke="#1B1743" stroke-width="1.5" stroke-linecap="round" stroke-linejoin="round"/>
<path d="M411.888 138.631L411.814 143.924" stroke="#1B1743" stroke-width="1.5" stroke-linecap="round" stroke-linejoin="round"/>
<path d="M411.657 154.808C412.668 154.818 413.49 154.017 413.511 153.005L413.542 151.18C413.553 150.168 412.752 149.345 411.741 149.324C410.73 149.314 409.908 150.115 409.887 151.128L409.856 152.952C409.845 153.964 410.646 154.787 411.657 154.808Z" fill="white" stroke="#1B1743" stroke-width="1.5" stroke-linecap="round" stroke-linejoin="round"/>
<path d="M411.783 146.023L411.709 151.317" stroke="#1B1743" stroke-width="1.5" stroke-linecap="round" stroke-linejoin="round"/>
<path d="M411.551 162.199C412.563 162.21 413.384 161.408 413.405 160.396L413.437 158.572C413.447 157.56 412.647 156.737 411.636 156.716C410.624 156.705 409.803 157.507 409.782 158.519L409.75 160.343C409.74 161.356 410.54 162.178 411.551 162.199Z" fill="white" stroke="#1B1743" stroke-width="1.5" stroke-linecap="round" stroke-linejoin="round"/>
<path d="M411.677 153.415L411.604 158.709" stroke="#1B1743" stroke-width="1.5" stroke-linecap="round" stroke-linejoin="round"/>
<path d="M411.446 169.591C412.457 169.601 413.279 168.8 413.3 167.788L413.331 165.963C413.342 164.951 412.541 164.129 411.53 164.108C410.519 164.097 409.697 164.898 409.676 165.911L409.645 167.735C409.634 168.747 410.435 169.57 411.446 169.591Z" fill="white" stroke="#1B1743" stroke-width="1.5" stroke-linecap="round" stroke-linejoin="round"/>
<path d="M411.573 160.808L411.488 166.101" stroke="#1B1743" stroke-width="1.5" stroke-linecap="round" stroke-linejoin="round"/>
<path d="M411.331 176.983C412.342 176.994 413.163 176.193 413.184 175.18L413.216 173.356C413.227 172.344 412.426 171.521 411.415 171.5C410.404 171.49 409.582 172.291 409.561 173.303L409.529 175.128C409.519 176.14 410.319 176.962 411.331 176.983Z" fill="white" stroke="#1B1743" stroke-width="1.5" stroke-linecap="round" stroke-linejoin="round"/>
<path d="M411.467 168.199L411.383 173.493" stroke="#1B1743" stroke-width="1.5" stroke-linecap="round" stroke-linejoin="round"/>
<path d="M411.225 184.375C412.236 184.386 413.058 183.584 413.079 182.572L413.111 180.748C413.121 179.735 412.321 178.913 411.309 178.892C410.298 178.881 409.477 179.683 409.456 180.695L409.424 182.519C409.413 183.531 410.214 184.354 411.225 184.375Z" fill="white" stroke="#1B1743" stroke-width="1.5" stroke-linecap="round" stroke-linejoin="round"/>
<path d="M411.351 175.591L411.277 180.884" stroke="#1B1743" stroke-width="1.5" stroke-linecap="round" stroke-linejoin="round"/>
<path d="M411.12 191.768C412.131 191.778 412.952 190.977 412.974 189.964L413.005 188.14C413.016 187.128 412.215 186.305 411.204 186.284C410.193 186.274 409.371 187.075 409.35 188.087L409.318 189.912C409.308 190.924 410.108 191.747 411.12 191.768Z" fill="white" stroke="#1B1743" stroke-width="1.5" stroke-linecap="round" stroke-linejoin="round"/>
<path d="M411.246 182.983L411.172 188.277" stroke="#1B1743" stroke-width="1.5" stroke-linecap="round" stroke-linejoin="round"/>
<path d="M411.014 199.159C412.025 199.17 412.847 198.368 412.868 197.356L412.9 195.532C412.91 194.519 412.11 193.697 411.098 193.676C410.087 193.665 409.266 194.467 409.245 195.479L409.213 197.303C409.202 198.316 410.003 199.138 411.014 199.159Z" fill="white" stroke="#1B1743" stroke-width="1.5" stroke-linecap="round" stroke-linejoin="round"/>
<path d="M411.14 190.375L411.066 195.669" stroke="#1B1743" stroke-width="1.5" stroke-linecap="round" stroke-linejoin="round"/>
<path d="M413.774 202.702C434.978 202.702 452.253 197.893 453.159 191.861H374.4C375.296 197.893 392.581 202.702 413.785 202.702H413.774Z" fill="#1B1743" stroke="#1B1743" stroke-width="1.5" stroke-linecap="round" stroke-linejoin="round"/>
<path d="M353.058 347.927H281.01V356.879H353.058V347.927Z" fill="#1B1743" stroke="#1B1743" stroke-width="1.5" stroke-linecap="round" stroke-linejoin="round"/>
<path d="M406.738 355.393H230.83V367.825H406.738V355.393Z" fill="#1B1743" stroke="#1B1743" stroke-width="1.5" stroke-linecap="round" stroke-linejoin="round"/>
<path d="M143.076 366.971H309.82V420.929H143.076C139.842 420.929 137.209 418.303 137.209 415.055V372.833C137.209 369.596 139.832 366.96 143.076 366.96V366.971Z" fill="#D3D3E3" stroke="#1B1743" stroke-width="1.5" stroke-linecap="round" stroke-linejoin="round"/>
<path d="M290.828 366.971H276.418V420.929H290.828V366.971Z" fill="#1B1743" stroke="#1B1743" stroke-width="1.5" stroke-linecap="round" stroke-linejoin="round"/>
<path d="M161.131 366.971H149.207V420.929H161.131V366.971Z" fill="#1B1743" stroke="#1B1743" stroke-width="1.5" stroke-linecap="round" stroke-linejoin="round"/>
<path d="M476.185 372.802H314.191V415.087H476.185V372.802Z" fill="white" stroke="#1B1743" stroke-width="1.5" stroke-linecap="round" stroke-linejoin="round"/>
<path d="M316.383 412.335V375.565H477.46C479.83 375.565 481.758 373.645 481.758 371.262C481.758 368.89 479.84 366.96 477.46 366.96H309.146V420.918H477.46C479.83 420.918 481.758 418.999 481.758 416.616C481.758 414.243 479.84 412.314 477.46 412.314H316.383V412.335Z" fill="#D3D3E3" stroke="#1B1743" stroke-width="1.5" stroke-linecap="round" stroke-linejoin="round"/>
<path d="M318.162 384.243H379.277" stroke="#807D9B" stroke-width="1.5" stroke-linecap="round" stroke-linejoin="round"/>
<path d="M342.01 387.723H422.517" stroke="#807D9B" stroke-width="1.5" stroke-linecap="round" stroke-linejoin="round"/>
<path d="M318.162 398.669H374.316" stroke="#807D9B" stroke-width="1.5" stroke-linecap="round" stroke-linejoin="round"/>
<path d="M317.172 404.142H340.524" stroke="#807D9B" stroke-width="1.5" stroke-linecap="round" stroke-linejoin="round"/>
<path d="M317.172 392.7H332.572" stroke="#807D9B" stroke-width="1.5" stroke-linecap="round" stroke-linejoin="round"/>
<path d="M384.744 382.746H397.174" stroke="#807D9B" stroke-width="1.5" stroke-linecap="round" stroke-linejoin="round"/>
<path d="M346.982 404.637H365.374" stroke="#807D9B" stroke-width="1.5" stroke-linecap="round" stroke-linejoin="round"/>
<path d="M382.258 393.691H462.765" stroke="#807D9B" stroke-width="1.5" stroke-linecap="round" stroke-linejoin="round"/>
<path d="M149.164 421.805H315.908V475.763H149.164C145.93 475.763 143.297 473.137 143.297 469.889V427.667C143.297 424.43 145.92 421.794 149.164 421.794V421.805Z" fill="white" stroke="#1B1743" stroke-width="1.5" stroke-linecap="round" stroke-linejoin="round"/>
<path d="M296.916 421.805H282.506V475.763H296.916V421.805Z" fill="#1B1743" stroke="#1B1743" stroke-width="1.5" stroke-linecap="round" stroke-linejoin="round"/>
<path d="M167.219 421.805H155.295V475.763H167.219V421.805Z" fill="#1B1743" stroke="#1B1743" stroke-width="1.5" stroke-linecap="round" stroke-linejoin="round"/>
<path d="M482.263 427.636H320.27V469.921H482.263V427.636Z" fill="white" stroke="#1B1743" stroke-width="1.5" stroke-linecap="round" stroke-linejoin="round"/>
<path d="M322.471 467.169V430.399H483.548C485.918 430.399 487.845 428.479 487.845 426.096C487.845 423.724 485.928 421.794 483.548 421.794H315.234V475.752H483.548C485.918 475.752 487.845 473.833 487.845 471.45C487.845 469.077 485.928 467.148 483.548 467.148H322.471V467.169Z" fill="#F0F0F5" stroke="#1B1743" stroke-width="1.5" stroke-linecap="round" stroke-linejoin="round"/>
<path d="M324.25 439.077H385.365" stroke="#807D9B" stroke-width="1.5" stroke-linecap="round" stroke-linejoin="round"/>
<path d="M348.098 442.557H428.594" stroke="#807D9B" stroke-width="1.5" stroke-linecap="round" stroke-linejoin="round"/>
<path d="M324.25 453.503H380.393" stroke="#807D9B" stroke-width="1.5" stroke-linecap="round" stroke-linejoin="round"/>
<path d="M323.25 458.976H346.613" stroke="#807D9B" stroke-width="1.5" stroke-linecap="round" stroke-linejoin="round"/>
<path d="M323.25 447.534H338.66" stroke="#807D9B" stroke-width="1.5" stroke-linecap="round" stroke-linejoin="round"/>
<path d="M390.832 437.58H403.251" stroke="#807D9B" stroke-width="1.5" stroke-linecap="round" stroke-linejoin="round"/>
<path d="M353.07 459.471H371.451" stroke="#807D9B" stroke-width="1.5" stroke-linecap="round" stroke-linejoin="round"/>
<path d="M388.346 448.525H468.853" stroke="#807D9B" stroke-width="1.5" stroke-linecap="round" stroke-linejoin="round"/>
<path d="M118.124 128.771C118.124 128.771 112.636 128.613 111.225 133.01C109.813 137.408 111.067 141.647 106.516 141.963C101.966 142.279 95.6878 139.295 92.5488 145.738C89.4099 152.181 92.5488 156.262 92.7068 158.308C92.8648 160.353 90.0419 159.246 89.7259 163.338C89.4099 167.418 94.9083 171.51 100.554 171.352C106.2 171.193 130.838 157.685 132.249 157.053C133.661 156.42 132.881 131.608 132.881 131.608L118.134 128.782L118.124 128.771Z" fill="#1B1743" stroke="#1B1743" stroke-width="1.5" stroke-linecap="round" stroke-linejoin="round"/>
<path d="M86.271 198.652L86.113 197.735C86.113 197.735 90.5055 174.009 91.2955 171.657C92.0749 169.306 94.0447 169.042 94.0447 169.042L102.756 217.369L93.992 236.076C93.6866 237.194 93.4022 237.922 93.1915 237.795C92.412 237.32 77.9707 237.479 77.9707 237.479L86.2921 198.652H86.271Z" fill="#D3D3E3" stroke="#1B1743" stroke-width="1.5" stroke-linecap="round" stroke-linejoin="round"/>
<path d="M120.39 476.3C120.39 476.3 121.243 479.938 118.799 486.592C116.355 493.235 110.256 496.947 105.716 496.947C101.177 496.947 99.7756 490.303 98.7223 485.748C97.6689 481.203 99.4175 472.799 99.4175 472.799L120.39 476.3Z" fill="#1B1743" stroke="#1B1743" stroke-width="1.5" stroke-linecap="round" stroke-linejoin="round"/>
<path d="M164.682 470.733C164.682 470.733 171.507 472.104 178.881 481.668C184.99 489.598 185.053 490.642 180.85 491.348C176.648 492.055 165.472 492.044 160.584 488.554C155.686 485.053 154.527 480.93 153.485 480.582C152.431 480.234 140.655 479.991 144.194 470.195C146.743 463.161 164.682 470.743 164.682 470.743V470.733Z" fill="#1B1743" stroke="#1B1743" stroke-width="1.5" stroke-linecap="round" stroke-linejoin="round"/>
<path d="M178.133 275.303C178.133 275.303 180.903 284.731 181.451 297.479C182.009 310.228 178.754 318.759 177.09 328.186C175.426 337.613 166.62 381.407 171.255 399.502C173.087 406.662 177.575 458.817 177.575 462.139V473.78C177.575 473.78 162.07 475.995 157.087 476.553C152.105 477.112 139.918 474.339 139.918 474.339C139.918 474.339 142.13 396.159 142.13 372.876C142.13 349.593 140.465 323.536 140.465 323.536L140.645 307.676C140.645 307.676 138.759 331.276 138.759 342.369C138.759 353.462 133.819 381.755 133.819 381.755C133.819 381.755 128.363 443.854 128.921 447.186C129.479 450.518 125.761 477.882 125.761 477.882L115.417 480.044L102.766 480.149L93.2969 476.986C93.2969 476.986 93.6445 458.796 95.8565 434.964C98.0685 411.122 106.063 389.252 108.286 375.396C110.498 361.54 95.6142 320.784 95.6142 303.037C95.6142 285.29 101.703 268.66 101.703 268.66L175.363 269.219L178.133 275.314V275.303Z" fill="#D3D3E3" stroke="#1B1743" stroke-width="1.5" stroke-linecap="round" stroke-linejoin="round"/>
<path d="M175.996 279.553C175.996 279.553 155.803 287.82 149.999 286.597C144.185 285.374 141.13 274.038 141.13 274.038C141.13 274.038 143.574 285.057 136.537 286.903C129.501 288.737 101.672 278.33 101.672 278.33L142.046 259.349L175.996 279.563V279.553Z" fill="#1B1743" stroke="#1B1743" stroke-width="1.5" stroke-linecap="round" stroke-linejoin="round"/>
<path d="M148.766 297.131C147.523 298.322 146.333 299.303 145.406 299.767" stroke="#1B1743" stroke-width="1.5" stroke-linecap="round" stroke-linejoin="round"/>
<path d="M156.729 288.126C156.729 288.126 154.454 291.036 151.789 293.989" stroke="#1B1743" stroke-width="1.5" stroke-linecap="round" stroke-linejoin="round"/>
<path d="M168.19 378.369C168.19 378.369 164.103 400.535 163.418 402.918" stroke="#1B1743" stroke-width="1.5" stroke-linecap="round" stroke-linejoin="round"/>
<path d="M168.842 464.268C167.936 452.036 166.482 430.767 166.482 419.969" stroke="#1B1743" stroke-width="1.5" stroke-linecap="round" stroke-linejoin="round"/>
<path d="M169.549 473.495C169.549 473.495 169.423 471.945 169.223 469.33" stroke="#1B1743" stroke-width="1.5" stroke-linecap="round" stroke-linejoin="round"/>
<path d="M162.67 383.568C163.154 374.204 163.765 360.19 163.765 348.369" stroke="#1B1743" stroke-width="1.5" stroke-linecap="round" stroke-linejoin="round"/>
<path d="M162.059 394.06C162.059 394.06 162.227 391.435 162.469 387.206" stroke="#1B1743" stroke-width="1.5" stroke-linecap="round" stroke-linejoin="round"/>
<path d="M117.535 433.562C117.05 436.43 116.66 438.602 116.418 439.741" stroke="#1B1743" stroke-width="1.5" stroke-linecap="round" stroke-linejoin="round"/>
<path d="M127.066 343.339C127.498 354.864 127.919 373.94 126.308 381.786C124.538 390.39 120.704 414.612 118.281 429.164" stroke="#1B1743" stroke-width="1.5" stroke-linecap="round" stroke-linejoin="round"/>
<path d="M126.646 334.049C126.646 334.049 126.752 335.926 126.889 338.963" stroke="#1B1743" stroke-width="1.5" stroke-linecap="round" stroke-linejoin="round"/>
<path d="M113.7 452.353C113.7 452.353 110.635 472.124 110.635 473.147" stroke="#1B1743" stroke-width="1.5" stroke-linecap="round" stroke-linejoin="round"/>
<path d="M134.82 295.149C134.82 295.149 127.583 288.263 119.262 286.449" stroke="#1B1743" stroke-width="1.5" stroke-linecap="round" stroke-linejoin="round"/>
<path d="M150.481 153.53L180.638 165.973L168.609 229.833L182.471 275.946C182.471 275.946 169.02 283.085 161.478 284.108C153.936 285.131 147.827 284.308 145.783 279.827C143.75 275.335 142.118 267.584 142.118 267.584C142.118 267.584 140.485 283.296 137.841 284.319C136.588 284.804 134.66 285.142 132.964 285.374C130.836 285.658 128.688 285.542 126.612 285.004L94.3065 276.748L105.851 231.869C105.851 231.869 92.1998 170.666 94.0326 169.031C95.8654 167.397 124.19 153.319 124.19 153.319L150.481 153.52V153.53Z" fill="#D3D3E3" stroke="#1B1743" stroke-width="1.5" stroke-linecap="round" stroke-linejoin="round"/>
<path d="M148.849 150.683C148.849 150.683 151.704 152.518 151.704 155.376C151.704 158.233 149.46 191.081 147.427 202.1C145.394 213.12 140.907 228.009 140.907 228.009C140.907 228.009 127.656 187.812 125.823 175.78C123.991 163.748 121.557 156.978 124.191 153.34C126.824 149.702 128.067 149.871 128.067 149.871L148.849 150.683Z" fill="#807D9B" stroke="#1B1743" stroke-width="1.5" stroke-linecap="round" stroke-linejoin="round"/>
<path d="M148.871 147.256C148.871 147.256 148.26 150.757 149.323 156.24C150.387 161.724 149.629 165.066 146.585 169.485C143.541 173.903 141.107 175.116 141.107 175.116C141.107 175.116 133.049 174.968 129.858 166.29C126.666 157.611 126.814 149.692 126.814 149.692L128.636 136.3L148.86 147.256H148.871Z" fill="white" stroke="#1B1743" stroke-width="1.5" stroke-linecap="round" stroke-linejoin="round"/>
<path d="M135.883 145.179L149.334 156.24L148.871 147.256L135.883 145.179Z" fill="#1B1743" stroke="#1B1743" stroke-width="1.5" stroke-linecap="round" stroke-linejoin="round"/>
<path d="M150.281 173.935C150.281 173.935 149.87 170.666 148.649 170.877C147.427 171.077 141.117 175.116 141.117 175.116" stroke="#1B1743" stroke-width="1.5" stroke-linecap="round" stroke-linejoin="round"/>
<path d="M135.609 174.546L129.9 172.1C129.9 172.1 127.456 166.795 126.845 168.43C126.234 170.064 126.234 173.323 126.234 173.323" stroke="#1B1743" stroke-width="1.5" stroke-linecap="round" stroke-linejoin="round"/>
<path d="M151.442 99.4987C151.442 99.4987 154.887 100.922 156.783 109.01C158.679 117.098 159.869 122.328 159.753 126.61C159.5 130 158 133.5 156.9 136.773C155.567 140.738 154.168 146.247 152.864 147C149.778 148.782 145.777 149.197 141.5 147.541C137.223 145.875 130.417 143.619 128.753 141.246C127.089 138.863 126.025 135.773 126.025 135.773C126.025 135.773 121.39 134.107 119.968 131.967C118.546 129.826 117.588 126.262 118.546 123.995C119.505 121.727 116.766 114.842 118.546 107.46C120.326 100.079 129.48 95.2069 136.485 94.7324C143.489 94.2579 150.031 97.3475 151.453 99.4882L151.442 99.4987Z" fill="white" stroke="#1B1743" stroke-width="1.5" stroke-linecap="round" stroke-linejoin="round"/>
<path d="M150.082 118.732C150.082 118.732 149.45 119.523 149.924 121.274C150.398 123.024 153.421 126.356 153.421 126.356" stroke="#1B1743" stroke-width="1.5" stroke-linecap="round" stroke-linejoin="round"/>
<path d="M116.534 107.46C120 97.5002 128.373 93.2812 136.473 92.7325C143.477 92.2579 150.019 97.3476 151.441 99.4882C151.441 99.4882 154.885 100.912 156.781 109L150.956 103.885C150.956 103.885 145.015 100.68 141.813 101.028C138.611 101.376 135.988 102.694 135.282 105.784C134.566 108.873 136.23 110.539 131.122 115.179C130.121 116.086 128.983 117.183 128.373 118.406C127.635 119.882 127.835 121.928 126.613 123.151C125.665 124.1 125.897 126.125 124.117 125.049C122.337 123.984 121.979 122.434 121.031 122.318C120.083 122.202 119.008 122.793 119.008 122.793L118.734 122.824C118.829 119.85 114.996 113.829 116.534 107.45L116.534 107.46Z" fill="#1B1743" stroke="#1B1743" stroke-width="1.5" stroke-linecap="round" stroke-linejoin="round"/>
<path d="M141.824 101.038C141.824 101.038 145.742 99.2558 148.239 101.987C150.735 104.718 149.661 107.101 152.273 109.474C154.885 111.857 158.214 114.114 158.214 114.114L158.804 117.446C158.804 117.446 163.554 114.24 162.49 109.474C161.427 104.718 157.15 103.411 156.434 101.386C155.717 99.3613 157.266 95.3226 149.661 93.2979C142.056 91.2733 138.38 90.5668 136.473 94.7215C134.577 98.8867 141.813 101.027 141.813 101.027L141.824 101.038Z" fill="#1B1743" stroke="#1B1743" stroke-width="1.5" stroke-linecap="round" stroke-linejoin="round"/>
<path d="M153.137 128.381C153.137 128.381 152.526 129.594 151.314 130.058" stroke="#1B1743" stroke-width="1.5" stroke-linecap="round" stroke-linejoin="round"/>
<path d="M153.591 136.077C153.591 136.077 146.902 137.448 143.1 134.095" stroke="#1B1743" stroke-width="1.5" stroke-linecap="round" stroke-linejoin="round"/>
<path d="M142.035 121.98C142.792 121.98 143.405 121.13 143.405 120.082C143.405 119.033 142.792 118.184 142.035 118.184C141.279 118.184 140.666 119.033 140.666 120.082C140.666 121.13 141.279 121.98 142.035 121.98Z" fill="#1B1743"/>
<path d="M154.654 122.212C155.411 122.212 156.024 121.362 156.024 120.314C156.024 119.266 155.411 118.416 154.654 118.416C153.898 118.416 153.285 119.266 153.285 120.314C153.285 121.362 153.898 122.212 154.654 122.212Z" fill="#1B1743"/>
<path d="M144.921 115.59C144.921 115.59 141.876 112.089 137.168 116.043" stroke="#1B1743" stroke-width="1.5" stroke-linecap="round" stroke-linejoin="round"/>
<path d="M150.852 116.507C150.852 116.507 154.96 113.312 157.698 116.813" stroke="#1B1743" stroke-width="1.5" stroke-linecap="round" stroke-linejoin="round"/>
<path d="M127.456 181.285L81.5938 176.593L82.8262 182.909L123.169 192.294L127.456 181.285Z" fill="white" stroke="#1B1743" stroke-width="1.5" stroke-linecap="round" stroke-linejoin="round"/>
<path d="M117.26 186.589L79.8457 178.396L98.6478 246.273L135.399 259.012L117.26 186.589Z" fill="#1B1743" stroke="#1B1743" stroke-width="1.5" stroke-linecap="round" stroke-linejoin="round"/>
<path d="M123.843 182.719L83.6055 177.984" stroke="#1B1743" stroke-width="1.5" stroke-linecap="round" stroke-linejoin="round"/>
<path d="M119.25 184.955L96.5508 180.769" stroke="#1B1743" stroke-width="1.5" stroke-linecap="round" stroke-linejoin="round"/>
<path d="M127.456 181.285L144.162 255.543L135.398 259.012L117.26 186.589L127.456 181.285Z" fill="#807D9B" stroke="#1B1743" stroke-width="1.5" stroke-linecap="round" stroke-linejoin="round"/>
<path d="M111.845 220.67C111.845 220.67 112.319 216.747 115.616 215.018C118.913 213.289 123.938 213.289 127.077 212.35C130.216 211.412 130.374 212.666 129.584 214.238C128.804 215.809 128.804 216.905 127.077 217.222C125.349 217.538 124.096 217.854 124.096 217.854L130.216 218.171C130.216 218.171 136.493 216.125 137.589 215.503C138.684 214.87 139.632 215.819 139.474 217.074L139.316 218.329L140.412 221.63L139.78 223.833C139.78 223.833 139.938 226.185 139.622 226.976C139.306 227.756 135.703 233.102 133.976 234.357C132.248 235.612 128.172 236.561 128.172 236.561C128.172 236.561 118.281 235.306 117.502 235.306C116.722 235.306 112.635 237.658 112.635 237.658L110.592 227.292L111.845 220.691V220.67Z" fill="white" stroke="#1B1743" stroke-width="1.5" stroke-linecap="round" stroke-linejoin="round"/>
<path d="M139.306 218.308C139.306 218.308 135.387 221.292 131.774 222.547C128.161 223.802 126.75 224.276 126.75 224.276" stroke="#1B1743" stroke-width="1.5" stroke-linecap="round" stroke-linejoin="round"/>
<path d="M139.769 223.812C139.769 223.812 134.123 227.588 132.08 228.684C130.036 229.781 128.309 230.097 128.309 230.097" stroke="#1B1743" stroke-width="1.5" stroke-linecap="round" stroke-linejoin="round"/>
<path d="M137.263 229.623C137.263 229.623 132.871 232.924 129.1 233.24" stroke="#1B1743" stroke-width="1.5" stroke-linecap="round" stroke-linejoin="round"/>
<path d="M124.084 217.844L117.49 218.308" stroke="#1B1743" stroke-width="1.5" stroke-linecap="round" stroke-linejoin="round"/>
<path d="M111.371 225.7C111.371 225.7 90.3468 228.843 87.5238 229.317C84.7009 229.792 79.6764 231.669 77.9489 237.489C76.2215 243.3 81.0879 249.901 84.8483 250.997C88.6193 252.094 114.668 244.238 114.668 244.238L111.371 225.7Z" fill="#D3D3E3" stroke="#1B1743" stroke-width="1.5" stroke-linecap="round" stroke-linejoin="round"/>
<path d="M180.639 165.984L201.601 230.256L178.375 234.178L172.887 204.02L180.639 165.984Z" fill="#D3D3E3" stroke="#1B1743" stroke-width="1.5" stroke-linecap="round" stroke-linejoin="round"/>
<path d="M148.566 240.621L146.059 233.081C146.059 233.081 144.015 230.73 141.982 228.368C139.939 226.016 139.634 223.021 138.686 225.7C137.748 228.368 138.37 231.668 139.623 232.765C140.876 233.861 140.876 235.274 141.034 235.907C141.192 236.54 140.876 237.637 140.876 237.637C140.876 237.637 135.231 237.637 132.555 237.953C129.89 238.269 125.34 240.779 125.182 241.876C125.024 242.972 126.593 244.227 126.593 244.227C126.593 244.227 124.392 245.64 124.866 246.737C125.34 247.834 126.593 247.992 126.593 247.992C126.593 247.992 125.656 249.721 126.593 250.037C127.531 250.354 128.795 250.976 128.795 250.976C128.795 250.976 130.206 253.486 130.838 253.802C131.47 254.118 141.192 256.312 143.71 256.786C146.217 257.261 152.179 254.582 152.179 254.582L157.825 254.266L155.16 244.681C155.16 244.681 152.958 241.222 152.495 241.064C152.031 240.905 148.576 240.589 148.576 240.589L148.566 240.621Z" fill="white" stroke="#1B1743" stroke-width="1.5" stroke-linecap="round" stroke-linejoin="round"/>
<path d="M126.594 244.227C126.594 244.227 132.398 242.498 133.188 242.498C133.978 242.498 139.308 241.865 139.308 241.865" stroke="#1B1743" stroke-width="1.5" stroke-linecap="round" stroke-linejoin="round"/>
<path d="M126.594 248.002C126.594 248.002 130.986 248.318 132.082 248.318C133.177 248.318 139.613 247.063 139.613 247.063" stroke="#1B1743" stroke-width="1.5" stroke-linecap="round" stroke-linejoin="round"/>
<path d="M128.795 250.986C128.795 250.986 131.302 251.925 131.776 251.925H141.035" stroke="#1B1743" stroke-width="1.5" stroke-linecap="round" stroke-linejoin="round"/>
<path d="M187.948 226.639L152.482 241.096L160.172 263.715C160.172 263.715 193.436 246.59 198.619 241.56C203.801 236.53 202.232 228.368 199.398 226.164C196.575 223.96 195.006 223.812 195.006 223.812" fill="#D3D3E3"/>
<path d="M187.948 226.639L152.482 241.096L160.172 263.715C160.172 263.715 193.436 246.59 198.619 241.56C203.801 236.53 202.232 228.368 199.398 226.164C196.575 223.96 195.006 223.812 195.006 223.812" stroke="#1B1743" stroke-width="1.5" stroke-linecap="round" stroke-linejoin="round"/>
<path d="M158.288 158.93L162.364 162.852L159.225 165.678L163.776 171.647C163.776 171.647 159.699 196.786 154.043 209.197C148.397 221.609 145.416 226.164 145.416 226.164" stroke="#1B1743" stroke-width="1.5" stroke-linecap="round" stroke-linejoin="round"/>
<path d="M116.396 158.149L112.004 164.898L116.554 168.041L112.309 172.438L115.922 178.881" stroke="#1B1743" stroke-width="1.5" stroke-linecap="round" stroke-linejoin="round"/>
<defs>
<filter id="filter0_dddd_534_7001" x="10.0039" y="8" width="539.809" height="521.831" filterUnits="userSpaceOnUse" color-interpolation-filters="sRGB">
<feFlood flood-opacity="0" result="BackgroundImageFix"/>
<feColorMatrix in="SourceAlpha" type="matrix" values="0 0 0 0 0 0 0 0 0 0 0 0 0 0 0 0 0 0 127 0" result="hardAlpha"/>
<feOffset dy="-4"/>
<feGaussianBlur stdDeviation="2"/>
<feComposite in2="hardAlpha" operator="out"/>
<feColorMatrix type="matrix" values="0 0 0 0 0.105882 0 0 0 0 0.0901961 0 0 0 0 0.262745 0 0 0 0.16 0"/>
<feBlend mode="normal" in2="BackgroundImageFix" result="effect1_dropShadow_534_7001"/>
<feColorMatrix in="SourceAlpha" type="matrix" values="0 0 0 0 0 0 0 0 0 0 0 0 0 0 0 0 0 0 127 0" result="hardAlpha"/>
<feOffset dx="6" dy="-2"/>
<feGaussianBlur stdDeviation="5.5"/>
<feComposite in2="hardAlpha" operator="out"/>
<feColorMatrix type="matrix" values="0 0 0 0 0.105882 0 0 0 0 0.0901961 0 0 0 0 0.262745 0 0 0 0.1 0"/>
<feBlend mode="normal" in2="effect1_dropShadow_534_7001" result="effect2_dropShadow_534_7001"/>
<feColorMatrix in="SourceAlpha" type="matrix" values="0 0 0 0 0 0 0 0 0 0 0 0 0 0 0 0 0 0 127 0" result="hardAlpha"/>
<feOffset dx="-4"/>
<feGaussianBlur stdDeviation="8"/>
<feComposite in2="hardAlpha" operator="out"/>
<feColorMatrix type="matrix" values="0 0 0 0 0.105882 0 0 0 0 0.0901961 0 0 0 0 0.262745 0 0 0 0.22 0"/>
<feBlend mode="normal" in2="effect2_dropShadow_534_7001" result="effect3_dropShadow_534_7001"/>
<feColorMatrix in="SourceAlpha" type="matrix" values="0 0 0 0 0 0 0 0 0 0 0 0 0 0 0 0 0 0 127 0" result="hardAlpha"/>
<feOffset dx="6" dy="-3"/>
<feGaussianBlur stdDeviation="7.5"/>
<feComposite in2="hardAlpha" operator="out"/>
<feColorMatrix type="matrix" values="0 0 0 0 0.105882 0 0 0 0 0.0901961 0 0 0 0 0.262745 0 0 0 0.09 0"/>
<feBlend mode="normal" in2="effect3_dropShadow_534_7001" result="effect4_dropShadow_534_7001"/>
<feBlend mode="normal" in="SourceGraphic" in2="effect4_dropShadow_534_7001" result="shape"/>
</filter>
</defs>
</svg>
