<svg width="620" height="623" viewBox="0 0 620 623" fill="none" xmlns="http://www.w3.org/2000/svg">
<g filter="url(#filter0_dddd_561_5841)">
<path d="M524.981 162.141C521.462 160.137 517.977 158.101 514.513 155.998C477.233 133.473 302.994 31.2738 233.569 46.5488C155.622 63.7056 6.40285 333.963 54.2726 407.67C102.142 481.378 324.196 599.737 379.137 574.545C434.077 549.352 569.011 304.686 574.621 246.53C579.413 196.875 537.375 169.181 524.981 162.141Z" fill="white"/>
</g>
<path opacity="0.3" d="M434.567 90.2836C434.567 90.2836 426.465 50.6948 399.468 53.384C387.191 54.6116 378.983 60.7616 371.863 70.3255C362.732 82.5903 359.458 75.4583 346.386 79.4803C334.682 83.0814 336.483 92.9727 329.292 94.7733C322.09 96.5739 316.688 88.4714 306.797 90.2719C296.894 92.0725 291.504 101.976 291.504 101.976H471.479C471.479 101.976 470.579 91.1722 458.875 87.5828C447.171 83.9817 441.781 92.9844 434.579 90.2836H434.567Z" stroke="#807D9B" stroke-width="1.5" stroke-miterlimit="10"/>
<path opacity="0.3" d="M172.712 230.598C172.712 230.598 168.398 209.494 154.005 210.933C147.458 211.587 143.085 214.861 139.297 219.959C134.433 226.495 132.691 222.695 125.722 224.834C119.49 226.752 120.449 232.025 116.614 232.984C112.779 233.942 109.903 229.628 104.63 230.587C99.3567 231.545 96.4805 236.818 96.4805 236.818H192.39C192.39 236.818 191.911 231.066 185.679 229.149C179.447 227.231 176.571 232.025 172.736 230.587L172.712 230.598Z" stroke="#807D9B" stroke-width="1.5" stroke-miterlimit="10"/>
<path opacity="0.3" d="M465.234 548.419C465.234 548.419 460.919 527.315 446.527 528.765C439.979 529.42 435.606 532.693 431.818 537.791C426.954 544.327 425.212 540.527 418.244 542.666C412.012 544.584 412.971 549.857 409.136 550.816C405.301 551.774 402.424 547.46 397.151 548.419C391.878 549.378 389.002 554.651 389.002 554.651H484.911C484.911 554.651 484.432 548.898 478.2 546.981C471.968 545.063 469.092 549.857 465.257 548.419H465.234Z" stroke="#807D9B" stroke-width="1.5" stroke-miterlimit="10"/>
<g opacity="0.3">
<path d="M292.013 185.39L266.205 201.143L293.477 245.821L319.285 230.069L292.013 185.39Z" stroke="#807D9B" stroke-width="1.5" stroke-miterlimit="10"/>
<path d="M293.397 193.289C291.678 194.342 289.433 193.792 288.381 192.073C288.299 191.945 288.229 191.804 288.17 191.676L273.357 200.725C273.45 200.842 273.544 200.959 273.614 201.099C274.666 202.818 274.117 205.063 272.398 206.115C272.328 206.15 272.269 206.185 272.199 206.221L291.69 238.139C291.748 238.093 291.807 238.058 291.877 238.011C293.596 236.959 295.84 237.508 296.893 239.227C296.975 239.355 297.045 239.496 297.103 239.624L311.917 230.575C311.823 230.458 311.73 230.341 311.66 230.201C310.607 228.482 311.157 226.237 312.876 225.185C313.004 225.103 313.145 225.033 313.273 224.974L293.771 193.02C293.654 193.114 293.537 193.207 293.397 193.278V193.289ZM295.852 220.695C293.034 222.414 289.351 221.525 287.633 218.707C285.914 215.89 286.803 212.207 289.62 210.488C292.438 208.769 296.121 209.658 297.84 212.476C299.559 215.293 298.67 218.976 295.852 220.695Z" stroke="#807D9B" stroke-width="1.5" stroke-miterlimit="10"/>
</g>
<g opacity="0.3">
<path d="M484.154 98.5206L501.9 123L544.281 92.277L526.534 67.7975L484.154 98.5206Z" stroke="#807D9B" stroke-width="1.5" stroke-miterlimit="10"/>
<path d="M491.939 96.5161C493.12 98.1413 492.757 100.433 491.132 101.614C491.003 101.707 490.875 101.777 490.746 101.859L500.93 115.913C501.035 115.808 501.152 115.714 501.281 115.621C502.906 114.44 505.197 114.802 506.378 116.427C506.425 116.486 506.46 116.556 506.507 116.615L536.789 94.6688C536.789 94.6688 536.696 94.5519 536.649 94.4934C535.468 92.8683 535.83 90.5766 537.456 89.3958C537.584 89.3022 537.713 89.2321 537.841 89.1502L527.658 75.0966C527.553 75.2018 527.436 75.2953 527.307 75.3889C525.682 76.5697 523.39 76.2073 522.209 74.5821C522.116 74.4535 522.046 74.3249 521.964 74.1963L491.658 96.1654C491.763 96.2706 491.857 96.3875 491.95 96.5161H491.939ZM519.064 91.8978C521.005 94.5753 520.409 98.305 517.731 100.246C515.054 102.187 511.324 101.59 509.383 98.913C507.442 96.2355 508.039 92.5058 510.716 90.5649C513.393 88.6241 517.123 89.2204 519.064 91.8978Z" stroke="#807D9B" stroke-width="1.5" stroke-miterlimit="10"/>
</g>
<g opacity="0.3">
<path d="M82.6315 253.201L70.2324 280.777L117.974 302.243L130.373 274.667L82.6315 253.201Z" stroke="#807D9B" stroke-width="1.5" stroke-miterlimit="10"/>
<path d="M88.2608 258.951C87.4307 260.787 85.2794 261.605 83.4437 260.787C83.3034 260.728 83.1748 260.647 83.0462 260.576L75.9258 276.407C76.0661 276.454 76.2064 276.501 76.3467 276.559C78.1823 277.389 79.0008 279.541 78.1823 281.376C78.1473 281.446 78.1122 281.505 78.0771 281.575L112.183 296.915C112.206 296.845 112.229 296.774 112.265 296.704C113.095 294.869 115.246 294.05 117.082 294.869C117.222 294.927 117.351 295.009 117.479 295.079L124.6 279.248C124.459 279.202 124.319 279.155 124.179 279.096C122.343 278.266 121.525 276.115 122.343 274.279C122.401 274.139 122.483 274.01 122.553 273.882L88.4128 258.53C88.3661 258.671 88.3193 258.811 88.2608 258.951ZM105.764 280.172C104.407 283.188 100.877 284.521 97.86 283.177C94.8434 281.832 93.5106 278.29 94.8551 275.273C96.2114 272.257 99.7541 270.924 102.759 272.268C105.775 273.625 107.108 277.155 105.764 280.172Z" stroke="#807D9B" stroke-width="1.5" stroke-miterlimit="10"/>
</g>
<g opacity="0.3">
<path d="M121.542 111.464L109.143 139.04L156.884 160.506L169.283 132.93L121.542 111.464Z" stroke="#807D9B" stroke-width="1.5" stroke-miterlimit="10"/>
<path d="M127.171 117.211C126.341 119.047 124.19 119.865 122.354 119.047C122.214 118.988 122.085 118.906 121.956 118.836L114.836 134.667C114.976 134.714 115.117 134.76 115.257 134.819C117.092 135.649 117.911 137.8 117.092 139.636C117.057 139.706 117.022 139.765 116.987 139.835L151.093 155.175C151.116 155.104 151.14 155.034 151.175 154.964C152.005 153.128 154.156 152.31 155.992 153.128C156.132 153.187 156.261 153.269 156.389 153.339L163.51 137.508C163.369 137.461 163.229 137.415 163.089 137.356C161.253 136.526 160.435 134.375 161.253 132.539C161.312 132.399 161.393 132.27 161.464 132.141L127.323 116.79C127.276 116.93 127.229 117.071 127.171 117.211ZM144.674 138.432C143.318 141.448 139.787 142.781 136.77 141.437C133.754 140.08 132.421 136.549 133.765 133.533C135.122 130.516 138.653 129.183 141.669 130.528C144.686 131.884 146.019 135.415 144.674 138.432Z" stroke="#807D9B" stroke-width="1.5" stroke-miterlimit="10"/>
</g>
<g opacity="0.3">
<path d="M214.587 41.9425L202.188 69.5186L249.929 90.9842L262.328 63.4081L214.587 41.9425Z" stroke="#807D9B" stroke-width="1.5" stroke-miterlimit="10"/>
<path d="M220.206 47.6904C219.376 49.5261 217.225 50.3445 215.389 49.5261C215.249 49.4676 215.12 49.3858 214.992 49.3156L207.871 65.1464C208.011 65.1932 208.152 65.24 208.292 65.2984C210.128 66.1286 210.946 68.2799 210.128 70.1155C210.093 70.1857 210.057 70.2558 210.022 70.3143L244.128 85.654C244.151 85.5839 244.175 85.5137 244.21 85.4436C245.04 83.608 247.191 82.7895 249.027 83.608C249.167 83.6664 249.296 83.7483 249.424 83.8184L256.545 67.9876C256.405 67.9408 256.264 67.894 256.124 67.8356C254.288 67.0055 253.47 64.8541 254.288 63.0185C254.347 62.8782 254.429 62.7496 254.499 62.621L220.358 47.2695C220.311 47.4098 220.265 47.5501 220.206 47.6904ZM237.709 68.9112C236.353 71.9277 232.822 73.2606 229.805 71.9161C226.789 70.5598 225.456 67.0288 226.8 64.0123C228.157 60.9958 231.688 59.6629 234.704 61.0075C237.721 62.3638 239.054 65.8947 237.709 68.9112Z" stroke="#807D9B" stroke-width="1.5" stroke-miterlimit="10"/>
</g>
<g opacity="0.3">
<path d="M348.25 460.045L371.725 479.102L404.716 438.462L381.242 419.406L348.25 460.045Z" stroke="#807D9B" stroke-width="1.5" stroke-miterlimit="10"/>
<path d="M355.259 456.088C356.826 457.362 357.059 459.654 355.797 461.22C355.703 461.337 355.598 461.442 355.493 461.548L368.974 472.491C369.055 472.363 369.137 472.246 369.231 472.117C370.505 470.55 372.797 470.317 374.364 471.579C374.422 471.626 374.481 471.685 374.527 471.731L398.098 442.7C398.04 442.654 397.97 442.618 397.911 442.572C396.345 441.297 396.111 439.006 397.373 437.439C397.467 437.322 397.572 437.217 397.677 437.112L384.197 426.168C384.115 426.297 384.033 426.414 383.939 426.542C382.665 428.109 380.373 428.343 378.807 427.08C378.69 426.986 378.584 426.881 378.479 426.776L354.885 455.842C355.013 455.924 355.13 456.006 355.259 456.099V456.088ZM380.268 444.618C382.829 446.699 383.226 450.464 381.145 453.024C379.064 455.585 375.299 455.982 372.738 453.901C370.178 451.82 369.78 448.055 371.862 445.495C373.943 442.934 377.708 442.537 380.268 444.618Z" stroke="#807D9B" stroke-width="1.5" stroke-miterlimit="10"/>
</g>
<g opacity="0.3">
<path d="M137.434 535.345L160.908 554.401L193.9 513.762L170.426 494.706L137.434 535.345Z" stroke="#807D9B" stroke-width="1.5" stroke-miterlimit="10"/>
<path d="M144.441 531.384C146.007 532.659 146.241 534.95 144.978 536.517C144.885 536.634 144.78 536.739 144.674 536.845L158.155 547.788C158.237 547.66 158.319 547.543 158.412 547.414C159.687 545.847 161.979 545.613 163.545 546.876C163.604 546.923 163.662 546.981 163.709 547.028L187.28 517.997C187.222 517.95 187.151 517.915 187.093 517.869C185.526 516.594 185.292 514.303 186.555 512.736C186.649 512.619 186.754 512.514 186.859 512.408L173.378 501.465C173.296 501.593 173.215 501.71 173.121 501.839C171.847 503.406 169.555 503.64 167.988 502.377C167.871 502.283 167.766 502.178 167.661 502.073L144.066 531.139C144.195 531.221 144.312 531.303 144.441 531.396V531.384ZM169.45 519.915C172.01 521.996 172.408 525.761 170.327 528.321C168.245 530.882 164.481 531.279 161.92 529.198C159.36 527.117 158.962 523.352 161.043 520.792C163.124 518.231 166.889 517.833 169.45 519.915Z" stroke="#807D9B" stroke-width="1.5" stroke-miterlimit="10"/>
</g>
<g opacity="0.3">
<path d="M123.264 410.87L146.738 429.927L179.73 389.288L156.256 370.231L123.264 410.87Z" stroke="#807D9B" stroke-width="1.5" stroke-miterlimit="10"/>
<path d="M130.271 406.912C131.837 408.186 132.071 410.478 130.808 412.045C130.715 412.161 130.61 412.267 130.504 412.372L143.985 423.315C144.067 423.187 144.149 423.07 144.243 422.941C145.517 421.375 147.809 421.141 149.375 422.404C149.434 422.45 149.492 422.509 149.539 422.556L173.11 393.525C173.052 393.478 172.981 393.443 172.923 393.396C171.356 392.122 171.122 389.83 172.385 388.263C172.479 388.146 172.584 388.041 172.689 387.936L159.208 376.992C159.126 377.121 159.045 377.238 158.951 377.366C157.677 378.933 155.385 379.167 153.818 377.904C153.701 377.811 153.596 377.705 153.491 377.6L129.896 406.666C130.025 406.748 130.142 406.83 130.271 406.923V406.912ZM155.28 395.442C157.84 397.523 158.238 401.288 156.157 403.848C154.076 406.409 150.311 406.807 147.75 404.725C145.19 402.644 144.792 398.879 146.873 396.319C148.954 393.758 152.719 393.361 155.28 395.442Z" stroke="#807D9B" stroke-width="1.5" stroke-miterlimit="10"/>
</g>
<g opacity="0.3">
<path d="M511.3 278.792L485.492 294.545L512.764 339.224L538.572 323.471L511.3 278.792Z" stroke="#807D9B" stroke-width="1.5" stroke-miterlimit="10"/>
<path d="M512.682 286.684C510.963 287.736 508.718 287.187 507.666 285.468C507.584 285.339 507.514 285.199 507.456 285.07L492.642 294.12C492.735 294.237 492.829 294.354 492.899 294.494C493.951 296.213 493.402 298.458 491.683 299.51C491.613 299.545 491.555 299.58 491.484 299.615L510.975 331.534C511.033 331.487 511.092 331.452 511.162 331.405C512.881 330.353 515.126 330.903 516.178 332.621C516.26 332.75 516.33 332.89 516.388 333.019L531.202 323.969C531.109 323.852 531.015 323.735 530.945 323.595C529.893 321.876 530.442 319.632 532.161 318.579C532.289 318.497 532.43 318.427 532.558 318.369L513.056 286.415C512.939 286.508 512.822 286.602 512.682 286.672V286.684ZM515.137 314.09C512.319 315.808 508.637 314.92 506.918 312.102C505.199 309.284 506.088 305.601 508.905 303.883C511.723 302.164 515.406 303.052 517.125 305.87C518.844 308.688 517.955 312.371 515.137 314.09Z" stroke="#807D9B" stroke-width="1.5" stroke-miterlimit="10"/>
</g>
<path d="M33.4029 51.0222L188.918 33.8818L248.898 135.414L327.468 112.697L484.422 439.263L532.838 416.651L515.148 548.29L402.098 478.045L449.322 456.182L300.892 169.426L221.165 188.051L167.171 97.4741L32.7949 127.312L33.4029 51.0222Z" fill="#1B1743" stroke="#1B1743" stroke-width="1.5" stroke-linejoin="round"/>
<path d="M189.338 291.933V286.286" stroke="#1B1743" stroke-width="1.5" stroke-linejoin="round"/>
<path d="M189.338 326.788V299.347" stroke="#1B1743" stroke-width="1.5" stroke-linejoin="round"/>
<path d="M243.752 319.702V306.21" stroke="#1B1743" stroke-width="1.5" stroke-linejoin="round"/>
<path d="M257.865 221.712V188.133" stroke="#1B1743" stroke-width="1.5" stroke-linejoin="round"/>
<path d="M318.125 153.712V121.057" stroke="white" stroke-width="1.5" stroke-linejoin="round"/>
<path d="M318.125 255.747V217.176" stroke="#1B1743" stroke-width="1.5" stroke-linejoin="round"/>
<path d="M432.32 241.144V220.566" stroke="#1B1743" stroke-width="1.5" stroke-linejoin="round"/>
<path d="M462.193 196.669V165.463" stroke="#1B1743" stroke-width="1.5" stroke-linejoin="round"/>
<path d="M212.488 563.583C212.488 563.583 211.237 569.838 210.196 572.551C209.155 575.263 210.407 576.725 211.868 575.474C213.33 574.223 215.2 566.097 215.2 566.097L212.488 563.595V563.583Z" fill="white" stroke="#1B1743" stroke-width="1.5" stroke-linejoin="round"/>
<path d="M210.817 562.332C210.817 562.332 209.145 567.336 207.484 569.417C205.812 571.498 203.112 573.591 204.772 574.001C206.444 574.421 211.027 570.668 212.278 568.575C213.529 566.494 215.201 566.073 215.201 566.073L210.828 562.32L210.817 562.332Z" fill="white" stroke="#1B1743" stroke-width="1.5" stroke-linejoin="round"/>
<path d="M224.999 526.893C224.999 526.893 222.076 538.574 221.877 539.193C221.667 539.813 213.541 555.667 213.541 555.667L210.828 562.343C210.828 562.343 215.002 573.813 216.253 574.023C217.504 574.234 217.504 573.603 217.715 571.311C217.925 569.019 216.464 561.303 216.464 561.303L217.083 557.55C217.083 557.55 218.954 566.728 219.585 568.809C220.205 570.89 222.298 571.1 222.707 570.06C223.128 569.019 221.456 554.007 221.456 554.007L232.505 543.788H237.509C237.509 543.788 237.088 549.003 238.129 551.505C239.17 554.007 242.093 559.432 243.133 557.97C244.174 556.509 242.513 554.428 242.303 549.424C242.093 544.42 245.016 541.497 243.975 538.585C242.934 535.662 235.639 520.86 235.639 520.86L225.011 526.905L224.999 526.893Z" fill="white" stroke="#1B1743" stroke-width="1.5" stroke-linejoin="round"/>
<path d="M220.824 545.659C220.824 545.659 216.65 552.744 216.65 554.416C216.65 556.088 217.071 557.538 217.071 557.538" fill="white"/>
<path d="M220.824 545.659C220.824 545.659 216.65 552.744 216.65 554.416C216.65 556.088 217.071 557.538 217.071 557.538" stroke="#1B1743" stroke-width="1.5" stroke-linejoin="round"/>
<path d="M221.035 520.217L222.707 530.015L237.299 522.1L235.416 513.962L221.035 520.217Z" fill="white" stroke="#1B1743" stroke-width="1.5" stroke-linejoin="round"/>
<path d="M225.816 358.133C225.816 358.133 243.389 358.402 253.117 355.432C262.845 352.462 287.445 341.109 296.366 338.666C305.287 336.234 311.507 334.878 312.314 337.859C313.121 340.84 316.64 346.242 301.768 358.133C286.895 370.023 256.894 384.895 242.022 387.058C227.149 389.221 220.941 367.591 225.805 358.133H225.816Z" fill="white" stroke="#1B1743" stroke-width="1.5" stroke-linejoin="round"/>
<path d="M284.078 293.395C284.078 293.395 264.517 307.016 263.325 307.799C262.132 308.594 243.764 319.701 243.764 319.701C243.764 319.701 236.889 322.741 236.363 324.191C235.837 325.641 229.488 350.767 229.488 350.767L229.336 361.266C229.336 361.266 240.268 362.108 249.516 361.266C258.765 360.424 284.826 343.892 284.826 343.892H271.38L262.974 336.608C262.974 336.608 280.348 314.475 283.435 308.021C286.521 301.579 286.182 291.91 284.113 293.383L284.078 293.395Z" fill="#D3D3E3" stroke="#1B1743" stroke-width="1.5" stroke-linejoin="round"/>
<path d="M251.469 366.796L257.864 361.687C257.864 361.687 267.159 354.239 269.065 353.175C270.959 352.1 265.85 338.362 262.015 324.951C258.18 311.529 274.151 307.694 276.712 288.531C279.272 269.356 271.602 263.288 269.685 254.028C267.767 244.768 267.452 231.977 267.452 231.977L253.714 222.39L248.604 237.086C248.604 237.086 255 254.975 261.068 262.329C267.136 269.683 269.054 288.203 267.136 294.914C265.219 301.626 251.48 318.778 252.755 323.945C254.029 329.102 264.576 349.878 260.425 354.029C256.274 358.179 254.029 361.383 254.029 361.383L246.874 360.892L243.799 365.218L251.469 366.82V366.796Z" fill="#1B1743" stroke="#1B1743" stroke-width="1.5" stroke-linejoin="round"/>
<path d="M247.307 377.658L251.469 366.796L243.799 365.194L249.867 357.209L231.137 353.304L238.316 383.504L247.307 377.658Z" fill="white" stroke="#1B1743" stroke-width="1.5" stroke-linejoin="round"/>
<path d="M233.357 358.074C233.357 358.074 239.285 361.184 241.542 363.195C243.798 365.206 242.734 366.948 241.366 370.362C239.998 373.776 238.467 375.647 238.467 375.647L233.346 358.086L233.357 358.074Z" fill="white" stroke="#1B1743" stroke-width="1.5" stroke-linejoin="round"/>
<path d="M269.055 353.176L299.863 342.174C299.863 342.174 326.755 332.879 327.982 331.908C329.21 330.926 330.917 308.922 331.163 304.771C331.408 300.609 331.654 295.722 331.654 295.722C331.654 295.722 315.764 306.724 306.96 313.084C298.156 319.445 283.728 332.89 279.577 337.777C275.415 342.665 269.066 353.187 269.066 353.187L269.055 353.176Z" fill="#1B1743" stroke="#1B1743" stroke-width="1.5" stroke-linejoin="round"/>
<path d="M445.838 242.032C445.838 242.032 452.163 237.46 453.929 236.396C455.694 235.332 459.225 219.092 459.938 212.732C460.64 206.371 461.704 203.554 464.533 204.255C467.363 204.957 472.309 228.633 472.659 232.865C473.01 237.109 470.894 243.107 471.595 245.586C472.297 248.053 474.062 250.883 472.297 253.361C470.531 255.828 447.802 254.671 447.802 254.671L445.838 242.043V242.032Z" fill="#1B1743" stroke="#1B1743" stroke-width="1.5" stroke-linejoin="round"/>
<path d="M472.647 232.865C472.296 228.621 467.351 204.956 464.521 204.255C463.82 204.08 463.235 204.126 462.732 204.384C465.667 212.194 470.566 226.154 469.818 230.398C468.754 236.408 467.351 248.766 468.052 251.595C468.263 252.426 468.497 253.454 468.765 254.483C470.601 254.238 471.922 253.887 472.297 253.361C474.062 250.894 472.296 248.065 471.595 245.586C470.893 243.119 473.01 237.109 472.659 232.865H472.647Z" fill="#1B1743" stroke="#1B1743" stroke-width="1.5" stroke-linejoin="round"/>
<path d="M351.296 300.936C351.296 300.936 354.102 267.556 356.067 264.469C358.031 261.382 374.026 259.699 388.044 256.612C402.075 253.525 445.838 242.021 445.838 242.021L447.802 254.648C447.802 254.648 429.843 263.347 418.911 268.397C407.968 273.448 396.194 279.341 390.581 280.463C384.969 281.586 380.76 282.147 380.76 282.147C380.76 282.147 389.178 332.083 390.862 345.833C392.546 359.583 389.178 369.111 387.214 371.918C385.25 374.724 373.745 353.959 361.41 328.997C349.063 304.034 351.308 300.948 351.308 300.948L351.296 300.936Z" fill="#D3D3E3" stroke="#1B1743" stroke-width="1.5" stroke-linejoin="round"/>
<path d="M387.203 371.918C389.167 369.112 392.534 359.571 390.85 345.833C390.523 343.167 389.95 339.145 389.225 334.387C376.972 305.04 360.568 282.007 354.184 273.601C352.676 284.474 351.296 300.948 351.296 300.948C351.296 300.948 349.052 304.035 361.398 328.997C373.745 353.959 385.238 374.724 387.203 371.918Z" fill="#1B1743" stroke="#1B1743" stroke-width="1.5" stroke-linejoin="round"/>
<path d="M387.88 227.569C387.88 227.569 388.581 221.56 388.944 218.742C389.306 215.924 385.763 198.258 382.934 193.312C380.104 188.366 382.583 185.899 384.349 185.899C386.114 185.899 403.067 198.971 405.897 203.203C408.726 207.448 415.438 221.221 417.203 224.038C418.969 226.868 395.304 238.875 395.304 238.875L387.891 227.569H387.88Z" fill="#1B1743" stroke="#1B1743" stroke-width="1.5" stroke-linejoin="round"/>
<path d="M417.191 224.027C415.426 221.197 408.715 207.424 405.885 203.192C403.056 198.948 386.102 185.888 384.337 185.888C383.904 185.888 383.425 186.04 382.992 186.344C388.254 190.716 403.278 203.309 405.885 207.085C408.165 210.382 413.017 220.987 415.554 226.692C416.864 225.558 417.542 224.611 417.191 224.038V224.027Z" fill="#1B1743" stroke="#1B1743" stroke-width="1.5" stroke-linejoin="round"/>
<path d="M334.178 339.099C334.178 339.099 302.481 271.496 303.603 268.69C304.726 265.884 375.135 235.029 378.783 232.784C382.431 230.539 386.932 225.594 386.932 225.594L398.425 239.238C398.425 239.238 377.66 252.427 363.922 262.517C350.173 272.619 339.521 278.792 339.521 278.792C339.521 278.792 344.011 287.771 361.128 304.315C378.245 320.871 394.228 350.042 390.861 367.44C387.493 384.837 368.143 390.157 362.25 392.683C356.358 395.208 350.745 395.769 350.745 395.769C350.745 395.769 341.485 349.481 334.19 339.099H334.178Z" fill="#D3D3E3" stroke="#1B1743" stroke-width="1.5" stroke-linejoin="round"/>
<path d="M238.632 378.511C238.632 378.511 247.202 374.08 248.243 373.776C249.284 373.484 254.007 368.164 254.007 368.164L257.117 373.776C257.117 373.776 260.812 368.164 261.104 367.72C261.397 367.275 264.951 360.038 264.951 360.038C264.951 360.038 274.854 359.886 277.368 359.442C279.882 358.997 292.147 352.637 292.147 352.637C292.147 352.637 314.174 329.136 317.869 324.401C321.564 319.666 326.439 315.387 326.439 315.387C326.439 315.387 329.982 330.025 337.383 343.915C344.772 357.817 350.84 384.123 350.84 392.553C350.84 400.983 352.021 402.316 352.021 402.316C352.021 402.316 339.756 404.982 326.007 406.455C312.257 407.928 293.631 411.775 293.631 411.775L238.492 427.594C238.492 427.594 234.213 483.154 234.505 486.264C234.797 489.374 237.463 516.417 237.463 516.417C237.463 516.417 227.56 520.264 225.046 521.889C222.532 523.514 220.615 524.847 220.615 524.847C220.615 524.847 214.851 512.875 213.366 500.458C211.881 488.041 207.005 429.663 207.005 429.663C207.005 429.663 205.532 421.83 203.603 418.72C201.686 415.61 203.311 411.33 204.492 406.888C205.673 402.456 210.104 376.734 210.104 376.734C210.104 376.734 220.603 379.844 228.145 379.844C235.686 379.844 238.644 378.511 238.644 378.511H238.632Z" fill="#D3D3E3" stroke="#1B1743" stroke-width="1.5" stroke-linejoin="round"/>
<path d="M238.48 427.594L249.553 408.606L251.307 423.163L238.48 427.594Z" fill="#1B1743" stroke="#1B1743" stroke-width="1.5" stroke-linejoin="round"/>
<path d="M285.541 360.366C287.903 357.981 289.423 356.355 289.423 356.355" stroke="#1B1743" stroke-width="1.5" stroke-linejoin="round"/>
<path d="M240.223 383.036C240.223 383.036 255.446 381.574 263.992 378.032C268.623 376.114 275.696 369.918 281.203 364.633" stroke="#1B1743" stroke-width="1.5" stroke-linejoin="round"/>
<path d="M225.07 420.777C226.31 421.303 227.549 421.923 228.742 422.648" stroke="#1B1743" stroke-width="1.5" stroke-linejoin="round"/>
<path d="M207.273 418.065C207.273 418.065 212.301 417.539 218.451 418.767" stroke="#1B1743" stroke-width="1.5" stroke-linejoin="round"/>
<path d="M301.172 367.626L303.861 385.526L307.439 385.222L304.153 366.737" fill="#D3D3E3"/>
<path d="M301.172 367.626L303.861 385.526L307.439 385.222L304.153 366.737" stroke="#1B1743" stroke-width="1.5" stroke-linejoin="round"/>
<path d="M193.429 366.153C193.429 366.153 197.358 370.806 200.936 374.372C204.513 377.938 211.213 381.61 217.024 383.667C222.835 385.725 229.803 388.765 232.761 388.403C235.708 388.04 237.415 385.187 238.303 383.48C239.192 381.785 239.823 376.418 238.397 368.912C236.97 361.406 232.761 353.982 232.761 353.982C232.761 353.982 235.439 352.193 235.357 348.709C235.263 345.224 231.323 342.641 229.055 342.278C226.787 341.916 225.173 343.705 225.08 343.973C224.986 344.242 216.135 344.149 215.247 343.798C214.358 343.436 211.049 338.163 209.167 338.256C207.284 338.35 205.589 340.22 205.507 341.202C205.414 342.185 201.754 348.978 200.947 349.691C200.14 350.404 195.043 354.695 195.043 354.695C195.043 354.695 190.576 354.601 189.863 358.623C189.15 362.645 193.441 366.13 193.441 366.13L193.429 366.153Z" fill="white" stroke="#1B1743" stroke-width="1.5" stroke-linejoin="round"/>
<path d="M209.553 367.93L217.889 376.266L219.865 373.951" stroke="#1B1743" stroke-width="1.5" stroke-linejoin="round"/>
<path d="M223.104 379.622C223.104 379.622 223.793 375.109 226.225 373.133C228.657 371.169 233.872 369.777 233.872 369.777L230.049 378.803C230.049 378.803 230.282 375.799 230.049 374.746C229.815 373.706 224.027 376.944 223.104 379.61V379.622Z" fill="#1B1743" stroke="#1B1743" stroke-width="1.5" stroke-linejoin="round"/>
<path d="M204.117 364.341C204.117 364.341 200.995 363.99 200.059 365.382C199.136 366.773 199.826 368.971 199.826 368.971" stroke="#1B1743" stroke-width="1.5" stroke-linejoin="round"/>
<path d="M209.553 359.36C209.553 359.36 210.243 356.578 212.102 355.42C213.949 354.263 217.316 354.263 217.316 354.263" stroke="#1B1743" stroke-width="1.5" stroke-linejoin="round"/>
<path d="M207.18 370.269C207.928 371.099 208.103 372.163 207.566 372.665C207.028 373.168 205.976 372.888 205.216 372.069C204.467 371.239 204.292 370.175 204.83 369.672C205.368 369.181 206.42 369.45 207.18 370.269Z" fill="#1B1743"/>
<path d="M217.024 362.973C217.772 363.803 217.947 364.867 217.409 365.37C216.872 365.861 215.819 365.592 215.059 364.773C214.311 363.943 214.136 362.879 214.673 362.376C215.211 361.885 216.264 362.154 217.024 362.973Z" fill="#1B1743"/>
<path d="M192.39 358.425L197.522 359.337C197.522 359.337 196.423 357.501 198.621 355.116C200.819 352.731 207.788 349.434 208.15 346.499C208.513 343.564 208.513 341.179 208.513 341.179L214.008 347.773C214.008 347.773 217.492 346.674 219.503 345.938C221.514 345.201 225.735 349.235 226.285 349.609C226.834 349.971 229.956 349.609 229.406 348.51C228.857 347.411 227.571 345.026 227.571 344.289C227.571 343.553 229.032 342.278 229.032 342.278C229.032 342.278 230.318 340.08 227.933 335.859C225.548 331.638 222.613 329.627 219.129 327.055C215.645 324.495 214.359 322.834 214.359 322.834L212.897 325.033C212.897 325.033 210.337 324.67 208.501 323.197C206.665 321.735 205.017 320.075 205.017 320.075C205.017 320.075 203.181 324.471 201.533 325.757C199.884 327.044 190.355 331.253 189.256 334.187C188.157 337.122 187.42 340.419 187.42 340.419L183.749 337.847C183.749 337.847 183.562 342.617 183.562 345.178C183.562 347.738 177.693 356.905 181.914 361.125C186.134 365.346 194.751 366.995 194.751 366.995C194.751 366.995 190.905 365.159 192.366 358.378L192.39 358.425Z" fill="#1B1743" stroke="#1B1743" stroke-width="1.5" stroke-linejoin="round"/>
<path d="M265.967 322.484C265.967 322.484 253.012 323.151 252.743 323.934C252.474 324.729 251.82 325.922 251.82 325.922C251.82 325.922 245.74 325.524 245.611 326.05C245.483 326.576 245.085 330.154 245.085 330.154C245.085 330.154 239.531 335.182 239.8 335.836C240.069 336.503 241.648 339.94 241.648 339.94C241.648 339.94 239.262 344.173 239.66 345.365C240.057 346.558 242.571 348.405 242.571 348.405C242.571 348.405 239.66 351.574 241.519 352.369C243.366 353.164 244.956 352.766 244.956 352.766C244.956 352.766 246.944 354.882 248.265 354.087C249.586 353.292 249.715 351.574 249.715 351.574C249.715 351.574 255.14 349.855 257.642 349.188C260.156 348.522 262.401 344.301 262.67 342.711C262.939 341.121 264.915 338.748 264.915 338.748C264.915 338.748 269.545 336.76 270.597 335.31C271.649 333.86 278.524 330.423 278.524 330.423C278.524 330.423 276.01 326.986 273.239 323.946C270.468 320.906 267.814 319.842 267.814 319.842L265.967 322.484Z" fill="white" stroke="#1B1743" stroke-width="1.5" stroke-linejoin="round"/>
<path d="M251.82 325.922C251.82 325.922 250.627 332.528 250.767 333.72C250.896 334.913 251.036 335.439 253.936 335.965C256.835 336.491 260.413 337.953 261.208 337.017C262.003 336.094 262.132 335.299 260.939 334.247C259.747 333.194 257.373 332.259 257.373 332.259C257.373 332.259 258.04 330.54 258.426 329.09" fill="white"/>
<path d="M251.82 325.922C251.82 325.922 250.627 332.528 250.767 333.72C250.896 334.913 251.036 335.439 253.936 335.965C256.835 336.491 260.413 337.953 261.208 337.017C262.003 336.094 262.132 335.299 260.939 334.247C259.747 333.194 257.373 332.259 257.373 332.259C257.373 332.259 258.04 330.54 258.426 329.09" stroke="#1B1743" stroke-width="1.5" stroke-linejoin="round"/>
<path d="M245.073 330.143C245.073 330.143 244.406 335.427 244.944 336.62C245.482 337.812 250.895 342.442 251.948 343.495C253 344.547 255.385 344.945 256.578 344.29C257.77 343.623 257.63 342.442 256.847 341.776C256.051 341.11 254.859 340.455 254.859 340.455L251.421 335.825" fill="white"/>
<path d="M245.073 330.143C245.073 330.143 244.406 335.427 244.944 336.62C245.482 337.812 250.895 342.442 251.948 343.495C253 344.547 255.385 344.945 256.578 344.29C257.77 343.623 257.63 342.442 256.847 341.776C256.051 341.11 254.859 340.455 254.859 340.455L251.421 335.825" stroke="#1B1743" stroke-width="1.5" stroke-linejoin="round"/>
<path d="M241.637 339.929C241.637 339.929 244.677 346.009 245.343 346.406C246.01 346.804 250.102 350.37 251.552 349.575C253.001 348.779 251.949 347.061 251.283 346.266C250.616 345.471 249.833 344.418 249.833 344.418L247.717 340.583" fill="white"/>
<path d="M241.637 339.929C241.637 339.929 244.677 346.009 245.343 346.406C246.01 346.804 250.102 350.37 251.552 349.575C253.001 348.779 251.949 347.061 251.283 346.266C250.616 345.471 249.833 344.418 249.833 344.418L247.717 340.583" stroke="#1B1743" stroke-width="1.5" stroke-linejoin="round"/>
<path d="M242.559 348.394L244.944 352.755" stroke="#1B1743" stroke-width="1.5" stroke-linejoin="round"/>
<path d="M249.704 351.562L247.318 348.394" stroke="#1B1743" stroke-width="1.5" stroke-linejoin="round"/>
<path d="M270.457 316.931L267.814 319.842L279.05 332.142L282.359 327.781C282.359 327.781 281.307 324.869 277.87 321.958C274.432 319.047 270.469 316.931 270.469 316.931H270.457Z" fill="white" stroke="#1B1743" stroke-width="1.5" stroke-linejoin="round"/>
<path d="M268.609 317.328L282.885 331.476C282.885 331.476 302.189 309.401 305.1 305.426C308.011 301.462 309.859 297.885 307.614 293.664C305.369 289.432 299.687 285.07 294.39 285.994C289.094 286.918 285.002 290.484 283.68 292.074C282.359 293.664 268.609 317.328 268.609 317.328Z" fill="#D3D3E3" stroke="#1B1743" stroke-width="1.5" stroke-linejoin="round"/>
<defs>
<filter id="filter0_dddd_561_5841" x="25" y="27" width="571" height="567" filterUnits="userSpaceOnUse" color-interpolation-filters="sRGB">
<feFlood flood-opacity="0" result="BackgroundImageFix"/>
<feColorMatrix in="SourceAlpha" type="matrix" values="0 0 0 0 0 0 0 0 0 0 0 0 0 0 0 0 0 0 127 0" result="hardAlpha"/>
<feOffset dy="-4"/>
<feGaussianBlur stdDeviation="2"/>
<feComposite in2="hardAlpha" operator="out"/>
<feColorMatrix type="matrix" values="0 0 0 0 0.105882 0 0 0 0 0.0901961 0 0 0 0 0.262745 0 0 0 0.16 0"/>
<feBlend mode="normal" in2="BackgroundImageFix" result="effect1_dropShadow_561_5841"/>
<feColorMatrix in="SourceAlpha" type="matrix" values="0 0 0 0 0 0 0 0 0 0 0 0 0 0 0 0 0 0 127 0" result="hardAlpha"/>
<feOffset dx="6" dy="-2"/>
<feGaussianBlur stdDeviation="5.5"/>
<feComposite in2="hardAlpha" operator="out"/>
<feColorMatrix type="matrix" values="0 0 0 0 0.105882 0 0 0 0 0.0901961 0 0 0 0 0.262745 0 0 0 0.1 0"/>
<feBlend mode="normal" in2="effect1_dropShadow_561_5841" result="effect2_dropShadow_561_5841"/>
<feColorMatrix in="SourceAlpha" type="matrix" values="0 0 0 0 0 0 0 0 0 0 0 0 0 0 0 0 0 0 127 0" result="hardAlpha"/>
<feOffset dx="-4"/>
<feGaussianBlur stdDeviation="8"/>
<feComposite in2="hardAlpha" operator="out"/>
<feColorMatrix type="matrix" values="0 0 0 0 0.105882 0 0 0 0 0.0901961 0 0 0 0 0.262745 0 0 0 0.22 0"/>
<feBlend mode="normal" in2="effect2_dropShadow_561_5841" result="effect3_dropShadow_561_5841"/>
<feColorMatrix in="SourceAlpha" type="matrix" values="0 0 0 0 0 0 0 0 0 0 0 0 0 0 0 0 0 0 127 0" result="hardAlpha"/>
<feOffset dx="6" dy="-3"/>
<feGaussianBlur stdDeviation="7.5"/>
<feComposite in2="hardAlpha" operator="out"/>
<feColorMatrix type="matrix" values="0 0 0 0 0.105882 0 0 0 0 0.0901961 0 0 0 0 0.262745 0 0 0 0.09 0"/>
<feBlend mode="normal" in2="effect3_dropShadow_561_5841" result="effect4_dropShadow_561_5841"/>
<feBlend mode="normal" in="SourceGraphic" in2="effect4_dropShadow_561_5841" result="shape"/>
</filter>
</defs>
</svg>
