<svg width="276" height="38" viewBox="0 0 276 38" fill="none" xmlns="http://www.w3.org/2000/svg">
<g style="mix-blend-mode:luminosity" clip-path="url(#clip0_626_2830)">
<path fill-rule="evenodd" clip-rule="evenodd" d="M66.2952 4.06025C64.3709 3.35373 62.3123 2.98706 60.2269 2.98706C55.7517 2.98706 51.5003 4.66839 48.3318 7.67333C47.0877 8.86279 46.0584 10.2132 45.2618 11.671L60.7191 37.1683L60.2179 38C54.7045 38 49.7191 35.8715 46.1121 32.4373C42.5051 29.0031 40.2675 24.2542 40.2675 19.0045C40.2675 15.6597 41.1805 12.5117 42.7736 9.77501L38.9876 3.5326L28.471 20.8826L38.3522 37.1772L37.8509 38H15.484L14.9828 37.1683L26.0007 18.9955L16.6207 3.5326L4.9852 22.7159H15.475V25.703H0.56372L0.0625 24.8713L14.9828 0.277242H15.9852L26.6719 17.8955L37.3497 0.277242H38.3522L43.4539 8.69287C44.2236 7.56602 45.1097 6.51071 46.1121 5.56272C49.7191 2.1285 54.7134 0 60.2179 0C63.5385 0 66.6711 0.769122 69.4189 2.13744V12.8515H66.2863V4.06025H66.2952ZM43.4628 10.9019C42.165 13.3344 41.4311 16.089 41.4311 18.9955C41.4311 23.9322 43.5344 28.4128 46.9356 31.6503C50.1129 34.6731 54.4181 36.6227 59.2065 36.8642L43.4628 10.9019ZM35.7118 35.0129L27.8086 21.9826L19.9055 35.0129H35.7118Z" fill="#48433F"/>
<path fill-rule="evenodd" clip-rule="evenodd" d="M275.062 13.8444H270.434C270.291 15.9371 268.626 17.5916 266.603 17.5916H252.945C250.833 17.5916 249.106 15.7761 249.106 13.5492V7.19058C249.106 4.9637 250.833 3.14821 252.945 3.14821H266.603C268.626 3.14821 270.291 4.80272 270.434 6.89545H275.062C274.623 3.2287 270.944 0.536775 267.57 0.536775H252.041C248.381 0.536775 244.496 3.67587 244.496 7.72717V13.0216C244.496 17.0729 248.372 20.212 252.041 20.212H267.57C270.944 20.212 274.623 17.5201 275.062 13.8533V13.8444ZM128.589 0.536775V20.212H133.189V12.7354H149.748C153.122 12.7354 157.534 10.7321 157.534 6.60032C157.534 2.46852 153.122 0.527832 149.748 0.527832H128.589V0.536775ZM133.189 10.1329V3.14821H149.076C151.099 3.14821 152.97 4.21246 152.97 6.60926C152.97 9.00606 151.09 10.124 149.076 10.124H133.189V10.1329ZM104.235 3.04089L111.44 13.7549H104.235V16.1517H113.051L115.781 20.212H120.954L107.35 0.527832H101.12L87.5156 20.212H92.6889L104.235 3.04089ZM230.757 20.212H235.42V0.527832H228.403L210.476 17.4843V0.527832H205.875V20.212H212.839L230.757 3.4344V20.212ZM166.252 0.527832V20.212H170.852V3.14821H188.359C190.472 3.14821 192.199 4.9637 192.199 7.19058V13.5492C192.199 15.7761 190.472 17.5916 188.359 17.5916H180.215V20.203H189.263C192.924 20.203 196.809 17.064 196.809 13.0127V7.71823C196.809 3.66692 192.924 0.527832 189.263 0.527832H166.252Z" fill="#8B7863"/>
<path fill-rule="evenodd" clip-rule="evenodd" d="M91.0958 31.0422H88.357V37.7497H87.5156V30.1389H91.9282V37.7497H91.0868V31.0422H91.0958ZM96.5465 34.7V37.7497H95.7052V30.1389H98.095C99.3391 30.1389 100.091 31.1227 100.091 32.4105C100.091 33.6984 99.348 34.6911 98.095 34.6911H96.5465V34.7ZM107.582 33.439V33.9488C107.582 34.9683 107.654 36.2025 106.983 37.0163C106.553 37.535 105.989 37.8212 105.336 37.8212C104.682 37.8212 104.119 37.535 103.689 37.0163C103.018 36.2114 103.089 34.9683 103.089 33.9488V33.3764C103.089 32.5178 103.134 31.5609 103.689 30.8812C104.119 30.3715 104.691 30.0763 105.336 30.0763C105.98 30.0763 106.553 30.3715 106.983 30.8812C107.555 31.5699 107.582 32.5626 107.582 33.439ZM111.95 31.0422V33.4658H114.653V34.3691H111.95V36.8553H115.119V37.7586H111.109V30.1479H115.119V31.0511H111.95V31.0422ZM119.343 33.4927L121.849 30.1389H122.914L120.14 33.761L123.147 37.7497H122.037L119.343 34.065V37.7497H118.502V30.1389H119.343V33.4927ZM127.9 31.0422V37.7497H127.058V31.0422H125.277V30.1389H129.69V31.0422H127.909H127.9ZM136.394 34.3691H133.646V37.7586H132.804V30.1479H133.646V33.4748H136.394V30.1479H137.235V37.7586H136.394V34.3691ZM144.118 36.0773H141.558L141.066 37.7586H140.171L142.498 30.1479H143.178L145.496 37.7586H144.601L144.109 36.0773H144.118ZM150.294 34.7L148.951 37.7497H147.975L149.416 34.548C148.548 34.2439 148.127 33.3764 148.127 32.4195C148.127 31.1137 148.87 30.1479 150.123 30.1479H152.513V37.7586H151.672V34.7089H150.294V34.7ZM167.362 32.5178L165.822 36.587H165.133L163.567 32.5089V37.7497H162.726V30.1389H163.531L165.482 35.2366L167.38 30.1389H168.185V37.7497H167.344V32.5178H167.362ZM175.086 36.0773H172.526L172.034 37.7586H171.139L173.466 30.1479H174.155L176.473 37.7586H175.578L175.086 36.0773ZM183.562 35.5228C183.374 36.8106 182.604 37.8123 181.333 37.8123C180.689 37.8123 180.116 37.5171 179.687 37.0074C178.988 36.1667 179.087 34.9862 179.087 33.9398C179.087 32.8935 178.997 31.7129 179.687 30.8723C180.116 30.3625 180.689 30.0674 181.333 30.0674C182.613 30.0674 183.374 31.069 183.562 32.3569L183.58 32.4642H182.721L182.703 32.3837C182.56 31.6056 182.112 30.9617 181.324 30.9617C180.94 30.9617 180.582 31.1406 180.331 31.4446C179.839 32.0528 179.919 33.1707 179.919 33.9219C179.919 34.6732 179.839 35.8 180.331 36.3992C180.582 36.7122 180.949 36.8911 181.324 36.8911C182.112 36.8911 182.577 36.2472 182.721 35.4691L182.739 35.3886H183.58L183.562 35.496V35.5228ZM188.896 31.0422V37.7497H188.055V31.0422H186.274V30.1389H190.678V31.0422H188.896ZM194.652 31.0422V33.4658H197.355V34.3691H194.652V36.8553H197.82V37.7586H193.81V30.1479H197.82V31.0511H194.652V31.0422ZM202.009 34.7V37.7497H201.167V30.1389H203.557C204.801 30.1389 205.553 31.1227 205.553 32.4105C205.553 33.6984 204.81 34.6911 203.557 34.6911H202.009V34.7ZM213.027 35.5228C212.848 36.8106 212.069 37.8123 210.798 37.8123C210.154 37.8123 209.581 37.5171 209.151 37.0074C208.453 36.1667 208.551 34.9862 208.551 33.9398C208.551 32.8935 208.462 31.7129 209.151 30.8723C209.581 30.3625 210.154 30.0674 210.798 30.0674C212.078 30.0674 212.839 31.069 213.027 32.3569L213.045 32.4642H212.185L212.167 32.3837C212.024 31.6056 211.577 30.9617 210.789 30.9617C210.404 30.9617 210.046 31.1406 209.796 31.4446C209.303 32.0438 209.384 33.1707 209.384 33.9219C209.384 34.6732 209.303 35.8 209.796 36.3992C210.046 36.7122 210.413 36.8911 210.789 36.8911C211.577 36.8911 212.042 36.2472 212.176 35.4691L212.194 35.3886H213.036L213.018 35.496L213.027 35.5228ZM217.332 33.4927L219.838 30.1389H220.903L218.128 33.761L221.136 37.7497H220.026L217.323 34.065V37.7497H216.481V30.1389H217.323V33.4927H217.332ZM227.025 36.0773H224.465L223.973 37.7586H223.078L225.405 30.1479H226.085L228.403 37.7586H227.508L227.016 36.0773H227.025ZM233.201 34.7L231.858 37.7497H230.883L232.324 34.548C231.455 34.2439 231.035 33.3764 231.035 32.4195C231.035 31.1137 231.778 30.1479 233.031 30.1479H235.42V37.7586H234.579V34.7089H233.201V34.7ZM96.5465 31.0422V33.7967H98.0323C98.8378 33.7967 99.2496 33.2512 99.2496 32.4105C99.2496 31.5699 98.8378 31.0422 98.0323 31.0422H96.5465ZM106.741 34.3065V33.5463C106.741 32.9024 106.759 31.9812 106.329 31.4715C106.07 31.1585 105.721 30.9707 105.336 30.9707C104.951 30.9707 104.593 31.1585 104.342 31.4715C103.886 32.026 103.931 33.0276 103.931 33.7162V34.4585C103.931 35.0846 103.931 35.9073 104.342 36.4082C104.602 36.7212 104.942 36.909 105.336 36.909C105.73 36.909 106.07 36.7212 106.329 36.4082C106.759 35.8895 106.741 34.9594 106.741 34.3065ZM143.867 35.1919L142.847 31.6951L141.809 35.1919H143.867ZM151.672 33.7967V31.0333H150.186C149.381 31.0333 148.969 31.5788 148.969 32.4195C148.969 33.2601 149.381 33.8057 150.186 33.8057H151.672V33.7967ZM174.844 35.1919L173.824 31.6951L172.786 35.1919H174.844ZM202.009 31.0422V33.7967H203.494C204.3 33.7967 204.712 33.2512 204.712 32.4105C204.712 31.5699 204.3 31.0422 203.494 31.0422H202.009ZM226.774 35.1919L225.754 31.6951L224.716 35.1919H226.774ZM234.579 33.7967V31.0333H233.093C232.288 31.0333 231.876 31.5788 231.876 32.4195C231.876 33.2601 232.288 33.8057 233.093 33.8057H234.579V33.7967Z" fill="#352D28"/>
</g>
<defs>
<clipPath id="clip0_626_2830">
<rect width="275" height="38" fill="white" transform="translate(0.0625)"/>
</clipPath>
</defs>
</svg>
