<svg width="111" height="80" viewBox="0 0 111 80" fill="none" xmlns="http://www.w3.org/2000/svg">
<g style="mix-blend-mode:luminosity">
<path d="M55.2495 23.1703L54.5959 25.3924C54.5722 25.4738 54.5182 25.5145 54.4337 25.5145L52.9188 25.5119C52.8259 25.5119 52.7769 25.4662 52.7718 25.3746L52.7668 25.2653C52.7617 25.1738 52.7127 25.128 52.6198 25.128L49.3948 25.1407C49.2698 25.1407 49.2056 25.0789 49.2022 24.9551L49.1921 24.6704C49.1887 24.5788 49.1414 24.5339 49.0502 24.5356L41.8249 24.5687C41.7506 24.5704 41.6889 24.5992 41.6399 24.6551C41.1147 25.2687 40.6071 25.623 40.1173 25.7179C39.6917 25.8009 39.1006 25.8204 38.3439 25.7764C37.9842 25.756 37.676 25.6255 37.4192 25.3848C37.062 25.0517 36.6136 24.856 36.4236 24.3703C35.9955 23.2745 35.8739 21.4109 36.9151 20.5337C38.3414 19.3311 39.6233 19.3819 41.2295 20.3328C41.2954 20.3725 41.3468 20.4312 41.3765 20.5006C41.4862 20.7668 41.6746 20.8998 41.9414 20.8998C44.3499 20.9049 46.7068 20.8947 49.0122 20.8693C49.1304 20.8676 49.1904 20.8074 49.1921 20.6888L49.1971 20.4015C49.1988 20.3015 49.2495 20.2506 49.3492 20.2489L52.8174 20.1676C52.9036 20.1659 52.9483 20.1218 52.9517 20.0354L53.1544 13.435C53.1561 13.3604 53.1231 13.3062 53.0556 13.2723C52.1249 12.8079 51.2374 12.2324 50.3929 11.5459C49.9707 11.2018 49.6565 10.834 49.4505 10.4425C49.1439 9.85263 48.7209 9.36955 48.6043 8.69324C48.4371 7.73217 48.3881 6.71432 48.4574 5.63969C48.5064 4.87355 48.7327 4.16165 49.1363 3.50398C50.1514 1.85644 51.5659 0.752144 53.3798 0.191097C54.2235 -0.070781 55.247 -0.00213373 56.1438 0.0436314C58.3124 0.155502 60.5798 1.66829 61.5653 3.67179C62.6598 5.89648 62.6319 7.38385 61.7224 9.48396C60.97 11.2281 59.3993 12.4587 57.6993 13.1859C57.6231 13.2187 57.5586 13.2739 57.5143 13.3442C57.47 13.4146 57.4479 13.4968 57.4511 13.5799L57.6487 19.9362C57.6537 20.0922 57.734 20.171 57.8893 20.1727L61.2765 20.2006C61.3038 20.201 61.3308 20.2067 61.3558 20.2177C61.3809 20.2286 61.4036 20.2444 61.4227 20.2642C61.4418 20.2841 61.4568 20.3075 61.4669 20.3332C61.477 20.359 61.4821 20.3865 61.4817 20.4142L61.4792 20.7041C61.4792 20.8074 61.5299 20.86 61.6312 20.8617C63.7154 20.9125 65.8409 20.9371 68.0078 20.9354C68.3017 20.9354 68.5914 20.9168 68.8768 20.8795C68.9555 20.8697 69.0288 20.8329 69.0846 20.7752C69.7145 20.1091 70.4002 19.6879 71.1417 19.5116C71.5403 19.4167 71.9955 19.4735 72.5072 19.682C74.1556 20.3481 74.8929 21.4846 74.7189 23.0915C74.6496 23.7322 74.4157 24.2593 74.0171 24.6729C73.4598 25.2526 72.9075 25.6001 72.3603 25.7153C71.1155 25.9797 70.0844 25.6679 69.267 24.7797C69.0542 24.5492 68.7924 24.4348 68.4816 24.4364C66.2285 24.4585 63.9476 24.4831 61.6388 24.5102C61.556 24.5119 61.5054 24.5534 61.4868 24.6348L61.4311 24.8966C61.4125 24.9831 61.3593 25.0272 61.2715 25.0289L58.1756 25.1255C58.0861 25.1289 58.0143 25.167 57.9603 25.2399L57.8589 25.3772C57.7948 25.4653 57.7086 25.5094 57.6005 25.5094H56.3389C56.2804 25.5092 56.2234 25.491 56.1758 25.4574C56.1282 25.4237 56.0922 25.3761 56.0729 25.3212L55.3103 23.1677C55.2884 23.105 55.2681 23.1059 55.2495 23.1703ZM59.5029 6.57716C59.4637 5.50572 58.9874 4.49432 58.1787 3.76544C57.37 3.03656 56.2951 2.64991 55.1906 2.69056C54.6437 2.71068 54.1059 2.83511 53.608 3.05672C53.1102 3.27834 52.6619 3.5928 52.2889 3.98217C51.9159 4.37154 51.6254 4.82818 51.434 5.32603C51.2426 5.82387 51.1541 6.35316 51.1735 6.88369C51.2126 7.95513 51.6889 8.96654 52.4977 9.69542C53.3064 10.4243 54.3812 10.8109 55.4858 10.7703C56.0327 10.7502 56.5704 10.6257 57.0683 10.4041C57.5662 10.1825 58.0144 9.86805 58.3874 9.47868C58.7605 9.08931 59.051 8.63267 59.2423 8.13483C59.4337 7.63698 59.5223 7.10769 59.5029 6.57716ZM73.7207 23.3127C73.6346 24.0271 73.138 24.3195 72.53 24.5331C72.5228 24.5359 72.5163 24.5401 72.5107 24.5454C72.5052 24.5508 72.5008 24.5572 72.4977 24.5643C72.4946 24.5714 72.493 24.579 72.4929 24.5868C72.4928 24.5945 72.4942 24.6022 72.4971 24.6093L72.5249 24.6805C72.5271 24.6844 72.5306 24.6874 72.5349 24.6888C72.5391 24.6902 72.5437 24.69 72.5477 24.6882C72.9506 24.4898 73.4218 24.3449 73.665 23.9254C73.9217 23.4813 74.0594 23.0915 74.0779 22.7559C74.1404 21.5931 73.6236 20.8549 72.5275 20.5413C72.4971 20.5329 72.4777 20.5439 72.4692 20.5744V20.5769C72.4625 20.6007 72.4701 20.6176 72.492 20.6278C72.7622 20.7498 73.0156 20.8897 73.252 21.0473C73.8221 21.4287 73.7891 22.7228 73.7207 23.3127ZM38.1286 24.6983C37.0519 23.8364 36.5731 23.0533 37.1254 21.6321C37.1625 21.5338 37.2191 21.4499 37.2951 21.3804C37.361 21.321 37.4116 21.2524 37.4471 21.1744C37.5147 21.0252 37.4843 21.0015 37.3559 21.1032C36.5401 21.7558 36.3442 22.5499 36.7682 23.4856C37.0401 24.0839 37.4792 24.5127 38.0855 24.7721C38.2798 24.8551 38.2941 24.8305 38.1286 24.6983Z" fill="#3A393D"/>
<path d="M55.4833 10.7702C57.7834 10.6856 59.5819 8.80826 59.5004 6.5771C59.4189 4.34594 57.4882 2.60585 55.1881 2.69049C52.888 2.77513 51.0895 4.65246 51.171 6.88362C51.2526 9.11478 53.1832 10.8549 55.4833 10.7702Z" fill="white"/>
<path d="M72.5261 24.5331C73.1341 24.3195 73.6307 24.0271 73.7168 23.3127C73.7852 22.7228 73.8181 21.4287 73.2481 21.0473C73.0117 20.8897 72.7583 20.7498 72.4881 20.6278C72.4661 20.6176 72.4585 20.6007 72.4653 20.5769V20.5744C72.4737 20.5439 72.4931 20.5329 72.5235 20.5413C73.6197 20.8549 74.1365 21.5931 74.074 22.7559C74.0554 23.0915 73.9178 23.4813 73.6611 23.9254C73.4178 24.3449 72.9466 24.4899 72.5438 24.6882C72.5398 24.69 72.5352 24.6902 72.5309 24.6888C72.5267 24.6874 72.5232 24.6845 72.521 24.6805L72.4931 24.6093C72.4903 24.6022 72.4889 24.5945 72.489 24.5868C72.4891 24.579 72.4907 24.5714 72.4938 24.5643C72.4968 24.5572 72.5013 24.5508 72.5068 24.5454C72.5123 24.5401 72.5189 24.5359 72.5261 24.5331Z" fill="white"/>
<path d="M37.1215 21.6322C36.5693 23.0535 37.0481 23.8365 38.1248 24.6985C38.2903 24.8307 38.2759 24.8552 38.0817 24.7722C37.4754 24.5129 37.0362 24.084 36.7643 23.4857C36.3404 22.55 36.5363 21.7559 37.3521 21.1033C37.4804 21.0016 37.5108 21.0254 37.4433 21.1745C37.4078 21.2525 37.3571 21.3212 37.2913 21.3805C37.2153 21.45 37.1587 21.5339 37.1215 21.6322Z" fill="white"/>
<path d="M53.6613 28.876C52.4909 30.0557 52.4681 32.283 52.8253 33.8542C53.4359 36.5442 56.1821 36.7679 58.0898 35.3238C58.4917 35.0187 58.6936 35.1187 58.6953 35.6238L58.7003 36.5213C58.702 37.0332 58.4715 37.3976 58.0087 37.6146C57.149 38.0129 56.3012 38.2155 55.4651 38.2223C50.8948 38.2579 49.5167 34.4797 50.2235 30.5439C50.6795 28.0116 52.3617 26.2725 54.9737 26.0386C56.1036 25.9369 57.1701 26.1733 58.1734 26.7479C58.8295 27.1217 58.7029 28.2938 58.5661 28.9014C58.557 28.944 58.5369 28.9834 58.5077 29.0157C58.4786 29.048 58.4414 29.072 58.3999 29.0854C58.3584 29.0988 58.314 29.101 58.2711 29.092C58.2283 29.0829 58.1884 29.0628 58.1556 29.0336C56.8357 27.8463 54.8647 27.6607 53.6613 28.876Z" fill="#3A393D"/>
<path d="M104.326 37.7467C101.696 36.6204 101.177 33.2312 101.635 30.615C102.069 28.1335 103.685 26.3385 106.234 26.0563C107.428 25.9241 108.525 26.1393 109.527 26.7021C109.885 26.9021 110.073 27.208 110.092 27.6199C110.109 27.9928 110.096 28.3496 110.054 28.6903C110 29.1225 109.801 29.2048 109.456 28.9369C107.262 27.2233 104.579 28.0344 104.146 30.9226C103.837 32.9948 104.161 35.8958 106.715 36.1831C107.673 36.2916 108.608 36.0043 109.522 35.3212C109.917 35.0246 110.119 35.1237 110.127 35.6187L110.143 36.5212C110.151 37.0213 109.93 37.3764 109.479 37.5866C107.716 38.4086 105.998 38.462 104.326 37.7467Z" fill="#3A393D"/>
<path d="M25.6517 26.5389C28.5018 25.7482 31.8257 26.5313 32.6288 29.7908C33.4091 32.974 32.8568 37.3929 29.0237 38.2828C26.3864 38.893 23.212 38.265 22.3456 35.3512C21.3727 32.0892 21.8592 27.5915 25.6517 26.5389ZM27.7266 28.3136C24.9474 28.161 24.3445 30.4874 24.4306 32.8214C24.4889 34.4919 24.9145 36.1623 26.7639 36.4038C30.488 36.8869 30.7895 33.0859 30.2195 30.4391C29.9433 29.1628 29.0465 28.3873 27.7266 28.3136Z" fill="#3A393D"/>
<path d="M63.0653 31.1083H66.3612C66.5284 31.1083 66.6289 31.1905 66.6627 31.3549C66.7404 31.7397 66.7472 32.1524 66.683 32.5931C66.656 32.7898 66.5437 32.8881 66.346 32.8881H63.0019C62.9209 32.8881 62.8803 32.9296 62.8803 33.0127L62.8778 36.0052C62.8761 36.1306 62.9386 36.1933 63.0653 36.1933H66.9997C67.2598 36.1933 67.3898 36.3238 67.3898 36.5849L67.3848 37.5841C67.3848 37.8417 67.2555 37.9714 66.9971 37.9731H61.1627C60.9953 37.9731 60.8349 37.9061 60.7166 37.7869C60.5983 37.6677 60.5318 37.506 60.5318 37.3375L60.5293 26.9462C60.5293 26.5021 60.7505 26.2801 61.1931 26.2801L66.9135 26.2725C67.204 26.2725 67.3501 26.4182 67.3518 26.7098L67.3544 27.6505C67.3544 27.9217 67.2201 28.0573 66.9515 28.0573H63.0653C62.9403 28.0573 62.8778 28.12 62.8778 28.2454L62.8803 30.9202C62.8803 31.0456 62.942 31.1083 63.0653 31.1083Z" fill="#3A393D"/>
<path d="M71.9969 34.0902L71.9995 37.4412C71.9995 37.7853 71.828 37.959 71.4852 37.9624L70.2261 37.9776C69.8427 37.981 69.6501 37.7903 69.6484 37.4056V26.9254C69.6482 26.7684 69.708 26.6174 69.8155 26.5034C69.9229 26.3894 70.0699 26.3211 70.2261 26.3126C71.1854 26.2601 72.2452 26.2482 73.4055 26.277C74.4763 26.3041 75.3166 26.4864 75.9263 26.8237C77.3585 27.6169 77.8922 28.9704 77.5274 30.884C77.0232 33.5359 74.4797 33.9732 72.192 33.8969C72.062 33.8935 71.9969 33.9579 71.9969 34.0902ZM71.9969 28.1509V32.0104C71.9969 32.0394 72.0084 32.0672 72.0288 32.0877C72.0493 32.1082 72.077 32.1197 72.1059 32.1197H73.3346C73.817 32.1197 74.2797 31.9234 74.6208 31.5739C74.9619 31.2244 75.1536 30.7503 75.1536 30.256V29.9052C75.1536 29.4109 74.9619 28.9369 74.6208 28.5874C74.2797 28.2379 73.817 28.0415 73.3346 28.0415H72.1059C72.077 28.0415 72.0493 28.053 72.0288 28.0735C72.0084 28.0941 71.9969 28.1219 71.9969 28.1509Z" fill="#3A393D"/>
<path d="M85.8774 31.7766C87.8636 32.2495 88.464 34.4004 87.5697 36.1039C86.8578 37.4591 85.0945 37.9574 83.6328 37.9676C82.4522 37.9761 81.3003 37.9778 80.1772 37.9727C79.9919 37.9713 79.8147 37.8968 79.6842 37.7654C79.5537 37.6339 79.4805 37.4562 79.4805 37.2709V26.9789C79.4805 26.7961 79.5523 26.6207 79.6803 26.4907C79.8084 26.3608 79.9824 26.2868 80.1645 26.2848C81.4346 26.2695 82.5881 26.2704 83.6252 26.2873C85.8242 26.3204 87.6229 27.3984 87.1998 29.9129C87.09 30.5706 86.6416 31.1427 85.8546 31.6291C85.7465 31.6969 85.7541 31.7461 85.8774 31.7766ZM81.8442 28.1739L81.8391 30.9859C81.8391 31.0176 81.8516 31.0479 81.874 31.0704C81.8963 31.0928 81.9266 31.1054 81.9582 31.1054L83.4453 31.1079C83.6356 31.1082 83.8241 31.0712 84 30.9988C84.176 30.9264 84.3359 30.8201 84.4707 30.686C84.6055 30.5519 84.7125 30.3926 84.7857 30.2172C84.8588 30.0418 84.8966 29.8537 84.8969 29.6638V29.5061C84.8976 29.1224 84.7456 28.7542 84.4743 28.4824C84.203 28.2106 83.8347 28.0576 83.4504 28.0569L81.9632 28.0544C81.9317 28.0544 81.9014 28.0669 81.879 28.0893C81.8567 28.1118 81.8442 28.1422 81.8442 28.1739ZM81.8416 32.9995V36.0963C81.8416 36.1233 81.8523 36.1491 81.8713 36.1682C81.8903 36.1873 81.9161 36.198 81.943 36.198H83.7848C84.237 36.198 84.6706 36.0365 84.9904 35.749C85.3101 35.4614 85.4898 35.0715 85.4898 34.6649V34.431C85.4898 34.0243 85.3101 33.6344 84.9904 33.3469C84.6706 33.0594 84.237 32.8978 83.7848 32.8978H81.943C81.9161 32.8978 81.8903 32.9085 81.8713 32.9276C81.8523 32.9467 81.8416 32.9726 81.8416 32.9995Z" fill="#3A393D"/>
<path d="M92.2659 33.712C92.2659 33.8917 92.3165 33.9078 92.4179 33.7603C94.041 31.4094 95.6564 29.038 97.2643 26.6464C97.6038 26.1379 98.6121 26.2447 99.1543 26.3311C99.2482 26.3462 99.3337 26.3942 99.3954 26.4664C99.4572 26.5386 99.4911 26.6304 99.4912 26.7252L99.4887 37.5232C99.4887 37.7605 99.3713 37.8944 99.1365 37.925C98.6197 37.9928 98.0725 37.997 97.4949 37.9377C97.2567 37.9139 97.1377 37.7817 97.1377 37.541L97.1427 30.5441C97.1427 30.3169 97.0794 30.2974 96.9527 30.4856C95.3837 32.8027 93.7707 35.1901 92.1139 37.6478C91.7972 38.1182 90.837 37.9834 90.3354 37.9631C90.2238 37.9591 90.1182 37.9119 90.0406 37.8312C89.9631 37.7506 89.9199 37.6429 89.9199 37.5309V26.8523C89.9199 26.4727 90.1091 26.2828 90.4874 26.2828L91.7288 26.2777C92.0919 26.276 92.2726 26.4574 92.2709 26.8218L92.2659 33.712Z" fill="#3A393D"/>
<path d="M7.54837 28.5657H3.46702C3.38426 28.5657 3.34288 28.6073 3.34288 28.6903L3.34035 37.6806C3.34035 38.04 3.16216 38.2205 2.8058 38.2222L1.46308 38.2298C1.11347 38.2315 0.938661 38.0561 0.938661 37.7035C0.942039 34.4796 0.94035 31.2133 0.933594 27.9047C0.933594 27.5674 0.963995 27.2402 1.0248 26.9233C1.04549 26.8131 1.10392 26.7136 1.18997 26.6421C1.27603 26.5706 1.38429 26.5316 1.49601 26.5317H9.35977C9.8293 26.5317 10.0632 26.7665 10.0615 27.236L10.059 37.7366C10.059 38.0603 9.89855 38.2222 9.57765 38.2222H8.18933C7.86843 38.2222 7.70798 38.0612 7.70798 37.7391V28.7234C7.70798 28.6183 7.65478 28.5657 7.54837 28.5657Z" fill="#3A393D"/>
<path d="M14.9932 34.3394L14.9983 37.698C14.9983 38.0421 14.8277 38.215 14.4865 38.2167L13.2274 38.2294C12.8457 38.2328 12.6549 38.0429 12.6549 37.6599L12.6523 27.2864C12.6523 26.8085 12.8905 26.5627 13.3668 26.5491C14.4865 26.5152 15.6283 26.5169 16.792 26.5542C18.2943 26.6 19.9917 27.2661 20.4452 28.8348C20.9797 30.6858 20.4452 32.7325 18.6439 33.6173C17.5849 34.1385 16.3841 34.2071 15.1959 34.1461C15.0608 34.1393 14.9932 34.2038 14.9932 34.3394ZM14.9958 28.4204V32.2494C14.9958 32.2825 15.0088 32.3141 15.0321 32.3375C15.0554 32.3609 15.087 32.374 15.1199 32.374H16.3334C16.8145 32.374 17.2759 32.1817 17.6161 31.8393C17.9562 31.497 18.1473 31.0326 18.1473 30.5485V30.1213C18.1473 29.6372 17.9562 29.1729 17.6161 28.8305C17.2759 28.4881 16.8145 28.2958 16.3334 28.2958H15.1199C15.087 28.2958 15.0554 28.3089 15.0321 28.3323C15.0088 28.3557 14.9958 28.3874 14.9958 28.4204Z" fill="#3A393D"/>
<path d="M46.3463 28.6851C46.3463 28.3427 46.2889 28.3325 46.174 28.6546L42.9161 37.7898C42.8754 37.9048 42.8024 38.0056 42.7057 38.08C42.6091 38.1544 42.493 38.1993 42.3714 38.2093C41.8318 38.2525 40.674 38.4102 40.446 37.7568C39.4056 34.76 38.3702 31.7497 37.34 28.7258C37.2218 28.3732 37.1626 28.3834 37.1626 28.7563L37.1753 37.6779C37.1753 38.0424 36.9937 38.2246 36.6306 38.2246H35.45C35.1139 38.2246 34.9459 38.0559 34.9459 37.7186L34.9434 27.2842C34.9431 27.0975 35.0144 26.9178 35.1426 26.7821C35.2708 26.6463 35.4461 26.5649 35.6325 26.5545C36.3655 26.5121 37.09 26.5138 37.8061 26.5595C38.5763 26.6104 38.9563 27.1392 39.1945 27.8105C40.0153 30.114 40.8429 32.3743 41.6772 34.5913C41.7448 34.7727 41.8132 34.7727 41.8824 34.5913C42.7759 32.2285 43.6499 29.9241 44.5045 27.6783C44.8136 26.8646 45.1759 26.4985 46.0474 26.5189C46.6165 26.5341 47.1427 26.5392 47.6257 26.5341C48.2557 26.5307 48.5707 26.8443 48.5707 27.4749L48.5681 37.711C48.5681 38.05 48.3992 38.2203 48.0614 38.222L46.8834 38.2271C46.5237 38.2288 46.3438 38.0491 46.3438 37.6881L46.3463 28.6851Z" fill="#3A393D"/>
<path d="M72 28.1513C72 28.1223 72.0115 28.0945 72.0319 28.074C72.0523 28.0535 72.0801 28.042 72.1089 28.042H73.3376C73.8201 28.042 74.2827 28.2383 74.6239 28.5878C74.965 28.9373 75.1567 29.4114 75.1567 29.9057V30.2565C75.1567 30.7508 74.965 31.2248 74.6239 31.5743C74.2827 31.9238 73.8201 32.1202 73.3376 32.1202H72.1089C72.0801 32.1202 72.0523 32.1087 72.0319 32.0882C72.0115 32.0676 72 32.0398 72 32.0108V28.1513Z" fill="white"/>
<path d="M81.841 28.1742C81.841 28.1425 81.8536 28.1121 81.8759 28.0897C81.8982 28.0673 81.9285 28.0547 81.9601 28.0547L83.4472 28.0572C83.8315 28.0579 84.1999 28.211 84.4711 28.4828C84.7424 28.7545 84.8945 29.1228 84.8938 29.5065V29.6641C84.8935 29.8541 84.8556 30.0421 84.7825 30.2175C84.7094 30.3929 84.6024 30.5522 84.4676 30.6863C84.3328 30.8204 84.1728 30.9267 83.9969 30.9991C83.8209 31.0715 83.6324 31.1086 83.4421 31.1082L81.955 31.1057C81.9234 31.1057 81.8931 31.0931 81.8708 31.0707C81.8485 31.0483 81.8359 31.0179 81.8359 30.9862L81.841 28.1742Z" fill="white"/>
<path d="M14.9941 28.4205C14.9941 28.3874 15.0072 28.3557 15.0305 28.3324C15.0538 28.309 15.0854 28.2959 15.1183 28.2959H16.3318C16.8129 28.2959 17.2743 28.4882 17.6144 28.8306C17.9546 29.1729 18.1457 29.6373 18.1457 30.1214V30.5486C18.1457 31.0327 17.9546 31.497 17.6144 31.8394C17.2743 32.1817 16.8129 32.3741 16.3318 32.3741H15.1183C15.0854 32.3741 15.0538 32.361 15.0305 32.3376C15.0072 32.3142 14.9941 32.2825 14.9941 32.2495V28.4205Z" fill="white"/>
<path d="M24.4316 32.8216C24.3454 30.4876 24.9484 28.1612 27.7276 28.3138C29.0475 28.3875 29.9443 29.163 30.2205 30.4393C30.7905 33.086 30.489 36.8871 26.7649 36.404C24.9155 36.1625 24.4898 34.4921 24.4316 32.8216Z" fill="white"/>
<path d="M81.8418 32.9997C81.8418 32.9727 81.8525 32.9468 81.8715 32.9277C81.8905 32.9087 81.9163 32.8979 81.9431 32.8979H83.7849C84.2371 32.8979 84.6708 33.0595 84.9906 33.347C85.3103 33.6345 85.4899 34.0245 85.4899 34.4311V34.665C85.4899 35.0716 85.3103 35.4616 84.9906 35.7491C84.6708 36.0366 84.2371 36.1981 83.7849 36.1981H81.9431C81.9163 36.1981 81.8905 36.1874 81.8715 36.1683C81.8525 36.1493 81.8418 36.1234 81.8418 36.0964V32.9997Z" fill="white"/>
<path d="M51.9734 42.9659C51.9802 42.9592 51.9802 42.9515 51.9734 42.9431V42.9405C51.965 42.9303 51.9548 42.9286 51.943 42.9354C51.4566 43.2371 50.9263 43.4702 50.352 43.6346C50.0058 43.7329 49.6849 43.8906 49.3893 44.1075C49.3739 44.1187 49.3556 44.1255 49.3366 44.1269C49.3176 44.1284 49.2985 44.1246 49.2815 44.116C49.2645 44.1073 49.2502 44.0941 49.2402 44.0778C49.2301 44.0615 49.2248 44.0428 49.2247 44.0236L49.2323 42.1879C49.2329 42.039 49.2828 41.8947 49.3741 41.7777C49.4654 41.6607 49.5929 41.5778 49.7364 41.5421C50.3014 41.4023 50.6459 41.0057 51.1805 40.7997C51.6314 40.6251 52.0579 40.4133 52.4598 40.1641C52.8145 39.9454 53.2325 39.9505 53.5644 39.6861C53.601 39.657 53.6289 39.6184 53.645 39.5744C53.6611 39.5304 53.6648 39.4829 53.6556 39.4369C53.5982 39.1386 53.594 38.8539 53.643 38.5827C53.6548 38.5149 53.6953 38.481 53.7646 38.481H57.1644C57.1879 38.4809 57.2112 38.4857 57.2328 38.495C57.2544 38.5043 57.2738 38.518 57.29 38.5351C57.3061 38.5523 57.3186 38.5726 57.3266 38.5947C57.3346 38.6169 57.3381 38.6405 57.3367 38.664L57.2962 39.5336C57.2911 39.6319 57.3282 39.7115 57.4076 39.7726C57.585 39.9065 57.7961 39.981 58.041 39.9963C58.1609 40.0048 58.2673 40.0471 58.3602 40.1234C58.7993 40.4777 59.3229 40.7396 59.9309 40.9091C60.0668 40.9456 60.1895 41.0187 60.2856 41.1201C60.5862 41.432 60.9434 41.5752 61.3572 41.5498C61.3804 41.5484 61.4035 41.5518 61.4253 41.5597C61.4471 41.5676 61.467 41.58 61.4839 41.5959C61.5007 41.6119 61.5141 41.6311 61.5233 41.6525C61.5324 41.6738 61.5371 41.6969 61.5371 41.7201L61.5447 43.688C61.5464 44.0304 61.4087 44.1024 61.1318 43.9041C60.9308 43.76 60.6926 43.6609 60.4173 43.6067C60.4048 43.6035 60.3916 43.6044 60.3796 43.6093C60.3676 43.6142 60.3575 43.6228 60.3507 43.6338C60.3439 43.6449 60.3408 43.6578 60.3419 43.6708C60.3429 43.6837 60.3481 43.696 60.3565 43.7058C60.5035 43.8889 60.6783 44.0219 60.8809 44.105C61.7094 44.4431 62.5049 44.7406 63.3105 45.1754C64.307 45.7161 65.3102 46.1932 66.3202 46.6068C66.386 46.634 66.4424 46.6801 66.482 46.7394C66.5217 46.7987 66.543 46.8685 66.5432 46.9399L66.5685 50.7791C66.5684 50.7877 66.5664 50.7962 66.5625 50.8038C66.5586 50.8115 66.5531 50.8182 66.5462 50.8234C66.5393 50.8286 66.5314 50.8321 66.5229 50.8336C66.5145 50.8352 66.5058 50.8348 66.4976 50.8325C65.9064 50.6579 65.355 50.4452 64.8432 50.1943C64.323 49.9383 63.8324 49.7366 63.3713 49.5892C62.6197 49.3519 61.9425 49.0824 61.3395 48.7807C61.0034 48.6145 60.6555 48.4789 60.2957 48.3739C59.7814 48.2238 59.409 47.9137 58.9175 47.7408C58.2622 47.5052 57.5976 47.2797 56.9237 47.0645C56.151 46.8178 55.5633 45.9585 54.6741 46.6805C54.1775 47.0873 53.4833 47.1255 52.9083 47.4052C52.6346 47.5374 52.356 47.6382 52.0722 47.7077C51.6694 47.8069 51.3755 48.0942 50.9829 48.2416C50.5167 48.412 50.0075 48.5137 49.5996 48.8061C49.1284 49.1442 48.571 49.1697 48.0542 49.4036C47.7198 49.5561 47.3744 49.6799 47.018 49.7748C46.6102 49.8841 46.3315 50.2248 45.9287 50.3214C45.4203 50.4418 44.9389 50.618 44.4846 50.8503C44.3833 50.9011 44.3351 50.8697 44.3402 50.7562C44.3774 49.6019 44.3824 48.4637 44.3554 47.3416C44.3419 46.7772 44.6265 46.4517 45.2092 46.3653C45.296 46.3535 45.3798 46.3232 45.4549 46.2763C45.9869 45.939 46.5139 45.6805 47.0358 45.5008C47.4867 45.3432 47.6641 44.9745 48.1251 44.8499C48.6876 44.6974 49.103 44.3745 49.6655 44.2092C49.9965 44.1126 50.3014 43.9397 50.58 43.6906C50.651 43.6278 50.7329 43.5897 50.8258 43.5761C51.2581 43.5151 51.6407 43.3117 51.9734 42.9659ZM54.9578 38.9666L55.201 38.8979C55.3463 38.8556 55.3446 38.8233 55.1959 38.8013C54.7095 38.725 54.3295 39.1115 53.9242 39.348C53.7485 39.4497 53.7629 39.4971 53.9672 39.4903C54.2763 39.4785 54.5339 39.3505 54.7399 39.1064C54.799 39.0369 54.8717 38.9903 54.9578 38.9666ZM55.5582 38.9081C55.9771 39.0742 56.3715 39.2827 56.7413 39.5336C56.7565 39.5435 56.7737 39.5499 56.7917 39.5523C56.8097 39.5547 56.8279 39.553 56.8452 39.5474C56.8624 39.5418 56.8782 39.5324 56.8913 39.5199C56.9045 39.5074 56.9147 39.4921 56.9212 39.4751C56.955 39.3852 56.9423 39.3251 56.8832 39.2946C56.6324 39.1598 56.4829 39.2285 56.2929 38.9589C56.2705 38.9268 56.2417 38.8994 56.2082 38.8784C56.1747 38.8574 56.1372 38.8433 56.0978 38.8369C55.9273 38.8081 55.7533 38.7962 55.576 38.8013C55.3986 38.8081 55.3927 38.8437 55.5582 38.9081ZM58.7402 42.938L59.8296 43.5787C59.8583 43.5956 59.8743 43.5999 59.8777 43.5914L59.9106 43.5304C59.9309 43.4897 59.9208 43.4592 59.8802 43.4388C59.5188 43.2626 59.1557 43.0575 58.7909 42.8236C58.7824 42.8185 58.7757 42.8202 58.7706 42.8286L58.7301 42.8846C58.7149 42.9066 58.7182 42.9244 58.7402 42.938ZM54.3396 44.9826C54.3468 44.8944 54.3339 44.8054 54.3016 44.7207C54.2693 44.636 54.2183 44.5573 54.1514 44.489C54.0846 44.4207 54.0032 44.3642 53.9119 44.3227C53.8206 44.2812 53.7212 44.2555 53.6194 44.2471C53.4138 44.2301 53.2109 44.2846 53.0552 44.3985C52.8995 44.5125 52.8039 44.6765 52.7893 44.8546C52.782 44.9428 52.7949 45.0318 52.8272 45.1165C52.8595 45.2011 52.9105 45.2799 52.9774 45.3482C53.0443 45.4165 53.1257 45.473 53.217 45.5145C53.3082 45.556 53.4076 45.5817 53.5094 45.5901C53.715 45.607 53.9179 45.5526 54.0736 45.4386C54.2293 45.3247 54.325 45.1606 54.3396 44.9826ZM57.9741 44.9043C57.9798 44.8318 57.9712 44.7588 57.9488 44.6896C57.9264 44.6204 57.8906 44.5562 57.8435 44.5009C57.7964 44.4455 57.7389 44.4001 57.6742 44.367C57.6096 44.334 57.5391 44.314 57.4668 44.3083L57.0678 44.2768C56.9955 44.2711 56.9228 44.2797 56.8538 44.3022C56.7848 44.3247 56.7209 44.3606 56.6658 44.4079C56.6106 44.4551 56.5653 44.5129 56.5324 44.5777C56.4994 44.6426 56.4796 44.7133 56.4739 44.7859L56.4611 44.9481C56.4554 45.0206 56.4641 45.0936 56.4865 45.1628C56.5089 45.2321 56.5447 45.2962 56.5918 45.3515C56.6389 45.4069 56.6964 45.4524 56.761 45.4854C56.8256 45.5185 56.8961 45.5384 56.9684 45.5441L57.3674 45.5756C57.4397 45.5814 57.5125 45.5727 57.5814 45.5502C57.6504 45.5277 57.7143 45.4918 57.7695 45.4445C57.8246 45.3973 57.8699 45.3396 57.9029 45.2747C57.9358 45.2099 57.9557 45.1391 57.9614 45.0666L57.9741 44.9043ZM60.8336 47.0032C60.9105 47.0051 60.987 46.989 61.0588 46.9559C61.1307 46.9228 61.1964 46.8732 61.2523 46.8101C61.3082 46.747 61.3531 46.6716 61.3846 46.5881C61.416 46.5047 61.4334 46.4148 61.4356 46.3237C61.4401 46.1396 61.3827 45.9616 61.2762 45.8288C61.1696 45.696 61.0226 45.6192 60.8674 45.6154C60.7906 45.6136 60.7141 45.6296 60.6423 45.6628C60.5704 45.6959 60.5047 45.7454 60.4488 45.8085C60.3929 45.8716 60.348 45.9471 60.3165 46.0305C60.2851 46.114 60.2677 46.2039 60.2655 46.295C60.261 46.479 60.3184 46.657 60.4249 46.7899C60.5315 46.9227 60.6785 46.9994 60.8336 47.0032ZM50.582 46.0945C50.5839 45.9846 50.5423 45.8784 50.4662 45.7993C50.3901 45.7203 50.2858 45.6748 50.1763 45.6729L49.994 45.6697C49.8845 45.6678 49.7787 45.7096 49.6999 45.7859C49.6211 45.8623 49.5758 45.9669 49.5739 46.0768L49.5647 46.6056C49.5628 46.7155 49.6044 46.8216 49.6805 46.9007C49.7566 46.9797 49.8609 47.0252 49.9704 47.0272L50.1527 47.0304C50.2622 47.0323 50.368 46.9905 50.4468 46.9141C50.5256 46.8378 50.5709 46.7331 50.5728 46.6232L50.582 46.0945ZM47.5577 47.6009C47.5577 47.5565 47.5489 47.5125 47.532 47.4715C47.5151 47.4305 47.4903 47.3932 47.459 47.3618C47.4277 47.3304 47.3905 47.3055 47.3497 47.2885C47.3088 47.2715 47.265 47.2628 47.2207 47.2628C47.1313 47.2628 47.0456 47.2984 46.9825 47.3618C46.9193 47.4252 46.8838 47.5112 46.8838 47.6009C46.8838 47.6906 46.9193 47.7766 46.9825 47.84C47.0456 47.9035 47.1313 47.9391 47.2207 47.9391C47.265 47.9391 47.3088 47.9303 47.3497 47.9133C47.3905 47.8963 47.4277 47.8714 47.459 47.84C47.4903 47.8086 47.5151 47.7714 47.532 47.7303C47.5489 47.6893 47.5577 47.6453 47.5577 47.6009ZM63.6471 47.8628C63.6787 47.8633 63.7101 47.8558 63.7396 47.8406C63.7691 47.8254 63.796 47.8028 63.8188 47.7742C63.8417 47.7455 63.86 47.7114 63.8728 47.6736C63.8855 47.6359 63.8925 47.5954 63.8932 47.5543C63.8939 47.5132 63.8884 47.4725 63.8769 47.4343C63.8655 47.3962 63.8484 47.3614 63.8265 47.332C63.8047 47.3025 63.7786 47.279 63.7496 47.2628C63.7207 47.2466 63.6896 47.238 63.658 47.2374C63.6264 47.2368 63.5949 47.2444 63.5655 47.2596C63.536 47.2748 63.5091 47.2973 63.4862 47.326C63.4634 47.3546 63.445 47.3888 63.4323 47.4265C63.4195 47.4642 63.4126 47.5048 63.4119 47.5459C63.4112 47.5869 63.4167 47.6277 63.4281 47.6658C63.4395 47.704 63.4567 47.7388 63.4785 47.7682C63.5003 47.7976 63.5265 47.8211 63.5554 47.8373C63.5843 47.8536 63.6155 47.8622 63.6471 47.8628Z" fill="#3A393D"/>
<path d="M54.7403 39.1069C54.5342 39.351 54.2767 39.479 53.9676 39.4908C53.7632 39.4976 53.7489 39.4501 53.9245 39.3484C54.3299 39.112 54.7099 38.7255 55.1963 38.8018C55.3449 38.8238 55.3466 38.856 55.2014 38.8984L54.9582 38.9671C54.872 38.9908 54.7994 39.0374 54.7403 39.1069Z" fill="white"/>
<path d="M55.577 38.8014C55.7544 38.7964 55.9283 38.8082 56.0989 38.837C56.1383 38.8435 56.1758 38.8576 56.2093 38.8785C56.2428 38.8995 56.2716 38.9269 56.294 38.9591C56.484 39.2286 56.6335 39.1599 56.8843 39.2947C56.9434 39.3252 56.9561 39.3854 56.9223 39.4752C56.9158 39.4922 56.9056 39.5075 56.8924 39.52C56.8793 39.5325 56.8635 39.5419 56.8463 39.5475C56.829 39.5531 56.8107 39.5548 56.7928 39.5524C56.7748 39.55 56.7576 39.5436 56.7424 39.5337C56.3725 39.2828 55.9782 39.0743 55.5593 38.9082C55.3938 38.8438 55.3997 38.8082 55.577 38.8014Z" fill="white"/>
<path d="M58.7382 42.9381C58.7163 42.9245 58.7129 42.9067 58.7281 42.8847L58.7686 42.8287C58.7737 42.8203 58.7804 42.8186 58.7889 42.8237C59.1537 43.0576 59.5168 43.2627 59.8783 43.4389C59.9188 43.4593 59.9289 43.4898 59.9087 43.5305L59.8757 43.5915C59.8723 43.6 59.8563 43.5957 59.8276 43.5788L58.7382 42.9381Z" fill="white"/>
<path d="M53.5089 45.591C53.937 45.6264 54.3087 45.3544 54.339 44.9835C54.3694 44.6126 54.047 44.2834 53.6189 44.248C53.1908 44.2127 52.8191 44.4847 52.7887 44.8556C52.7584 45.2264 53.0808 45.5557 53.5089 45.591Z" fill="white"/>
<path d="M57.4672 44.3084L57.0682 44.2769C56.7641 44.2529 56.4982 44.4808 56.4742 44.786L56.4615 44.9482C56.4376 45.2533 56.6647 45.5202 56.9688 45.5442L57.3678 45.5757C57.6719 45.5998 57.9378 45.3718 57.9617 45.0667L57.9745 44.9044C57.9984 44.5993 57.7713 44.3324 57.4672 44.3084Z" fill="white"/>
<path d="M60.2681 46.2956C60.2588 46.6788 60.5131 46.9959 60.8362 47.0038C61.1593 47.0117 61.4288 46.7075 61.4382 46.3243C61.4475 45.941 61.1931 45.6239 60.87 45.616C60.5469 45.6081 60.2774 45.9123 60.2681 46.2956Z" fill="white"/>
<path d="M50.1773 45.6735L49.9949 45.6703C49.7669 45.6663 49.5788 45.8486 49.5748 46.0775L49.5656 46.6062C49.5616 46.8351 49.7433 47.0238 49.9713 47.0278L50.1537 47.031C50.3817 47.035 50.5698 46.8527 50.5738 46.6239L50.583 46.0951C50.587 45.8663 50.4053 45.6775 50.1773 45.6735Z" fill="white"/>
<path d="M49.8876 49.9255C49.8876 49.878 49.8664 49.8653 49.8242 49.8874C49.1588 50.2348 48.408 50.5416 47.572 50.8077C47.5264 50.8219 47.4866 50.8505 47.4583 50.8894C47.43 50.9283 47.4148 50.9754 47.4149 51.0239L47.4175 55.8622C47.4175 56.0063 47.3457 56.0818 47.2021 56.0885L47.0932 56.0936C46.9513 56.1004 46.8804 56.0317 46.8804 55.8877L46.8753 51.2069C46.8751 51.1934 46.8714 51.1801 46.8644 51.1685C46.8574 51.1569 46.8475 51.1473 46.8356 51.1409C46.8237 51.1344 46.8104 51.1312 46.7969 51.1316C46.7833 51.1321 46.7702 51.1361 46.7588 51.1434C46.014 51.6095 45.2784 51.9239 44.5522 52.0866C44.4508 52.1104 44.4002 52.1731 44.4002 52.2748L44.3926 56.8208C44.3926 56.9784 44.3149 57.0708 44.1595 57.0979L44.0632 57.1132C44.0393 57.1172 44.0147 57.116 43.9913 57.1096C43.9678 57.1031 43.9461 57.0917 43.9275 57.0759C43.9089 57.0602 43.894 57.0406 43.8837 57.0185C43.8735 56.9964 43.8682 56.9723 43.8681 56.9479C43.88 55.3699 43.8732 53.8562 43.8479 52.407C43.8478 52.3948 43.8446 52.3829 43.8384 52.3724C43.8323 52.3619 43.8235 52.3533 43.8129 52.3473C43.8024 52.3414 43.7904 52.3384 43.7783 52.3386C43.7662 52.3388 43.7544 52.3422 43.744 52.3485C42.8421 52.8638 42.0922 53.1884 41.4943 53.3223C41.4183 53.3392 41.3803 53.3867 41.3803 53.4647L41.4006 57.6776C41.4006 57.728 41.381 57.7764 41.346 57.8125C41.311 57.8486 41.2633 57.8695 41.2131 57.8708L41.0256 57.8759C40.9344 57.8776 40.8888 57.8327 40.8888 57.7412L40.8736 53.8028C40.8719 53.6011 40.7968 53.5672 40.6482 53.7011C40.524 53.8104 40.4201 53.9172 40.2504 53.9452C39.5968 54.0571 39.1889 54.4766 38.5353 54.5529C38.4272 54.5647 38.374 54.6257 38.3757 54.7359L38.4086 58.2293C38.4086 58.2841 38.3932 58.3378 38.364 58.3842C38.3349 58.4305 38.2932 58.4676 38.2439 58.4912C38.173 58.5268 38.1004 58.5361 38.0261 58.5192C37.9146 58.4937 37.8588 58.4234 37.8588 58.3081L37.8664 55.0741C37.8664 54.7944 37.771 54.7563 37.5802 54.9597C37.3978 55.1546 37.1782 55.2546 36.9215 55.2597C36.5339 55.2698 36.0196 55.4885 36.0196 55.9462C36.0196 56.8665 36.0289 57.7556 36.0474 58.6132C36.0483 58.6632 36.0314 58.7118 35.9999 58.7505C35.9683 58.7891 35.9241 58.8153 35.8752 58.8243L35.4116 58.9158C35.3052 58.9361 35.252 58.8921 35.252 58.7836L35.257 55.308C35.257 55.1927 35.3026 55.102 35.3938 55.0359C35.9562 54.6291 36.6403 54.5707 37.223 54.2478C37.4425 54.1274 37.6731 54.0393 37.9146 53.9833C38.6341 53.813 39.1788 53.3655 39.8957 53.185C40.3796 53.0604 40.7571 52.7324 41.2334 52.5621C41.8076 52.3553 42.3776 52.1527 42.9434 51.9544C43.6173 51.718 44.1595 51.2832 44.8486 51.1561C45.4414 51.0493 45.7631 50.5789 46.3509 50.4671C46.7056 50.3993 47.04 50.2696 47.3541 50.078C47.6514 49.8967 47.9605 49.7535 48.2814 49.6484C48.8489 49.4636 49.3969 49.2755 49.9256 49.0839C50.2042 48.9822 50.4762 48.8458 50.7413 48.6746C51.1467 48.4127 51.5926 48.3924 52.0334 48.1737C52.9505 47.7178 53.8997 47.344 54.8809 47.0525C55.2474 46.9423 55.5776 46.9321 55.8715 47.022C56.8258 47.3084 57.715 47.6491 58.5392 48.044C58.899 48.2169 59.2604 48.3568 59.6235 48.4636C60.1707 48.6263 60.5584 48.9721 61.1182 49.1424C61.9272 49.3865 62.7135 49.6874 63.4769 50.045C64.1077 50.3399 64.7486 50.4874 65.3389 50.8052C65.7173 51.0103 66.0998 51.1654 66.4866 51.2705C67.0667 51.4281 67.5835 51.7714 68.1612 51.9875C68.7185 52.1976 69.2742 52.3909 69.8282 52.5672C70.155 52.6714 70.4032 52.8646 70.6211 53.124C70.6536 53.1628 70.6953 53.1927 70.7423 53.211C70.7893 53.2292 70.84 53.2351 70.8897 53.2282C71.5813 53.1392 72.1868 53.6554 72.8151 53.8664C73.6899 54.1596 74.5032 54.5147 75.2548 54.9317C75.4997 55.0673 75.628 55.2919 75.6398 55.6055C75.6804 56.6564 75.6871 57.6615 75.6601 58.6209C75.655 58.7683 75.5799 58.8395 75.4346 58.8344L75.0698 58.8217C75.0125 58.8198 74.9581 58.796 74.918 58.7552C74.8779 58.7145 74.8551 58.66 74.8545 58.6031L74.819 55.6614C74.8173 55.5739 74.7832 55.4902 74.7232 55.4267C74.6632 55.3632 74.5817 55.3245 74.4947 55.3182C73.9948 55.2826 73.5354 55.0775 73.1166 54.7029C73.1027 54.6907 73.0859 54.6826 73.0678 54.6793C73.0497 54.6761 73.0311 54.6778 73.014 54.6843C72.9968 54.6909 72.9817 54.7019 72.9703 54.7164C72.9589 54.7309 72.9517 54.7482 72.9493 54.7664C72.8404 55.5699 73.0025 56.3606 72.962 57.1691C72.9434 57.542 72.9502 57.9285 72.9823 58.3285C72.9857 58.3692 72.9671 58.3954 72.9265 58.4073L72.8379 58.4353C72.794 58.4488 72.7695 58.4319 72.7644 58.3844C72.6073 57.086 72.598 55.8139 72.7365 54.5681C72.7395 54.5424 72.7335 54.5166 72.7196 54.4952C72.7056 54.4737 72.6847 54.4582 72.6605 54.4512C72.0897 54.2766 71.5222 54.1257 70.9581 53.9986C70.6211 53.9223 70.3982 53.7545 70.1195 53.574C70.108 53.5664 70.0947 53.5619 70.081 53.5611C70.0672 53.5603 70.0535 53.5631 70.0412 53.5693C70.0289 53.5755 70.0184 53.5848 70.0108 53.5964C70.0032 53.6079 69.9987 53.6212 69.9979 53.635C69.9151 54.9147 69.9008 56.247 69.9548 57.6318C69.9599 57.7607 69.8999 57.8141 69.775 57.792C69.677 57.7734 69.6272 57.714 69.6255 57.614L69.5824 53.4392C69.5807 53.3341 69.5284 53.2757 69.4253 53.2638L68.9693 53.213C68.8926 53.2029 68.8189 53.175 68.754 53.1316C68.2794 52.8163 67.755 52.5765 67.1807 52.4121C67.1543 52.4042 67.1265 52.4027 67.0994 52.4076C67.0722 52.4126 67.0466 52.4239 67.0245 52.4407C67.0023 52.4575 66.9843 52.4792 66.9719 52.5043C66.9594 52.5293 66.9529 52.5569 66.9527 52.585L66.9325 56.9199C66.9325 56.9349 66.9295 56.9496 66.9235 56.9633C66.9175 56.977 66.9088 56.9892 66.8978 56.9993C66.8868 57.0093 66.8739 57.017 66.8598 57.0217C66.8457 57.0264 66.8307 57.0281 66.8159 57.0267L66.7424 57.0191C66.6107 57.0055 66.5448 56.9318 66.5448 56.7979L66.5398 52.2875C66.5397 52.2555 66.5329 52.2238 66.5198 52.1944C66.5068 52.1651 66.4877 52.1388 66.4638 52.1171C66.332 51.9968 66.1733 51.9468 65.9875 51.9671C65.8895 51.979 65.7958 51.9629 65.7063 51.9188L64.1989 51.1764C64.1722 51.1634 64.1426 51.1574 64.113 51.1588C64.0834 51.1603 64.0547 51.1692 64.0296 51.1847C64.0045 51.2002 63.9838 51.2218 63.9696 51.2475C63.9553 51.2732 63.9479 51.3021 63.9481 51.3315L63.9354 55.9589C63.9356 55.978 63.9314 55.9969 63.9231 56.0141C63.9148 56.0314 63.9027 56.0466 63.8876 56.0586C63.8725 56.0705 63.8548 56.079 63.8359 56.0833C63.817 56.0876 63.7973 56.0877 63.7783 56.0835L63.6998 56.0657C63.6451 56.0535 63.5961 56.0229 63.5611 55.9789C63.5261 55.935 63.5071 55.8804 63.5073 55.8241L63.4997 50.9933C63.4997 50.9659 63.4922 50.939 63.4779 50.9157C63.4635 50.8923 63.443 50.8734 63.4186 50.8611C62.9778 50.6476 62.5074 50.4789 62.0075 50.3552C61.6173 50.2586 61.3817 49.9967 61.0574 49.7882C61.0436 49.7795 61.0278 49.7746 61.0115 49.7739C60.9952 49.7732 60.9791 49.7768 60.9649 49.7844C60.9507 49.7919 60.9388 49.8031 60.9306 49.8167C60.9224 49.8304 60.918 49.846 60.9181 49.8619L60.9156 54.952C60.9156 55.1181 60.848 55.1546 60.7129 55.0614L60.642 55.0105C60.5888 54.9735 60.5453 54.9241 60.5153 54.8665C60.4853 54.809 60.4696 54.7449 60.4697 54.68L60.4621 49.9102C60.4621 49.8136 60.4215 49.7382 60.3405 49.684C59.7502 49.2822 59.0307 49.2009 58.4125 48.8678C57.5866 48.4229 56.7126 48.3441 55.9576 47.7339C55.9417 47.7202 55.9221 47.7117 55.9014 47.7091C55.8806 47.7066 55.8595 47.7103 55.8405 47.7196C55.8216 47.729 55.8056 47.7437 55.7944 47.762C55.7833 47.7803 55.7775 47.8014 55.7778 47.8228L55.8284 52.2824C55.8301 52.4061 55.7693 52.468 55.646 52.468L55.2128 52.4705C55.0862 52.4705 55.022 52.4061 55.0203 52.2773L54.9899 47.8279C54.9899 47.6805 54.935 47.6567 54.8252 47.7567C54.1792 48.3593 53.3432 48.3313 52.611 48.8093C52.2969 49.0127 51.9346 49.1585 51.5242 49.2466C51.1999 49.3153 50.9009 49.5034 50.5969 49.6382C50.5449 49.661 50.5006 49.6984 50.4695 49.7458C50.4385 49.7932 50.422 49.8486 50.4221 49.9052L50.4145 54.7613C50.4144 54.8277 50.3931 54.8923 50.354 54.9458C50.3148 54.9993 50.2597 55.0389 50.1966 55.0588L50.0877 55.0944C50.0653 55.1016 50.0416 55.1034 50.0184 55.0997C49.9952 55.0959 49.9732 55.0867 49.9542 55.0729C49.9352 55.059 49.9197 55.0408 49.909 55.0198C49.8983 54.9988 49.8927 54.9756 49.8926 54.952L49.8876 49.9255Z" fill="#3A393D"/>
<path d="M70.3219 66.3674C72.0818 66.0063 73.3519 65.6716 74.1322 65.3631C77.2905 64.1156 79.9675 62.0866 82.1631 59.2763C82.7036 58.5831 83.2238 57.8856 83.7237 57.1838C83.9179 56.9126 83.8487 56.7787 83.516 56.7821C82.479 56.7957 81.3727 56.933 80.1972 57.194C79.802 57.2805 79.7429 57.1762 80.0198 56.8813C80.5164 56.3499 80.6937 55.6609 81.1244 55.0837C81.4724 54.6176 81.8177 54.1481 82.1606 53.6752C83.8816 51.3089 86.0502 49.3741 88.6664 47.8706C89.1174 47.6113 89.6114 47.596 89.9635 47.2299C89.982 47.2108 90.005 47.1965 90.0302 47.1884C90.0555 47.1803 90.0823 47.1785 90.1082 47.1833C90.1341 47.1881 90.1583 47.1993 90.1786 47.2159C90.1989 47.2324 90.2147 47.2539 90.2245 47.2782C90.6172 48.2317 90.8578 49.1215 90.8933 50.1945C90.9575 52.1759 90.9339 53.865 90.8224 55.2617C90.7185 56.5482 90.0978 57.7813 89.8647 59.0755C89.7381 59.7721 89.4645 60.4603 89.0439 61.14C89.0353 61.1538 89.0229 61.165 89.0083 61.172C88.9936 61.1791 88.9772 61.1819 88.961 61.1801C88.9449 61.1782 88.9296 61.1718 88.9169 61.1615C88.9042 61.1513 88.8947 61.1376 88.8894 61.1222C88.7678 60.7459 88.5778 60.3747 88.2814 60.1077C87.8608 59.7263 87.8405 59.1822 87.4377 58.778C87.2654 58.6051 87.1303 58.4119 87.0324 58.1983C86.9817 58.0915 86.9277 58.089 86.8702 58.1907C86.5341 58.7975 86.2251 59.4119 85.943 60.034C85.6694 60.6357 85.3485 61.2324 84.9803 61.8239C81.9925 66.6242 77.82 69.9354 72.4626 71.7575C71.0118 72.2507 70.2814 72.4999 70.2712 72.505C66.5657 73.883 62.9783 75.4577 59.5092 77.229C59.1478 77.4137 58.4291 77.8375 57.3533 78.5002C56.6895 78.9096 56.1904 79.4054 55.6559 79.9418C55.6369 79.9606 55.6144 79.9755 55.5896 79.9854C55.5648 79.9954 55.5383 80.0002 55.5117 79.9998C55.485 79.9993 55.4587 79.9935 55.4343 79.9826C55.4099 79.9718 55.3879 79.9562 55.3696 79.9367C55.0166 79.5604 54.6366 79.2274 54.2296 78.9375C53.174 78.1849 51.8456 77.4171 50.2445 76.634C46.4714 74.7865 42.8274 73.2813 39.3127 72.1185C37.5191 71.5253 36.0303 70.9168 34.8463 70.293C31.1644 68.3539 28.1834 65.5631 25.9033 61.9205C25.346 61.0306 24.9482 60.0747 24.439 59.1594C24.2667 58.8492 24.2135 58.5161 24.1502 58.1729C24.1468 58.1576 24.1391 58.1437 24.128 58.1327C24.117 58.1217 24.103 58.1142 24.0878 58.111C24.0725 58.1078 24.0567 58.109 24.0422 58.1146C24.0276 58.1201 24.015 58.1298 24.0058 58.1424C23.5117 58.8492 23.1089 59.617 22.5566 60.2857C22.3101 60.584 22.1488 60.9476 22.0728 61.3764C22.0695 61.3946 22.061 61.4115 22.0484 61.4251C22.0358 61.4386 22.0196 61.4482 22.0017 61.4528C21.9838 61.4573 21.965 61.4566 21.9475 61.4507C21.93 61.4449 21.9146 61.4341 21.903 61.4197C21.3127 60.6645 21.2165 59.6246 20.9175 58.7602C20.5654 57.7406 20.2107 56.7643 20.16 55.6634C20.0967 54.3566 19.8104 53.0319 19.9092 51.7302C19.9903 50.6708 20.1051 49.5843 20.2538 48.4707C20.296 48.1469 20.3948 47.835 20.5502 47.535C20.5907 47.457 20.654 47.4282 20.7402 47.4486C21.1523 47.5469 21.4115 47.6223 21.5179 47.6749C25.1382 49.4775 27.7375 52.2259 29.9847 55.5363C30.3368 56.055 30.4001 56.6219 30.8967 57.0364C30.9174 57.0541 30.9326 57.0774 30.9405 57.1036C30.9484 57.1297 30.9486 57.1576 30.9411 57.1838C30.9336 57.2101 30.9188 57.2337 30.8983 57.2517C30.8779 57.2697 30.8527 57.2815 30.8258 57.2855C30.6011 57.316 30.3824 57.3093 30.1696 57.2652C29.217 57.0686 28.2509 56.9016 27.2714 56.7643C26.9471 56.7186 26.8736 56.8338 27.0509 57.1101C29.2322 60.5145 32.1102 63.3265 35.8115 65.0529C36.477 65.3631 37.2066 65.6207 38.0004 65.8258C38.7909 66.0292 39.561 66.2318 40.3109 66.4335C40.6453 66.5233 40.7399 66.4106 40.5947 66.0953C40.4849 65.8546 40.354 65.6292 40.202 65.419C38.964 63.6935 37.6229 62.0129 36.1789 60.3772C35.9382 60.1052 35.6443 59.9475 35.3809 59.6984C35.3532 59.6725 35.3334 59.6393 35.3238 59.6026C35.3142 59.5658 35.3152 59.5272 35.3266 59.491C35.338 59.4548 35.3594 59.4226 35.3882 59.3981C35.4171 59.3736 35.4523 59.3578 35.4898 59.3526C36.493 59.2178 37.4329 58.8568 38.4691 58.7958C39.1126 58.7568 39.8245 58.5856 40.6048 58.2822C41.3065 58.0102 42.059 58.1602 42.7126 57.8576C43.3814 57.5457 44.0207 57.3516 44.6304 57.2754C45.3068 57.1915 45.7704 56.7974 46.4621 56.7541C47.1968 56.7109 47.5793 56.2177 48.2532 56.0931C48.7886 55.9948 49.2463 55.8194 49.6263 55.5668C49.8712 55.4058 50.1482 55.2948 50.4573 55.2337C51.04 55.1168 51.4808 54.7151 52.0356 54.4989C52.6715 54.2498 53.3277 53.9726 53.8799 53.5608C54.2464 53.2879 54.6476 53.0573 55.0833 52.8692C55.4608 52.7065 55.9422 52.8743 56.2563 53.0879C57.0974 53.6574 57.9258 54.1066 58.7416 54.4354C59.494 54.7379 60.0767 55.2439 60.8975 55.3456C61.0006 55.3592 61.0926 55.3981 61.1737 55.4626C61.9058 56.0423 62.6887 55.966 63.4664 56.3855C64.2062 56.7872 65.0346 56.716 65.7617 57.1254C66.2025 57.372 66.6434 57.2143 67.107 57.4025C67.8873 57.7203 68.7132 58.0279 69.5492 58.1118C70.1961 58.1763 70.8134 58.3314 71.4011 58.5771C72.1814 58.9026 72.9187 58.7119 73.7015 58.9C74.2859 59.0407 74.8989 59.1653 75.5408 59.2738C75.555 59.2764 75.5683 59.2827 75.5792 59.2922C75.5902 59.3017 75.5984 59.3139 75.6031 59.3277C75.6077 59.3414 75.6086 59.3562 75.6057 59.3704C75.6028 59.3846 75.5961 59.3978 75.5863 59.4085C73.8011 61.2629 72.1916 63.2282 70.7576 65.3046C70.555 65.5978 70.3734 65.9055 70.213 66.2275C70.1538 66.3479 70.1902 66.3945 70.3219 66.3674ZM23.4661 56.3601C23.2356 55.6736 23.076 54.9719 22.7416 54.3261C22.2729 53.4235 22.1944 52.5031 21.7814 51.6183C21.4335 50.8759 21.2131 50.1157 21.1202 49.3377C21.0932 49.1156 21.0442 49.1105 20.9733 49.3224C20.3906 51.0539 20.3526 53.159 20.801 54.9846C20.9733 55.6829 21.1219 56.4016 21.2469 57.1406C21.3786 57.911 21.751 58.6153 22.0601 59.3195C22.0662 59.3324 22.0753 59.3436 22.0866 59.3521C22.0979 59.3607 22.111 59.3663 22.1248 59.3686C22.1386 59.3709 22.1526 59.3696 22.1656 59.3651C22.1786 59.3605 22.1903 59.3527 22.1994 59.3424C22.6892 58.8085 23.1005 58.189 23.4332 57.4838C23.4754 57.394 23.5371 57.3186 23.6182 57.2576C23.8039 57.1203 23.8267 56.9601 23.6866 56.777C23.592 56.6533 23.5185 56.5143 23.4661 56.3601ZM88.8235 52.3073C88.5372 53.3853 87.9647 54.3311 87.6936 55.4804C87.5796 55.9583 87.2401 56.3855 87.078 56.8736C87.0526 56.9482 87.0712 57.0084 87.1337 57.0542C87.7519 57.5042 87.7671 58.1449 88.2434 58.6712C88.3869 58.8305 88.5085 59 88.6082 59.1797C88.6622 59.2814 88.7163 59.2814 88.7703 59.1797C89.3023 58.1559 89.6317 57.2881 89.7583 56.5762C89.9205 55.6609 90.0649 54.743 90.1916 53.8226C90.3858 52.4056 90.325 51.0335 90.0091 49.7063C89.9939 49.6436 89.9576 49.597 89.9002 49.5665C89.8852 49.5583 89.8686 49.5532 89.8516 49.5518C89.8346 49.5503 89.8175 49.5524 89.8015 49.5579C89.7855 49.5634 89.7709 49.5722 89.7586 49.5838C89.7464 49.5954 89.7368 49.6094 89.7305 49.625C89.3707 50.4911 89.0684 51.3852 88.8235 52.3073ZM73.8358 67.903C75.8355 66.986 77.5295 65.7826 78.9178 64.2927C79.3333 63.8469 79.2902 63.7961 78.7886 64.1401C77.3015 65.1622 75.5712 66.3165 73.9574 66.8123C73.0994 67.075 72.2777 67.3293 71.4923 67.5751C71.1106 67.6937 70.3759 67.7403 69.2883 67.7149C69.2369 67.7142 69.1864 67.7273 69.1422 67.7529C69.098 67.7784 69.0618 67.8154 69.0374 67.8598L68.551 68.7268C68.4666 68.8777 68.5105 68.959 68.6828 68.9709C69.159 69.0014 69.6472 68.9751 70.1471 68.8921C71.4442 68.676 72.683 68.4319 73.8358 67.903ZM36.8908 66.853C35.1402 66.2479 33.3871 65.1521 31.9075 64.135C31.7538 64.0283 31.7386 64.0452 31.8619 64.1859C34.1201 66.7691 36.9845 68.3429 40.4553 68.9073C40.935 68.9853 41.5286 69.0056 42.2363 68.9684C42.4795 68.9548 42.5268 68.8514 42.3782 68.6582L41.9146 68.0556C41.8515 67.9734 41.7705 67.9069 41.6777 67.8615C41.585 67.816 41.4831 67.7929 41.38 67.7937C40.4578 67.8056 39.6835 67.7208 39.0569 67.5395C38.3475 67.3344 37.6255 67.1055 36.8908 66.853Z" fill="#3A393D"/>
<path d="M47.2217 47.9395C47.4078 47.9395 47.5587 47.7881 47.5587 47.6013C47.5587 47.4146 47.4078 47.2632 47.2217 47.2632C47.0356 47.2632 46.8848 47.4146 46.8848 47.6013C46.8848 47.7881 47.0356 47.9395 47.2217 47.9395Z" fill="white"/>
<path d="M63.4137 47.5464C63.4107 47.7191 63.516 47.861 63.6489 47.8633C63.7818 47.8657 63.8919 47.7276 63.895 47.5549C63.898 47.3822 63.7927 47.2403 63.6598 47.238C63.5269 47.2356 63.4167 47.3737 63.4137 47.5464Z" fill="white"/>
<path d="M23.6862 56.7773C23.8264 56.9603 23.8036 57.1205 23.6178 57.2578C23.5368 57.3188 23.4751 57.3943 23.4329 57.4841C23.1002 58.1892 22.6889 58.8088 22.1991 59.3427C22.1899 59.353 22.1783 59.3608 22.1653 59.3653C22.1523 59.3699 22.1382 59.3711 22.1244 59.3688C22.1107 59.3666 22.0975 59.3609 22.0863 59.3524C22.075 59.3438 22.0659 59.3326 22.0598 59.3198C21.7507 58.6155 21.3783 57.9113 21.2465 57.1409C21.1216 56.4019 20.9729 55.6832 20.8006 54.9848C20.3522 53.1593 20.3902 51.0541 20.9729 49.3227C21.0439 49.1108 21.0928 49.1159 21.1199 49.3379C21.2128 50.1159 21.4332 50.8761 21.7811 51.6185C22.194 52.5033 22.2726 53.4237 22.7413 54.3263C23.0757 54.9721 23.2353 55.6738 23.4658 56.3603C23.5182 56.5146 23.5916 56.6536 23.6862 56.7773Z" fill="white"/>
<path d="M88.8229 52.3082C89.0678 51.3862 89.3701 50.492 89.7299 49.6259C89.7362 49.6103 89.7458 49.5963 89.758 49.5847C89.7703 49.5732 89.7849 49.5644 89.8009 49.5588C89.8169 49.5533 89.834 49.5512 89.851 49.5527C89.868 49.5542 89.8846 49.5592 89.8996 49.5674C89.957 49.5979 89.9933 49.6445 90.0085 49.7073C90.3244 51.0344 90.3852 52.4066 90.1909 53.8236C90.0643 54.744 89.9199 55.6618 89.7577 56.5771C89.6311 57.289 89.3017 58.1569 88.7697 59.1806C88.7156 59.2823 88.6616 59.2823 88.6076 59.1806C88.5079 59.001 88.3863 58.8315 88.2427 58.6721C87.7665 58.1458 87.7513 57.5051 87.1331 57.0551C87.0706 57.0093 87.052 56.9492 87.0774 56.8746C87.2395 56.3864 87.579 55.9593 87.693 55.4813C87.9641 54.3321 88.5366 53.3863 88.8229 52.3082Z" fill="white"/>
<path d="M73.8342 67.9028C72.6815 68.4316 71.4427 68.6757 70.1455 68.8918C69.6456 68.9749 69.1575 69.0012 68.6812 68.9706C68.5089 68.9588 68.465 68.8774 68.5495 68.7266L69.0359 67.8596C69.0603 67.8151 69.0965 67.7781 69.1407 67.7526C69.1849 67.7271 69.2353 67.714 69.2867 67.7146C70.3744 67.7401 71.1091 67.6935 71.4908 67.5748C72.2761 67.329 73.0978 67.0748 73.9558 66.812C75.5696 66.3163 77.2999 65.162 78.7871 64.1399C79.2887 63.7958 79.3317 63.8466 78.9163 64.2924C77.5279 65.7823 75.8339 66.9858 73.8342 67.9028Z" fill="white"/>
<path d="M36.8885 66.8535C37.6232 67.106 38.3452 67.3348 39.0546 67.5399C39.6812 67.7213 40.4556 67.8061 41.3778 67.7942C41.4808 67.7933 41.5827 67.8165 41.6755 67.862C41.7682 67.9074 41.8493 67.9738 41.9123 68.0561L42.3759 68.6586C42.5246 68.8519 42.4773 68.9553 42.234 68.9688C41.5264 69.0061 40.9327 68.9858 40.453 68.9078C36.9823 68.3434 34.1178 66.7696 31.8597 64.1864C31.7364 64.0457 31.7516 64.0287 31.9053 64.1355C33.3848 65.1525 35.1379 66.2483 36.8885 66.8535Z" fill="white"/>
</g>
</svg>
