<svg width="119" height="80" viewBox="0 0 119 80" fill="none" xmlns="http://www.w3.org/2000/svg">
<g style="mix-blend-mode:luminosity">
<path d="M58.4538 8.16539C60.7086 8.16539 62.5365 6.3375 62.5365 4.08269C62.5365 1.82788 60.7086 0 58.4538 0C56.199 0 54.3711 1.82788 54.3711 4.08269C54.3711 6.3375 56.199 8.16539 58.4538 8.16539Z" fill="#727270"/>
<path d="M57.6664 11.0234H54.4752C54.4156 11.0234 54.3672 11.0718 54.3672 11.1315V55.2104C54.3672 55.2701 54.4156 55.3185 54.4752 55.3185H57.6664C57.7261 55.3185 57.7745 55.2701 57.7745 55.2104V11.1315C57.7745 11.0718 57.7261 11.0234 57.6664 11.0234Z" fill="#ED691F"/>
<path d="M62.4736 11.0356H59.2082C59.1709 11.0356 59.1406 11.0659 59.1406 11.1032V55.2496C59.1406 55.2869 59.1709 55.3172 59.2082 55.3172H62.4736C62.5109 55.3172 62.5412 55.2869 62.5412 55.2496V11.1032C62.5412 11.0659 62.5109 11.0356 62.4736 11.0356Z" fill="#ED691F"/>
<path d="M44.0733 44.2727C44.5663 43.1763 44.8151 41.7997 44.8196 40.1427C44.8331 33.9337 44.8353 27.8226 44.8263 21.8094C44.8263 21.7487 44.8567 21.7183 44.9175 21.7183H48.1661C48.1753 21.7183 48.1845 21.7201 48.193 21.7237C48.2015 21.7273 48.2092 21.7325 48.2156 21.7391C48.2221 21.7457 48.2272 21.7536 48.2305 21.7622C48.2339 21.7708 48.2355 21.7799 48.2353 21.7892C48.2252 27.6391 48.2241 33.6337 48.2319 39.7729C48.2336 41.8498 48.0715 43.9873 47.283 45.8582C45.2653 50.65 39.4739 50.5352 35.1582 50.5386C29.6088 50.5431 24.0611 50.5346 18.5151 50.5132C18.4989 50.5132 18.4835 50.507 18.4721 50.4959C18.4607 50.4848 18.4543 50.4698 18.4543 50.4541L18.4492 47.2191C18.4492 47.1628 18.4768 47.1346 18.532 47.1346C24.7826 47.1301 30.9736 47.1279 37.105 47.1279C39.6191 47.1279 42.8913 46.9033 44.0733 44.2727Z" fill="#727270"/>
<path d="M45.9502 50.1637C47.5239 49.0831 48.5505 47.6068 49.03 45.7349C49.3947 44.3132 49.5787 42.7942 49.5821 41.1777C49.5945 34.7076 49.599 28.2464 49.5956 21.7942C49.5956 21.7436 49.6209 21.7183 49.6716 21.7183H52.9253C52.9467 21.7183 52.9674 21.7266 52.9826 21.7415C52.9978 21.7564 53.0063 21.7766 53.0063 21.7976C53.0187 27.9312 53.0176 34.4763 53.0029 41.4327C52.9995 42.8127 52.8695 44.2761 52.6129 45.8227C52.2043 48.2929 51.1642 50.7581 49.2951 52.3773C46.5969 54.7124 42.7303 55.3034 39.1153 55.3068C31.6479 55.3124 24.768 55.3146 18.4756 55.3135C18.46 55.3135 18.4445 55.3104 18.43 55.3044C18.4156 55.2983 18.4025 55.2895 18.3915 55.2783C18.3805 55.2672 18.3718 55.2539 18.3659 55.2394C18.3601 55.2249 18.3572 55.2093 18.3574 55.1936V51.994C18.3586 51.94 18.3861 51.913 18.4402 51.913C25.4777 51.904 32.0514 51.9034 38.1614 51.9113C40.2871 51.913 42.4737 51.7458 44.4627 50.9522C45.0008 50.7372 45.4966 50.4744 45.9502 50.1637Z" fill="#ED691F"/>
<path d="M67.9344 45.8989C69.2716 50.7786 73.898 51.9149 78.3589 51.9098C85.0565 51.9019 91.7276 51.9036 98.3722 51.9149C98.3979 51.9149 98.4233 51.92 98.4469 51.9299C98.4706 51.9399 98.4921 51.9545 98.5101 51.9728C98.5282 51.9912 98.5424 52.013 98.5521 52.037C98.5618 52.0609 98.5666 52.0866 98.5664 52.1124L98.5276 55.1854C98.5271 55.2174 98.5139 55.2479 98.4909 55.2703C98.4678 55.2927 98.4367 55.3053 98.4043 55.3053C92.2786 55.3098 85.5439 55.3132 78.2002 55.3154C76.0435 55.3166 74.1203 55.1196 72.4307 54.7245C68.5946 53.8262 65.888 51.5975 64.7348 47.6481C64.1877 45.7728 63.913 43.6988 63.9108 41.4262C63.9052 34.9864 63.9023 28.4335 63.9023 21.7675C63.9023 21.7348 63.9192 21.7185 63.953 21.7185L67.2269 21.7168C67.2515 21.7168 67.2752 21.7268 67.2926 21.7445C67.31 21.7622 67.3198 21.7863 67.3198 21.8114C67.304 28.6282 67.3052 35.2205 67.3232 41.5883C67.3277 42.9908 67.5314 44.4277 67.9344 45.8989Z" fill="#ED691F"/>
<path d="M80.1162 50.5352C75.8545 50.5234 70.877 49.9392 69.3793 45.1929C68.9155 43.7217 68.6825 42.0293 68.6803 40.1157C68.6758 34.0046 68.6747 27.8885 68.6769 21.7672C68.6769 21.7547 68.6819 21.7427 68.6907 21.7338C68.6996 21.7249 68.7116 21.72 68.7242 21.72L72.015 21.7183C72.0247 21.7183 72.0344 21.7201 72.0434 21.7238C72.0524 21.7274 72.0606 21.7328 72.0675 21.7395C72.0744 21.7463 72.0799 21.7543 72.0836 21.7631C72.0874 21.7719 72.0893 21.7813 72.0893 21.7909C72.0803 28.0404 72.0842 34.2894 72.1011 40.5378C72.1033 41.2796 72.2047 42.0985 72.405 42.9945C72.8997 45.2149 74.2404 46.4018 76.4202 46.8273C77.395 47.0176 78.3163 47.1138 79.1842 47.1161C85.6183 47.1363 92.0148 47.1403 98.3735 47.1279C98.3973 47.1279 98.42 47.1373 98.4368 47.1541C98.4536 47.1709 98.463 47.1936 98.463 47.2174L98.4512 50.4069C98.4512 50.4665 98.4208 50.4969 98.36 50.498C98.0021 50.507 97.6351 50.5127 97.2591 50.5149C91.5859 50.5442 85.8716 50.5509 80.1162 50.5352Z" fill="#727270"/>
<path d="M44.4388 75.8406H37.1059C37.0349 75.8406 36.986 75.8738 36.959 75.9402L35.436 79.7443C35.4168 79.7915 35.3819 79.8152 35.3313 79.8152L32.3731 79.8169C32.3637 79.8168 32.3545 79.8144 32.3463 79.8099C32.3381 79.8054 32.3311 79.7989 32.3259 79.7911C32.3207 79.7833 32.3176 79.7743 32.3167 79.7649C32.3158 79.7556 32.3172 79.7462 32.3208 79.7375C34.3199 74.9614 36.3151 70.2095 38.3064 65.4819C38.8703 64.1446 39.8986 63.8187 41.2764 63.9487C42.2196 64.0365 42.9007 64.578 43.3194 65.573C45.3219 70.3345 47.3075 75.0633 49.2763 79.7595C49.2791 79.7656 49.2802 79.7724 49.2796 79.7791C49.279 79.7858 49.2767 79.7924 49.2728 79.7981C49.269 79.8038 49.2637 79.8085 49.2575 79.8118C49.2514 79.815 49.2445 79.8168 49.2374 79.8169L46.2725 79.8152C46.2106 79.8152 46.1678 79.7859 46.1442 79.7274L44.6111 75.9571C44.5795 75.8794 44.5221 75.8406 44.4388 75.8406ZM40.5453 66.8428L37.8015 73.6337C37.7756 73.6968 37.797 73.7283 37.8657 73.7283L43.7196 73.73C43.728 73.73 43.7364 73.7279 43.7439 73.724C43.7514 73.7201 43.7578 73.7144 43.7627 73.7074C43.7675 73.7004 43.7705 73.6924 43.7715 73.6839C43.7726 73.6755 43.7715 73.667 43.7685 73.6591C42.823 71.2727 41.9168 69.0119 41.0501 66.8765C40.9747 66.6919 40.8452 66.6407 40.6618 66.7229C40.6087 66.7468 40.567 66.7897 40.5453 66.8428Z" fill="#727270"/>
<path d="M58.1243 66.8951C58.0421 67.0099 57.9751 67.1371 57.9234 67.2767C56.3936 71.4202 54.8622 75.5665 53.3291 79.7156C53.3043 79.7842 53.2553 79.8186 53.1822 79.8186L50.1936 79.8135C50.1148 79.8135 50.09 79.7775 50.1193 79.7054C51.8472 75.4167 53.7546 70.6772 55.8415 65.4869C56.1876 64.6258 56.9508 64.045 57.8862 63.9504C58.9961 63.8379 59.8229 64.1187 60.3666 64.793C60.5748 65.0519 60.8286 65.5539 61.1281 66.2991C63.0968 71.2001 64.8961 75.6807 66.5261 79.7409C66.5294 79.7494 66.5306 79.7585 66.5295 79.7676C66.5285 79.7766 66.5252 79.7853 66.5201 79.7928C66.5149 79.8003 66.508 79.8064 66.4999 79.8106C66.4918 79.8148 66.4828 79.8169 66.4737 79.8169H63.4024C63.3653 79.8169 63.3399 79.7994 63.3264 79.7645C61.7843 75.5918 60.2337 71.3971 58.6747 67.1804C58.6353 67.0746 58.583 66.9778 58.5177 66.89C58.4945 66.8596 58.4646 66.835 58.4302 66.8182C58.3958 66.8015 58.358 66.793 58.3197 66.7935C58.2815 66.794 58.2439 66.8034 58.2099 66.8211C58.176 66.8387 58.1467 66.8641 58.1243 66.8951Z" fill="#727270"/>
<path d="M70.7463 67.1901C70.719 67.2076 70.6965 67.2319 70.6811 67.2605C70.6658 67.2892 70.658 67.3213 70.6585 67.3538L70.7227 79.7556C70.7227 79.7717 70.7163 79.7872 70.7049 79.7986C70.6935 79.81 70.678 79.8164 70.6619 79.8164H67.827C67.817 79.8164 67.8071 79.8144 67.7979 79.8106C67.7887 79.8068 67.7803 79.8012 67.7733 79.7941C67.7662 79.787 67.7606 79.7787 67.7568 79.7695C67.753 79.7602 67.751 79.7504 67.751 79.7404C67.7668 75.1849 67.7639 70.9323 67.7426 66.9824C67.7381 66.1292 67.7741 65.5742 67.8506 65.3176C68.2103 64.1069 69.6184 63.8283 70.7835 63.9482C72.0887 64.0833 72.6442 64.8465 73.073 65.9592C74.3236 69.2112 75.6727 72.6961 77.1203 76.4141C77.1968 76.6111 77.2964 76.7906 77.4191 76.9527C77.4337 76.9719 77.4525 76.9875 77.474 76.9983C77.4955 77.0092 77.5192 77.015 77.5433 77.0153C77.5673 77.0156 77.5912 77.0104 77.613 77.0002C77.6347 76.9899 77.6539 76.9749 77.669 76.9561C77.8075 76.7828 77.9189 76.588 78.0033 76.3719C79.4014 72.7507 80.7786 69.1948 82.135 65.7042C82.3725 65.0941 82.7209 64.6343 83.1801 64.3248C83.945 63.8081 85.2012 63.83 86.0522 64.1289C87.1092 64.5003 87.349 65.2213 87.3456 66.2699C87.3354 70.5473 87.3326 75.033 87.3371 79.7269C87.3371 79.7877 87.3067 79.818 87.246 79.818L84.4887 79.813C84.4133 79.813 84.3761 79.7758 84.3773 79.7015L84.4668 67.3842C84.4674 67.3353 84.4536 67.2872 84.4271 67.246C84.4006 67.2049 84.3626 67.1723 84.3179 67.1526C84.2731 67.1328 84.2235 67.1266 84.1752 67.1348C84.1269 67.1429 84.0821 67.1651 84.0463 67.1985C83.9765 67.2627 83.9197 67.3527 83.8758 67.4687C82.4755 71.1202 81.1202 74.6559 79.81 78.0756C79.4672 78.9688 79.116 79.8028 78.0861 79.9565C77.2328 80.0837 76.5591 79.9289 76.065 79.4922C75.8308 79.2839 75.5528 78.7594 75.2309 77.9185C73.8925 74.4234 72.5462 70.9193 71.1921 67.4062C71.0885 67.136 70.9399 67.064 70.7463 67.1901Z" fill="#727270"/>
<path d="M13.9999 64.0986H17.0577C17.068 64.0989 17.0781 64.1019 17.0869 64.1073C17.0957 64.1127 17.1029 64.1203 17.1079 64.1293C17.1128 64.1384 17.1153 64.1486 17.1151 64.1589C17.1149 64.1692 17.112 64.1793 17.1067 64.1881L7.5804 79.7861C7.57515 79.7948 7.56773 79.8021 7.55885 79.8071C7.54997 79.8122 7.53995 79.8148 7.52974 79.8148L4.68975 79.8165C4.6793 79.8165 4.66904 79.8137 4.66001 79.8084C4.65098 79.8032 4.64351 79.7956 4.63836 79.7865C4.63321 79.7774 4.63056 79.7671 4.63069 79.7567C4.63083 79.7462 4.63373 79.736 4.6391 79.727L7.52468 75.0432C7.53018 75.034 7.53309 75.0235 7.53309 75.0128C7.53309 75.0021 7.53018 74.9916 7.52468 74.9824L0.94982 64.1881C0.944444 64.1792 0.941542 64.1689 0.941411 64.1585C0.94128 64.148 0.943923 64.1377 0.949073 64.1286C0.954223 64.1195 0.961695 64.1119 0.970725 64.1067C0.979755 64.1014 0.99002 64.0986 1.00047 64.0986H4.05152C4.06172 64.0986 4.07175 64.1013 4.08063 64.1063C4.0895 64.1113 4.09693 64.1186 4.10217 64.1273L8.97506 72.259C8.98032 72.2677 8.98774 72.2749 8.99662 72.2799C9.00549 72.285 9.01552 72.2876 9.02572 72.2876C9.03592 72.2876 9.04594 72.285 9.05482 72.2799C9.06369 72.2749 9.07112 72.2677 9.07637 72.259L13.9493 64.1273C13.9545 64.1186 13.9619 64.1113 13.9708 64.1063C13.9797 64.1013 13.9897 64.0986 13.9999 64.0986Z" fill="#727270"/>
<path d="M20.8508 74.1689C20.8114 74.17 20.7917 74.1903 20.7917 74.2297V79.7543C20.7917 79.763 20.7901 79.7715 20.7869 79.7795C20.7836 79.7875 20.7789 79.7948 20.7729 79.8009C20.767 79.807 20.7599 79.8118 20.7521 79.8152C20.7443 79.8185 20.736 79.8202 20.7276 79.8202L17.9332 79.8134C17.8566 79.8134 17.8184 79.7751 17.8184 79.6986C17.8217 74.9203 17.824 70.6513 17.8251 66.8916C17.8251 66.2872 17.842 65.5527 18.2084 65.0445C18.7386 64.3066 19.5237 64.1023 20.3933 64.1006C23.0261 64.0927 25.6697 64.0967 28.3239 64.1124C30.6253 64.1259 31.8089 65.7739 31.9356 67.925C32.0521 69.9292 32.0386 73.3044 29.5616 73.9933C29.1305 74.1126 28.6335 74.1712 28.0707 74.1689C25.6427 74.1565 23.2361 74.1565 20.8508 74.1689ZM28.6819 70.9591C28.9487 70.1566 28.9954 69.1671 28.822 67.9908C28.5907 66.4256 27.4156 66.4307 26.1678 66.4476C24.8125 66.4667 23.3559 66.4712 21.7981 66.4611C21.1328 66.456 20.785 66.8899 20.7867 67.5045C20.7934 68.9364 20.7951 70.4008 20.7917 71.8979C20.7906 71.9351 20.8092 71.9536 20.8475 71.9536C23.2608 71.9615 25.3669 71.9581 27.1657 71.9435C27.9615 71.9368 28.4669 71.6086 28.6819 70.9591Z" fill="#727270"/>
<path d="M93.1119 70.608H101.937C102.016 70.608 102.056 70.6474 102.056 70.7262V72.8841C102.056 72.906 102.047 72.9271 102.032 72.9426C102.017 72.9581 101.996 72.9668 101.975 72.9668H93.0764C93.0202 72.9668 92.9926 72.9944 92.9937 73.0496C92.9948 74.1673 92.9937 75.361 92.9903 76.6308C92.9886 77.4159 93.5576 77.4632 94.1706 77.4632C96.8743 77.4632 99.5708 77.4637 102.26 77.4649C102.286 77.4649 102.312 77.4752 102.33 77.4936C102.349 77.5119 102.36 77.5368 102.36 77.5628L102.361 79.7156C102.361 79.7809 102.328 79.8135 102.262 79.8135C98.6956 79.8191 95.2534 79.818 91.935 79.8101C90.7092 79.8068 90.0642 78.9794 90.0592 77.8178C90.0389 74.1347 90.0276 70.3356 90.0254 66.4207C90.0254 65.0226 90.7227 64.1159 92.1815 64.1092C95.4459 64.0945 98.7812 64.0923 102.187 64.1024C102.246 64.1024 102.275 64.1317 102.275 64.1902V66.3734C102.275 66.433 102.245 66.4629 102.184 66.4629C99.5207 66.4617 96.7815 66.4617 93.9662 66.4629C93.3134 66.4629 92.9881 66.7848 92.9903 67.4287C92.996 68.489 92.9954 69.5077 92.9886 70.4848C92.9886 70.567 93.0297 70.608 93.1119 70.608Z" fill="#727270"/>
<path d="M109.139 66.4608L103.402 66.4625C103.385 66.4625 103.369 66.4557 103.357 66.4437C103.345 66.4316 103.338 66.4153 103.338 66.3983L103.34 64.1628C103.34 64.1458 103.346 64.1295 103.358 64.1174C103.37 64.1054 103.387 64.0986 103.404 64.0986H117.997C118.014 64.0986 118.03 64.1054 118.042 64.1174C118.054 64.1295 118.061 64.1458 118.061 64.1628V66.3983C118.061 66.4153 118.054 66.4316 118.042 66.4437C118.03 66.4557 118.014 66.4625 117.997 66.4625H112.236C112.219 66.4625 112.203 66.4692 112.191 66.4813C112.179 66.4933 112.172 66.5096 112.172 66.5266L112.169 79.7523C112.169 79.7694 112.162 79.7857 112.15 79.7977C112.138 79.8097 112.121 79.8165 112.104 79.8165L109.268 79.8131C109.251 79.8131 109.234 79.8064 109.222 79.7943C109.21 79.7823 109.204 79.766 109.204 79.749V66.5249C109.204 66.5079 109.197 66.4916 109.185 66.4796C109.173 66.4675 109.156 66.4608 109.139 66.4608Z" fill="#727270"/>
<path d="M28.6804 70.9591C28.4654 71.6086 27.96 71.9367 27.1642 71.9434C25.3654 71.9581 23.2593 71.9614 20.8459 71.9536C20.8077 71.9536 20.7891 71.935 20.7902 71.8978C20.7936 70.4007 20.7919 68.9363 20.7852 67.5045C20.7835 66.8899 21.1313 66.4559 21.7965 66.461C23.3544 66.4711 24.811 66.4666 26.1663 66.4475C27.4141 66.4306 28.5892 66.4255 28.8205 67.9907C28.9939 69.167 28.9472 70.1565 28.6804 70.9591Z" fill="white"/>
<path d="M37.8016 73.6334L40.5454 66.8424C40.5671 66.7894 40.6088 66.7464 40.6619 66.7225C40.8454 66.6404 40.9748 66.6916 41.0502 66.8762C41.917 69.0115 42.8231 71.2724 43.7687 73.6587C43.7717 73.6667 43.7727 73.6752 43.7717 73.6836C43.7707 73.692 43.7676 73.7001 43.7628 73.707C43.758 73.714 43.7515 73.7197 43.744 73.7237C43.7365 73.7276 43.7282 73.7296 43.7197 73.7296L37.8658 73.728C37.7971 73.728 37.7758 73.6964 37.8016 73.6334Z" fill="white"/>
</g>
</svg>
