<svg width="134" height="54" viewBox="0 0 134 54" fill="none" xmlns="http://www.w3.org/2000/svg">
<g style="mix-blend-mode:luminosity">
<path d="M27.4807 30.5065C27.5294 30.5065 27.5761 30.4867 27.6105 30.4515C27.645 30.4163 27.6643 30.3685 27.6643 30.3187C27.6796 21.7676 27.6597 13.4164 27.6047 5.26521C27.5894 2.97555 28.3697 1.45368 29.9456 0.699621C30.8147 0.281376 31.7526 0.0539366 32.7593 0.017302C36.5186 -0.124657 38.3501 0.969803 39.7409 4.56458C42.6755 12.151 45.7462 20.0137 48.9532 28.1527C49.1276 28.5984 49.3602 29.009 49.6509 29.3845C49.6789 29.4212 49.715 29.4508 49.7564 29.4712C49.7979 29.4916 49.8436 29.5022 49.8901 29.5022C49.9366 29.5022 49.9826 29.4916 50.0247 29.4712C50.0668 29.4508 50.1037 29.4212 50.1328 29.3845C50.4633 28.9632 50.7219 28.5145 50.9086 28.0382C54.0788 19.9969 57.0945 12.2548 59.9556 4.81186C61.5071 0.78663 63.7103 -0.45437 68.0342 0.140942C69.6101 0.357697 70.8143 1.07207 71.6466 2.28407C71.7476 2.43671 71.8761 2.46419 72.0322 2.3665C74.1161 1.06597 77.0094 0.411123 80.712 0.401964C85.247 0.389752 89.9167 0.389752 94.721 0.401964C94.9566 0.401964 95.0744 0.521029 95.0744 0.759155L95.0698 5.41633C95.0698 5.62393 94.9658 5.72773 94.7577 5.72773C90.3574 5.70941 86.0014 5.71552 81.6897 5.74604C77.655 5.77352 74.1895 7.6602 73.2302 11.7724C72.2448 15.9763 72.1867 20.1389 73.0558 24.2603C74.2171 29.7692 78.8898 30.5111 83.6818 30.5111C89.1471 30.5141 94.9352 30.5202 101.046 30.5294C101.109 30.5294 101.17 30.5043 101.215 30.4596C101.26 30.415 101.285 30.3544 101.285 30.2912C101.266 22.1919 101.273 13.9049 101.303 5.43007C101.309 3.1923 102.077 1.69944 103.607 0.951486C104.357 0.585139 105.425 0.406546 106.811 0.415705C112.916 0.446234 118.811 0.453864 124.497 0.438599C127.912 0.429441 130.845 2.02763 131.882 5.39343C131.897 5.44131 131.899 5.49058 131.887 5.53539C131.85 5.66972 131.781 5.73688 131.68 5.73688C124.257 5.72467 116.888 5.72162 109.575 5.72773C108.562 5.72773 108.046 6.23451 108.028 7.24806L107.94 12.6975C107.94 12.7285 107.946 12.7594 107.957 12.7882C107.969 12.8171 107.987 12.8434 108.009 12.8655C108.031 12.8877 108.057 12.9053 108.087 12.9174C108.116 12.9294 108.147 12.9356 108.179 12.9356C113.188 12.9753 117.997 12.9661 122.606 12.9081C125.173 12.8745 127.031 13.0745 128.178 13.508C130.798 14.4941 132.381 16.6281 132.929 19.9099C133.452 23.0101 133.535 26.4492 132.823 29.5631C131.892 33.6433 128.949 35.8231 124.612 35.8277C108.874 35.8368 93.7984 35.8322 79.3855 35.8139C77.4148 35.8109 75.5084 35.4491 73.6662 34.7286C67.5109 32.3199 65.6428 26.3942 65.6014 20.2625C65.5739 16.1442 65.5877 12.006 65.6428 7.84795C65.6442 7.74549 65.6178 7.64428 65.5661 7.55487C65.5144 7.46547 65.4395 7.39115 65.349 7.33965C65.2082 7.26027 65.0568 7.24043 64.8946 7.28012C64.4402 7.38544 64.2749 7.95786 64.1234 8.35168C61.0114 16.5212 57.7769 24.8724 54.42 33.4052C53.0338 36.9359 48.1178 37.1557 45.9788 34.4355C45.581 33.9318 44.9567 32.5519 44.106 30.2958C41.1011 22.34 38.1864 14.7841 35.3619 7.62815C35.3295 7.54695 35.28 7.47361 35.2168 7.41296C35.1536 7.35231 35.078 7.30573 34.9952 7.27631C34.9123 7.24688 34.824 7.23527 34.7361 7.24224C34.6482 7.24921 34.5627 7.27461 34.4852 7.31675C34.372 7.38087 34.3154 7.57472 34.3154 7.89833C34.3399 17.1333 34.3613 26.3362 34.3796 35.5071C34.3802 35.5508 34.3721 35.5942 34.3558 35.6347C34.3395 35.6752 34.3152 35.7121 34.2845 35.7432C34.2537 35.7743 34.2171 35.799 34.1767 35.8159C34.1363 35.8327 34.0929 35.8414 34.0491 35.8414C28.4217 35.7925 22.5127 35.8002 16.3222 35.8643C11.5164 35.9192 7.64692 35.8368 5.67318 31.0468C5.64809 30.9874 5.63819 30.9227 5.64436 30.8586C5.65053 30.7944 5.67258 30.7327 5.70853 30.6792C5.74448 30.6256 5.7932 30.5818 5.85033 30.5516C5.90745 30.5215 5.97118 30.506 6.0358 30.5065H27.4807ZM126.218 21.9386C125.727 18.1835 122.693 18.1652 119.719 18.1881C115.817 18.2156 111.968 18.2095 108.17 18.1698C108.116 18.1698 108.065 18.1905 108.027 18.2274C107.989 18.2644 107.968 18.3145 107.968 18.3667L107.996 28.7205C107.999 29.9264 108.604 30.5309 109.813 30.5339C113.369 30.5431 116.952 30.537 120.563 30.5156C123.267 30.4973 125.745 30.1264 126.2 26.9712C126.435 25.341 126.442 23.6634 126.218 21.9386Z" fill="#11ABB7"/>
<path d="M8.40096 18.4286C4.7538 18.4057 1.79564 17.0139 0.739161 13.3805C0.731449 13.3521 0.730339 13.3223 0.735919 13.2934C0.7415 13.2645 0.753623 13.2372 0.771357 13.2137C0.789091 13.1902 0.811966 13.1711 0.838233 13.1578C0.8645 13.1445 0.893462 13.1374 0.922898 13.137L25.7732 13.1187C25.8046 13.1187 25.8356 13.1247 25.8646 13.1365C25.8936 13.1483 25.9199 13.1655 25.9421 13.1873C25.9643 13.209 25.9819 13.2348 25.9939 13.2633C26.0059 13.2917 26.0121 13.3222 26.0121 13.3529L25.9983 18.2357C25.9983 18.2881 25.977 18.3383 25.9391 18.3754C25.9012 18.4124 25.8498 18.4332 25.7962 18.4332C19.9013 18.4577 14.1029 18.4562 8.40096 18.4286Z" fill="#233B77"/>
<path d="M126.14 22.1222C126.364 23.8524 126.358 25.5351 126.122 27.1703C125.667 30.3352 123.187 30.7072 120.481 30.7256C116.868 30.7471 113.282 30.7532 109.723 30.744C108.514 30.7409 107.908 30.1346 107.905 28.925L107.877 18.5393C107.877 18.4869 107.898 18.4367 107.936 18.3996C107.974 18.3626 108.025 18.3418 108.079 18.3418C111.879 18.3816 115.732 18.3877 119.636 18.3602C122.613 18.3372 125.649 18.3556 126.14 22.1222Z" fill="white"/>
<path d="M10.2946 27.2293C7.00109 27.1972 4.16237 25.2633 3.32637 22.0801C3.32146 22.0604 3.32095 22.0399 3.32488 22.0201C3.3288 22.0002 3.33706 21.9817 3.34902 21.9657C3.36099 21.9497 3.37634 21.9369 3.39391 21.928C3.41147 21.9192 3.43079 21.9147 3.45039 21.9148L25.7606 21.9102C25.7959 21.9102 25.831 21.9172 25.8636 21.9309C25.8962 21.9445 25.9258 21.9646 25.9506 21.9898C25.9754 22.015 25.9949 22.0449 26.008 22.0778C26.0211 22.1107 26.0276 22.1458 26.027 22.1812L25.981 27.018C25.981 27.0814 25.9559 27.1421 25.9111 27.1869C25.8663 27.2317 25.8055 27.2569 25.7422 27.2569C20.6068 27.2906 15.4576 27.2814 10.2946 27.2293Z" fill="#0F8EB7"/>
<path d="M68.7129 41.8825C68.7123 41.8409 68.7199 41.7996 68.7353 41.7609C68.7507 41.7222 68.7735 41.6869 68.8025 41.6571C68.8315 41.6272 68.8661 41.6034 68.9043 41.5869C68.9426 41.5704 68.9836 41.5616 69.0253 41.561L69.3468 41.5564C69.4741 41.554 69.6005 41.5685 69.7188 41.5993C69.8371 41.6301 69.945 41.6764 70.0363 41.7357C70.1276 41.795 70.2005 41.8661 70.2509 41.9449C70.3012 42.0237 70.328 42.1086 70.3298 42.1949V42.3603C70.3316 42.4465 70.3083 42.5324 70.2613 42.613C70.2143 42.6936 70.1444 42.7674 70.0557 42.8301C69.967 42.8928 69.8611 42.9432 69.7442 42.9785C69.6273 43.0137 69.5016 43.0331 69.3744 43.0355L69.0528 43.0401C69.0112 43.0407 68.9699 43.0331 68.9312 43.0177C68.8925 43.0024 68.8572 42.9795 68.8274 42.9505C68.7975 42.9215 68.7737 42.8869 68.7572 42.8487C68.7407 42.8105 68.7319 42.7694 68.7313 42.7277L68.7129 41.8825Z" fill="white"/>
<path d="M133.302 48.6895H5.79876C5.7125 48.6895 5.64258 48.7594 5.64258 48.8456V53.8433C5.64258 53.9295 5.7125 53.9994 5.79876 53.9994H133.302C133.389 53.9994 133.459 53.9295 133.459 53.8433V48.8456C133.459 48.7594 133.389 48.6895 133.302 48.6895Z" fill="#0F8EB7"/>
<path d="M5.84258 46.7157C5.73212 46.7157 5.64258 46.6262 5.64258 46.5157V40.329C5.64258 40.2185 5.73212 40.129 5.84258 40.129H6.6411C6.71682 40.129 6.78605 40.1717 6.81994 40.2394L8.77474 44.1446C8.84847 44.2919 9.05869 44.2919 9.13243 44.1446L11.0872 40.2394C11.1211 40.1717 11.1903 40.129 11.2661 40.129H12.0646C12.175 40.129 12.2646 40.2185 12.2646 40.329V46.5157C12.2646 46.6262 12.175 46.7157 12.0646 46.7157H11.2965C11.1861 46.7157 11.0965 46.6262 11.0965 46.5157V43.6468C11.0965 43.4348 10.8099 43.3685 10.7168 43.559L9.22914 46.6035C9.19559 46.6722 9.12586 46.7157 9.04945 46.7157H8.85772C8.78131 46.7157 8.71157 46.6722 8.67803 46.6035L7.19032 43.559C7.09723 43.3685 6.81063 43.4348 6.81063 43.6468V46.5157C6.81063 46.6262 6.72108 46.7157 6.61063 46.7157H5.84258Z" fill="#233B77"/>
<path d="M14.6752 46.7157C14.5647 46.7157 14.4752 46.6262 14.4752 46.5157V40.329C14.4752 40.2185 14.5647 40.129 14.6752 40.129H18.5979C18.7083 40.129 18.7979 40.2185 18.7979 40.329V41.0908C18.7979 41.2013 18.7083 41.2908 18.5979 41.2908H15.926C15.8155 41.2908 15.726 41.3803 15.726 41.4908V42.4996C15.726 42.6101 15.8155 42.6996 15.926 42.6996H18.046C18.1565 42.6996 18.246 42.7892 18.246 42.8996V43.6615C18.246 43.7719 18.1565 43.8615 18.046 43.8615H15.926C15.8155 43.8615 15.726 43.951 15.726 44.0615V45.3539C15.726 45.4644 15.8155 45.5539 15.926 45.5539H18.5979C18.7083 45.5539 18.7979 45.6434 18.7979 45.7539V46.5157C18.7979 46.6262 18.7083 46.7157 18.5979 46.7157H14.6752Z" fill="#233B77"/>
<path d="M22.5558 46.7157C22.4453 46.7157 22.3558 46.6262 22.3558 46.5157V41.4908C22.3558 41.3803 22.2662 41.2908 22.1558 41.2908H20.468C20.3575 41.2908 20.268 41.2013 20.268 41.0908V40.329C20.268 40.2185 20.3575 40.129 20.468 40.129H25.4944C25.6048 40.129 25.6943 40.2185 25.6943 40.329V41.0908C25.6943 41.2013 25.6048 41.2908 25.4943 41.2908H23.8066C23.6961 41.2908 23.6066 41.3803 23.6066 41.4908V46.5157C23.6066 46.6262 23.517 46.7157 23.4066 46.7157H22.5558Z" fill="#233B77"/>
<path d="M26.9843 46.7157C26.8497 46.7157 26.7536 46.5856 26.7931 46.457L28.6936 40.2702C28.7194 40.1863 28.7969 40.129 28.8848 40.129H30.4562C30.5441 40.129 30.6216 40.1863 30.6474 40.2702L32.5479 46.457C32.5874 46.5856 32.4913 46.7157 32.3568 46.7157H31.4871C31.3995 46.7157 31.3221 46.6587 31.2961 46.575L29.5727 41.021C29.555 40.9642 29.5975 40.9066 29.657 40.9066C29.7163 40.9066 29.7587 40.9639 29.7414 41.0207L28.0445 46.5742C28.0188 46.6583 27.9411 46.7157 27.8532 46.7157H26.9843ZM28.1276 45.3435C28.0172 45.3435 27.9276 45.2539 27.9276 45.1435V44.3817C27.9276 44.2712 28.0172 44.1817 28.1276 44.1817H31.2226C31.333 44.1817 31.4226 44.2712 31.4226 44.3817V45.1435C31.4226 45.2539 31.333 45.3435 31.2226 45.3435H28.1276Z" fill="#233B77"/>
<path d="M34.3525 46.7438C34.2578 46.7296 34.1899 46.6466 34.1899 46.5508V45.8954C34.1899 45.7798 34.2883 45.6917 34.403 45.6777C34.4559 45.6713 34.5044 45.6605 34.5486 45.6454C34.6467 45.6118 34.7295 45.5508 34.797 45.4624C34.8675 45.3709 34.9288 45.2459 34.9809 45.0873C35.033 44.9257 35.0821 44.7245 35.1281 44.4835C35.2016 44.1024 35.2629 43.7014 35.312 43.2805C35.3641 42.8567 35.407 42.442 35.4408 42.0364C35.4745 41.6308 35.5005 41.2618 35.5189 40.9294C35.532 40.6917 35.5427 40.4884 35.5511 40.3196C35.5564 40.2129 35.6444 40.129 35.7513 40.129H39.8762C39.9866 40.129 40.0762 40.2185 40.0762 40.329V46.5157C40.0762 46.6262 39.9866 46.7157 39.8762 46.7157H39.0253C38.9149 46.7157 38.8253 46.6262 38.8253 46.5157V41.4908C38.8253 41.3803 38.7358 41.2908 38.6253 41.2908H36.8961C36.7912 41.2908 36.7042 41.3718 36.6964 41.4764C36.6861 41.6138 36.6738 41.7746 36.6594 41.9586C36.641 42.2331 36.6149 42.5365 36.5812 42.8689C36.5475 43.2013 36.5061 43.5458 36.4571 43.9026C36.408 44.2594 36.3482 44.6055 36.2777 44.941C36.2133 45.2673 36.1352 45.5569 36.0432 45.8101C35.9512 46.0601 35.8286 46.2659 35.6753 46.4276C35.5251 46.5861 35.3304 46.6913 35.0913 46.7432C34.8889 46.787 34.6427 46.7872 34.3525 46.7438Z" fill="#233B77"/>
<path d="M41.9905 46.7438C41.8958 46.7296 41.828 46.6466 41.828 46.5508V45.8954C41.828 45.7798 41.9263 45.6917 42.041 45.6777C42.0939 45.6713 42.1425 45.6605 42.1866 45.6454C42.2847 45.6118 42.3675 45.5508 42.435 45.4624C42.5055 45.3709 42.5668 45.2459 42.6189 45.0873C42.671 44.9257 42.7201 44.7245 42.7661 44.4835C42.8396 44.1024 42.901 43.7014 42.95 43.2805C43.0021 42.8567 43.0451 42.442 43.0788 42.0364C43.1125 41.6308 43.1386 41.2618 43.157 40.9294C43.17 40.6917 43.1807 40.4884 43.1891 40.3196C43.1945 40.2129 43.2824 40.129 43.3893 40.129H47.5142C47.6246 40.129 47.7142 40.2185 47.7142 40.329V46.5157C47.7142 46.6262 47.6246 46.7157 47.5142 46.7157H46.6634C46.5529 46.7157 46.4634 46.6262 46.4634 46.5157V41.4908C46.4634 41.3803 46.3738 41.2908 46.2634 41.2908H44.5341C44.4293 41.2908 44.3422 41.3718 44.3344 41.4764C44.3241 41.6138 44.3118 41.7746 44.2974 41.9586C44.279 42.2331 44.253 42.5365 44.2192 42.8689C44.1855 43.2013 44.1441 43.5458 44.0951 43.9026C44.046 44.2594 43.9862 44.6055 43.9157 44.941C43.8513 45.2673 43.7732 45.5569 43.6812 45.8101C43.5892 46.0601 43.4666 46.2659 43.3133 46.4276C43.1631 46.5861 42.9684 46.6913 42.7293 46.7432C42.5269 46.787 42.2807 46.7872 41.9905 46.7438Z" fill="#233B77"/>
<path d="M55.5287 46.853C54.8665 46.853 54.2948 46.7096 53.8135 46.423C53.3352 46.1363 52.9658 45.7353 52.7052 45.22C52.4477 44.7046 52.3189 44.1054 52.3189 43.4223C52.3189 42.7393 52.4477 42.1401 52.7052 41.6247C52.9658 41.1094 53.3352 40.7084 53.8135 40.4217C54.2948 40.1351 54.8665 39.9917 55.5287 39.9917C56.289 39.9917 56.9267 40.1793 57.4418 40.5544C57.9054 40.89 58.2463 41.3319 58.4644 41.88C58.5067 41.9862 58.4438 42.103 58.3336 42.1335L57.4636 42.3735C57.3592 42.4023 57.252 42.3424 57.2115 42.242C57.0859 41.9298 56.9005 41.6814 56.6554 41.4966C56.3642 41.274 55.9886 41.1627 55.5287 41.1627C55.1087 41.1627 54.7577 41.2557 54.4757 41.4417C54.1967 41.6278 53.9867 41.89 53.8456 42.2285C53.7046 42.567 53.6341 42.9649 53.6341 43.4223C53.6341 43.8798 53.7046 44.2777 53.8456 44.6162C53.9867 44.9547 54.1967 45.2169 54.4757 45.403C54.7577 45.589 55.1087 45.682 55.5287 45.682C55.9886 45.682 56.3642 45.5707 56.6554 45.3481C56.9003 45.1609 57.0856 44.9123 57.2113 44.6022C57.2519 44.502 57.359 44.4423 57.4632 44.4711L58.3336 44.7112C58.4438 44.7417 58.5067 44.8585 58.4644 44.9647C58.2463 45.5128 57.9054 45.9547 57.4418 46.2903C56.9267 46.6654 56.289 46.853 55.5287 46.853Z" fill="#233B77"/>
<path d="M62.2045 46.7157C62.094 46.7157 62.0045 46.6262 62.0045 46.5157V41.4908C62.0045 41.3803 61.9149 41.2908 61.8045 41.2908H60.1167C60.0062 41.2908 59.9167 41.2013 59.9167 41.0908V40.329C59.9167 40.2185 60.0062 40.129 60.1167 40.129H65.1431C65.2535 40.129 65.3431 40.2185 65.3431 40.329V41.0908C65.3431 41.2013 65.2535 41.2908 65.1431 41.2908H63.4553C63.3448 41.2908 63.2553 41.3803 63.2553 41.4908V46.5157C63.2553 46.6262 63.1657 46.7157 63.0553 46.7157H62.2045Z" fill="#233B77"/>
<path d="M67.2018 46.7157C67.0913 46.7157 67.0018 46.6262 67.0018 46.5157V40.329C67.0018 40.2185 67.0913 40.129 67.2018 40.129H69.7978C69.8621 40.129 69.948 40.132 70.0553 40.1381C70.1656 40.1412 70.2637 40.1503 70.3496 40.1656C70.7451 40.2265 71.0685 40.3561 71.3199 40.5544C71.5743 40.7526 71.7614 41.0026 71.8809 41.3045C72.0005 41.6034 72.0603 41.9373 72.0603 42.3063C72.0603 42.6752 71.999 43.0107 71.8763 43.3126C71.7568 43.6114 71.5698 43.8599 71.3153 44.0582C71.0639 44.2564 70.742 44.386 70.3496 44.447C70.2637 44.4592 70.1656 44.4683 70.0553 44.4744C69.9449 44.4805 69.8591 44.4835 69.7978 44.4835H68.4526C68.3422 44.4835 68.2526 44.5731 68.2526 44.6835V46.5157C68.2526 46.6262 68.1631 46.7157 68.0526 46.7157H67.2018ZM68.2526 43.1217C68.2526 43.2322 68.3422 43.3217 68.4526 43.3217H69.7426C69.807 43.3217 69.8775 43.3187 69.9541 43.3126C70.0307 43.3065 70.1013 43.2943 70.1656 43.276C70.3343 43.2302 70.4645 43.154 70.5565 43.0473C70.6485 42.9375 70.7113 42.817 70.7451 42.6859C70.7819 42.5517 70.8002 42.4252 70.8002 42.3063C70.8002 42.1873 70.7819 42.0623 70.7451 41.9312C70.7113 41.797 70.6485 41.6765 70.5565 41.5698C70.4645 41.46 70.3343 41.3823 70.1656 41.3365C70.1013 41.3182 70.0307 41.306 69.9541 41.2999C69.8775 41.2938 69.807 41.2908 69.7426 41.2908H68.4526C68.3422 41.2908 68.2526 41.3803 68.2526 41.4908V43.1217Z" fill="#233B77"/>
<path d="M76.7453 46.853C76.0831 46.853 75.5113 46.7096 75.03 46.423C74.5517 46.1363 74.1823 45.7353 73.9217 45.22C73.6642 44.7046 73.5354 44.1054 73.5354 43.4223C73.5354 42.7393 73.6642 42.1401 73.9217 41.6247C74.1823 41.1094 74.5517 40.7084 75.03 40.4217C75.5113 40.1351 76.0831 39.9917 76.7453 39.9917C77.4075 39.9917 77.9777 40.1351 78.4559 40.4217C78.9373 40.7084 79.3067 41.1094 79.5642 41.6247C79.8248 42.1401 79.9551 42.7393 79.9551 43.4223C79.9551 44.1054 79.8248 44.7046 79.5642 45.22C79.3067 45.7353 78.9373 46.1363 78.4559 46.423C77.9777 46.7096 77.4075 46.853 76.7453 46.853ZM76.7453 45.682C77.1653 45.6881 77.5148 45.5981 77.7937 45.4121C78.0727 45.2261 78.2812 44.9623 78.4192 44.6208C78.5602 44.2792 78.6307 43.8798 78.6307 43.4223C78.6307 42.9649 78.5602 42.5685 78.4192 42.2331C78.2812 41.8976 78.0727 41.6369 77.7937 41.4509C77.5148 41.2649 77.1653 41.1688 76.7453 41.1627C76.3252 41.1566 75.9758 41.2466 75.6968 41.4326C75.4178 41.6186 75.2078 41.8824 75.0668 42.2239C74.9288 42.5655 74.8598 42.9649 74.8598 43.4223C74.8598 43.8798 74.9288 44.2762 75.0668 44.6116C75.2078 44.9471 75.4178 45.2078 75.6968 45.3938C75.9758 45.5798 76.3252 45.6759 76.7453 45.682Z" fill="#233B77"/>
<path d="M81.9928 46.7157C81.8824 46.7157 81.7928 46.6262 81.7928 46.5157V40.329C81.7928 40.2185 81.8824 40.129 81.9928 40.129H82.862C82.9725 40.129 83.062 40.2185 83.062 40.329V43.8503C83.062 44.049 83.3204 44.1261 83.4293 43.9599L85.8815 40.2193C85.9185 40.1629 85.9814 40.129 86.0488 40.129H87.01C87.1204 40.129 87.21 40.2185 87.21 40.329V46.5157C87.21 46.6262 87.1204 46.7157 87.01 46.7157H86.1408C86.0303 46.7157 85.9408 46.6262 85.9408 46.5157V42.9944C85.9408 42.7957 85.6824 42.7186 85.5735 42.8848L83.1213 46.6254C83.0843 46.6818 83.0214 46.7157 82.954 46.7157H81.9928ZM84.4784 39.5801C84.2086 39.5801 83.9634 39.5145 83.7426 39.3834C83.5219 39.2523 83.3456 39.0769 83.2138 38.8574C83.1154 38.6935 83.0537 38.516 83.0288 38.3249C83.0145 38.2154 83.1056 38.1255 83.216 38.1255H83.7818C83.8922 38.1255 83.9767 38.2187 84.0191 38.3206C84.0429 38.3777 84.0779 38.4301 84.1243 38.4777C84.2224 38.5722 84.3404 38.6195 84.4784 38.6195C84.6164 38.6195 84.7329 38.5722 84.8279 38.4777C84.8759 38.43 84.9121 38.3775 84.9366 38.3204C84.9801 38.2188 85.0646 38.1255 85.1751 38.1255H85.7408C85.8512 38.1255 85.9424 38.2154 85.9281 38.3249C85.9031 38.516 85.8414 38.6935 85.743 38.8574C85.6112 39.0769 85.4349 39.2523 85.2142 39.3834C84.9935 39.5145 84.7482 39.5801 84.4784 39.5801Z" fill="#233B77"/>
<path d="M92.3738 46.7157C92.2634 46.7157 92.1738 46.6262 92.1738 46.5157V40.329C92.1738 40.2185 92.2634 40.129 92.3738 40.129H96.5173C96.6277 40.129 96.7173 40.2185 96.7173 40.329V41.0908C96.7173 41.2013 96.6277 41.2908 96.5173 41.2908H93.6247C93.5142 41.2908 93.4247 41.3803 93.4247 41.4908V42.3441C93.4247 42.4546 93.5142 42.5441 93.6247 42.5441H94.9698C95.0311 42.5441 95.117 42.5472 95.2273 42.5533C95.3377 42.5563 95.4358 42.5624 95.5216 42.5716C95.9018 42.6112 96.2176 42.7286 96.4689 42.9238C96.7234 43.1159 96.9135 43.3614 97.0392 43.6602C97.1679 43.956 97.2323 44.2792 97.2323 44.6299C97.2323 44.9806 97.1695 45.3054 97.0438 45.6042C96.9181 45.9 96.728 46.1455 96.4735 46.3407C96.2222 46.5328 95.9048 46.6486 95.5216 46.6883C95.4358 46.6974 95.3377 46.7051 95.2273 46.7112C95.12 46.7142 95.0342 46.7157 94.9698 46.7157H92.3738ZM93.4247 45.3539C93.4247 45.4644 93.5142 45.5539 93.6247 45.5539H94.9146C94.979 45.5539 95.0495 45.5508 95.1261 45.5448C95.2028 45.5387 95.2733 45.5295 95.3377 45.5173C95.5921 45.4624 95.7608 45.345 95.8435 45.1651C95.9294 44.9852 95.9723 44.8068 95.9723 44.6299C95.9723 44.45 95.9294 44.2716 95.8435 44.0947C95.7608 43.9148 95.5921 43.7974 95.3377 43.7425C95.2733 43.7273 95.2028 43.7181 95.1261 43.7151C95.0495 43.709 94.979 43.7059 94.9146 43.7059H93.6247C93.5142 43.7059 93.4247 43.7955 93.4247 43.9059V45.3539Z" fill="#233B77"/>
<path d="M104.493 46.5157C104.493 46.6262 104.403 46.7157 104.293 46.7157H103.423C103.313 46.7157 103.223 46.6262 103.223 46.5157V42.9944C103.223 42.7957 102.965 42.7186 102.856 42.8848L100.404 46.6254C100.367 46.6818 100.304 46.7157 100.237 46.7157H99.2754C99.1649 46.7157 99.0754 46.6262 99.0754 46.5157V40.329C99.0754 40.2185 99.1649 40.129 99.2754 40.129H100.145C100.255 40.129 100.345 40.2185 100.345 40.329V43.8503C100.345 44.049 100.603 44.1261 100.712 43.9599L103.164 40.2193C103.201 40.1629 103.264 40.129 103.331 40.129H104.293C104.403 40.129 104.493 40.2185 104.493 40.329V46.5157Z" fill="#233B77"/>
<path d="M109.114 46.853C108.645 46.853 108.233 46.7843 107.877 46.6471C107.525 46.5099 107.227 46.3346 106.985 46.1211C106.797 45.9528 106.641 45.779 106.518 45.5996C106.459 45.514 106.485 45.3986 106.571 45.3395L107.285 44.8453C107.386 44.7754 107.525 44.8127 107.594 44.9148C107.65 44.9987 107.715 45.0821 107.79 45.1651C107.925 45.3145 108.104 45.438 108.328 45.5356C108.552 45.6332 108.832 45.682 109.169 45.682C109.488 45.682 109.744 45.6362 109.937 45.5448C110.134 45.4533 110.275 45.3359 110.361 45.1925C110.449 45.0492 110.494 44.8983 110.494 44.7397C110.494 44.5293 110.431 44.3677 110.305 44.2548C110.183 44.142 110.023 44.0643 109.827 44.0216C109.631 43.9758 109.424 43.9499 109.206 43.9438C108.995 43.9377 108.841 43.9331 108.746 43.9301C108.654 43.927 108.592 43.9255 108.558 43.9255C108.51 43.9255 108.47 43.8864 108.47 43.8381V42.9293C108.47 42.8328 108.549 42.7545 108.645 42.7545C108.725 42.7545 108.805 42.7545 108.884 42.7545C108.967 42.7515 109.035 42.7484 109.087 42.7454C109.409 42.7301 109.677 42.66 109.891 42.535C110.109 42.4099 110.218 42.2148 110.218 41.9495C110.218 41.7055 110.121 41.5119 109.928 41.3686C109.738 41.2252 109.482 41.1536 109.16 41.1536C108.857 41.1536 108.585 41.2191 108.346 41.3503C108.205 41.4267 108.087 41.5081 107.991 41.5943C107.897 41.6788 107.746 41.6891 107.659 41.5966L107.101 40.9997C107.028 40.9219 107.029 40.8 107.109 40.7302C107.32 40.5473 107.582 40.3865 107.896 40.2479C108.282 40.0771 108.716 39.9917 109.197 39.9917C109.488 39.9917 109.773 40.0299 110.052 40.1061C110.331 40.1793 110.583 40.2936 110.807 40.4492C111.03 40.6016 111.208 40.7983 111.34 41.0392C111.475 41.2801 111.542 41.5683 111.542 41.9037C111.542 42.1873 111.492 42.4557 111.391 42.7088C111.33 42.8575 111.255 42.9922 111.163 43.1129C111.075 43.2285 111.104 43.4075 111.223 43.4904C111.373 43.5943 111.496 43.721 111.593 43.8706C111.743 44.1024 111.818 44.3921 111.818 44.7397C111.818 45.1758 111.696 45.5524 111.45 45.8695C111.208 46.1836 110.882 46.426 110.471 46.5968C110.063 46.7676 109.611 46.853 109.114 46.853Z" fill="#233B77"/>
<path d="M113.95 46.7157C113.839 46.7157 113.75 46.6262 113.75 46.5157V40.329C113.75 40.2185 113.839 40.129 113.95 40.129H114.8C114.911 40.129 115 40.2185 115 40.329V42.6369C115 42.7473 115.09 42.8369 115.2 42.8369H117.762C117.872 42.8369 117.962 42.7473 117.962 42.6369V40.329C117.962 40.2185 118.051 40.129 118.162 40.129H119.013C119.123 40.129 119.213 40.2185 119.213 40.329V46.5157C119.213 46.6262 119.123 46.7157 119.013 46.7157H118.162C118.051 46.7157 117.962 46.6262 117.962 46.5157V44.1987C117.962 44.0882 117.872 43.9987 117.762 43.9987H115.2C115.09 43.9987 115 44.0882 115 44.1987V46.5157C115 46.6262 114.911 46.7157 114.8 46.7157H113.95Z" fill="#233B77"/>
<path d="M121.624 46.7157C121.513 46.7157 121.424 46.6262 121.424 46.5157V40.329C121.424 40.2185 121.513 40.129 121.624 40.129H125.546C125.657 40.129 125.746 40.2185 125.746 40.329V41.0908C125.746 41.2013 125.657 41.2908 125.546 41.2908H122.874C122.764 41.2908 122.674 41.3803 122.674 41.4908V42.4996C122.674 42.6101 122.764 42.6996 122.874 42.6996H124.994C125.105 42.6996 125.194 42.7892 125.194 42.8996V43.6615C125.194 43.7719 125.105 43.8615 124.994 43.8615H122.874C122.764 43.8615 122.674 43.951 122.674 44.0615V45.3539C122.674 45.4644 122.764 45.5539 122.874 45.5539H125.546C125.657 45.5539 125.746 45.6434 125.746 45.7539V46.5157C125.746 46.6262 125.657 46.7157 125.546 46.7157H121.624Z" fill="#233B77"/>
<path d="M130.332 46.853C129.67 46.853 129.098 46.7096 128.616 46.423C128.138 46.1363 127.769 45.7353 127.508 45.22C127.251 44.7046 127.122 44.1054 127.122 43.4223C127.122 42.7393 127.251 42.1401 127.508 41.6247C127.769 41.1094 128.138 40.7084 128.616 40.4217C129.098 40.1351 129.67 39.9917 130.332 39.9917C131.092 39.9917 131.73 40.1793 132.245 40.5544C132.708 40.89 133.049 41.3319 133.267 41.88C133.31 41.9862 133.247 42.103 133.137 42.1335L132.267 42.3735C132.162 42.4023 132.055 42.3424 132.015 42.242C131.889 41.9298 131.703 41.6814 131.458 41.4966C131.167 41.274 130.792 41.1627 130.332 41.1627C129.912 41.1627 129.561 41.2557 129.279 41.4417C129 41.6278 128.79 41.89 128.649 42.2285C128.508 42.567 128.437 42.9649 128.437 43.4223C128.437 43.8798 128.508 44.2777 128.649 44.6162C128.79 44.9547 129 45.2169 129.279 45.403C129.561 45.589 129.912 45.682 130.332 45.682C130.792 45.682 131.167 45.5707 131.458 45.3481C131.703 45.1609 131.889 44.9123 132.014 44.6022C132.055 44.502 132.162 44.4423 132.266 44.4711L133.137 44.7112C133.247 44.7417 133.31 44.8585 133.267 44.9647C133.049 45.5128 132.708 45.9547 132.245 46.2903C131.73 46.6654 131.092 46.853 130.332 46.853Z" fill="#233B77"/>
</g>
</svg>
