<svg width="139" height="54" viewBox="0 0 139 54" fill="none" xmlns="http://www.w3.org/2000/svg">
<g style="mix-blend-mode:luminosity">
<path d="M33.418 24.9925L30.244 30.5069L29.6536 31.5606C29.6347 31.5944 29.6072 31.6224 29.574 31.6418C29.5408 31.6611 29.5031 31.6711 29.4649 31.6706L25.6382 31.6164L25.6251 24.8891L25.5742 18.3259C25.9662 18.3177 26.5207 18.3784 27.2374 18.5065C28.8416 18.7953 30.7115 19.4518 31.7432 20.7779C32.5913 21.8676 33.0391 23.1822 33.0883 24.7217C33.0899 24.7824 33.1112 24.8333 33.1522 24.8743C33.2146 24.9351 33.3031 24.9744 33.418 24.9925Z" fill="white"/>
<path d="M65.8053 21.4033C65.9907 21.2491 66.2417 21.0866 66.4778 21.0406C68.415 20.6648 68.8054 23.4663 67.3554 24.1556C66.7698 24.433 65.9907 24.3083 65.5659 23.7929C65.3018 23.4745 65.1722 23.0511 65.1738 22.5243C65.1788 21.0209 65.5347 19.9952 67.175 19.7621C67.3373 19.7392 67.4341 19.6505 67.462 19.4963C67.4751 19.4273 67.5161 19.3912 67.5867 19.3863L67.8688 19.3715C67.9442 19.3666 67.9771 19.4027 67.9672 19.4782C67.8114 20.7157 66.0793 19.9164 65.7233 21.3525C65.6987 21.4542 65.725 21.4706 65.8053 21.4033Z" fill="#818181"/>
<path d="M64.4359 22.6207C64.4367 23.0577 64.2639 23.4771 63.9556 23.7867C63.6473 24.0963 63.2287 24.2706 62.792 24.2714L62.523 24.2718C62.3067 24.2722 62.0925 24.23 61.8925 24.1475C61.6926 24.065 61.5108 23.944 61.3576 23.7912C61.2045 23.6385 61.0828 23.4571 60.9997 23.2573C60.9166 23.0575 60.8736 22.8433 60.8733 22.6269L60.8711 21.3796C60.8703 20.9426 61.0431 20.5232 61.3514 20.2136C61.6597 19.9041 62.0783 19.7298 62.515 19.729L62.784 19.7285C63.0003 19.7281 63.2145 19.7704 63.4145 19.8528C63.6144 19.9353 63.7962 20.0564 63.9494 20.2091C64.1026 20.3618 64.2242 20.5433 64.3073 20.7431C64.3904 20.9428 64.4334 21.157 64.4337 21.3734L64.4359 22.6207Z" fill="#818181"/>
<path d="M137.166 19.9992C137.382 20.2142 137.62 20.2503 137.881 20.1043C137.935 20.0731 137.971 20.0271 137.989 19.9664L138.048 19.7596C138.066 19.6973 138.107 19.671 138.171 19.6792L138.45 19.7137C138.518 19.7219 138.539 19.758 138.518 19.822C138.431 20.0829 138.291 20.2668 138.099 20.3718C137.612 20.6393 136.889 20.5162 136.662 19.9402C136.598 19.7777 136.654 19.6874 136.828 19.6726C137.051 19.6513 137.154 19.7366 137.14 19.9287C137.139 19.9415 137.14 19.9545 137.145 19.9667C137.15 19.9789 137.157 19.99 137.166 19.9992Z" fill="#818181"/>
<path d="M62.6615 23.8107C62.4935 23.811 62.3271 23.7635 62.1717 23.6709C62.0163 23.5783 61.875 23.4425 61.7559 23.2711C61.6368 23.0997 61.5422 22.8961 61.4775 22.672C61.4128 22.4479 61.3793 22.2077 61.3789 21.965C61.3781 21.4749 61.512 21.0046 61.7514 20.6576C61.9907 20.3106 62.3158 20.1153 62.6551 20.1147C62.8231 20.1145 62.9896 20.162 63.1449 20.2546C63.3003 20.3472 63.4416 20.483 63.5607 20.6544C63.6798 20.8258 63.7744 21.0294 63.8391 21.2535C63.9038 21.4776 63.9373 21.7178 63.9377 21.9605C63.9386 22.4506 63.8046 22.9209 63.5653 23.2679C63.3259 23.6149 63.0009 23.8101 62.6615 23.8107Z" fill="white"/>
<path d="M71.2541 23.7895L72.34 23.7862C72.3604 23.7862 72.38 23.7781 72.3945 23.7636C72.409 23.7492 72.4171 23.7295 72.4171 23.7091L72.4155 20.9157C72.4155 20.8953 72.4236 20.8757 72.438 20.8612C72.4525 20.8467 72.4721 20.8386 72.4925 20.8386L72.9141 20.8337C72.9242 20.8337 72.9342 20.8357 72.9436 20.8396C72.9529 20.8434 72.9614 20.8491 72.9686 20.8563C72.9758 20.8634 72.9814 20.8719 72.9853 20.8813C72.9892 20.8907 72.9912 20.9007 72.9912 20.9108L72.9994 23.7124C72.9994 23.7328 73.0075 23.7524 73.022 23.7669C73.0364 23.7814 73.056 23.7895 73.0765 23.7895L73.3799 23.7862C73.3903 23.7862 73.4006 23.7883 73.4102 23.7924C73.4198 23.7965 73.4284 23.8024 73.4356 23.81C73.4428 23.8175 73.4484 23.8264 73.4521 23.8361C73.4558 23.8458 73.4575 23.8562 73.457 23.8666L73.4144 25.196C73.4142 25.2061 73.412 25.2161 73.4079 25.2254C73.4038 25.2347 73.3979 25.2431 73.3906 25.2501C73.3833 25.2571 73.3747 25.2626 73.3653 25.2663C73.3558 25.2699 73.3458 25.2717 73.3356 25.2715L72.9649 25.2617C72.9547 25.2614 72.9445 25.2592 72.9352 25.255C72.9258 25.2508 72.9173 25.2448 72.9103 25.2373C72.9033 25.2298 72.8978 25.221 72.8942 25.2114C72.8907 25.2018 72.889 25.1915 72.8895 25.1812L72.9206 24.359C72.9211 24.3486 72.9194 24.3382 72.9157 24.3285C72.9121 24.3187 72.9065 24.3098 72.8993 24.3023C72.8921 24.2948 72.8834 24.2888 72.8738 24.2847C72.8643 24.2807 72.854 24.2786 72.8436 24.2786L68.8544 24.2819C68.834 24.2819 68.8144 24.2737 68.7999 24.2593C68.7855 24.2448 68.7773 24.2252 68.7773 24.2047L68.7839 20.9125C68.7839 20.9022 68.786 20.892 68.7899 20.8826C68.7939 20.8731 68.7997 20.8645 68.8071 20.8573C68.8144 20.8501 68.8231 20.8445 68.8326 20.8407C68.8422 20.8369 68.8524 20.8351 68.8626 20.8353L69.2793 20.8403C69.2994 20.8407 69.3186 20.849 69.3327 20.8634C69.3468 20.8778 69.3547 20.8972 69.3547 20.9174L69.3514 23.7107C69.3514 23.7312 69.3596 23.7508 69.374 23.7653C69.3885 23.7797 69.4081 23.7879 69.4285 23.7879H70.5373C70.5578 23.7879 70.5774 23.7797 70.5919 23.7653C70.6063 23.7508 70.6144 23.7312 70.6144 23.7107L70.6128 20.9207C70.6128 20.9005 70.6207 20.8811 70.6348 20.8667C70.6489 20.8523 70.6681 20.844 70.6883 20.8435L71.0983 20.832C71.1086 20.8318 71.1188 20.8337 71.1283 20.8374C71.1379 20.8412 71.1466 20.8469 71.1539 20.8541C71.1612 20.8612 71.1671 20.8698 71.171 20.8793C71.175 20.8887 71.1771 20.8989 71.177 20.9092V23.7124C71.177 23.7328 71.1852 23.7524 71.1996 23.7669C71.2141 23.7814 71.2337 23.7895 71.2541 23.7895Z" fill="#818181"/>
<path d="M74.4467 22.9003C74.5911 23.8177 75.6294 24.0951 76.2313 23.46C76.2592 23.4306 76.2971 23.4127 76.3377 23.4096C76.3783 23.4066 76.4187 23.4187 76.4511 23.4435L76.5922 23.5502C76.6775 23.6159 76.684 23.6881 76.6102 23.7685C75.6835 24.7582 74.0104 24.2871 73.8743 22.8773C73.6299 20.3285 76.9284 20.0545 76.7349 22.7296C76.7337 22.7494 76.7251 22.7679 76.7108 22.7816C76.6965 22.7953 76.6776 22.8031 76.6578 22.8035L74.5271 22.8051C74.5153 22.8052 74.5036 22.8078 74.4929 22.8129C74.4822 22.8179 74.4727 22.8252 74.465 22.8342C74.4574 22.8433 74.4518 22.8538 74.4487 22.8653C74.4455 22.8767 74.4448 22.8886 74.4467 22.9003Z" fill="#818181"/>
<path d="M77.9553 23.1424C78.1587 23.8777 79.1855 24.0664 79.5349 23.3607C79.6087 23.2114 79.7268 23.1293 79.8908 23.1113L79.9843 23.1014C80.0107 23.0985 80.0374 23.1023 80.0619 23.1126C80.0864 23.1229 80.1079 23.1393 80.1244 23.1602C80.141 23.1812 80.152 23.2061 80.1564 23.2325C80.1609 23.2589 80.1587 23.2861 80.15 23.3115C79.6759 24.7016 77.6551 24.5818 77.3582 23.0965C77.1647 22.1282 77.4567 21.0302 78.5606 20.8595C79.2888 20.7479 80.1172 21.1681 80.1418 21.9788C80.1434 22.033 80.1172 22.0642 80.0663 22.074C79.9482 22.0986 79.8367 22.0937 79.7317 22.0592C79.7044 22.0505 79.6791 22.036 79.6576 22.0168C79.6362 21.9976 79.6189 21.974 79.6071 21.9476C79.5234 21.7622 79.4709 21.5817 79.2888 21.4651C79.0412 21.3059 78.7836 21.2698 78.5196 21.3535C77.8372 21.5702 77.7946 22.5615 77.9553 23.1424Z" fill="#818181"/>
<path d="M82.1065 21.4226L82.1475 24.188C82.1477 24.2009 82.1454 24.2137 82.1406 24.2256C82.1359 24.2375 82.1288 24.2484 82.1198 24.2576C82.1108 24.2667 82.1 24.274 82.0882 24.279C82.0763 24.284 82.0636 24.2865 82.0508 24.2865H81.6309C81.6052 24.2865 81.5806 24.2763 81.5624 24.2581C81.5443 24.24 81.5341 24.2154 81.5341 24.1897L81.5472 21.4177C81.5472 21.392 81.537 21.3674 81.5188 21.3492C81.5007 21.3311 81.4761 21.3209 81.4504 21.3209L80.5122 21.3192C80.4884 21.3189 80.4656 21.3099 80.4481 21.2939C80.4305 21.2778 80.4195 21.2559 80.4171 21.2322L80.3892 20.9499C80.3878 20.9364 80.3893 20.9228 80.3935 20.9099C80.3978 20.8969 80.4047 20.8851 80.4138 20.875C80.4229 20.865 80.4341 20.8569 80.4465 20.8515C80.4589 20.846 80.4724 20.8432 80.4859 20.8433L83.2055 20.8465C83.2194 20.8466 83.2332 20.8497 83.2458 20.8556C83.2584 20.8614 83.2696 20.8699 83.2786 20.8805C83.2877 20.8911 83.2943 20.9035 83.2981 20.9169C83.3019 20.9303 83.3028 20.9444 83.3006 20.9581L83.2629 21.1994C83.2592 21.2213 83.248 21.2413 83.2313 21.2559C83.2145 21.2706 83.1933 21.279 83.1711 21.2798L82.1984 21.3241C82.1733 21.3254 82.1497 21.3364 82.1325 21.3548C82.1154 21.3732 82.1061 21.3975 82.1065 21.4226Z" fill="#818181"/>
<path d="M86.1724 22.6026C86.2052 22.6157 86.238 22.6141 86.2725 22.5977C86.289 22.59 86.3074 22.5874 86.3253 22.5903C86.3432 22.5933 86.3596 22.6015 86.3725 22.6141C86.8088 23.026 86.8777 23.4396 86.5775 23.8565C86.3446 24.1814 85.8575 24.2766 85.4769 24.2799C84.9799 24.2832 84.4944 24.2832 84.022 24.2782C83.9927 24.2778 83.9648 24.2659 83.9442 24.245C83.9236 24.2241 83.9121 24.196 83.9121 24.1666L83.9154 20.9663C83.9153 20.9375 83.9262 20.9099 83.9458 20.8891C83.9654 20.8683 83.9921 20.856 84.0204 20.8547C84.7027 20.8235 86.3725 20.6167 86.5923 21.5571C86.6891 21.9691 86.5464 22.2842 86.1658 22.4992C86.0953 22.5386 86.0969 22.573 86.1724 22.6026Z" fill="#818181"/>
<path d="M88.854 24.3143C88.6491 24.3146 88.4462 24.2698 88.2568 24.1824C88.0674 24.095 87.8952 23.9666 87.7501 23.8047C87.6049 23.6428 87.4897 23.4505 87.4109 23.2388C87.3322 23.0271 87.2914 22.8001 87.291 22.5707C87.2906 22.3414 87.3306 22.1143 87.4086 21.9023C87.4866 21.6903 87.6012 21.4976 87.7457 21.3352C87.8903 21.1728 88.062 21.0438 88.2511 20.9557C88.4403 20.8677 88.643 20.8221 88.8479 20.8218C89.0527 20.8214 89.2556 20.8662 89.445 20.9537C89.6344 21.0411 89.8066 21.1694 89.9518 21.3313C90.0969 21.4932 90.2121 21.6855 90.2909 21.8972C90.3697 22.109 90.4104 22.336 90.4108 22.5653C90.4112 22.7946 90.3713 23.0218 90.2932 23.2338C90.2152 23.4458 90.1006 23.6385 89.9561 23.8009C89.8115 23.9633 89.6398 24.0922 89.4507 24.1803C89.2616 24.2684 89.0588 24.3139 88.854 24.3143Z" fill="#818181"/>
<path d="M94.6985 21.5869C94.0949 21.065 93.3354 21.3194 93.1796 22.099C93.0697 22.6356 93.1304 23.6483 93.8537 23.7664C94.3589 23.8485 94.6968 23.663 94.8658 23.2117C94.8986 23.1231 94.9609 23.0903 95.0511 23.1132C95.1364 23.1346 95.2217 23.1411 95.3086 23.1346C95.3251 23.1333 95.3417 23.136 95.3569 23.1426C95.3721 23.1491 95.3854 23.1593 95.3957 23.1721C95.4059 23.185 95.4128 23.2001 95.4156 23.2162C95.4185 23.2323 95.4172 23.2488 95.412 23.2642C95.1217 24.1817 94.0653 24.592 93.2583 24.075C92.489 23.5793 92.3168 22.1613 92.8647 21.454C93.6093 20.4939 95.1758 20.6416 95.4153 21.948C95.4284 22.0251 95.3972 22.0629 95.3201 22.0629L94.9429 22.0661C94.8641 22.0661 94.8231 22.0268 94.8215 21.948C94.8199 21.82 94.8018 21.6755 94.6985 21.5869Z" fill="#818181"/>
<path d="M99.001 24.3099C98.7963 24.3077 98.5942 24.2605 98.4061 24.1708C98.2179 24.0812 98.0475 23.9509 97.9045 23.7874C97.7615 23.6239 97.6488 23.4304 97.5727 23.2179C97.4966 23.0054 97.4586 22.7781 97.461 22.549C97.4659 22.0864 97.6347 21.6444 97.9303 21.3203C98.226 20.9962 98.6242 20.8165 99.0375 20.8209C99.2421 20.823 99.4442 20.8703 99.6324 20.9599C99.8205 21.0496 99.9909 21.1799 100.134 21.3434C100.277 21.5069 100.39 21.7004 100.466 21.9129C100.542 22.1253 100.58 22.3526 100.577 22.5817C100.573 23.0444 100.404 23.4864 100.108 23.8105C99.8125 24.1346 99.4142 24.3142 99.001 24.3099Z" fill="#818181"/>
<path d="M101.863 21.4028L101.875 24.1961C101.875 24.2169 101.867 24.2369 101.852 24.2519C101.838 24.2669 101.818 24.2757 101.798 24.2766L101.355 24.2995C101.344 24.3002 101.333 24.2986 101.323 24.2949C101.312 24.2912 101.303 24.2853 101.295 24.2778C101.287 24.2703 101.28 24.2612 101.276 24.2511C101.272 24.241 101.27 24.2301 101.27 24.2191L101.291 20.9203C101.291 20.899 101.299 20.8785 101.314 20.8634C101.329 20.8484 101.35 20.8399 101.371 20.8399L103.382 20.835C103.393 20.8349 103.405 20.8372 103.415 20.8418C103.425 20.8463 103.435 20.853 103.442 20.8613C103.45 20.8697 103.455 20.8796 103.459 20.8903C103.462 20.901 103.464 20.9124 103.463 20.9236L103.428 21.2469C103.426 21.2665 103.417 21.2847 103.402 21.298C103.388 21.3113 103.369 21.3188 103.349 21.3191L101.944 21.3224C101.922 21.3224 101.902 21.3309 101.887 21.346C101.872 21.361 101.863 21.3815 101.863 21.4028Z" fill="#818181"/>
<path d="M104.455 24.1237L104.46 25.5335C104.46 25.5427 104.458 25.5518 104.455 25.5603C104.451 25.5688 104.446 25.5764 104.44 25.5829C104.433 25.5893 104.426 25.5943 104.418 25.5977C104.409 25.6011 104.4 25.6027 104.391 25.6025L103.922 25.5926C103.868 25.591 103.842 25.5647 103.842 25.5106L103.866 20.9431C103.866 20.8709 103.902 20.8348 103.976 20.8331L104.24 20.8315C104.322 20.8298 104.373 20.8692 104.395 20.948C104.409 20.9989 104.413 21.0481 104.406 21.0957C104.393 21.1991 104.429 21.2221 104.514 21.1614C105.123 20.7297 105.682 20.715 106.192 21.1171C106.812 21.6061 106.853 22.7911 106.552 23.4984C106.182 24.3601 105.333 24.4585 104.577 24.0515C104.496 24.0072 104.455 24.0318 104.455 24.1237Z" fill="#818181"/>
<path d="M109.402 23.9654C109.228 24.0622 109.061 24.1689 108.869 24.2263C108.169 24.4364 107.311 24.0015 107.394 23.1793C107.491 22.2356 108.48 22.0911 109.286 22.1519C109.477 22.1666 109.545 22.0813 109.489 21.8975L109.432 21.7055C109.374 21.5134 109.246 21.3953 109.049 21.351C108.664 21.264 108.356 21.3345 108.126 21.5627C107.996 21.6923 107.829 21.758 107.622 21.7596C107.604 21.7596 107.588 21.7563 107.573 21.7481C107.435 21.6759 107.416 21.5791 107.516 21.4593C108.395 20.3974 110.176 20.6337 110.065 22.3275C110.02 22.9872 110.043 23.6142 110.134 24.2083C110.142 24.2592 110.12 24.2838 110.07 24.2821L109.623 24.2805C109.569 24.2789 109.541 24.2526 109.537 24.2001L109.523 24.031C109.517 23.9457 109.476 23.9244 109.402 23.9654Z" fill="#818181"/>
<path d="M111.619 22.3124L113.03 22.3141C113.052 22.3141 113.072 22.3054 113.088 22.29C113.103 22.2746 113.112 22.2538 113.112 22.232L113.109 20.924C113.109 20.9025 113.117 20.8818 113.132 20.8665C113.147 20.8512 113.167 20.8423 113.189 20.8419L113.591 20.8353C113.602 20.8351 113.613 20.8371 113.623 20.8411C113.633 20.8451 113.642 20.8511 113.65 20.8588C113.658 20.8664 113.664 20.8755 113.668 20.8856C113.672 20.8957 113.674 20.9065 113.674 20.9174L113.679 24.1982C113.679 24.2199 113.671 24.2408 113.655 24.2562C113.64 24.2716 113.619 24.2802 113.597 24.2802L113.187 24.2819C113.166 24.2819 113.145 24.2732 113.129 24.2578C113.114 24.2424 113.105 24.2216 113.105 24.1998L113.11 22.8852C113.11 22.8634 113.102 22.8426 113.086 22.8272C113.071 22.8118 113.05 22.8031 113.028 22.8031H111.627C111.606 22.8031 111.585 22.8118 111.569 22.8272C111.554 22.8426 111.545 22.8634 111.545 22.8852L111.549 24.1998C111.549 24.2213 111.54 24.2419 111.525 24.2572C111.51 24.2726 111.49 24.2814 111.468 24.2819L111.058 24.2868C111.047 24.287 111.037 24.285 111.026 24.281C111.016 24.277 111.007 24.271 110.999 24.2633C110.991 24.2557 110.985 24.2466 110.981 24.2365C110.977 24.2264 110.975 24.2156 110.975 24.2047L110.984 20.9174C110.985 20.8962 110.993 20.876 111.008 20.861C111.023 20.846 111.044 20.8374 111.065 20.837L111.458 20.832C111.47 20.8318 111.481 20.8338 111.491 20.838C111.501 20.8421 111.51 20.8482 111.518 20.8561C111.526 20.8639 111.532 20.8732 111.536 20.8835C111.54 20.8937 111.542 20.9047 111.542 20.9157L111.537 22.2304C111.537 22.2521 111.546 22.273 111.561 22.2884C111.577 22.3038 111.597 22.3124 111.619 22.3124Z" fill="#818181"/>
<path d="M116.787 21.8926L115.35 24.2411C115.346 24.2483 115.34 24.2544 115.333 24.2589C115.326 24.2635 115.319 24.2664 115.31 24.2674L114.803 24.315C114.796 24.3157 114.789 24.3148 114.782 24.3125C114.775 24.3102 114.769 24.3064 114.763 24.3014C114.758 24.2965 114.753 24.2905 114.75 24.2838C114.748 24.277 114.746 24.2698 114.746 24.2625L114.748 20.8931C114.748 20.8791 114.753 20.8658 114.763 20.8559C114.773 20.8461 114.786 20.8405 114.8 20.8405L115.258 20.8389C115.272 20.8389 115.285 20.8444 115.295 20.8543C115.305 20.8641 115.31 20.8775 115.31 20.8914L115.317 23.1875C115.317 23.1987 115.321 23.2095 115.328 23.2182C115.335 23.227 115.345 23.2333 115.356 23.2363C115.366 23.2392 115.378 23.2386 115.388 23.2346C115.399 23.2305 115.408 23.2232 115.414 23.2137L116.864 20.8586C116.868 20.8511 116.875 20.8449 116.883 20.8406C116.89 20.8363 116.899 20.834 116.908 20.834L117.398 20.8356C117.412 20.8356 117.426 20.8412 117.436 20.851C117.445 20.8609 117.451 20.8742 117.451 20.8881V24.2181C117.451 24.2315 117.446 24.2444 117.437 24.2542C117.428 24.2639 117.415 24.2698 117.402 24.2707L116.933 24.3051C116.925 24.3056 116.918 24.3046 116.911 24.3021C116.905 24.2997 116.899 24.2959 116.893 24.291C116.888 24.286 116.884 24.2801 116.881 24.2735C116.878 24.2669 116.877 24.2598 116.877 24.2526L116.885 21.9188C116.885 21.9071 116.881 21.8957 116.874 21.8863C116.867 21.877 116.857 21.8702 116.846 21.8672C116.835 21.8642 116.823 21.8651 116.812 21.8697C116.801 21.8742 116.792 21.8823 116.787 21.8926Z" fill="#818181"/>
<path d="M120.128 23.0653C119.332 23.2656 118.335 23.1146 118.223 22.1348C118.181 21.7655 118.174 21.3585 118.204 20.9137C118.207 20.8628 118.235 20.8366 118.286 20.8366L118.679 20.8333C118.732 20.8333 118.758 20.8596 118.758 20.9104L118.756 21.9559C118.755 22.3596 118.957 22.5795 119.358 22.6157C119.495 22.6271 119.629 22.6403 119.764 22.6518C120.097 22.6813 120.262 22.5287 120.264 22.1955L120.267 20.899C120.267 20.8481 120.292 20.8251 120.343 20.8267L120.795 20.8464C120.836 20.8481 120.856 20.8694 120.856 20.9104L120.863 24.1584C120.863 24.2437 120.82 24.2864 120.733 24.2848L120.366 24.2798C120.284 24.2782 120.243 24.2372 120.243 24.1567L120.249 23.1605C120.249 23.1456 120.246 23.1308 120.24 23.1173C120.233 23.1038 120.224 23.092 120.212 23.0828C120.2 23.0736 120.187 23.0672 120.172 23.0642C120.157 23.0611 120.142 23.0615 120.128 23.0653Z" fill="#818181"/>
<path d="M122.157 22.924C122.347 23.5887 122.761 23.871 123.399 23.7692C123.62 23.7348 123.815 23.6264 123.983 23.4475C123.999 23.4302 124.018 23.4163 124.04 23.4066C124.062 23.3969 124.085 23.3917 124.109 23.3913C124.132 23.3908 124.156 23.3951 124.178 23.4039C124.2 23.4128 124.22 23.4259 124.237 23.4426L124.286 23.4902C124.401 23.6035 124.399 23.7167 124.283 23.8267C123.927 24.1648 123.499 24.3174 123 24.2829C120.996 24.1451 121.183 20.7511 123.177 20.861C124.165 20.9152 124.491 21.831 124.468 22.686C124.466 22.7632 124.425 22.8009 124.348 22.8009L122.249 22.8026C122.234 22.8025 122.219 22.8059 122.206 22.8124C122.193 22.819 122.181 22.8285 122.173 22.8403C122.164 22.8521 122.158 22.8658 122.155 22.8803C122.152 22.8948 122.153 22.9098 122.157 22.924Z" fill="#818181"/>
<path d="M127.395 22.2323L127.378 20.9226C127.378 20.911 127.38 20.8996 127.384 20.8888C127.389 20.8781 127.395 20.8683 127.403 20.86C127.411 20.8518 127.421 20.8452 127.431 20.8408C127.442 20.8363 127.454 20.834 127.465 20.834H127.849C127.872 20.834 127.894 20.8431 127.91 20.8595C127.927 20.8758 127.936 20.8979 127.936 20.921L127.951 24.187C127.951 24.2095 127.942 24.2311 127.926 24.2473C127.911 24.2636 127.889 24.2731 127.867 24.2739L127.468 24.2887C127.457 24.2892 127.445 24.2872 127.434 24.2831C127.423 24.2789 127.413 24.2726 127.405 24.2644C127.396 24.2563 127.39 24.2466 127.385 24.2358C127.38 24.225 127.378 24.2134 127.378 24.2017L127.386 22.8888C127.386 22.8773 127.384 22.866 127.38 22.8555C127.375 22.8449 127.369 22.8353 127.361 22.8273C127.353 22.8192 127.343 22.8128 127.333 22.8084C127.322 22.804 127.311 22.8018 127.299 22.8018L125.889 22.7936C125.877 22.7936 125.866 22.7959 125.855 22.8004C125.844 22.8048 125.835 22.8114 125.827 22.8196C125.819 22.8279 125.812 22.8377 125.808 22.8484C125.804 22.8592 125.802 22.8706 125.802 22.8822L125.818 24.1902C125.818 24.2017 125.816 24.213 125.812 24.2237C125.808 24.2343 125.802 24.244 125.794 24.2522C125.786 24.2605 125.777 24.2671 125.766 24.2716C125.756 24.2762 125.744 24.2787 125.733 24.2789L125.333 24.2838C125.321 24.284 125.31 24.2819 125.299 24.2776C125.288 24.2734 125.278 24.267 125.27 24.2589C125.262 24.2508 125.255 24.2411 125.251 24.2305C125.246 24.2198 125.244 24.2084 125.244 24.1968L125.262 20.921C125.262 20.8979 125.271 20.8758 125.288 20.8595C125.304 20.8431 125.326 20.834 125.349 20.834L125.708 20.8356C125.731 20.8356 125.754 20.8448 125.77 20.8611C125.786 20.8774 125.795 20.8995 125.795 20.9226L125.794 22.2389C125.794 22.2619 125.803 22.284 125.819 22.3004C125.835 22.3167 125.858 22.3258 125.881 22.3258L127.309 22.3193C127.332 22.3188 127.354 22.3095 127.37 22.2932C127.386 22.277 127.395 22.2551 127.395 22.2323Z" fill="#818181"/>
<path d="M129.486 22.3138L130.915 22.3105C130.934 22.3105 130.953 22.3029 130.966 22.2894C130.98 22.2758 130.987 22.2575 130.987 22.2383L130.989 20.9024C130.989 20.8926 130.991 20.8829 130.995 20.874C130.998 20.865 131.004 20.8569 131.011 20.8501C131.018 20.8434 131.027 20.8381 131.036 20.8347C131.045 20.8312 131.055 20.8297 131.064 20.8302L131.479 20.8449C131.498 20.8458 131.515 20.8537 131.528 20.8672C131.541 20.8807 131.548 20.8985 131.548 20.9171L131.561 24.2045C131.561 24.2233 131.554 24.2415 131.541 24.255C131.528 24.2685 131.51 24.2763 131.491 24.2767L131.058 24.2882C131.048 24.2884 131.039 24.2867 131.03 24.2832C131.021 24.2796 131.012 24.2743 131.006 24.2676C130.999 24.2609 130.993 24.2528 130.99 24.244C130.986 24.2351 130.984 24.2256 130.984 24.216L130.986 22.8735C130.986 22.8543 130.978 22.8359 130.964 22.8224C130.951 22.8088 130.933 22.8012 130.913 22.8012L129.488 22.8045C129.469 22.8045 129.45 22.8121 129.437 22.8257C129.423 22.8392 129.416 22.8576 129.416 22.8767L129.427 24.2077C129.427 24.2269 129.42 24.2453 129.406 24.2588C129.393 24.2724 129.374 24.28 129.355 24.28L128.924 24.2816C128.905 24.2816 128.886 24.274 128.873 24.2605C128.859 24.2469 128.852 24.2285 128.852 24.2094L128.858 20.904C128.858 20.8945 128.86 20.8851 128.864 20.8764C128.867 20.8676 128.873 20.8596 128.879 20.8529C128.886 20.8462 128.894 20.8409 128.903 20.8373C128.911 20.8337 128.921 20.8318 128.93 20.8318L129.347 20.8367C129.366 20.8367 129.384 20.8443 129.398 20.8579C129.411 20.8714 129.419 20.8898 129.419 20.9089L129.414 22.2416C129.414 22.2511 129.416 22.2605 129.42 22.2692C129.423 22.278 129.429 22.2859 129.435 22.2927C129.442 22.2994 129.45 22.3047 129.459 22.3083C129.467 22.3119 129.477 22.3138 129.486 22.3138Z" fill="#818181"/>
<path d="M133.962 24.308C133.757 24.3084 133.554 24.2636 133.365 24.1763C133.176 24.0889 133.004 23.9607 132.859 23.799C132.714 23.6372 132.599 23.4451 132.52 23.2336C132.441 23.0221 132.401 22.7953 132.4 22.5662C132.4 22.1035 132.563 21.6594 132.855 21.3318C133.146 21.0041 133.542 20.8196 133.956 20.8188C134.16 20.8185 134.363 20.8633 134.552 20.9506C134.741 21.0379 134.913 21.1662 135.058 21.3279C135.203 21.4897 135.318 21.6818 135.397 21.8933C135.476 22.1048 135.516 22.3316 135.517 22.5607C135.518 23.0234 135.354 23.4675 135.063 23.7951C134.771 24.1228 134.375 24.3073 133.962 24.308Z" fill="#818181"/>
<path d="M136.904 23.213L138.35 20.8628C138.355 20.8552 138.361 20.8489 138.368 20.8443C138.376 20.8397 138.384 20.8371 138.393 20.8366L138.883 20.8218C138.89 20.8216 138.897 20.8228 138.904 20.8253C138.911 20.8279 138.917 20.8317 138.922 20.8366C138.927 20.8415 138.931 20.8474 138.933 20.8538C138.936 20.8603 138.938 20.8673 138.938 20.8743L138.944 24.2257C138.944 24.2393 138.939 24.2524 138.929 24.2622C138.92 24.272 138.907 24.2778 138.893 24.2782L138.421 24.2897C138.414 24.2899 138.407 24.2887 138.4 24.2862C138.394 24.2836 138.388 24.2798 138.383 24.2749C138.378 24.27 138.374 24.2641 138.371 24.2576C138.368 24.2512 138.367 24.2442 138.367 24.2371L138.368 21.9395C138.368 21.9283 138.364 21.9175 138.357 21.9087C138.35 21.8999 138.34 21.8936 138.33 21.8907C138.319 21.8877 138.307 21.8883 138.297 21.8924C138.286 21.8964 138.278 21.9037 138.272 21.9132L136.841 24.2454C136.837 24.2526 136.83 24.2587 136.823 24.263C136.816 24.2673 136.807 24.2697 136.799 24.27L136.29 24.293C136.283 24.2934 136.276 24.2924 136.269 24.2899C136.262 24.2875 136.256 24.2837 136.251 24.2788C136.246 24.2739 136.242 24.2679 136.239 24.2613C136.236 24.2547 136.234 24.2476 136.234 24.2404L136.239 20.876C136.239 20.8689 136.241 20.862 136.243 20.8555C136.246 20.849 136.25 20.8431 136.255 20.8382C136.26 20.8333 136.266 20.8295 136.273 20.827C136.279 20.8244 136.286 20.8232 136.293 20.8234L136.753 20.8382C136.766 20.8386 136.779 20.8444 136.789 20.8542C136.798 20.864 136.804 20.8771 136.804 20.8907L136.807 23.1851C136.807 23.1965 136.811 23.2075 136.817 23.2165C136.824 23.2256 136.834 23.2322 136.845 23.2353C136.856 23.2385 136.867 23.238 136.878 23.234C136.888 23.23 136.898 23.2226 136.904 23.213Z" fill="#818181"/>
<path d="M84.4616 21.4328C84.4618 21.4151 84.4655 21.3976 84.4725 21.3814C84.4795 21.3651 84.4895 21.3504 84.5022 21.3381C84.5148 21.3257 84.5298 21.316 84.5462 21.3094C84.5626 21.3029 84.5801 21.2996 84.5978 21.2998L85.3457 21.3047C85.5319 21.3065 85.7099 21.3573 85.8407 21.4459C85.9714 21.5346 86.0441 21.6538 86.0429 21.7774V21.8562C86.0422 21.9174 86.0235 21.9779 85.9876 22.0341C85.9517 22.0903 85.8995 22.1412 85.8338 22.1839C85.7682 22.2266 85.6904 22.2602 85.605 22.2828C85.5195 22.3054 85.4281 22.3166 85.3359 22.3157L84.5879 22.3092C84.5526 22.3087 84.5188 22.2944 84.4939 22.2692C84.469 22.244 84.4551 22.21 84.4551 22.1746L84.4616 21.4328Z" fill="white"/>
<path d="M122.247 22.3237C122.24 22.324 122.233 22.3228 122.227 22.3202C122.22 22.3177 122.214 22.3139 122.209 22.309C122.204 22.3041 122.2 22.2982 122.198 22.2917C122.195 22.2852 122.193 22.2783 122.193 22.2712V22.2515C122.193 22.1273 122.214 22.0042 122.256 21.8893C122.297 21.7743 122.359 21.6697 122.437 21.5814C122.514 21.4932 122.607 21.423 122.709 21.375C122.811 21.3269 122.921 21.3019 123.032 21.3013H123.058C123.281 21.3001 123.496 21.3985 123.655 21.5749C123.814 21.7512 123.904 21.9911 123.906 22.2417V22.2614C123.906 22.275 123.901 22.2881 123.891 22.2979C123.882 22.3078 123.869 22.3135 123.855 22.3139L122.247 22.3237Z" fill="white"/>
<path d="M74.5254 22.3224C74.5146 22.3224 74.5041 22.318 74.4964 22.3104C74.4887 22.3027 74.4844 22.2922 74.4844 22.2813V22.2485C74.482 22.0027 74.5677 21.7661 74.7227 21.5907C74.8777 21.4152 75.0894 21.3154 75.3111 21.313H75.3144C75.4243 21.3119 75.5334 21.3347 75.6354 21.3803C75.7375 21.4258 75.8304 21.4932 75.909 21.5786C75.9876 21.6639 76.0503 21.7656 76.0935 21.8777C76.1367 21.9898 76.1596 22.1103 76.1608 22.2321V22.2649C76.1608 22.2758 76.1565 22.2862 76.1488 22.2939C76.1411 22.3016 76.1306 22.306 76.1198 22.306L74.5254 22.3224Z" fill="white"/>
<path d="M88.8538 23.8041C88.726 23.8044 88.5995 23.7722 88.4814 23.7093C88.3633 23.6465 88.2559 23.5544 88.1653 23.4381C88.0748 23.3218 88.0029 23.1837 87.9538 23.0317C87.9046 22.8796 87.8792 22.7166 87.8789 22.552C87.8786 22.3873 87.9035 22.2242 87.9521 22.072C88.0007 21.9198 88.0721 21.7814 88.1623 21.6648C88.2524 21.5482 88.3594 21.4557 88.4773 21.3925C88.5952 21.3293 88.7217 21.2966 88.8494 21.2964C88.9771 21.2962 89.1037 21.3284 89.2218 21.3912C89.3399 21.454 89.4473 21.5462 89.5378 21.6624C89.6284 21.7787 89.7002 21.9168 89.7494 22.0689C89.7985 22.2209 89.824 22.3839 89.8243 22.5486C89.8245 22.7132 89.7997 22.8763 89.7511 23.0285C89.7024 23.1808 89.631 23.3191 89.5409 23.4357C89.4508 23.5523 89.3437 23.6448 89.2258 23.7081C89.1079 23.7713 88.9815 23.8039 88.8538 23.8041Z" fill="white"/>
<path d="M99.0228 23.8122C98.8944 23.8124 98.7672 23.7801 98.6485 23.7171C98.5298 23.6542 98.4218 23.5618 98.3309 23.4452C98.2399 23.3286 98.1676 23.1901 98.1182 23.0377C98.0688 22.8852 98.0433 22.7218 98.043 22.5567C98.0424 22.2233 98.1448 21.9034 98.3278 21.6673C98.5107 21.4312 98.7591 21.2983 99.0184 21.2979C99.1468 21.2976 99.2739 21.3299 99.3927 21.3929C99.5114 21.4559 99.6193 21.5483 99.7103 21.6649C99.8013 21.7814 99.8735 21.9199 99.9229 22.0723C99.9723 22.2248 99.9979 22.3882 99.9982 22.5533C99.9988 22.8867 99.8963 23.2067 99.7134 23.4428C99.5305 23.6788 99.282 23.8117 99.0228 23.8122Z" fill="white"/>
<path d="M104.896 23.725C104.607 23.6298 104.461 23.4443 104.458 23.167C104.453 22.7058 104.454 22.243 104.466 21.7818C104.467 21.7375 104.478 21.694 104.499 21.655C104.52 21.6159 104.55 21.5824 104.586 21.557C106.451 20.2374 106.775 24.3437 104.896 23.725Z" fill="white"/>
<path d="M133.958 23.8108C133.698 23.8108 133.449 23.6786 133.265 23.4431C133.082 23.2077 132.979 22.8883 132.979 22.5553C132.979 22.2223 133.082 21.903 133.265 21.6675C133.449 21.4321 133.698 21.2998 133.958 21.2998C134.217 21.2998 134.467 21.4321 134.65 21.6675C134.834 21.903 134.937 22.2223 134.937 22.5553C134.937 22.8883 134.834 23.2077 134.65 23.4431C134.467 23.6786 134.217 23.8108 133.958 23.8108Z" fill="white"/>
<path d="M66.6957 23.7926C66.571 23.7924 66.4476 23.762 66.3324 23.7031C66.2173 23.6441 66.1128 23.5579 66.0248 23.4492C65.9368 23.3406 65.867 23.2116 65.8196 23.0698C65.7721 22.9279 65.7478 22.7759 65.748 22.6224C65.7486 22.3125 65.8492 22.0155 66.0277 21.7967C66.2061 21.5778 66.4479 21.4551 66.6998 21.4556C66.8245 21.4558 66.948 21.4862 67.0631 21.5452C67.1782 21.6041 67.2828 21.6903 67.3708 21.799C67.4588 21.9077 67.5285 22.0366 67.576 22.1785C67.6234 22.3203 67.6477 22.4723 67.6475 22.6258C67.6469 22.9357 67.5464 23.2327 67.3679 23.4516C67.1894 23.6704 66.9476 23.7931 66.6957 23.7926Z" fill="white"/>
<path d="M15.6897 21.8804L15.634 24.9002L15.6258 39.5906C15.6897 39.7219 15.7045 39.8909 15.6668 40.0977C15.2157 39.4265 14.8926 38.6617 14.6974 37.8066C14.038 35.1249 14.0134 32.7435 14.0527 29.8648C14.0445 28.0316 14.2102 26.2279 14.6678 24.4489C14.8532 23.8777 15.0271 23.3049 15.1927 22.7305C15.2583 22.5007 15.424 22.2168 15.6897 21.8804Z" fill="white"/>
<path d="M108.324 23.7448C107.784 23.5561 107.838 22.8454 108.378 22.7108C108.705 22.6288 109.046 22.6091 109.402 22.6501C109.449 22.655 109.475 22.6797 109.482 22.7273C109.553 23.2245 109.41 23.5495 109.052 23.6989C108.791 23.8088 108.549 23.8236 108.324 23.7448Z" fill="white"/>
<path d="M84.4779 22.8753C84.4779 22.8553 84.4858 22.8361 84.5 22.8219C84.5141 22.8078 84.5333 22.7998 84.5533 22.7998L85.5588 22.8047C85.7201 22.8053 85.8746 22.853 85.9884 22.9373C86.1022 23.0216 86.166 23.1357 86.1657 23.2544V23.3398C86.1656 23.3986 86.1497 23.4569 86.119 23.5112C86.0882 23.5655 86.0433 23.6148 85.9866 23.6563C85.9299 23.6978 85.8627 23.7306 85.7887 23.7528C85.7148 23.7751 85.6355 23.7865 85.5555 23.7862L84.5501 23.7812C84.5301 23.7812 84.5109 23.7733 84.4967 23.7591C84.4826 23.745 84.4746 23.7258 84.4746 23.7057L84.4779 22.8753Z" fill="white"/>
<path d="M25.5486 11.042C23.2129 10.9025 20.9345 10.9829 18.712 11.2816C17.7623 11.408 16.7617 11.6132 15.7119 11.8954L15.6513 7.47076C15.6496 7.38214 15.6053 7.33782 15.5168 7.33782L3.81676 7.33454C3.70194 7.33454 3.64453 7.2771 3.64453 7.16057L3.65765 0.0820602C3.65765 0.0295415 3.6839 0.00164038 3.73803 0L37.6373 0.00328259C37.6373 0.00328259 37.7784 0.0508775 37.7784 0.144427L37.7981 7.22458C37.7981 7.29843 37.7604 7.33618 37.6849 7.33618L25.6011 7.33454C25.5911 7.33454 25.5815 7.33834 25.5744 7.34512C25.5673 7.35189 25.5634 7.36107 25.5634 7.37065L25.5486 11.042Z" fill="#005BBB"/>
<path d="M25.5486 11.042C23.2129 10.9025 20.9345 10.9829 18.712 11.2816C17.7623 11.408 16.7617 11.6132 15.7119 11.8954L15.6513 7.47076C15.6496 7.38214 15.6053 7.33782 15.5168 7.33782L3.81676 7.33454C3.70194 7.33454 3.64453 7.2771 3.64453 7.16057L3.65765 0.0820602C3.65765 0.0295415 3.6839 0.00164038 3.73803 0L37.6373 0.00328259C37.6373 0.00328259 37.7784 0.0508775 37.7784 0.144427L37.7981 7.22458C37.7981 7.29843 37.7604 7.33618 37.6849 7.33618L25.6011 7.33454C25.5911 7.33454 25.5815 7.33834 25.5744 7.34512C25.5673 7.35189 25.5634 7.36107 25.5634 7.37065L25.5486 11.042Z" fill="url(#paint0_linear_627_3049)"/>
<path fill-rule="evenodd" clip-rule="evenodd" d="M25.5765 18.3259L25.6273 24.8891C25.6276 24.8917 25.6278 24.8943 25.628 24.897L25.628 24.8889C25.628 24.897 25.6284 25.0976 25.6284 25.104L25.6411 31.6162C25.5886 31.7261 25.5624 31.7967 25.5624 31.8295C25.5608 33.1589 25.5493 34.5129 25.528 35.8915C25.5164 36.5748 25.5426 37.2365 25.5685 37.8905C25.583 38.2559 25.5974 38.6189 25.605 38.9819C25.6083 39.0968 25.6067 39.2133 25.5985 39.3331C25.5943 39.399 25.5652 39.4608 25.517 39.5059C25.4689 39.5511 25.4053 39.5761 25.3393 39.576L15.629 39.5908L15.6372 24.9104C15.6369 24.9072 15.6367 24.9039 15.6365 24.9005L15.6922 21.8807C16.6928 20.228 18.1248 19.1563 19.9865 18.6623C21.7153 18.2044 23.5786 18.0912 25.5765 18.3259Z" fill="#005BBB"/>
<path fill-rule="evenodd" clip-rule="evenodd" d="M25.5765 18.3259L25.6273 24.8891C25.6276 24.8917 25.6278 24.8943 25.628 24.897L25.628 24.8889C25.628 24.897 25.6284 25.0976 25.6284 25.104L25.6411 31.6162C25.5886 31.7261 25.5624 31.7967 25.5624 31.8295C25.5608 33.1589 25.5493 34.5129 25.528 35.8915C25.5164 36.5748 25.5426 37.2365 25.5685 37.8905C25.583 38.2559 25.5974 38.6189 25.605 38.9819C25.6083 39.0968 25.6067 39.2133 25.5985 39.3331C25.5943 39.399 25.5652 39.4608 25.517 39.5059C25.4689 39.5511 25.4053 39.5761 25.3393 39.576L15.629 39.5908L15.6372 24.9104C15.6369 24.9072 15.6367 24.9039 15.6365 24.9005L15.6922 21.8807C16.6928 20.228 18.1248 19.1563 19.9865 18.6623C21.7153 18.2044 23.5786 18.0912 25.5765 18.3259Z" fill="url(#paint1_linear_627_3049)"/>
<path d="M62.2736 32.0303C62.0688 32.0299 61.866 31.9843 61.6769 31.8961C61.4878 31.8078 61.3161 31.6787 61.1715 31.516C61.027 31.3532 60.9124 31.1602 60.8344 30.9478C60.7563 30.7354 60.7164 30.5078 60.7168 30.2781C60.7172 30.0483 60.7579 29.8209 60.8367 29.6087C60.9155 29.3966 61.0307 29.204 61.1758 29.0417C61.321 28.8795 61.4932 28.751 61.6826 28.6634C61.872 28.5758 62.0749 28.5309 62.2797 28.5313C62.4846 28.5316 62.6874 28.5772 62.8765 28.6655C63.0656 28.7537 63.2373 28.8829 63.3819 29.0456C63.5264 29.2083 63.641 29.4014 63.719 29.6138C63.797 29.8262 63.837 30.0537 63.8366 30.2835C63.8362 30.5133 63.7954 30.7407 63.7167 30.9528C63.6379 31.1649 63.5227 31.3576 63.3775 31.5198C63.2324 31.682 63.0602 31.8106 62.8708 31.8982C62.6814 31.9858 62.4785 32.0307 62.2736 32.0303Z" fill="#5C5C5C"/>
<path d="M65.8713 29.115L65.8975 31.9264C65.8977 31.9375 65.8957 31.9486 65.8914 31.9589C65.8872 31.9692 65.8809 31.9785 65.8728 31.9862C65.8648 31.9939 65.8553 31.9999 65.8449 32.0037C65.8344 32.0075 65.8233 32.0092 65.8122 32.0085L65.3693 31.9871C65.3486 31.9863 65.329 31.9775 65.3146 31.9625C65.3002 31.9475 65.2922 31.9275 65.2922 31.9067L65.3004 29.1183C65.3004 29.097 65.292 29.0765 65.2769 29.0615C65.2618 29.0464 65.2414 29.0379 65.2201 29.0379L64.2671 29.0363C64.2463 29.0363 64.2264 29.0283 64.2114 29.0139C64.1964 28.9995 64.1876 28.9799 64.1867 28.9591L64.1719 28.6358C64.1715 28.625 64.1732 28.6142 64.1771 28.604C64.1809 28.5939 64.1868 28.5846 64.1943 28.5768C64.2018 28.569 64.2108 28.5628 64.2208 28.5585C64.2307 28.5543 64.2415 28.5521 64.2523 28.5521L66.944 28.5488C66.9653 28.5488 66.9857 28.5573 67.0008 28.5724C67.0159 28.5875 67.0244 28.6079 67.0244 28.6292L67.0227 28.9542C67.0227 28.9755 67.0143 28.996 66.9992 29.0111C66.9841 29.0261 66.9637 29.0346 66.9423 29.0346H65.9516C65.9303 29.0346 65.9099 29.0431 65.8948 29.0582C65.8797 29.0733 65.8713 29.0937 65.8713 29.115Z" fill="#5C5C5C"/>
<path d="M69.7747 30.3085C70.0748 30.3905 70.2487 30.5481 70.2946 30.7828C70.4275 31.4491 70.1404 31.843 69.4302 31.9661C69.1497 32.0137 68.5363 32.0219 67.5865 31.9874C67.5341 31.9858 67.5078 31.9579 67.5078 31.907L67.5094 28.6328C67.5094 28.6126 67.5173 28.5932 67.5314 28.5788C67.5456 28.5644 67.5647 28.5561 67.5849 28.5556C68.2 28.5376 69.7172 28.3866 70.0781 29.0365C70.3389 29.5059 70.2323 29.8982 69.7599 30.2149C69.6959 30.2576 69.7008 30.2888 69.7747 30.3085Z" fill="#5C5C5C"/>
<path d="M71.6508 30.63C71.6639 30.868 71.7557 31.0633 71.928 31.2127C72.4283 31.6509 72.963 31.623 73.5321 31.1323C73.5732 31.0978 73.6125 31.0994 73.6502 31.1372L73.8405 31.3308C73.8832 31.3719 73.8832 31.4145 73.8422 31.4588C72.9105 32.4403 71.2325 32.0333 71.0898 30.589C70.8421 28.0911 74.0554 27.7317 73.9471 30.4036C73.9439 30.4758 73.9061 30.5119 73.834 30.5119L71.7639 30.5086C71.6836 30.5086 71.6458 30.5496 71.6508 30.63Z" fill="#5C5C5C"/>
<path d="M75.2166 29.0349H74.2898C74.2642 29.0349 74.2395 29.0247 74.2214 29.0066C74.2032 28.9884 74.193 28.9638 74.193 28.9381L74.1914 28.6493C74.1914 28.6236 74.2016 28.5989 74.2198 28.5808C74.2379 28.5626 74.2625 28.5524 74.2882 28.5524L76.9241 28.5508C76.9495 28.5508 76.9738 28.5608 76.9919 28.5786C77.01 28.5964 77.0204 28.6206 77.0209 28.646L77.0274 28.9398C77.0276 28.9526 77.0253 28.9654 77.0205 28.9773C77.0158 28.9892 77.0087 29.0001 76.9997 29.0093C76.9907 29.0184 76.9799 29.0257 76.9681 29.0307C76.9562 29.0357 76.9435 29.0382 76.9306 29.0382L75.9711 29.0333C75.9582 29.0333 75.9455 29.0359 75.9337 29.0408C75.9218 29.0458 75.9111 29.0531 75.9021 29.0622C75.8931 29.0714 75.886 29.0823 75.8812 29.0942C75.8764 29.1061 75.8741 29.1189 75.8743 29.1318L75.9006 31.8972C75.9008 31.9101 75.8984 31.9228 75.8937 31.9348C75.8889 31.9467 75.8818 31.9576 75.8728 31.9667C75.8638 31.9759 75.853 31.9832 75.8412 31.9881C75.8294 31.9931 75.8166 31.9957 75.8038 31.9957L75.3986 31.9924C75.3859 31.9924 75.3733 31.9899 75.3616 31.985C75.3499 31.9802 75.3392 31.973 75.3302 31.964C75.3212 31.955 75.3141 31.9444 75.3092 31.9326C75.3044 31.9209 75.3019 31.9083 75.3019 31.8956L75.3134 29.1318C75.3134 29.1061 75.3031 29.0815 75.285 29.0633C75.2668 29.0451 75.2422 29.0349 75.2166 29.0349Z" fill="#5C5C5C"/>
<path d="M78.1922 31.3899C78.617 31.6411 79.2305 31.495 79.4076 30.9977C79.4239 30.9518 79.4541 30.9121 79.4942 30.8844C79.5343 30.8567 79.582 30.8424 79.6307 30.8434L79.8538 30.8467C79.967 30.8484 80.008 30.9041 79.9768 31.0125C79.8259 31.5426 79.4601 31.8626 78.8811 31.9709C76.6536 32.3878 76.4568 28.3127 78.8434 28.5687C79.4749 28.636 79.8571 29.002 79.9916 29.6634C80.0063 29.734 79.9768 29.7701 79.9046 29.7717L79.5339 29.7766C79.4814 29.7783 79.4519 29.752 79.4437 29.7011C79.3076 28.8231 78.1364 28.8133 77.8297 29.5945C77.6279 30.1065 77.6214 31.0551 78.1922 31.3899Z" fill="#5C5C5C"/>
<path d="M81.4664 29.04L80.5069 29.0351C80.4863 29.0351 80.4665 29.027 80.4518 29.0126C80.4371 28.9982 80.4286 28.9785 80.4281 28.9579L80.4199 28.6346C80.4197 28.6241 80.4216 28.6137 80.4255 28.604C80.4293 28.5942 80.4351 28.5853 80.4424 28.5778C80.4497 28.5704 80.4585 28.5644 80.4682 28.5603C80.4778 28.5563 80.4882 28.5542 80.4987 28.5542H83.1969C83.2175 28.5542 83.2373 28.5623 83.252 28.5767C83.2667 28.5911 83.2752 28.6107 83.2756 28.6313L83.2855 28.9382C83.2857 28.9486 83.2839 28.9589 83.2801 28.9685C83.2764 28.9782 83.2707 28.987 83.2636 28.9944C83.2564 29.0019 83.2479 29.0079 83.2384 29.012C83.2289 29.0162 83.2187 29.0184 83.2084 29.0187L82.1832 29.0416C82.1629 29.0425 82.1437 29.0512 82.1297 29.0658C82.1156 29.0805 82.1078 29.1001 82.1078 29.1204L82.1373 31.9154C82.1375 31.9259 82.1356 31.9363 82.1318 31.946C82.1279 31.9558 82.1222 31.9647 82.1148 31.9722C82.1075 31.9796 82.0987 31.9856 82.0891 31.9897C82.0794 31.9937 82.069 31.9958 82.0586 31.9958L81.6108 31.9942C81.6004 31.9942 81.5902 31.9921 81.5806 31.9882C81.5711 31.9842 81.5624 31.9784 81.5551 31.9711C81.5478 31.9638 81.542 31.9551 81.538 31.9455C81.5341 31.936 81.532 31.9257 81.532 31.9154L81.5452 29.1188C81.5452 29.0979 81.5369 29.0778 81.5221 29.0631C81.5073 29.0483 81.4873 29.04 81.4664 29.04Z" fill="#5C5C5C"/>
<path d="M86.0546 30.3121C86.6926 30.4746 86.7107 31.3346 86.2596 31.7104C86.0513 31.8827 85.7987 31.973 85.4985 31.9812C84.9293 31.996 84.37 31.9992 83.8205 31.991C83.8017 31.9906 83.7837 31.9828 83.7706 31.9693C83.7574 31.9558 83.75 31.9377 83.75 31.9188L83.7533 28.6249C83.7533 28.6069 83.7603 28.5896 83.7729 28.5768C83.7854 28.5639 83.8025 28.5564 83.8205 28.556C84.4455 28.5412 85.9463 28.3935 86.317 29.027C86.5811 29.4784 86.486 29.8706 86.0332 30.2038C85.9644 30.2546 85.9709 30.2908 86.0546 30.3121Z" fill="#5C5C5C"/>
<path d="M92.9338 29.9012V28.667C92.9338 28.6352 92.9464 28.6047 92.9689 28.5823C92.9913 28.5598 93.0218 28.5472 93.0536 28.5472H93.3898C93.4216 28.5472 93.452 28.5598 93.4745 28.5823C93.4969 28.6047 93.5096 28.6352 93.5096 28.667L93.5161 31.8772C93.5163 31.8932 93.5133 31.9091 93.5073 31.9239C93.5013 31.9388 93.4924 31.9522 93.4811 31.9636C93.4697 31.9749 93.4563 31.9838 93.4414 31.9898C93.4266 31.9959 93.4107 31.9989 93.3947 31.9986L93.0552 31.9953C93.024 31.9949 92.9942 31.9823 92.9722 31.9603C92.9501 31.9382 92.9375 31.9084 92.9371 31.8772L92.9305 30.6364C92.9305 30.6047 92.9179 30.5742 92.8955 30.5517C92.873 30.5292 92.8426 30.5166 92.8108 30.5166L91.5035 30.5199C91.4878 30.5199 91.4722 30.523 91.4577 30.529C91.4432 30.535 91.43 30.5439 91.4188 30.555C91.4077 30.5661 91.3989 30.5793 91.3929 30.5939C91.3869 30.6084 91.3838 30.624 91.3838 30.6397L91.3789 31.8723C91.3789 31.9027 91.3674 31.932 91.3467 31.9542C91.326 31.9764 91.2976 31.99 91.2673 31.9921L90.9245 32.015C90.9081 32.0162 90.8916 32.0139 90.8762 32.0084C90.8607 32.0029 90.8465 31.9942 90.8345 31.983C90.8225 31.9717 90.8129 31.9582 90.8064 31.9431C90.7999 31.928 90.7965 31.9117 90.7966 31.8952L90.7949 28.6555C90.7949 28.6395 90.7981 28.6236 90.8043 28.6089C90.8106 28.5941 90.8197 28.5808 90.8311 28.5696C90.8426 28.5584 90.8562 28.5497 90.8711 28.5438C90.886 28.538 90.9019 28.5353 90.9179 28.5357L91.2575 28.5472C91.2887 28.548 91.3183 28.561 91.34 28.5834C91.3618 28.6058 91.3739 28.6358 91.3739 28.667L91.3723 29.8995C91.3723 29.9313 91.3849 29.9618 91.4074 29.9842C91.4298 30.0067 91.4603 30.0193 91.492 30.0193L92.8141 30.021C92.8458 30.021 92.8763 30.0084 92.8988 29.9859C92.9212 29.9634 92.9338 29.9329 92.9338 29.9012Z" fill="#5C5C5C"/>
<path d="M96.455 30.5121L95.0722 30.5187C95.0483 30.5187 95.0253 30.5282 95.0084 30.5451C94.9915 30.5621 94.982 30.585 94.982 30.609L94.9787 31.9055C94.9783 31.9289 94.9688 31.9512 94.9523 31.9677C94.9358 31.9842 94.9135 31.9937 94.8901 31.9941L94.4965 31.9991C94.4845 31.9991 94.4726 31.9967 94.4616 31.992C94.4505 31.9874 94.4405 31.9806 94.4321 31.972C94.4237 31.9635 94.4171 31.9533 94.4127 31.9422C94.4082 31.9311 94.406 31.9191 94.4063 31.9071L94.4079 28.6362C94.4079 28.6123 94.4174 28.5893 94.4343 28.5724C94.4512 28.5555 94.4742 28.546 94.4981 28.546L94.8885 28.5492C94.9003 28.5492 94.9121 28.5516 94.923 28.5561C94.934 28.5607 94.9439 28.5673 94.9523 28.5757C94.9607 28.5841 94.9673 28.594 94.9718 28.605C94.9764 28.6159 94.9787 28.6277 94.9787 28.6395L94.9771 29.9344C94.9771 29.9584 94.9866 29.9813 95.0035 29.9982C95.0204 30.0152 95.0434 30.0247 95.0673 30.0247L96.4566 30.028C96.4805 30.028 96.5035 30.0185 96.5204 30.0015C96.5373 29.9846 96.5468 29.9616 96.5468 29.9377L96.5419 28.6362C96.5419 28.6241 96.5443 28.6121 96.5491 28.6009C96.5538 28.5897 96.5607 28.5796 96.5695 28.5712C96.5782 28.5628 96.5885 28.5562 96.5999 28.5519C96.6112 28.5475 96.6233 28.5455 96.6354 28.546L97.0192 28.5574C97.0426 28.5583 97.0647 28.5682 97.0809 28.585C97.0971 28.6019 97.1062 28.6243 97.1061 28.6477L97.1111 31.9006C97.1111 31.9242 97.1018 31.947 97.0852 31.9638C97.0687 31.9807 97.0461 31.9904 97.0225 31.9908L96.6305 31.9991C96.6185 31.9993 96.6066 31.9971 96.5954 31.9927C96.5843 31.9882 96.5742 31.9816 96.5656 31.9732C96.5571 31.9648 96.5503 31.9548 96.5456 31.9437C96.541 31.9327 96.5386 31.9208 96.5386 31.9088L96.5452 30.6024C96.5452 30.5784 96.5357 30.5555 96.5187 30.5386C96.5018 30.5216 96.4789 30.5121 96.455 30.5121Z" fill="#5C5C5C"/>
<path d="M99.5336 32.0202C99.1203 32.0245 98.7221 31.8447 98.4264 31.5203C98.1308 31.1959 97.962 30.7535 97.9571 30.2904C97.9547 30.0611 97.9927 29.8336 98.0688 29.6209C98.1448 29.4082 98.2576 29.2145 98.4006 29.0509C98.5436 28.8872 98.714 28.7568 98.9021 28.6671C99.0903 28.5773 99.2924 28.5301 99.497 28.5279C99.9103 28.5236 100.309 28.7034 100.604 29.0278C100.9 29.3522 101.069 29.7946 101.073 30.2577C101.076 30.487 101.038 30.7145 100.962 30.9272C100.886 31.1399 100.773 31.3336 100.63 31.4972C100.487 31.6609 100.317 31.7913 100.128 31.881C99.9403 31.9708 99.7382 32.018 99.5336 32.0202Z" fill="#5C5C5C"/>
<path d="M103.057 31.5084C103.478 31.5067 103.75 31.318 103.873 30.9405C103.882 30.9139 103.899 30.8907 103.921 30.8742C103.944 30.8577 103.97 30.8487 103.998 30.8486L104.338 30.8453C104.418 30.8437 104.449 30.8831 104.43 30.9619C104.075 32.4094 102.028 32.2945 101.662 30.9011C101.472 30.1774 101.579 29.255 102.245 28.802C103.088 28.2309 104.287 28.6199 104.428 29.6965C104.434 29.7506 104.411 29.7769 104.357 29.7769L104.005 29.7736C103.921 29.7736 103.872 29.731 103.86 29.6473C103.826 29.4126 103.714 29.2484 103.522 29.1533C101.904 28.3458 101.649 31.5117 103.057 31.5084Z" fill="#5C5C5C"/>
<path d="M106.387 29.097L106.41 31.9281C106.41 31.9455 106.403 31.9622 106.391 31.9745C106.378 31.9868 106.362 31.9937 106.344 31.9937H105.877C105.86 31.9937 105.843 31.9868 105.831 31.9745C105.818 31.9622 105.811 31.9455 105.811 31.9281L105.818 29.097C105.818 29.0881 105.817 29.0792 105.813 29.071C105.81 29.0627 105.805 29.0552 105.799 29.0489C105.792 29.0426 105.785 29.0377 105.777 29.0344C105.768 29.0311 105.76 29.0295 105.751 29.0297L104.768 29.0412C104.751 29.0412 104.734 29.0343 104.722 29.022C104.709 29.0096 104.703 28.9929 104.703 28.9755L104.699 28.6178C104.699 28.6003 104.706 28.5836 104.718 28.5713C104.731 28.559 104.747 28.5521 104.765 28.5521L107.463 28.5488C107.48 28.5488 107.497 28.5557 107.509 28.5681C107.522 28.5804 107.529 28.5971 107.529 28.6145L107.53 28.9755C107.531 28.9844 107.529 28.9933 107.526 29.0016C107.522 29.0098 107.517 29.0173 107.511 29.0236C107.505 29.0299 107.497 29.0349 107.489 29.0382C107.481 29.0415 107.472 29.0431 107.463 29.0428L106.454 29.0297C106.445 29.0295 106.437 29.0311 106.428 29.0344C106.42 29.0377 106.413 29.0426 106.406 29.0489C106.4 29.0552 106.395 29.0627 106.392 29.071C106.388 29.0792 106.387 29.0881 106.387 29.097Z" fill="#5C5C5C"/>
<path d="M108.872 29.7059C109.279 29.7042 109.731 29.6452 110.122 29.7748C111.222 30.1392 111.116 31.7886 109.954 31.9592C109.416 32.0397 108.844 31.9576 108.301 32.0052C108.227 32.0134 108.189 31.9789 108.189 31.9051L108.193 28.6276C108.193 28.5751 108.219 28.5488 108.273 28.5488H108.677C108.727 28.5488 108.752 28.5734 108.754 28.6243V29.5877C108.755 29.6665 108.795 29.7059 108.872 29.7059Z" fill="#5C5C5C"/>
<path d="M112.202 30.5572L112.207 31.9079C112.207 31.929 112.199 31.9492 112.184 31.9642C112.169 31.9792 112.149 31.9879 112.128 31.9883L111.718 31.9982C111.661 31.9998 111.633 31.9719 111.633 31.9145L111.639 28.6042C111.639 28.5963 111.641 28.5885 111.644 28.5812C111.647 28.5739 111.651 28.5673 111.657 28.5618C111.662 28.5563 111.669 28.552 111.676 28.5491C111.683 28.5462 111.691 28.5449 111.698 28.5451L112.123 28.55C112.144 28.55 112.163 28.5581 112.178 28.5726C112.192 28.5871 112.2 28.6067 112.2 28.6271L112.199 29.9286C112.197 29.9943 112.23 30.0271 112.297 30.0271L112.934 30.0238C112.991 30.0238 113.025 29.9959 113.035 29.9385C113.17 29.1671 113.583 28.7125 114.274 28.573C116.335 28.1578 116.809 31.5764 114.846 31.967C113.905 32.1541 113.116 31.5222 113.037 30.5671C113.034 30.5359 113.016 30.5195 112.984 30.5178L112.248 30.5113C112.242 30.511 112.236 30.5121 112.23 30.5143C112.225 30.5165 112.22 30.5198 112.216 30.5241C112.211 30.5284 112.208 30.5335 112.206 30.5392C112.203 30.5449 112.202 30.551 112.202 30.5572Z" fill="#5C5C5C"/>
<path fill-rule="evenodd" clip-rule="evenodd" d="M89.0045 31.4689C88.2943 31.592 87.8612 31.2933 87.7038 30.5744C87.7018 30.5656 87.7019 30.5564 87.7039 30.5475C87.706 30.5387 87.71 30.5304 87.7156 30.5233C87.7213 30.5163 87.7285 30.5105 87.7366 30.5066C87.7448 30.5027 87.7537 30.5006 87.7628 30.5006L89.9001 30.5285C89.9201 30.5287 89.94 30.5249 89.9586 30.5175C89.9772 30.51 89.9941 30.4989 90.0084 30.4849C90.0228 30.4709 90.0342 30.4542 90.042 30.4358C90.0499 30.4173 90.0541 30.3975 90.0543 30.3775C90.0543 29.4387 89.5704 28.3555 88.4255 28.5738C87.361 28.7757 86.964 29.9343 87.2232 30.8813C87.5578 32.0991 89.016 32.3502 89.887 31.505C89.9263 31.4672 89.9411 31.4213 89.9296 31.3688C89.905 31.2391 89.8295 31.1636 89.7032 31.139C89.6753 31.1333 89.6464 31.1334 89.6185 31.1393C89.5905 31.1453 89.5641 31.1569 89.5409 31.1735C89.5175 31.19 89.494 31.2072 89.4704 31.2244C89.3276 31.3285 89.1775 31.4379 89.0045 31.4689ZM87.8004 30.064C87.8104 30.0676 87.8209 30.0692 87.8315 30.0688L89.3651 30.0064C89.3757 30.006 89.386 30.0035 89.3956 29.9991C89.4052 29.9946 89.4138 29.9884 89.421 29.9806C89.4282 29.9728 89.4337 29.9637 89.4374 29.9538C89.441 29.9438 89.4426 29.9333 89.4422 29.9227V29.9063C89.4323 29.6616 89.3353 29.4304 89.1726 29.2636C89.0099 29.0968 88.7948 29.008 88.5745 29.0168L88.5417 29.0184C88.4326 29.0228 88.3255 29.051 88.2265 29.1015C88.1275 29.152 88.0386 29.2237 87.9649 29.3125C87.8912 29.4014 87.8341 29.5056 87.7968 29.6193C87.7596 29.7331 87.7429 29.854 87.7478 29.9753V29.9917C87.7482 30.0022 87.7507 30.0126 87.7552 30.0222C87.7596 30.0318 87.7659 30.0404 87.7736 30.0476C87.7814 30.0548 87.7905 30.0603 87.8004 30.064Z" fill="#5C5C5C"/>
<path d="M62.2826 31.5142C62.0238 31.5142 61.7755 31.3823 61.5925 31.1475C61.4095 30.9126 61.3066 30.5941 61.3066 30.262C61.3066 29.9299 61.4095 29.6114 61.5925 29.3765C61.7755 29.1417 62.0238 29.0098 62.2826 29.0098C62.5414 29.0098 62.7897 29.1417 62.9727 29.3765C63.1557 29.6114 63.2586 29.9299 63.2586 30.262C63.2586 30.5941 63.1557 30.9126 62.9727 31.1475C62.7897 31.3823 62.5414 31.5142 62.2826 31.5142Z" fill="white"/>
<path d="M68.0605 29.1134C68.0605 29.0929 68.0687 29.0733 68.0831 29.0589C68.0976 29.0444 68.1172 29.0363 68.1376 29.0363L68.9857 29.0264C69.0718 29.0255 69.1573 29.0369 69.2372 29.0599C69.3171 29.0829 69.3898 29.1171 69.4512 29.1606C69.5126 29.204 69.5614 29.2558 69.595 29.3131C69.6285 29.3703 69.6461 29.4318 69.6467 29.4942V29.55C69.6479 29.6757 69.58 29.797 69.4579 29.8872C69.3358 29.9774 69.1694 30.029 68.9955 30.0308L68.1475 30.0407C68.1374 30.0407 68.1273 30.0387 68.118 30.0348C68.1086 30.0309 68.1001 30.0252 68.093 30.0181C68.0858 30.0109 68.0801 30.0024 68.0763 29.9931C68.0724 29.9837 68.0704 29.9737 68.0704 29.9635L68.0605 29.1134Z" fill="white"/>
<path d="M71.7309 30.0405C71.7246 30.0407 71.7184 30.0397 71.7126 30.0375C71.7067 30.0353 71.7013 30.032 71.6968 30.0278C71.6922 30.0235 71.6885 30.0184 71.6859 30.0127C71.6833 30.007 71.6819 30.0008 71.6817 29.9946V29.9732C71.6805 29.8495 71.7013 29.7267 71.7429 29.6119C71.7845 29.4971 71.846 29.3927 71.924 29.3044C72.002 29.2162 72.0949 29.1459 72.1974 29.0976C72.3 29.0493 72.4101 29.0239 72.5215 29.023H72.5248C72.7496 29.021 72.966 29.1183 73.1266 29.2934C73.2871 29.4685 73.3786 29.7071 73.381 29.9568V29.9782C73.3812 29.9844 73.3802 29.9906 73.378 29.9965C73.3758 30.0024 73.3725 30.0077 73.3682 30.0123C73.364 30.0169 73.3588 30.0206 73.3532 30.0232C73.3475 30.0257 73.3413 30.0272 73.3351 30.0274L71.7309 30.0405Z" fill="white"/>
<path d="M84.293 29.1187C84.293 29.0939 84.3028 29.0701 84.3203 29.0525C84.3379 29.035 84.3617 29.0251 84.3865 29.0251L85.205 29.0186C85.2934 29.018 85.3811 29.0298 85.463 29.0533C85.5449 29.0768 85.6194 29.1116 85.6821 29.1556C85.7449 29.1997 85.7948 29.2522 85.8289 29.31C85.8629 29.3679 85.8806 29.4301 85.8807 29.4929V29.5553C85.8811 29.6817 85.8109 29.8033 85.6854 29.8934C85.56 29.9836 85.3895 30.0349 85.2115 30.0361L84.393 30.0427C84.3807 30.0427 84.3686 30.0403 84.3572 30.0356C84.3459 30.0309 84.3356 30.024 84.3269 30.0153C84.3182 30.0066 84.3113 29.9963 84.3066 29.9849C84.3019 29.9736 84.2995 29.9614 84.2995 29.9491L84.293 29.1187Z" fill="white"/>
<path d="M99.5232 31.526C99.3946 31.5269 99.267 31.4953 99.1478 31.4329C99.0285 31.3706 98.92 31.2787 98.8282 31.1626C98.7365 31.0465 98.6634 30.9085 98.6131 30.7563C98.5628 30.6041 98.5363 30.4408 98.5352 30.2757C98.534 30.1106 98.5582 29.947 98.6064 29.7941C98.6545 29.6412 98.7257 29.5022 98.8158 29.3848C98.9059 29.2674 99.0132 29.1741 99.1316 29.11C99.2499 29.046 99.3771 29.0126 99.5056 29.0117C99.6342 29.0108 99.7618 29.0425 99.881 29.1048C100 29.1672 100.109 29.259 100.201 29.3751C100.292 29.4912 100.365 29.6293 100.416 29.7815C100.466 29.9336 100.492 30.0969 100.494 30.262C100.495 30.4271 100.471 30.5908 100.422 30.7436C100.374 30.8965 100.303 31.0356 100.213 31.153C100.123 31.2703 100.016 31.3637 99.8973 31.4277C99.7789 31.4917 99.6518 31.5251 99.5232 31.526Z" fill="white"/>
<path d="M114.55 31.5231C114.421 31.5233 114.294 31.491 114.175 31.4281C114.056 31.3651 113.948 31.2727 113.857 31.1561C113.766 31.0395 113.693 30.9011 113.644 30.7486C113.594 30.5962 113.569 30.4328 113.568 30.2677C113.568 29.9342 113.67 29.6143 113.854 29.3782C114.037 29.1421 114.286 29.0092 114.545 29.0088C114.674 29.0086 114.801 29.0409 114.92 29.1038C115.039 29.1668 115.147 29.2592 115.238 29.3758C115.33 29.4924 115.402 29.6308 115.451 29.7833C115.501 29.9357 115.527 30.0992 115.527 30.2642C115.527 30.5977 115.425 30.9176 115.242 31.1537C115.058 31.3898 114.81 31.5227 114.55 31.5231Z" fill="white"/>
<path d="M108.754 30.2889C108.754 30.2757 108.756 30.2625 108.761 30.2501C108.766 30.2378 108.773 30.2266 108.783 30.2171C108.792 30.2076 108.803 30.2001 108.815 30.195C108.828 30.1898 108.841 30.1872 108.854 30.1872L109.679 30.1855C109.848 30.1851 110.009 30.2519 110.129 30.3713C110.249 30.4907 110.316 30.6529 110.317 30.8223V30.8617C110.318 30.9459 110.301 31.0294 110.27 31.1073C110.238 31.1852 110.191 31.2561 110.132 31.3159C110.073 31.3756 110.003 31.4231 109.926 31.4556C109.849 31.488 109.766 31.5049 109.682 31.5051L108.857 31.5067C108.831 31.5067 108.806 31.4964 108.787 31.478C108.768 31.4596 108.758 31.4345 108.757 31.4082L108.754 30.2889Z" fill="white"/>
<path d="M68.0723 30.5754C68.0723 30.558 68.0792 30.5413 68.0915 30.529C68.1038 30.5167 68.1205 30.5098 68.1379 30.5098H69.1417C69.3079 30.5098 69.4673 30.5596 69.5848 30.6482C69.7023 30.7368 69.7683 30.8571 69.7683 30.9824V31.0382C69.7683 31.1636 69.7023 31.2838 69.5848 31.3725C69.4673 31.4611 69.3079 31.5109 69.1417 31.5109H68.1379C68.1205 31.5109 68.1038 31.504 68.0915 31.4917C68.0792 31.4794 68.0723 31.4627 68.0723 31.4453V30.5754Z" fill="white"/>
<path d="M84.3086 30.5755C84.3086 30.5597 84.3148 30.5445 84.3258 30.5332C84.3368 30.5218 84.3518 30.5153 84.3676 30.5148L85.4404 30.5132C85.5138 30.513 85.5866 30.5248 85.6546 30.548C85.7225 30.5713 85.7843 30.6054 85.8364 30.6485C85.8885 30.6917 85.9298 30.7429 85.9581 30.7994C85.9865 30.8559 86.0011 30.9164 86.0013 30.9776V31.0367C86.0018 31.1603 85.9433 31.2791 85.8387 31.3668C85.7341 31.4545 85.592 31.504 85.4437 31.5045L84.3709 31.5061C84.3628 31.5063 84.3548 31.5049 84.3472 31.502C84.3396 31.499 84.3328 31.4946 84.3269 31.4889C84.3211 31.4833 84.3165 31.4765 84.3134 31.469C84.3102 31.4615 84.3086 31.4535 84.3086 31.4454V30.5755Z" fill="white"/>
<path d="M31.4967 41.1993C31.5016 41.2846 31.4557 41.3683 31.3606 41.452C30.4404 42.2611 29.3808 42.8158 28.185 43.1195C27.378 43.3246 26.5579 43.4674 25.7246 43.5478L25.7262 39.5974C25.7262 39.5844 25.7314 39.5719 25.7407 39.5626C25.7499 39.5534 25.7624 39.5482 25.7755 39.5482L30.3551 39.5449C30.3966 39.5449 30.4375 39.5556 30.4737 39.576C30.5099 39.5964 30.5403 39.6258 30.5617 39.6614L31.4967 41.1993Z" fill="white"/>
<path d="M25.5468 11.042C28.8618 11.1241 32.0767 11.6985 35.1883 12.7669C37.3108 13.4956 39.2348 14.5345 40.9603 15.8852C41.5951 16.3825 42.2151 16.9651 42.8204 17.6364C42.845 17.6643 42.9139 17.6938 43.0238 17.7283L43.0418 17.807C43.0533 17.8497 43.073 17.8875 43.1009 17.9203C43.6717 18.5686 44.1556 19.2759 44.5542 20.044C45.0971 21.0895 45.5301 22.2252 45.8549 23.4495L46.0452 24.7904C46.0479 24.8097 46.0466 24.8295 46.0413 24.8483C46.0359 24.8671 46.0267 24.8846 46.0142 24.8996C46.0016 24.9146 45.9861 24.9268 45.9685 24.9354C45.951 24.944 45.9318 24.9488 45.9123 24.9496L44.792 24.9906L33.4184 24.9922C33.3036 24.9742 33.215 24.9348 33.1527 24.8741C33.1117 24.833 33.0904 24.7822 33.0887 24.7214C33.0395 23.182 32.5917 21.8674 31.7437 20.7776C30.712 19.4515 28.8421 18.7951 27.2379 18.5062C26.5211 18.3782 25.9667 18.3175 25.5747 18.3257C23.5768 18.091 21.7135 18.2042 19.9847 18.6621C18.123 19.1561 16.691 20.2278 15.6905 21.8805C15.4247 22.217 15.2591 22.5009 15.1935 22.7307C15.0278 23.3051 14.8539 23.8779 14.6686 24.449C14.714 23.1775 1.71377 23.9599 1.71377 23.9599C2.68645 20.9385 4.28734 18.4537 6.51318 16.5056C9.06379 14.2719 12.1294 12.7341 15.7101 11.8954C16.7599 11.6131 17.7605 11.408 18.7102 11.2816C20.9327 10.9829 23.2111 10.9025 25.5468 11.042Z" fill="url(#paint2_linear_627_3049)"/>
<path d="M14.6686 24.449C14.2109 26.2281 14.0453 28.0317 14.0535 29.865C13.7463 27.2599 0.827061 30.0969 0.936287 28.9918L0.936768 28.9907L0.937928 28.9902L0.939087 28.9907L0.939568 28.9918C0.95105 29.0526 0.931366 29.0838 0.883799 29.0854C0.918244 27.3523 1.19381 25.6438 1.71377 23.9599C1.71377 23.9599 14.714 23.1775 14.6686 24.449Z" fill="url(#paint3_linear_627_3049)"/>
<path d="M14.0535 29.865C14.0141 32.7436 14.0387 35.125 14.6981 37.8068C13.28 35.0723 3.96937 36.482 1.34799 36.5529C1.11016 35.4746 0.967452 34.4882 0.918244 33.5938C0.850993 32.358 0.839512 30.8546 0.883799 29.0854C0.931366 29.0838 0.95105 29.0526 0.939568 28.9918L0.939087 28.9907L0.937928 28.9902L0.936768 28.9907L0.936287 28.9918C0.827061 30.0969 13.7463 27.2599 14.0535 29.865Z" fill="url(#paint4_linear_627_3049)"/>
<path d="M14.6981 37.8068C14.8933 38.6618 15.2164 39.4266 15.6675 40.0979C16.0726 40.7823 16.5385 41.337 17.065 41.7653C19.0579 43.3819 21.953 43.7233 24.4101 43.6002C24.848 43.5789 25.286 43.5608 25.7223 43.5477C26.5556 43.4673 27.3757 43.3245 28.1827 43.1193C29.3785 42.8157 30.4381 42.261 31.3582 41.4519C31.4534 41.3682 31.4993 41.2845 31.4944 41.1991C31.5879 41.1384 31.6699 41.0613 31.7404 40.9677C32.4638 39.9994 32.8821 38.803 32.992 37.3784C33.0034 37.2373 33.0789 37.1667 33.2199 37.1683L45.809 37.2094C45.8234 37.2096 45.8376 37.2127 45.8508 37.2185C45.864 37.2242 45.8759 37.2326 45.8857 37.243C45.8955 37.2535 45.9031 37.2658 45.9079 37.2792C45.9128 37.2925 45.9148 37.3068 45.9139 37.321C45.8188 38.9572 45.3989 40.4885 44.6198 41.9016C44.4147 42.2725 44.2146 42.6385 44.0178 43.0012C43.4634 43.83 42.8188 44.5849 42.0839 45.266C41.9511 45.2513 41.9707 45.1216 42.143 44.8771C42.1497 44.8678 42.1536 44.8568 42.1542 44.8454C42.1548 44.8339 42.1521 44.8226 42.1464 44.8126C42.1406 44.8027 42.1321 44.7947 42.1219 44.7895C42.1117 44.7844 42.1002 44.7823 42.0888 44.7835C41.8034 44.8147 41.5935 44.8098 41.4573 44.7655C41.4144 44.7515 41.3685 44.7492 41.3245 44.7589L41.1523 44.795C41.1327 44.7991 41.1125 44.7992 41.093 44.7953C41.0735 44.7913 41.0552 44.7834 41.0391 44.772C40.9095 44.6801 40.7652 44.6227 40.6044 44.5981C40.5568 44.5915 40.5158 44.5734 40.4814 44.5423C40.4371 44.5029 40.4141 44.475 40.4125 44.4569C40.4092 44.4112 40.3886 44.3684 40.3549 44.337C40.3211 44.3057 40.2767 44.2881 40.2304 44.2879C37.4535 44.2813 34.7208 44.2813 32.0308 44.2862C31.8831 44.2862 31.7814 44.3568 31.6338 44.3141C31.5436 44.2879 31.4517 44.2764 31.3566 44.2797C30.0264 44.3207 28.7699 44.2944 27.5873 44.2042C27.4134 44.191 27.2346 44.214 27.0509 44.2747C26.9033 44.3223 26.754 44.3502 26.6031 44.3552C26.4801 44.3584 26.3554 44.3666 26.2308 44.3814C26.1176 44.3929 25.9995 44.3863 25.8765 44.3617C25.6501 44.3158 25.4238 44.3026 25.1958 44.3223C24.9317 44.3453 24.7021 44.3453 24.5069 44.324C24.2756 44.2994 24.0394 44.2961 23.7983 44.3158C23.5604 44.3338 23.3144 44.324 23.0602 44.2846C22.6353 44.2189 22.2039 44.214 21.7643 44.2698C21.684 44.2797 21.5872 44.2797 21.4724 44.2715C21.374 44.2633 21.2772 44.2665 21.1821 44.278C21.0065 44.301 20.8589 44.2994 20.7425 44.2747C20.4095 44.2009 20.1585 44.1746 19.9896 44.1992C19.7124 44.2403 19.4385 44.2616 19.1711 44.2633C16.2809 44.2879 13.2612 44.2928 10.1103 44.2813C9.81995 44.2813 9.54931 44.342 9.25898 44.324C9.20157 44.3207 9.17041 44.347 9.16549 44.4044C9.16385 44.4323 9.16877 44.4602 9.18025 44.4865C9.18365 44.4939 9.18526 44.5021 9.18493 44.5103C9.1846 44.5185 9.18236 44.5266 9.17837 44.5337C9.17438 44.5409 9.16876 44.5471 9.16197 44.5517C9.15517 44.5563 9.14739 44.5593 9.13924 44.5603L8.75214 44.6095C8.71113 44.6145 8.67669 44.6292 8.64552 44.6555C8.61436 44.6818 8.59632 44.7129 8.59139 44.7507C8.58725 44.782 8.57123 44.8105 8.54673 44.8302C8.52223 44.8498 8.49118 44.8589 8.46017 44.8557C8.32403 44.8442 8.18953 44.859 8.05831 44.9017C8.04285 44.9066 8.02645 44.9074 8.01086 44.9039C7.99527 44.9005 7.98106 44.8929 7.96973 44.882L7.92217 44.8344C7.891 44.8032 7.85328 44.795 7.81063 44.8081C7.53179 44.8935 7.27918 44.8262 6.99706 44.9033C6.7379 44.9739 6.49022 44.9641 6.25238 44.8771C6.21465 44.8639 6.19333 44.8771 6.18513 44.9148C6.18021 44.9378 6.17037 44.9591 6.15396 44.9772C6.1228 45.0133 6.09655 45.01 6.07195 44.969C6.05227 44.9345 6.05555 44.9082 6.08179 44.8902C6.14576 44.8492 6.1392 44.8262 6.06375 44.8196C6.01454 44.8163 5.96205 44.8147 5.90792 44.8147C5.8702 44.8163 5.85708 44.7983 5.86856 44.7638C5.87348 44.7491 5.86856 44.7326 5.8538 44.7162C5.83575 44.6949 5.81443 44.6834 5.78819 44.6818C5.73734 44.6768 5.70617 44.6473 5.69797 44.5931C5.69461 44.5751 5.6853 44.5587 5.67157 44.5467C5.65784 44.5348 5.64052 44.528 5.62252 44.5275C5.59135 44.5275 5.55363 44.5373 5.51098 44.5554C3.36552 42.3316 1.97785 39.663 1.34799 36.5529C3.96937 36.482 13.28 35.0723 14.6981 37.8068Z" fill="url(#paint5_linear_627_3049)"/>
<path d="M42.0839 45.266C40.8619 46.3853 39.494 47.3077 37.98 48.0331C37.3682 48.3269 36.7613 48.5927 36.156 48.8307C34.5223 49.3608 33.2363 49.7843 31.2582 50.2028C29.8279 50.5064 27.9809 50.723 25.719 50.8543C22.4254 51.0398 19.1645 50.7985 15.9365 50.1338C15.8826 50.123 15.8325 50.1 15.7905 50.0665C15.7364 50.0255 15.6987 50.0173 15.6757 50.0419C15.6494 50.0518 15.633 50.0485 15.6281 50.0321C15.6216 50.0107 15.6068 49.9976 15.5855 49.9927C14.2454 49.7022 12.838 49.2328 11.3634 48.5845C9.45089 47.7442 7.72042 46.602 6.17037 45.1561C5.96041 44.9608 5.74062 44.7605 5.51098 44.5554C5.55363 44.5373 5.59135 44.5275 5.62252 44.5275C5.64052 44.528 5.65784 44.5348 5.67157 44.5467C5.6853 44.5587 5.69461 44.5751 5.69797 44.5931C5.70617 44.6473 5.73734 44.6768 5.78819 44.6818C5.81443 44.6834 5.83575 44.6949 5.8538 44.7162C5.86856 44.7326 5.87348 44.7491 5.86856 44.7638C5.85708 44.7983 5.8702 44.8163 5.90792 44.8147C5.96205 44.8147 6.01454 44.8163 6.06375 44.8196C6.1392 44.8262 6.14576 44.8492 6.08179 44.8902C6.05555 44.9082 6.05227 44.9345 6.07195 44.969C6.09655 45.01 6.1228 45.0133 6.15396 44.9772C6.17037 44.9591 6.18021 44.9378 6.18513 44.9148C6.19333 44.8771 6.21465 44.8639 6.25238 44.8771C6.49022 44.9641 6.7379 44.9739 6.99706 44.9033C7.27918 44.8262 7.53179 44.8935 7.81063 44.8081C7.85328 44.795 7.891 44.8032 7.92217 44.8344L7.96973 44.882C7.98106 44.8929 7.99527 44.9005 8.01086 44.9039C8.02645 44.9074 8.04285 44.9066 8.05831 44.9017C8.18953 44.859 8.32403 44.8442 8.46017 44.8557C8.49118 44.8589 8.52223 44.8498 8.54673 44.8302C8.57123 44.8105 8.58725 44.782 8.59139 44.7507C8.59632 44.7129 8.61436 44.6818 8.64552 44.6555C8.67669 44.6292 8.71113 44.6145 8.75214 44.6095L9.13924 44.5603C9.14739 44.5593 9.15517 44.5563 9.16197 44.5517C9.16876 44.5471 9.17438 44.5409 9.17837 44.5337C9.18236 44.5266 9.1846 44.5185 9.18493 44.5103C9.18526 44.5021 9.18365 44.4939 9.18025 44.4865C9.16877 44.4602 9.16385 44.4323 9.16549 44.4044C9.17041 44.347 9.20157 44.3207 9.25898 44.324C9.54931 44.342 9.81995 44.2813 10.1103 44.2813C13.2612 44.2928 16.2809 44.2879 19.1711 44.2633C19.4385 44.2616 19.7124 44.2403 19.9896 44.1992C20.1585 44.1746 20.4095 44.2009 20.7425 44.2747C20.8589 44.2994 21.0065 44.301 21.1821 44.278C21.2772 44.2665 21.374 44.2633 21.4724 44.2715C21.5872 44.2797 21.684 44.2797 21.7643 44.2698C22.2039 44.214 22.6353 44.2189 23.0602 44.2846C23.3144 44.324 23.5604 44.3338 23.7983 44.3158C24.0394 44.2961 24.2756 44.2994 24.5069 44.324C24.7021 44.3453 24.9317 44.3453 25.1958 44.3223C25.4238 44.3026 25.6501 44.3158 25.8765 44.3617C25.9995 44.3863 26.1176 44.3929 26.2308 44.3814C26.3554 44.3666 26.4801 44.3584 26.6031 44.3552C26.754 44.3502 26.9033 44.3223 27.0509 44.2747C27.2346 44.214 27.4134 44.191 27.5873 44.2042C28.7699 44.2944 30.0264 44.3207 31.3566 44.2797C31.4517 44.2764 31.5436 44.2879 31.6338 44.3141C31.7814 44.3568 31.8831 44.2862 32.0308 44.2862C34.7208 44.2813 37.4535 44.2813 40.2304 44.2879C40.2767 44.2881 40.3211 44.3057 40.3549 44.337C40.3886 44.3684 40.4092 44.4112 40.4125 44.4569C40.4141 44.475 40.4371 44.5029 40.4814 44.5423C40.5158 44.5734 40.5568 44.5915 40.6044 44.5981C40.7652 44.6227 40.9095 44.6801 41.0391 44.772C41.0552 44.7834 41.0735 44.7913 41.093 44.7953C41.1125 44.7992 41.1327 44.7991 41.1523 44.795L41.3245 44.7589C41.3685 44.7492 41.4144 44.7515 41.4573 44.7655C41.5935 44.8098 41.8034 44.8147 42.0888 44.7835C42.1002 44.7823 42.1117 44.7844 42.1219 44.7895C42.1321 44.7947 42.1406 44.8027 42.1464 44.8126C42.1521 44.8226 42.1548 44.8339 42.1542 44.8454C42.1536 44.8568 42.1497 44.8678 42.143 44.8771C41.9707 45.1216 41.9511 45.2513 42.0839 45.266Z" fill="url(#paint6_linear_627_3049)"/>
<path fill-rule="evenodd" clip-rule="evenodd" d="M64.0752 40.0354L64.0605 41.9047C64.0586 45.7807 64.0712 53.2175 64.0712 53.3751C64.0712 53.5327 63.9582 53.6377 63.8356 53.6377H60.2937C60.1182 53.6377 60.0296 53.5507 60.0313 53.3751L60.0624 45.3398L60.0632 45.3397L60.05 42.1345L60.1025 37.0845C60.103 37.0433 60.1195 37.0039 60.1486 36.9747C60.1778 36.9456 60.2172 36.929 60.2584 36.9286L71.1284 36.9155C71.1781 36.9155 71.2259 36.9351 71.2612 36.9702C71.2965 37.0052 71.3166 37.0528 71.317 37.1026L71.3252 39.63C71.3254 39.6567 71.3204 39.6832 71.3104 39.708C71.3003 39.7328 71.2855 39.7553 71.2668 39.7744C71.2481 39.7934 71.2258 39.8086 71.2012 39.819C71.1766 39.8295 71.1502 39.8349 71.1235 39.8352L64.236 39.8746C64.1935 39.875 64.1529 39.8921 64.1228 39.9221C64.0928 39.9522 64.0757 39.9929 64.0752 40.0354Z" fill="#FF9600"/>
<path fill-rule="evenodd" clip-rule="evenodd" d="M64.0752 40.0354L64.0605 41.9047C64.0586 45.7807 64.0712 53.2175 64.0712 53.3751C64.0712 53.5327 63.9582 53.6377 63.8356 53.6377H60.2937C60.1182 53.6377 60.0296 53.5507 60.0313 53.3751L60.0624 45.3398L60.0632 45.3397L60.05 42.1345L60.1025 37.0845C60.103 37.0433 60.1195 37.0039 60.1486 36.9747C60.1778 36.9456 60.2172 36.929 60.2584 36.9286L71.1284 36.9155C71.1781 36.9155 71.2259 36.9351 71.2612 36.9702C71.2965 37.0052 71.3166 37.0528 71.317 37.1026L71.3252 39.63C71.3254 39.6567 71.3204 39.6832 71.3104 39.708C71.3003 39.7328 71.2855 39.7553 71.2668 39.7744C71.2481 39.7934 71.2258 39.8086 71.2012 39.819C71.1766 39.8295 71.1502 39.8349 71.1235 39.8352L64.236 39.8746C64.1935 39.875 64.1529 39.8921 64.1228 39.9221C64.0928 39.9522 64.0757 39.9929 64.0752 40.0354Z" fill="url(#paint7_linear_627_3049)"/>
<path d="M98.3971 41.3815C98.3865 41.3815 98.3965 41.3816 98.3965 41.3816C98.0799 42.1891 97.8995 42.9982 97.8552 43.8106C97.7798 45.1577 97.8043 46.5213 97.9289 47.9045L97.9296 47.9052C98.2019 49.8714 98.9482 50.8774 100.995 50.8676C102.583 50.8594 103.633 49.9108 103.689 48.2548C103.69 48.1891 103.725 48.1563 103.79 48.1563L107.535 48.1613C107.553 48.1612 107.57 48.1648 107.587 48.172C107.603 48.1791 107.618 48.1896 107.63 48.2027C107.642 48.2158 107.651 48.2313 107.657 48.2482C107.662 48.2651 107.665 48.283 107.663 48.3008C107.423 51.1729 105.637 53.1341 102.939 53.7561C101.13 54.1713 98.9449 54.1008 97.3079 53.2014C95.2265 52.0575 94.1832 50.0142 93.847 47.6952L93.8464 47.6954C93.7611 46.9995 93.7234 46.0952 93.7316 44.9825C93.743 43.5644 93.9678 42.2777 94.4074 41.124L94.408 41.1238C95.3807 38.7375 97.4179 37.1866 99.9537 36.9781C103.961 36.6466 107.202 38.4946 107.72 42.7831C107.722 42.7981 107.721 42.8134 107.716 42.8279C107.712 42.8424 107.704 42.8558 107.694 42.8671C107.684 42.8785 107.672 42.8875 107.658 42.8937C107.644 42.8999 107.629 42.903 107.614 42.9029L103.844 42.9094C103.801 42.9094 103.758 42.892 103.727 42.8609C103.696 42.8298 103.679 42.7876 103.679 42.7437C103.679 41.3208 103.014 40.3114 101.551 40.0948C100.26 39.9028 99.0762 40.1637 98.3971 41.3815Z" fill="url(#paint8_linear_627_3049)"/>
<path fill-rule="evenodd" clip-rule="evenodd" d="M117.344 40.1319L117.344 40.132L117.377 53.708C117.377 53.7407 117.364 53.772 117.341 53.7951C117.318 53.8181 117.287 53.8311 117.254 53.8311L113.516 53.8278C113.47 53.8278 113.426 53.8093 113.393 53.7764C113.36 53.7435 113.342 53.6988 113.342 53.6522L113.419 40.0729L108.59 40.0581C108.551 40.0581 108.513 40.0424 108.485 40.0143C108.457 39.9863 108.441 39.9483 108.441 39.9087L108.439 37.2812C108.439 37.2721 108.44 37.263 108.442 37.254C108.444 37.2418 108.447 37.2299 108.452 37.2184C108.46 37.1985 108.471 37.1804 108.486 37.1651C108.501 37.1499 108.518 37.1378 108.538 37.1295C108.557 37.1213 108.578 37.1171 108.599 37.1171L122.17 37.1138C122.198 37.1138 122.226 37.1193 122.251 37.13C122.277 37.1408 122.301 37.1565 122.32 37.1764C122.34 37.1962 122.356 37.2197 122.366 37.2456C122.377 37.2715 122.382 37.2992 122.382 37.3271L122.367 39.958C122.366 39.9808 122.357 40.0025 122.341 40.0184C122.325 40.0344 122.303 40.0433 122.28 40.0433C120.748 40.0351 119.236 40.0417 117.743 40.0597C117.627 40.0614 117.494 40.086 117.344 40.1319Z" fill="url(#paint9_linear_627_3049)"/>
<path fill-rule="evenodd" clip-rule="evenodd" d="M137.576 37.2386L135.242 41.1315C134.556 42.2591 133.888 43.3817 133.237 44.4961C133.162 44.6257 133.139 44.7406 133.166 44.8424C133.194 44.9425 133.245 45.0606 133.319 45.1936L134.941 48.0362L138.179 53.7015C138.186 53.7137 138.19 53.7274 138.19 53.7413C138.19 53.7553 138.186 53.7689 138.179 53.781C138.177 53.784 138.175 53.7868 138.173 53.7895C138.167 53.7978 138.159 53.8049 138.15 53.8102C138.138 53.8173 138.124 53.8211 138.111 53.8213L133.536 53.8246C133.518 53.8246 133.5 53.8197 133.485 53.8104C133.47 53.8012 133.457 53.7879 133.449 53.7721L130.711 48.517L130.045 47.2287C130.031 47.203 130.012 47.1811 129.988 47.1651C129.964 47.149 129.937 47.1393 129.909 47.1368C129.353 47.0876 128.772 47.0843 128.165 47.1286C128.106 47.1335 128.075 47.1647 128.072 47.2254L128.028 48.0866L128.028 48.0871L128.046 53.7197C128.046 53.7886 128.012 53.8231 127.943 53.8231L124.139 53.8247C124.129 53.8247 124.12 53.8236 124.111 53.8214C124.104 53.8199 124.098 53.8178 124.092 53.8153C124.077 53.8091 124.064 53.8 124.053 53.7885C124.041 53.7771 124.032 53.7635 124.026 53.7486C124.024 53.7423 124.022 53.7359 124.02 53.7293C124.018 53.7203 124.017 53.7109 124.018 53.7016L124.026 47.8626L124.025 47.8622L124.02 45.8566L124.03 37.301C124.032 37.1697 124.097 37.1041 124.227 37.1041L127.873 37.0975C127.913 37.0975 127.952 37.1134 127.98 37.1417C128.008 37.1701 128.024 37.2085 128.024 37.2485L128.041 43.4047C128.041 43.4588 128.067 43.4851 128.121 43.4851L129.328 43.4769C129.41 43.4758 129.49 43.4524 129.559 43.4093C129.628 43.3662 129.684 43.305 129.72 43.2323L131 40.6671L132.686 37.2271C132.704 37.1892 132.733 37.1572 132.768 37.1346C132.804 37.112 132.845 37.0997 132.888 37.0991L137.485 37.0811C137.504 37.0812 137.522 37.0861 137.538 37.0954C137.554 37.1047 137.567 37.1179 137.576 37.1339C137.58 37.1416 137.584 37.1498 137.586 37.1583C137.588 37.1674 137.59 37.1768 137.59 37.1863C137.59 37.2046 137.585 37.2227 137.576 37.2386Z" fill="url(#paint10_linear_627_3049)"/>
<path d="M82.2659 44.869C82.699 43.9056 83.2713 42.8912 83.9848 41.8244L86.7388 37.2143C86.7466 37.2012 86.7507 37.1862 86.7509 37.1709C86.7511 37.1557 86.7472 37.1406 86.7398 37.1273C86.7323 37.114 86.7214 37.1029 86.7083 37.0951C86.6952 37.0874 86.6802 37.0832 86.665 37.083L82.2297 37.0912C82.1385 37.0913 82.0492 37.1167 81.9718 37.1645C81.8944 37.2123 81.8321 37.2807 81.7918 37.362L78.8853 43.2229C78.8451 43.305 78.7826 43.374 78.7051 43.4219C78.6276 43.4699 78.5382 43.4947 78.4474 43.4937L77.2812 43.4855C77.2221 43.4855 77.1926 43.4559 77.1926 43.3985L77.1629 37.267C77.1624 37.2243 77.1453 37.1834 77.1149 37.1531C77.0846 37.1228 77.0436 37.1053 77.0005 37.1045C75.849 37.0815 74.6188 37.0897 73.3099 37.1275C73.2861 37.1283 73.2636 37.1382 73.2471 37.155C73.2306 37.1719 73.2213 37.1943 73.2213 37.2177L73.174 41.5899L73.1803 45.2769C73.1697 45.3165 73.1691 45.362 73.1785 45.4134L73.1805 45.4238L73.215 48.2744L73.1775 53.6788C73.1773 53.6984 73.181 53.7177 73.1883 53.7358C73.1956 53.754 73.2064 53.7704 73.2202 53.7843C73.2339 53.7982 73.2503 53.8093 73.2683 53.8168C73.2863 53.8243 73.3056 53.8282 73.3251 53.8282L77.0748 53.8315C77.0891 53.8315 77.1034 53.8286 77.1166 53.8231C77.1298 53.8175 77.1419 53.8094 77.1519 53.7992C77.162 53.7889 77.1699 53.7768 77.1753 53.7634C77.1806 53.7501 77.1833 53.7359 77.183 53.7215L77.1568 48.5632L77.1893 47.2815C77.1902 47.2336 77.2097 47.1879 77.2437 47.1542C77.2777 47.1205 77.3235 47.1014 77.3714 47.1009C77.8553 47.0944 78.3293 47.0927 78.7935 47.0977C79.0362 47.101 79.2085 47.2126 79.3085 47.4325C79.4298 47.6966 79.5576 47.9528 79.6936 48.1989L82.5854 53.7379C82.6011 53.7685 82.6252 53.7942 82.655 53.8122C82.6848 53.8301 82.7192 53.8396 82.7544 53.8397L87.2388 53.8249C87.246 53.8249 87.2531 53.824 87.2601 53.8224C87.2639 53.8215 87.2677 53.8204 87.2715 53.819C87.2738 53.8182 87.2762 53.8172 87.2785 53.8161C87.2813 53.8148 87.2841 53.8134 87.2868 53.8118C87.2892 53.8104 87.2916 53.8089 87.2939 53.8073C87.3053 53.7992 87.3149 53.7888 87.322 53.7766C87.3304 53.762 87.3349 53.7455 87.335 53.7286C87.3351 53.7118 87.3308 53.6952 87.3225 53.6805L84.1949 48.212L82.2659 44.869Z" fill="#FFBF43"/>
<path d="M82.2659 44.869C82.699 43.9056 83.2713 42.8912 83.9848 41.8244L86.7388 37.2143C86.7466 37.2012 86.7507 37.1862 86.7509 37.1709C86.7511 37.1557 86.7472 37.1406 86.7398 37.1273C86.7323 37.114 86.7214 37.1029 86.7083 37.0951C86.6952 37.0874 86.6802 37.0832 86.665 37.083L82.2297 37.0912C82.1385 37.0913 82.0492 37.1167 81.9718 37.1645C81.8944 37.2123 81.8321 37.2807 81.7918 37.362L78.8853 43.2229C78.8451 43.305 78.7826 43.374 78.7051 43.4219C78.6276 43.4699 78.5382 43.4947 78.4474 43.4937L77.2812 43.4855C77.2221 43.4855 77.1926 43.4559 77.1926 43.3985L77.1629 37.267C77.1624 37.2243 77.1453 37.1834 77.1149 37.1531C77.0846 37.1228 77.0436 37.1053 77.0005 37.1045C75.849 37.0815 74.6188 37.0897 73.3099 37.1275C73.2861 37.1283 73.2636 37.1382 73.2471 37.155C73.2306 37.1719 73.2213 37.1943 73.2213 37.2177L73.174 41.5899L73.1803 45.2769C73.1697 45.3165 73.1691 45.362 73.1785 45.4134L73.1805 45.4238L73.215 48.2744L73.1775 53.6788C73.1773 53.6984 73.181 53.7177 73.1883 53.7358C73.1956 53.754 73.2064 53.7704 73.2202 53.7843C73.2339 53.7982 73.2503 53.8093 73.2683 53.8168C73.2863 53.8243 73.3056 53.8282 73.3251 53.8282L77.0748 53.8315C77.0891 53.8315 77.1034 53.8286 77.1166 53.8231C77.1298 53.8175 77.1419 53.8094 77.1519 53.7992C77.162 53.7889 77.1699 53.7768 77.1753 53.7634C77.1806 53.7501 77.1833 53.7359 77.183 53.7215L77.1568 48.5632L77.1893 47.2815C77.1902 47.2336 77.2097 47.1879 77.2437 47.1542C77.2777 47.1205 77.3235 47.1014 77.3714 47.1009C77.8553 47.0944 78.3293 47.0927 78.7935 47.0977C79.0362 47.101 79.2085 47.2126 79.3085 47.4325C79.4298 47.6966 79.5576 47.9528 79.6936 48.1989L82.5854 53.7379C82.6011 53.7685 82.6252 53.7942 82.655 53.8122C82.6848 53.8301 82.7192 53.8396 82.7544 53.8397L87.2388 53.8249C87.246 53.8249 87.2531 53.824 87.2601 53.8224C87.2639 53.8215 87.2677 53.8204 87.2715 53.819C87.2738 53.8182 87.2762 53.8172 87.2785 53.8161C87.2813 53.8148 87.2841 53.8134 87.2868 53.8118C87.2892 53.8104 87.2916 53.8089 87.2939 53.8073C87.3053 53.7992 87.3149 53.7888 87.322 53.7766C87.3304 53.762 87.3349 53.7455 87.335 53.7286C87.3351 53.7118 87.3308 53.6952 87.3225 53.6805L84.1949 48.212L82.2659 44.869Z" fill="url(#paint11_linear_627_3049)"/>
<path d="M43.0259 17.7285H49.6919C49.7674 17.7285 49.7838 17.7597 49.7411 17.8221L45.857 23.4498C45.5322 22.2254 45.0992 21.0897 44.5563 20.0443C44.1577 19.2762 43.6738 18.5688 43.103 17.9205C43.0751 17.8877 43.0554 17.85 43.044 17.8073L43.0259 17.7285Z" fill="url(#paint12_linear_627_3049)"/>
<path d="M40.8069 30.7876L38.3974 34.2998C38.3662 34.3457 38.3646 34.3917 38.3958 34.4393L40.1853 37.1883L33.2224 37.1686C33.0813 37.167 33.0059 37.2375 32.9944 37.3787C32.8845 38.8032 32.4662 39.9997 31.7429 40.968C31.6723 41.0615 31.5903 41.1387 31.4968 41.1994L30.5619 39.6616C30.5404 39.626 30.51 39.5966 30.4738 39.5761C30.4376 39.5557 30.3968 39.545 30.3552 39.5451L25.7756 39.5483C25.7625 39.5483 25.75 39.5535 25.7408 39.5628C25.7315 39.572 25.7264 39.5845 25.7264 39.5976L25.7247 43.548C25.2884 43.5611 24.8505 43.5791 24.4125 43.6005C21.9554 43.7236 19.0603 43.3822 17.0674 41.7656C16.5409 41.3373 16.0751 40.7825 15.6699 40.0982C15.7076 39.8914 15.6929 39.7223 15.6289 39.591L25.3393 39.5763C25.4052 39.5764 25.4688 39.5513 25.517 39.5062C25.5651 39.4611 25.5942 39.3992 25.5984 39.3334C25.6066 39.2135 25.6083 39.097 25.605 38.9821C25.5973 38.6192 25.583 38.2563 25.5685 37.8909C25.5425 37.237 25.5163 36.575 25.5279 35.8917C25.5492 34.5131 25.5607 33.1591 25.5623 31.8298C25.5623 31.7969 25.5886 31.7264 25.6411 31.6164L29.4678 31.6706C29.506 31.6711 29.5436 31.6612 29.5768 31.6418C29.6101 31.6225 29.6376 31.5944 29.6564 31.5606L30.2469 30.507L33.4204 24.9925L44.794 24.9909L40.8069 30.7876Z" fill="url(#paint13_linear_627_3049)"/>
<path d="M44.0201 43.0014L51.2127 53.9236C51.2165 53.9295 51.2186 53.9363 51.2189 53.9434C51.2192 53.9505 51.2176 53.9574 51.2142 53.9636C51.2109 53.9698 51.2059 53.975 51.1999 53.9787C51.1966 53.9806 51.1932 53.9821 51.1896 53.983C51.1864 53.9838 51.1832 53.9843 51.1799 53.9843L39.5012 53.9925C39.4472 53.9925 39.3941 53.9787 39.347 53.9522C39.2998 53.9258 39.2603 53.8877 39.2322 53.8415L36.1583 48.8309C36.7636 48.5929 37.3705 48.3271 37.9823 48.0333C39.4963 47.3079 40.8643 46.3855 42.0862 45.2662C42.8211 44.5851 43.4657 43.8302 44.0201 43.0014Z" fill="url(#paint14_linear_627_3049)"/>
<path d="M25.7178 53.9056L25.7211 50.8546C22.4275 51.0401 19.1666 50.7988 15.9386 50.1341C15.8847 50.1233 15.8346 50.1003 15.7926 50.0668C15.7385 50.0258 15.7007 50.0176 15.6778 50.0422L15.6794 53.904C15.6794 53.9581 15.7073 53.986 15.7631 53.986H25.6374C25.6916 53.986 25.7178 53.9598 25.7178 53.9056Z" fill="url(#paint15_linear_627_3049)"/>
</g>
<defs>
<linearGradient id="paint0_linear_627_3049" x1="20.7213" y1="-0.0493767" x2="20.7213" y2="39.591" gradientUnits="userSpaceOnUse">
<stop stop-color="#00B4FA"/>
<stop offset="0.510417" stop-color="#007CD2"/>
<stop offset="1" stop-color="#005BBB"/>
</linearGradient>
<linearGradient id="paint1_linear_627_3049" x1="20.7213" y1="-0.0493767" x2="20.7213" y2="39.591" gradientUnits="userSpaceOnUse">
<stop stop-color="#00B4FA"/>
<stop offset="0.510417" stop-color="#007CD2"/>
<stop offset="1" stop-color="#005BBB"/>
</linearGradient>
<linearGradient id="paint2_linear_627_3049" x1="23.452" y1="10.9756" x2="23.452" y2="50.9148" gradientUnits="userSpaceOnUse">
<stop stop-color="#FFD664"/>
<stop offset="0.260417" stop-color="#FFBF43"/>
<stop offset="0.489583" stop-color="#FFAD25"/>
<stop offset="0.744792" stop-color="#FF9600"/>
<stop offset="1" stop-color="#FF8800"/>
</linearGradient>
<linearGradient id="paint3_linear_627_3049" x1="23.452" y1="10.9756" x2="23.452" y2="50.9148" gradientUnits="userSpaceOnUse">
<stop stop-color="#FFD664"/>
<stop offset="0.260417" stop-color="#FFBF43"/>
<stop offset="0.489583" stop-color="#FFAD25"/>
<stop offset="0.744792" stop-color="#FF9600"/>
<stop offset="1" stop-color="#FF8800"/>
</linearGradient>
<linearGradient id="paint4_linear_627_3049" x1="23.452" y1="10.9756" x2="23.452" y2="50.9148" gradientUnits="userSpaceOnUse">
<stop stop-color="#FFD664"/>
<stop offset="0.260417" stop-color="#FFBF43"/>
<stop offset="0.489583" stop-color="#FFAD25"/>
<stop offset="0.744792" stop-color="#FF9600"/>
<stop offset="1" stop-color="#FF8800"/>
</linearGradient>
<linearGradient id="paint5_linear_627_3049" x1="23.452" y1="10.9756" x2="23.452" y2="50.9148" gradientUnits="userSpaceOnUse">
<stop stop-color="#FFD664"/>
<stop offset="0.260417" stop-color="#FFBF43"/>
<stop offset="0.489583" stop-color="#FFAD25"/>
<stop offset="0.744792" stop-color="#FF9600"/>
<stop offset="1" stop-color="#FF8800"/>
</linearGradient>
<linearGradient id="paint6_linear_627_3049" x1="23.452" y1="10.9756" x2="23.452" y2="50.9148" gradientUnits="userSpaceOnUse">
<stop stop-color="#FFD664"/>
<stop offset="0.260417" stop-color="#FFBF43"/>
<stop offset="0.489583" stop-color="#FFAD25"/>
<stop offset="0.744792" stop-color="#FF9600"/>
<stop offset="1" stop-color="#FF8800"/>
</linearGradient>
<linearGradient id="paint7_linear_627_3049" x1="65.6782" y1="36.9155" x2="65.6782" y2="53.6378" gradientUnits="userSpaceOnUse">
<stop stop-color="#FFD664"/>
<stop offset="0.260417" stop-color="#FFBF43"/>
<stop offset="0.489583" stop-color="#FFAD25"/>
<stop offset="0.744792" stop-color="#FF9600"/>
<stop offset="1" stop-color="#FF8800"/>
</linearGradient>
<linearGradient id="paint8_linear_627_3049" x1="100.726" y1="36.9404" x2="100.726" y2="54.0002" gradientUnits="userSpaceOnUse">
<stop stop-color="#FFD664"/>
<stop offset="0.260417" stop-color="#FFBF43"/>
<stop offset="0.489583" stop-color="#FFAD25"/>
<stop offset="0.744792" stop-color="#FF9600"/>
<stop offset="1" stop-color="#FF8800"/>
</linearGradient>
<linearGradient id="paint9_linear_627_3049" x1="115.411" y1="37.1138" x2="115.411" y2="53.8311" gradientUnits="userSpaceOnUse">
<stop stop-color="#FFD664"/>
<stop offset="0.260417" stop-color="#FFBF43"/>
<stop offset="0.489583" stop-color="#FFAD25"/>
<stop offset="0.744792" stop-color="#FF9600"/>
<stop offset="1" stop-color="#FF8800"/>
</linearGradient>
<linearGradient id="paint10_linear_627_3049" x1="131.104" y1="37.0811" x2="131.104" y2="53.8247" gradientUnits="userSpaceOnUse">
<stop stop-color="#FFD664"/>
<stop offset="0.260417" stop-color="#FFBF43"/>
<stop offset="0.489583" stop-color="#FFAD25"/>
<stop offset="0.744792" stop-color="#FF9600"/>
<stop offset="1" stop-color="#FF8800"/>
</linearGradient>
<linearGradient id="paint11_linear_627_3049" x1="80.2534" y1="37.083" x2="80.2534" y2="53.8397" gradientUnits="userSpaceOnUse">
<stop stop-color="#FFD664"/>
<stop offset="0.260417" stop-color="#FFBF43"/>
<stop offset="0.489583" stop-color="#FFAD25"/>
<stop offset="0.744792" stop-color="#FF9600"/>
<stop offset="1" stop-color="#FF8800"/>
</linearGradient>
<linearGradient id="paint12_linear_627_3049" x1="33.4239" y1="17.7285" x2="33.4239" y2="53.9925" gradientUnits="userSpaceOnUse">
<stop stop-color="#A3A3A3"/>
<stop offset="0.510417" stop-color="#818181"/>
<stop offset="1" stop-color="#5C5C5C"/>
</linearGradient>
<linearGradient id="paint13_linear_627_3049" x1="33.4239" y1="17.7285" x2="33.4239" y2="53.9925" gradientUnits="userSpaceOnUse">
<stop stop-color="#A3A3A3"/>
<stop offset="0.510417" stop-color="#818181"/>
<stop offset="1" stop-color="#5C5C5C"/>
</linearGradient>
<linearGradient id="paint14_linear_627_3049" x1="33.4239" y1="17.7285" x2="33.4239" y2="53.9925" gradientUnits="userSpaceOnUse">
<stop stop-color="#A3A3A3"/>
<stop offset="0.510417" stop-color="#818181"/>
<stop offset="1" stop-color="#5C5C5C"/>
</linearGradient>
<linearGradient id="paint15_linear_627_3049" x1="33.4239" y1="17.7285" x2="33.4239" y2="53.9925" gradientUnits="userSpaceOnUse">
<stop stop-color="#A3A3A3"/>
<stop offset="0.510417" stop-color="#818181"/>
<stop offset="1" stop-color="#5C5C5C"/>
</linearGradient>
</defs>
</svg>
