<svg width="122" height="66" viewBox="0 0 122 66" fill="none" xmlns="http://www.w3.org/2000/svg">
<g style="mix-blend-mode:luminosity" clip-path="url(#clip0_627_3344)">
<path d="M51.003 32.4301V25.5401L57.183 26.8201V31.6501C57.183 33.6601 56.883 35.1501 56.253 36.1001L50.993 32.4301H51.003ZM51.003 16.1001H34.313V32.9501H50.643L55.863 36.6001L55.843 36.6201C54.903 37.5201 53.133 37.9501 50.583 37.9501H34.733C32.183 37.9501 30.433 37.5001 29.473 36.6201C28.573 35.7201 28.123 34.0701 28.123 31.6601V17.6401C28.123 15.2401 28.573 13.5901 29.473 12.7001C30.413 11.8001 32.173 11.3501 34.733 11.3501H50.583C51.843 11.3501 52.913 11.4601 53.783 11.6801L52.833 13.1701L51.003 16.0901V16.1001Z" fill="#EC6608"/>
<path d="M69.2332 27.29H80.9232L75.1232 16.43L69.2332 27.29ZM57.2832 37.95L72.3432 11.25H78.3332L93.6532 37.95H86.6732L83.4632 32.1H66.5432L63.4332 37.95H57.2832Z" fill="#EC6608"/>
<path d="M121.603 58.4401V47.6301H112.363C111.503 47.6301 110.883 47.7901 110.473 48.1201C110.093 48.4501 109.902 48.9901 109.902 49.7301V52.2701C109.902 53.0001 110.093 53.5201 110.473 53.8601C110.863 54.2001 111.493 54.3601 112.363 54.3601H113.772L108.783 58.4501H112.382L116.743 54.3601H119.132V58.4501H121.603V58.4401ZM113.473 49.4901H119.132V52.5101H113.473C113.043 52.5101 112.743 52.4501 112.573 52.3201C112.423 52.1901 112.342 51.9601 112.342 51.6501V50.3501C112.342 50.0301 112.423 49.8101 112.573 49.6801C112.743 49.5501 113.043 49.4901 113.473 49.4901ZM105.173 58.4401V47.6301H103.452L95.8425 54.0001C95.5225 54.2401 95.3025 54.4401 95.1525 54.5801C94.9925 54.7401 94.8125 54.9401 94.6125 55.1701C94.6225 54.9501 94.6425 54.7201 94.6625 54.4601C94.6725 54.2101 94.6925 54.0201 94.7025 53.8901C94.7125 53.7201 94.7225 53.5301 94.7225 53.3001V47.6201H92.4625V58.4301H94.1825L102.122 51.7401C102.353 51.5401 102.512 51.3901 102.622 51.2801C102.792 51.1101 102.923 50.9701 103.022 50.8601C103.022 50.9801 103.002 51.1501 102.982 51.3501C102.963 51.5601 102.952 51.7101 102.942 51.8101C102.932 52.0201 102.923 52.2701 102.923 52.5801V58.4301H105.183L105.173 58.4401ZM80.0325 49.5601H86.8225V51.8601H83.1125V53.9801H86.8225V56.4101H80.0325V54.0801L77.5225 54.6001V55.8801C77.5225 56.8601 77.7025 57.5401 78.0625 57.9001C78.4525 58.2601 79.1625 58.4401 80.2025 58.4401H87.0925C87.6025 58.4401 88.1025 58.2901 88.6025 57.9801C89.0925 57.6701 89.3425 57.1501 89.3425 56.4101V54.4201C89.3425 53.9601 89.2425 53.6301 89.0425 53.4401C88.8425 53.2401 88.5325 53.0401 88.1325 52.8201C88.4725 52.6801 88.7525 52.4901 88.9925 52.2501C89.2325 52.0101 89.3525 51.7301 89.3525 51.4001V50.1801C89.3525 49.2101 89.1725 48.5401 88.8025 48.1701C88.4225 47.8101 87.7125 47.6301 86.6625 47.6301H80.2125C79.1725 47.6301 78.4625 47.8101 78.0725 48.1701C77.7125 48.5301 77.5325 49.2001 77.5325 50.1801V51.2101L80.0425 51.6101V49.5601H80.0325ZM60.4425 58.4401L66.5425 47.6301H68.9725L75.1725 58.4401H72.3425L71.0425 56.0701H64.1925L62.9325 58.4401H60.4325H60.4425ZM65.2825 54.1201H70.0125L67.6725 49.7201L65.2825 54.1201ZM46.4625 47.6201V56.4001H53.6325V47.6201H56.1425V56.4001H58.4725V60.0501H56.1425V58.4401H46.6325C45.5825 58.4401 44.8825 58.2601 44.5225 57.9001C44.1425 57.5401 43.9525 56.8701 43.9525 55.8901V47.6401H46.4625V47.6201ZM29.7825 58.4301V47.6201H40.8425V49.4601H32.2925V51.8701H37.2825V53.7101H32.2925V56.3901H40.9525V58.4201H29.7825V58.4301ZM17.1025 58.4301V49.6501H24.2725V58.4301H26.7925V47.6201H14.6025V58.4301H17.1125H17.1025ZM9.3525 49.5501H2.5725V56.4001H9.3625V54.0701L11.8725 54.5901V55.8701C11.8725 56.8501 11.6925 57.5201 11.3225 57.8901C10.9325 58.2501 10.2225 58.4301 9.1825 58.4301H2.7525C1.7125 58.4301 1.0025 58.2501 0.6125 57.8901C0.2425 57.5201 0.0625 56.8501 0.0625 55.8801V50.1801C0.0625 49.2101 0.2425 48.5401 0.6125 48.1701C0.9925 47.8001 1.7125 47.6201 2.7525 47.6201H9.2025C10.2425 47.6201 10.9525 47.8001 11.3425 48.1701C11.7125 48.5301 11.8925 49.2001 11.8925 50.1801V51.2101L9.3825 51.6101V49.5501H9.3525Z" fill="#EC6608"/>
<path d="M64.4624 17.2801L69.1524 11.1901L68.6724 10.8301L63.9824 16.9201L64.4624 17.2801Z" fill="#EC6608"/>
<path fill-rule="evenodd" clip-rule="evenodd" d="M78.9722 1.61994L79.9622 1.27994L80.6322 0.689941L89.2922 7.79994L91.1222 7.46994L91.9322 7.69994C91.9322 7.69994 83.7822 10.5599 82.5522 10.9899C81.3222 11.4199 79.2222 11.3099 78.3822 8.92994C77.9422 7.67994 77.9922 6.67994 78.2022 5.84994L78.1822 5.86994L78.9622 1.61994H78.9722ZM51.0022 24.3199L56.9322 16.8199L62.3722 8.30994C65.9222 2.52994 67.9022 5.45994 72.5522 3.84994L78.4022 1.81994L77.5422 6.48994C75.6422 8.21994 74.0022 8.99994 70.1822 11.4499C69.3022 12.0199 69.2222 9.66994 66.6922 12.2899L61.5322 17.7299L55.2922 25.3299V27.0899H54.5222L50.9922 26.1899V24.3199H51.0022Z" fill="#EC6608"/>
<path d="M57.0224 27.7201L65.3224 16.9401C65.4324 16.8001 65.4024 16.6101 65.2724 16.5001L64.6024 15.9801C64.4724 15.8701 64.2724 15.9001 64.1624 16.0301L55.4824 27.3101L57.0324 27.7101L57.0224 27.7201Z" fill="#EC6608"/>
<path d="M68.4727 11.43C68.7527 11.68 69.1727 11.66 69.4227 11.38C69.6727 11.1 69.6527 10.68 69.3727 10.43C69.0927 10.18 68.6727 10.2 68.4227 10.48C68.1727 10.76 68.1927 11.18 68.4727 11.43Z" fill="#EC6608"/>
<path d="M79.2923 2.1C79.7723 2.53 80.5123 2.49 80.9423 2.01C81.3723 1.53 81.3323 0.790001 80.8523 0.360001C80.3723 -0.0699986 79.6323 -0.0299986 79.2023 0.450001C78.7723 0.930001 78.8123 1.67 79.2923 2.1Z" fill="#EC6608"/>
<path d="M121.732 65.3599V61.4499H121.113L118.363 63.7599C118.253 63.8499 118.163 63.9199 118.113 63.9699C118.053 64.0299 117.993 64.0999 117.912 64.1799C117.912 64.0999 117.923 64.0199 117.933 63.9199C117.933 63.8299 117.942 63.7599 117.942 63.7199C117.942 63.6599 117.942 63.5899 117.942 63.5099V61.4599H117.122V65.3699H117.743L120.613 62.9499C120.693 62.8799 120.753 62.8199 120.793 62.7799C120.853 62.7199 120.903 62.6699 120.933 62.6299C120.933 62.6699 120.932 62.7299 120.912 62.8099C120.912 62.8799 120.903 62.9399 120.893 62.9799C120.893 63.0499 120.893 63.1499 120.893 63.2599V65.3699H121.713L121.732 65.3599ZM114.832 62.1499V65.3599H113.923V62.1499H112.122V61.4499H116.632V62.1499H114.832ZM110.582 62.1499H108.122V64.6299H110.582V63.7899L111.493 63.9799V64.4399C111.493 64.7899 111.423 65.0399 111.293 65.1699C111.153 65.2999 110.893 65.3699 110.522 65.3699H108.192C107.812 65.3699 107.562 65.2999 107.423 65.1699C107.293 65.0399 107.223 64.7899 107.223 64.4399V62.3799C107.223 62.0299 107.293 61.7799 107.423 61.6499C107.562 61.5199 107.822 61.4499 108.192 61.4499H110.522C110.902 61.4499 111.153 61.5199 111.293 61.6499C111.423 61.7799 111.493 62.0199 111.493 62.3799V62.7499L110.582 62.8999V62.1599V62.1499ZM100.982 65.3599L103.192 61.4499H104.073L106.312 65.3599H105.293L104.823 64.4999H102.342L101.893 65.3599H100.993H100.982ZM102.732 63.7999H104.442L103.592 62.2099L102.732 63.7999ZM96.4725 61.4499V63.4899H99.0625V61.4499H99.9725V65.3599H99.0625V64.1999H96.5325C96.1525 64.1999 95.9025 64.1299 95.7625 63.9999C95.6225 63.8699 95.5525 63.6299 95.5525 63.2699V61.4399H96.4625L96.4725 61.4499ZM90.8125 65.3599V62.1799H93.4025V65.3599H94.3125V61.4499H89.9025V65.3599H90.8125ZM83.7225 65.3599L85.9325 61.4499H86.8125L89.0525 65.3599H88.0325L87.5625 64.4999H85.0825L84.6325 65.3599H83.7325H83.7225ZM85.4725 63.7999H87.1825L86.3325 62.2099L85.4725 63.7999ZM79.4925 62.1499H81.9525V62.9799H80.6125V63.7499H81.9525V64.6299H79.4925V63.7899L78.5825 63.9799V64.4399C78.5825 64.7999 78.6525 65.0399 78.7825 65.1699C78.9225 65.2999 79.1825 65.3699 79.5525 65.3699H82.0425C82.2225 65.3699 82.4125 65.3099 82.5825 65.1999C82.7625 65.0899 82.8525 64.8999 82.8525 64.6299V63.9099C82.8525 63.7399 82.8125 63.6299 82.7425 63.5599C82.6725 63.4899 82.5625 63.4199 82.4125 63.3399C82.5325 63.2899 82.6425 63.2199 82.7225 63.1299C82.8125 63.0399 82.8525 62.9399 82.8525 62.8199V62.3799C82.8525 62.0299 82.7825 61.7799 82.6525 61.6499C82.5125 61.5199 82.2525 61.4499 81.8825 61.4499H79.5525C79.1725 61.4499 78.9225 61.5199 78.7825 61.6499C78.6525 61.7799 78.5825 62.0199 78.5825 62.3799V62.7499L79.4925 62.8899V62.1499ZM71.1325 65.3599V61.4499H70.5125L67.7625 63.7599C67.6525 63.8499 67.5625 63.9199 67.5125 63.9699C67.4525 64.0299 67.3925 64.0999 67.3125 64.1799C67.3125 64.0999 67.3225 64.0199 67.3325 63.9199C67.3325 63.8299 67.3425 63.7599 67.3425 63.7199C67.3425 63.6599 67.3425 63.5899 67.3425 63.5099V61.4599H66.5225V65.3699H67.1425L70.0125 62.9499C70.0925 62.8799 70.1525 62.8199 70.1925 62.7799C70.2525 62.7199 70.3025 62.6699 70.3325 62.6299C70.3325 62.6699 70.3325 62.7299 70.3125 62.8099C70.3125 62.8799 70.3025 62.9399 70.2925 62.9799C70.2925 63.0499 70.2925 63.1499 70.2925 63.2599V65.3699H71.1125L71.1325 65.3599ZM54.1125 65.3599L56.3225 61.4499H57.2025L59.4425 65.3599H58.4225L57.9525 64.4999H55.4725L55.0225 65.3599H54.1225H54.1125ZM55.8625 63.7999H57.5725L56.7225 62.2099L55.8625 63.7999ZM48.8525 65.3599V61.4499H49.7725V63.0799L51.9425 61.4499H53.2625L50.6725 63.2899L53.5825 65.3599H52.1225L49.7825 63.6399V65.3599H48.8625H48.8525ZM47.8825 65.3599V61.4499H47.2625L44.5125 63.7599C44.4025 63.8499 44.3125 63.9199 44.2625 63.9699C44.2025 64.0299 44.1425 64.0999 44.0625 64.1799C44.0625 64.0999 44.0725 64.0199 44.0825 63.9199C44.0825 63.8299 44.0925 63.7599 44.0925 63.7199C44.0925 63.6599 44.0925 63.5899 44.0925 63.5099V61.4599H43.2725V65.3699H43.8925L46.7625 62.9499C46.8425 62.8799 46.9025 62.8199 46.9425 62.7799C47.0025 62.7199 47.0525 62.6699 47.0825 62.6299C47.0825 62.6699 47.0825 62.7299 47.0625 62.8099C47.0625 62.8799 47.0525 62.9399 47.0425 62.9799C47.0425 63.0499 47.0425 63.1499 47.0425 63.2599V65.3699H47.8625L47.8825 65.3599ZM37.6025 65.3599V61.4499H38.5125V62.9699H41.3525V61.4499H42.2725V65.3599H41.3525V63.6799H38.5125V65.3599H37.6025ZM31.7125 65.3599L33.5725 63.3499L31.6825 61.4499H32.8825L34.1325 62.7799L35.3225 61.4499H36.3725L34.6625 63.2499L36.7725 65.3599H35.5325L34.1025 63.8399L32.7825 65.3599H31.7125ZM26.8725 65.3599V61.4499H30.8725V62.1199H27.7825V62.9899H29.5925V63.6599H27.7825V64.6299H30.9125V65.3599H26.8725ZM24.6025 62.1499V65.3599H23.6925V62.1499H21.8925V61.4499H26.4025V62.1499H24.6025ZM16.8525 61.4499V64.6299H19.4425V61.4499H20.3525V64.6299H21.1925V65.9499H20.3525V65.3699H16.9125C16.5325 65.3699 16.2825 65.2999 16.1525 65.1699C16.0125 65.0399 15.9425 64.7999 15.9425 64.4399V61.4499H16.8525ZM10.8225 65.3599V61.4499H14.8225V62.1199H11.7325V62.9899H13.5425V63.6599H11.7325V64.6299H14.8625V65.3599H10.8225ZM6.2325 65.3599V62.1799H8.8225V65.3599H9.7325V61.4499H5.3225V65.3599H6.2325ZM3.4325 62.1499H0.9725V64.6299H3.4225V63.7899L4.3325 63.9799V64.4399C4.3325 64.7899 4.2625 65.0399 4.1325 65.1699C3.9925 65.2999 3.7325 65.3699 3.3625 65.3699H1.0325C0.6525 65.3699 0.4025 65.2999 0.2625 65.1699C0.1325 65.0399 0.0625 64.7899 0.0625 64.4399V62.3799C0.0625 62.0299 0.1325 61.7799 0.2625 61.6499C0.4025 61.5199 0.6625 61.4499 1.0325 61.4499H3.3625C3.7425 61.4499 3.9925 61.5199 4.1325 61.6499C4.2625 61.7799 4.3325 62.0199 4.3325 62.3799V62.7499L3.4225 62.8999V62.1599L3.4325 62.1499Z" fill="#EC6608"/>
</g>
<defs>
<clipPath id="clip0_627_3344">
<rect width="121.67" height="65.88" fill="white" transform="translate(0.0625 0.0600586)"/>
</clipPath>
</defs>
</svg>
