<svg width="640" height="463" viewBox="0 0 640 463" fill="none" xmlns="http://www.w3.org/2000/svg">
<g filter="url(#filter0_dddd_534_6997)">
<path d="M87.2969 184.612C102.679 156.062 121.641 129.849 143.562 106.723C167.212 81.7645 191.319 64.8969 222.421 53.9728C243.48 46.577 265.445 42.3462 287.508 41.5648C328.533 40.1046 362.375 50.3972 396.083 76.3735C432.218 104.22 465.926 135.746 501.139 164.99C504.816 168.044 508.501 171.075 512.215 174.075C573.625 223.762 603.454 312.023 561.927 333.595C469 424 51.3197 483.5 51.3197 281.95C58.8162 247.496 71.0608 214.756 87.2969 184.612Z" fill="white"/>
</g>
<path d="M586.803 278.875C585.074 279.626 580.845 279.531 580.837 279.531C580.789 279.531 581.749 276.771 581.829 276.605C582.757 274.668 585.692 271.474 588.08 271.798C589.802 272.028 590.762 273.743 590.373 275.364C589.976 277.017 588.279 278.242 586.803 278.882V278.875Z" fill="#1B1743"/>
<path d="M585.343 291.091C583.55 291.352 579.774 290.26 579.472 290.174C578.877 292.277 578.092 294.396 577.179 296.491C576.664 297.693 576.1 298.879 575.521 300.065C575.862 299.559 576.18 299.116 576.227 299.06C577.64 297.44 581.313 295.131 583.534 296.072C585.137 296.752 585.597 298.657 584.796 300.112C583.978 301.598 582.011 302.334 580.424 302.563C578.806 302.8 575.569 301.93 574.72 301.693C574.49 302.144 574.276 302.603 574.046 303.053C572.951 305.22 571.848 307.386 570.841 309.537C570.484 310.296 570.158 311.055 569.833 311.814C570.142 311.371 570.404 310.991 570.444 310.944C571.856 309.323 575.529 307.014 577.751 307.955C579.345 308.635 579.813 310.541 579.012 311.995C578.195 313.482 576.227 314.217 574.641 314.446C573.102 314.668 570.103 313.901 569.087 313.616C568.778 314.407 568.461 315.19 568.199 315.972C568.032 316.51 567.826 317.008 567.691 317.554C567.54 318.091 567.39 318.621 567.247 319.151C567.001 320.179 566.739 321.238 566.525 322.242C566.366 322.938 566.231 323.61 566.096 324.282C566.445 323.523 567.152 322.052 567.231 321.934C568.373 320.115 571.658 317.277 573.998 317.87C575.68 318.297 576.434 320.115 575.862 321.673C575.275 323.262 573.451 324.29 571.912 324.757C570.222 325.27 566.469 324.804 566.001 324.741C565.779 325.856 565.565 326.947 565.39 327.974C564.986 330.244 564.684 332.283 564.454 334.007H562.875C563.153 332.22 563.51 330.101 563.986 327.714C564.208 326.583 564.47 325.373 564.748 324.132C564.462 324.021 562.867 323.373 561.455 322.59C560.218 323.918 557.06 325.484 556.648 325.682C557.076 326.733 557.504 327.761 557.925 328.718C558.798 330.726 559.631 332.497 560.361 334.015H558.655C558.028 332.623 557.33 331.034 556.608 329.271C556.164 328.204 555.719 327.049 555.267 325.863C554.815 325.958 551.102 326.709 549.373 326.322C547.802 325.966 545.906 325.089 545.2 323.539C544.509 322.029 545.128 320.163 546.771 319.609C549.055 318.842 552.546 321.428 553.823 323.159C553.903 323.262 554.593 324.456 555.021 325.215C554.839 324.733 554.656 324.258 554.474 323.76C554.109 322.772 553.776 321.768 553.411 320.7C553.252 320.179 553.093 319.649 552.935 319.111C552.76 318.582 552.649 318.004 552.506 317.451C552.197 316.154 551.943 314.818 551.721 313.466C550.848 313.782 547.738 314.858 546.128 314.747C544.525 314.636 542.51 314.051 541.582 312.628C540.67 311.236 540.995 309.299 542.542 308.509C544.684 307.41 548.524 309.442 550.047 310.952C550.142 311.047 551.118 312.256 551.634 312.928C551.507 312.114 551.372 311.308 551.269 310.485C550.975 308.105 550.745 305.686 550.507 303.267C550.436 302.523 550.356 301.788 550.277 301.053C549.968 301.171 546.302 302.531 544.494 302.405C542.891 302.294 540.876 301.709 539.948 300.286C539.035 298.894 539.361 296.957 540.908 296.167C543.05 295.068 546.89 297.092 548.413 298.61C548.524 298.72 549.928 300.468 550.261 300.926C550.087 299.306 549.904 297.685 549.65 296.103C549.309 293.913 548.857 291.786 548.262 289.762C548.119 289.818 544.295 291.257 542.447 291.122C540.844 291.012 538.829 290.427 537.901 289.003C536.989 287.612 537.314 285.675 538.861 284.884C541.003 283.785 544.843 285.809 546.366 287.327C546.485 287.446 547.984 289.32 548.238 289.675C548.199 289.557 548.183 289.422 548.143 289.304C547.485 287.145 546.572 285.137 545.62 283.303C545.073 282.235 544.486 281.239 543.899 280.29C543.216 280.63 540.067 282.156 538.393 282.22C536.79 282.283 534.72 281.919 533.641 280.607C532.585 279.326 532.689 277.365 534.14 276.408C536.148 275.08 540.186 276.677 541.876 278.013C541.971 278.085 542.812 278.93 543.423 279.547C543.153 279.12 542.875 278.677 542.605 278.274C541.598 276.764 540.582 275.436 539.67 274.274C539.146 273.617 538.663 273.032 538.202 272.487C537.353 272.471 533.942 272.368 532.451 271.672C530.999 270.992 529.333 269.719 528.976 268.059C528.635 266.43 529.634 264.746 531.364 264.556C533.76 264.296 536.608 267.569 537.48 269.53C537.56 269.696 538.432 272.487 538.393 272.487H538.345C538.797 273.001 539.281 273.554 539.789 274.171C540.725 275.317 541.772 276.622 542.82 278.124C543.867 279.618 544.962 281.271 545.961 283.113C546.961 284.963 547.921 286.956 548.643 289.138C548.651 289.161 548.659 289.193 548.667 289.217C548.651 288.513 548.682 286.544 548.706 286.394C548.984 284.267 550.769 280.322 553.141 279.879C554.847 279.563 556.299 280.899 556.433 282.552C556.568 284.244 555.347 285.936 554.141 287.003C552.792 288.205 549.032 289.375 548.738 289.462C549.404 291.549 549.92 293.739 550.325 295.985C550.555 297.274 550.745 298.57 550.92 299.883C550.928 299.274 550.944 298.728 550.951 298.657C551.229 296.53 553.014 292.585 555.386 292.142C557.092 291.826 558.544 293.162 558.679 294.815C558.821 296.507 557.592 298.199 556.386 299.266C555.172 300.349 551.991 301.409 551.142 301.677C551.205 302.183 551.269 302.682 551.332 303.18C551.618 305.591 551.896 307.995 552.245 310.351C552.364 311.181 552.514 311.995 552.665 312.802C552.673 312.264 552.689 311.806 552.697 311.735C552.974 309.608 554.759 305.662 557.132 305.22C558.837 304.903 560.289 306.24 560.424 307.892C560.567 309.584 559.329 311.276 558.131 312.343C556.973 313.379 554.045 314.383 553.038 314.707C553.212 315.538 553.387 316.368 553.593 317.158C553.744 317.696 553.855 318.226 554.045 318.763C554.22 319.293 554.387 319.823 554.553 320.345C554.918 321.333 555.283 322.361 555.664 323.318C555.918 323.99 556.18 324.622 556.433 325.255C556.307 324.432 556.084 322.812 556.076 322.677C556.045 321.254 556.552 318.937 557.56 317.309C557.56 317.095 557.56 316.89 557.6 316.676C557.861 315.039 559.409 313.822 561.09 314.265C563.423 314.881 564.898 318.961 565.01 321.096C565.01 321.222 564.93 322.598 564.867 323.468C564.986 322.962 565.089 322.472 565.216 321.95C565.462 320.922 565.731 319.902 566.025 318.811C566.184 318.289 566.342 317.759 566.509 317.222C566.66 316.692 566.882 316.146 567.072 315.601C567.532 314.344 568.064 313.094 568.619 311.845C567.715 311.632 564.526 310.817 563.248 309.837C561.971 308.864 560.622 307.267 560.63 305.567C560.646 303.907 561.987 302.468 563.708 302.658C566.104 302.919 568.183 306.722 568.619 308.825C568.643 308.959 568.786 310.501 568.849 311.347C569.19 310.604 569.532 309.853 569.904 309.11C570.975 306.959 572.126 304.816 573.268 302.674C573.617 302.017 573.958 301.361 574.3 300.705C573.974 300.634 570.166 299.748 568.73 298.649C567.453 297.677 566.104 296.08 566.112 294.38C566.128 292.719 567.469 291.28 569.19 291.47C571.586 291.731 573.665 295.534 574.101 297.637C574.133 297.795 574.331 300.017 574.355 300.578C575.109 299.132 575.847 297.677 576.521 296.222C577.449 294.214 578.243 292.19 578.877 290.166C578.726 290.134 574.744 289.233 573.276 288.102C571.999 287.13 570.65 285.532 570.658 283.833C570.666 282.172 572.015 280.733 573.736 280.923C576.132 281.184 578.211 284.987 578.647 287.09C578.679 287.256 578.893 289.644 578.901 290.079C578.941 289.96 578.988 289.841 579.028 289.715C579.671 287.549 580.02 285.374 580.25 283.319C580.385 282.125 580.448 280.978 580.48 279.863C579.718 279.769 576.251 279.31 574.823 278.448C573.451 277.618 571.927 276.179 571.753 274.495C571.578 272.842 572.761 271.269 574.498 271.261C576.91 271.261 579.393 274.811 580.059 276.851C580.099 276.962 580.337 278.132 580.504 278.986C580.504 278.48 580.527 277.958 580.527 277.476C580.527 275.657 580.408 273.997 580.297 272.526C580.226 271.688 580.147 270.937 580.059 270.225C579.361 269.751 576.577 267.782 575.72 266.383C574.887 265.015 574.196 263.038 574.823 261.465C575.434 259.923 577.211 259.061 578.75 259.86C580.892 260.967 581.456 265.26 581.099 267.379C581.067 267.561 580.258 270.368 580.226 270.344L580.186 270.312C580.281 270.992 580.377 271.72 580.456 272.51C580.607 273.981 580.757 275.649 580.797 277.476C580.845 279.294 580.845 281.279 580.654 283.366C580.464 285.461 580.162 287.651 579.559 289.865C579.559 289.889 579.544 289.913 579.536 289.944C579.916 289.351 581.035 287.723 581.13 287.612C582.535 285.991 586.216 283.682 588.437 284.615C590.032 285.295 590.508 287.201 589.698 288.655C588.881 290.142 586.914 290.877 585.327 291.106L585.343 291.091Z" fill="#1B1743"/>
<path d="M544.011 279.799C544.011 279.799 543.241 277 543.217 276.811C542.924 274.684 543.598 270.406 545.772 269.363C547.335 268.612 549.08 269.513 549.652 271.078C550.231 272.676 549.493 274.629 548.62 275.973C547.597 277.554 544.011 279.799 544.011 279.799Z" fill="#1B1743"/>
<path d="M93.7308 278.875C92.0013 279.626 87.7728 279.531 87.7649 279.531C87.7173 279.531 88.6772 276.771 88.7565 276.605C89.6847 274.668 92.6201 271.474 95.0081 271.798C96.7297 272.028 97.6896 273.743 97.3008 275.364C96.9042 277.017 95.2064 278.242 93.7308 278.882V278.875Z" fill="#1B1743"/>
<path d="M92.2708 291.091C90.4779 291.352 86.7015 290.26 86.4001 290.174C85.8051 292.277 85.0197 294.396 84.1073 296.491C83.5917 297.693 83.0284 298.879 82.4492 300.065C82.7904 299.559 83.1077 299.116 83.1553 299.06C84.5675 297.44 88.2406 295.131 90.462 296.072C92.0645 296.752 92.5247 298.657 91.7234 300.112C90.9063 301.598 88.9388 302.334 87.3521 302.563C85.7337 302.8 82.4968 301.93 81.6479 301.693C81.4258 302.144 81.2037 302.603 80.9736 303.053C79.8788 305.22 78.776 307.386 77.7685 309.537C77.4115 310.296 77.0862 311.055 76.7609 311.814C77.0703 311.371 77.3321 310.991 77.3718 310.944C78.7839 309.323 82.4571 307.014 84.6785 307.955C86.2731 308.635 86.7412 310.541 85.94 311.995C85.1228 313.482 83.1553 314.217 81.5686 314.446C80.0295 314.668 77.0307 313.901 76.0152 313.616C75.7058 314.407 75.3885 315.19 75.1266 315.972C74.96 316.51 74.7538 317.008 74.6189 317.554C74.4682 318.091 74.3174 318.621 74.1746 319.151C73.9287 320.179 73.6669 321.238 73.4527 322.242C73.294 322.938 73.1591 323.61 73.0243 324.282C73.3733 323.523 74.0794 322.052 74.1587 321.934C75.3012 320.115 78.5856 317.277 80.926 317.87C82.6079 318.297 83.3616 320.115 82.7903 321.673C82.2033 323.262 80.3786 324.29 78.8395 324.757C77.1497 325.27 73.3971 324.804 72.9291 324.741C72.7069 325.856 72.4927 326.947 72.3182 327.974C71.9136 330.244 71.6121 332.283 71.382 334.007H69.8033C70.081 332.22 70.438 330.101 70.914 327.714C71.1361 326.583 71.3979 325.373 71.6756 324.132C71.39 324.021 69.7954 323.373 68.3753 322.59C67.1456 323.918 63.9801 325.484 63.5676 325.682C63.996 326.733 64.4244 327.761 64.8449 328.718C65.7176 330.726 66.5506 332.497 67.2804 334.015H65.5747C64.948 332.623 64.2499 331.034 63.5279 329.271C63.0837 328.204 62.6394 327.049 62.1872 325.863C61.735 325.958 58.0221 326.709 56.2926 326.322C54.7218 325.966 52.8257 325.089 52.1196 323.539C51.4294 322.029 52.0482 320.163 53.6904 319.609C55.9753 318.842 59.466 321.428 60.7433 323.159C60.8226 323.262 61.5128 324.456 61.9412 325.215C61.7588 324.733 61.5763 324.258 61.3938 323.76C61.0289 322.772 60.6957 321.768 60.3307 320.7C60.1721 320.179 60.0134 319.649 59.8547 319.111C59.6881 318.582 59.5691 318.004 59.4263 317.451C59.1169 316.154 58.863 314.818 58.6409 313.466C57.7682 313.782 54.6583 314.858 53.0478 314.747C51.4453 314.636 49.4302 314.051 48.502 312.628C47.5896 311.236 47.9149 309.299 49.4619 308.509C51.6039 307.41 55.4437 309.442 56.967 310.952C57.0622 311.047 58.038 312.256 58.5536 312.928C58.4267 312.114 58.2918 311.308 58.1887 310.485C57.8951 308.105 57.6651 305.686 57.4271 303.267C57.3557 302.523 57.2763 301.788 57.197 301.053C56.8876 301.171 53.2224 302.531 51.4135 302.405C49.811 302.294 47.7959 301.709 46.8677 300.286C45.9553 298.894 46.2806 296.957 47.8276 296.167C49.9696 295.068 53.8094 297.092 55.3327 298.61C55.4437 298.72 56.848 300.468 57.1812 300.926C57.0066 299.306 56.8242 297.685 56.5703 296.103C56.2291 293.913 55.7769 291.786 55.1819 289.762C55.0391 289.818 51.2152 291.257 49.3667 291.122C47.7641 291.012 45.749 290.427 44.8208 289.003C43.9085 287.612 44.2338 285.675 45.7808 284.884C47.9228 283.785 51.7626 285.809 53.2858 287.327C53.4048 287.446 54.9042 289.32 55.1581 289.675C55.1184 289.557 55.1026 289.422 55.0629 289.304C54.4044 287.145 53.4921 285.137 52.5401 283.303C51.9927 282.235 51.4056 281.239 50.8185 280.29C50.1362 280.63 46.9867 282.156 45.3127 282.22C43.7101 282.283 41.6395 281.919 40.5606 280.607C39.5054 279.326 39.6086 277.365 41.0604 276.408C43.0675 275.08 47.1057 276.677 48.7955 278.013C48.8907 278.085 49.7317 278.93 50.3425 279.547C50.0728 279.12 49.7951 278.677 49.5254 278.274C48.5178 276.764 47.5023 275.436 46.59 274.274C46.0664 273.617 45.5824 273.032 45.1223 272.487C44.2734 272.471 40.862 272.368 39.3706 271.672C37.9187 270.992 36.2527 269.719 35.8957 268.059C35.5546 266.43 36.5542 264.746 38.2837 264.556C40.6796 264.296 43.5277 267.569 44.4003 269.53C44.4797 269.696 45.3524 272.487 45.3127 272.487H45.2651C45.7173 273.001 46.2013 273.554 46.709 274.171C47.6451 275.317 48.6924 276.622 49.7396 278.124C50.7868 279.618 51.8816 281.271 52.8812 283.113C53.8808 284.963 54.8408 286.956 55.5627 289.138C55.5706 289.161 55.5786 289.193 55.5865 289.217C55.5707 288.513 55.6024 286.544 55.6262 286.394C55.9039 284.267 57.6889 280.322 60.061 279.879C61.7667 279.563 63.2185 280.899 63.3534 282.552C63.4882 284.244 62.2665 285.936 61.0606 287.003C59.7119 288.205 55.9515 289.375 55.6579 289.462C56.3243 291.549 56.84 293.739 57.2446 295.985C57.4747 297.274 57.6651 298.57 57.8396 299.883C57.8475 299.274 57.8634 298.728 57.8714 298.657C58.149 296.53 59.934 292.585 62.3062 292.142C64.0118 291.826 65.4637 293.162 65.5986 294.815C65.7414 296.507 64.5117 298.199 63.3058 299.266C62.092 300.349 58.9107 301.409 58.0618 301.677C58.1252 302.183 58.1887 302.682 58.2522 303.18C58.5378 305.591 58.8155 307.995 59.1645 310.351C59.2835 311.181 59.4342 311.995 59.585 312.802C59.5929 312.264 59.6088 311.806 59.6167 311.735C59.8944 309.608 61.6794 305.662 64.0515 305.22C65.7572 304.903 67.2091 306.24 67.3439 307.892C67.4788 309.584 66.2491 311.276 65.0511 312.343C63.8929 313.379 60.9654 314.383 59.9579 314.707C60.1324 315.538 60.3069 316.368 60.5132 317.158C60.6639 317.696 60.775 318.226 60.9654 318.763C61.1399 319.293 61.3065 319.823 61.4731 320.345C61.8381 321.333 62.203 322.361 62.5839 323.318C62.8377 323.99 63.0995 324.622 63.3534 325.255C63.2264 324.432 63.0043 322.812 62.9964 322.677C62.9646 321.254 63.4724 318.937 64.4799 317.309C64.4799 317.095 64.4799 316.89 64.5196 316.676C64.7814 315.039 66.3284 313.822 68.0103 314.265C70.3427 314.881 71.8184 318.961 71.9294 321.096C71.9294 321.222 71.8501 322.598 71.7866 323.468C71.9056 322.962 72.0088 322.472 72.1357 321.95C72.3817 320.922 72.6514 319.902 72.9449 318.811C73.1036 318.289 73.2623 317.759 73.4289 317.222C73.5796 316.692 73.8018 316.146 73.9922 315.601C74.4523 314.344 74.9838 313.094 75.5392 311.845C74.6347 311.632 71.4455 310.817 70.1682 309.837C68.891 308.864 67.5422 307.267 67.5502 305.567C67.566 303.907 68.9068 302.468 70.6283 302.658C73.0242 302.919 75.1028 306.722 75.5392 308.825C75.563 308.959 75.7058 310.501 75.7693 311.347C76.1104 310.604 76.4515 309.853 76.8244 309.11C77.8954 306.959 79.0458 304.816 80.1882 302.674C80.5373 302.017 80.8784 301.361 81.2195 300.705C80.8943 300.634 77.0862 299.748 75.6502 298.649C74.3729 297.677 73.0243 296.08 73.0322 294.38C73.0481 292.719 74.3888 291.28 76.1104 291.47C78.5063 291.731 80.5849 295.534 81.0212 297.637C81.0529 297.795 81.2513 300.017 81.2751 300.578C82.0288 299.132 82.7666 297.677 83.4409 296.222C84.3691 294.214 85.1624 292.19 85.7971 290.166C85.6464 290.134 81.6638 289.233 80.1961 288.102C78.9188 287.13 77.5701 285.532 77.5781 283.833C77.586 282.172 78.9347 280.733 80.6562 280.923C83.0522 281.184 85.1307 284.987 85.5671 287.09C85.5988 287.256 85.813 289.644 85.8209 290.079C85.8606 289.96 85.9082 289.841 85.9478 289.715C86.5905 287.549 86.9396 285.374 87.1696 283.319C87.3045 282.125 87.368 280.978 87.3997 279.863C86.6381 279.769 83.1711 279.31 81.7431 278.448C80.3706 277.618 78.8474 276.179 78.6729 274.495C78.4983 272.842 79.6804 271.269 81.4179 271.261C83.8296 271.261 86.3128 274.811 86.9792 276.851C87.0189 276.962 87.2569 278.132 87.4235 278.986C87.4235 278.48 87.4473 277.958 87.4473 277.476C87.4473 275.657 87.3283 273.997 87.2172 272.526C87.1458 271.688 87.0665 270.937 86.9792 270.225C86.2811 269.751 83.4964 267.782 82.6396 266.383C81.8066 265.015 81.1164 263.038 81.7431 261.465C82.354 259.923 84.1232 259.061 85.6702 259.86C87.8122 260.967 88.3755 265.26 88.0185 267.379C87.9868 267.561 87.1775 270.368 87.1458 270.344L87.1062 270.312C87.2014 270.992 87.2966 271.72 87.3759 272.51C87.5266 273.981 87.6774 275.649 87.717 277.476C87.7646 279.294 87.7647 281.279 87.5742 283.366C87.3838 285.461 87.0824 287.651 86.4794 289.865C86.4794 289.889 86.4635 289.913 86.4556 289.944C86.8364 289.351 87.955 287.723 88.0502 287.612C89.4624 285.991 93.1356 283.682 95.357 284.615C96.9516 285.295 97.4276 287.201 96.6184 288.655C95.8012 290.142 93.8337 290.877 92.247 291.106L92.2708 291.091Z" fill="#1B1743"/>
<path d="M50.9386 279.799C50.9386 279.799 50.169 277 50.1452 276.811C49.8517 274.684 50.526 270.406 52.6998 269.363C54.2627 268.612 56.008 269.513 56.5792 271.078C57.1584 272.676 56.4206 274.629 55.5479 275.973C54.5245 277.554 50.9386 279.799 50.9386 279.799Z" fill="#1B1743"/>
<path d="M592.936 333.992H35.3959" stroke="#1B1743" stroke-width="1.5" stroke-linecap="round" stroke-linejoin="round"/>
<path d="M171.402 100.092C171.735 100.266 180.93 110.979 182.557 130.674C183.049 130.911 167.824 123.78 171.402 100.092Z" fill="white" stroke="#1B1743" stroke-width="1.5" stroke-linecap="round" stroke-linejoin="round"/>
<path d="M190.101 87.5293C189.982 88.1144 191.617 103.532 183.287 119.859C183.223 120.547 175.916 102.56 190.101 87.5293Z" fill="white" stroke="#1B1743" stroke-width="1.5" stroke-linecap="round" stroke-linejoin="round"/>
<path d="M198.574 107.066C198.281 107.359 196.337 121.646 183.532 131.545C183.112 131.893 182.842 112.356 198.574 107.066Z" fill="white" stroke="#1B1743" stroke-width="1.5" stroke-linecap="round" stroke-linejoin="round"/>
<path d="M167.442 120.617C167.807 120.744 178.748 129.552 183.754 148.835C184.269 149.009 168.069 144.408 167.442 120.617Z" fill="white" stroke="#1B1743" stroke-width="1.5" stroke-linecap="round" stroke-linejoin="round"/>
<path d="M198.684 123.385C198.438 123.638 198.311 137.688 186.625 148.575C186.244 148.891 183.785 129.955 198.684 123.385Z" fill="white" stroke="#1B1743" stroke-width="1.5" stroke-linecap="round" stroke-linejoin="round"/>
<path d="M168.79 143.76C169.171 143.831 181.603 150.227 190.179 168.262C190.711 168.357 173.947 166.791 168.79 143.76Z" fill="white" stroke="#1B1743" stroke-width="1.5" stroke-linecap="round" stroke-linejoin="round"/>
<path d="M199.978 140.479C199.787 140.755 202.342 154.52 192.949 167.463C192.631 167.827 186.618 149.705 199.978 140.479Z" fill="white" stroke="#1B1743" stroke-width="1.5" stroke-linecap="round" stroke-linejoin="round"/>
<path d="M174.519 166.113C174.923 166.113 188.291 169.995 200.223 186.235C200.771 186.243 183.952 187.753 174.519 166.113Z" fill="white" stroke="#1B1743" stroke-width="1.5" stroke-linecap="round" stroke-linejoin="round"/>
<path d="M204.5 156.98C204.365 157.273 209.498 170.374 202.786 184.93C202.532 185.341 193.131 168.563 204.5 156.98Z" fill="white" stroke="#1B1743" stroke-width="1.5" stroke-linecap="round" stroke-linejoin="round"/>
<path d="M184.411 187.026C184.823 186.955 198.636 188.267 213.693 202.175C214.249 202.096 197.85 206.65 184.411 187.026Z" fill="white" stroke="#1B1743" stroke-width="1.5" stroke-linecap="round" stroke-linejoin="round"/>
<path d="M212.123 172.414C212.036 172.722 219.652 184.748 215.971 200.411C215.781 200.862 203.166 185.974 212.123 172.414Z" fill="white" stroke="#1B1743" stroke-width="1.5" stroke-linecap="round" stroke-linejoin="round"/>
<path d="M198.234 205.873C198.662 205.723 212.427 204.482 230.388 215.488C230.943 215.306 215.417 222.817 198.234 205.873Z" fill="white" stroke="#1B1743" stroke-width="1.5" stroke-linecap="round" stroke-linejoin="round"/>
<path d="M222.676 186.281C222.636 186.605 232.609 197.129 232.291 213.321C232.157 213.804 216.504 201.375 222.676 186.281Z" fill="white" stroke="#1B1743" stroke-width="1.5" stroke-linecap="round" stroke-linejoin="round"/>
<path d="M215.749 221.995C216.186 221.758 229.451 218.026 250.085 225.577C250.649 225.292 236.408 235.618 215.749 221.995Z" fill="white" stroke="#1B1743" stroke-width="1.5" stroke-linecap="round" stroke-linejoin="round"/>
<path d="M235.995 198.102C236.003 198.426 248.213 207.036 251.537 223.086C251.458 223.592 232.957 214.199 235.995 198.102Z" fill="white" stroke="#1B1743" stroke-width="1.5" stroke-linecap="round" stroke-linejoin="round"/>
<path d="M462.685 100.092C462.352 100.266 453.157 110.979 451.531 130.674C451.039 130.911 466.263 123.78 462.685 100.092Z" fill="white" stroke="#1B1743" stroke-width="1.5" stroke-linecap="round" stroke-linejoin="round"/>
<path d="M443.986 87.5293C444.105 88.1144 442.471 103.532 450.801 119.859C450.864 120.547 458.171 102.56 443.986 87.5293Z" fill="white" stroke="#1B1743" stroke-width="1.5" stroke-linecap="round" stroke-linejoin="round"/>
<path d="M435.514 107.066C435.808 107.359 437.751 121.646 450.556 131.545C450.976 131.893 451.246 112.356 435.514 107.066Z" fill="white" stroke="#1B1743" stroke-width="1.5" stroke-linecap="round" stroke-linejoin="round"/>
<path d="M466.645 120.617C466.28 120.744 455.339 129.552 450.333 148.835C449.818 149.009 466.018 144.408 466.645 120.617Z" fill="white" stroke="#1B1743" stroke-width="1.5" stroke-linecap="round" stroke-linejoin="round"/>
<path d="M435.403 123.385C435.649 123.638 435.776 137.688 447.462 148.575C447.842 148.891 450.302 129.955 435.403 123.385Z" fill="white" stroke="#1B1743" stroke-width="1.5" stroke-linecap="round" stroke-linejoin="round"/>
<path d="M465.305 143.76C464.924 143.831 452.492 150.227 443.916 168.262C443.385 168.357 460.148 166.791 465.305 143.76Z" fill="white" stroke="#1B1743" stroke-width="1.5" stroke-linecap="round" stroke-linejoin="round"/>
<path d="M434.111 140.479C434.301 140.755 431.747 154.52 441.14 167.463C441.457 167.827 447.471 149.705 434.111 140.479Z" fill="white" stroke="#1B1743" stroke-width="1.5" stroke-linecap="round" stroke-linejoin="round"/>
<path d="M459.568 166.113C459.164 166.113 445.796 169.995 433.864 186.235C433.317 186.243 450.135 187.753 459.568 166.113Z" fill="white" stroke="#1B1743" stroke-width="1.5" stroke-linecap="round" stroke-linejoin="round"/>
<path d="M429.588 156.98C429.723 157.273 424.59 170.374 431.302 184.93C431.556 185.341 440.957 168.563 429.588 156.98Z" fill="white" stroke="#1B1743" stroke-width="1.5" stroke-linecap="round" stroke-linejoin="round"/>
<path d="M449.684 187.026C449.271 186.955 435.459 188.267 420.401 202.175C419.846 202.096 436.244 206.65 449.684 187.026Z" fill="white" stroke="#1B1743" stroke-width="1.5" stroke-linecap="round" stroke-linejoin="round"/>
<path d="M421.964 172.414C422.052 172.722 414.436 184.748 418.117 200.411C418.307 200.862 430.921 185.974 421.964 172.414Z" fill="white" stroke="#1B1743" stroke-width="1.5" stroke-linecap="round" stroke-linejoin="round"/>
<path d="M435.855 205.873C435.427 205.723 421.662 204.482 403.701 215.488C403.146 215.306 418.672 222.817 435.855 205.873Z" fill="white" stroke="#1B1743" stroke-width="1.5" stroke-linecap="round" stroke-linejoin="round"/>
<path d="M411.413 186.281C411.453 186.605 401.48 197.129 401.798 213.321C401.933 213.804 417.585 201.375 411.413 186.281Z" fill="white" stroke="#1B1743" stroke-width="1.5" stroke-linecap="round" stroke-linejoin="round"/>
<path d="M418.338 221.995C417.902 221.758 404.637 218.026 384.002 225.577C383.439 225.292 397.679 235.618 418.338 221.995Z" fill="white" stroke="#1B1743" stroke-width="1.5" stroke-linecap="round" stroke-linejoin="round"/>
<path d="M398.093 198.102C398.085 198.426 385.875 207.036 382.551 223.086C382.63 223.592 401.131 214.199 398.093 198.102Z" fill="white" stroke="#1B1743" stroke-width="1.5" stroke-linecap="round" stroke-linejoin="round"/>
<path d="M216.835 137.182L244.277 65.3516H235.36C233.067 65.3516 231.266 63.2722 231.742 60.9082C232.091 59.1846 233.693 57.9986 235.455 57.9986H256.478C257.097 57.9986 257.668 58.1646 258.184 58.4335L299.89 46.0914C300.66 44.3283 302.421 43.0949 304.476 43.0949L309.886 42.0512V40.1616C309.886 37.2836 312.227 34.9512 315.115 34.9512C318.002 34.9512 320.343 37.2836 320.343 40.1616V41.9405L326.348 43.0949C328.625 43.0949 330.529 44.6208 331.132 46.7002L370.784 58.4335C371.299 58.1646 371.871 57.9986 372.489 57.9986H393.513C395.274 57.9986 396.877 59.1925 397.226 60.9082C397.702 63.2801 395.901 65.3516 393.608 65.3516H385.318V66.1502L412.411 137.064H413.482C413.648 137.064 413.799 137.166 413.854 137.317C413.91 137.475 413.87 137.649 413.743 137.751L407.119 143.507C407.047 143.571 406.952 143.602 406.857 143.602C406.857 143.602 362.485 143.571 362.414 143.507C362.414 143.507 352.703 137.483 352.624 137.293C352.537 137.103 355.234 137.372 355.305 137.174L382.747 65.3437H372.481C371.101 65.3437 369.911 64.5768 369.276 63.4541L329.696 51.7446C328.808 52.551 327.642 53.057 326.34 53.057L320.335 51.9422V55.7769H316.797V194.876H321.525V200.94H357.408V206.19H272.798V200.94H308.681V194.876H313.409V55.7848H309.871V51.9897L304.46 53.0649C302.953 53.0649 301.612 52.385 300.692 51.3255L259.668 63.462C259.033 64.5847 257.843 65.3516 256.463 65.3516H246.823V66.1502L273.916 137.064H274.987C275.154 137.064 275.297 137.166 275.36 137.317C275.416 137.475 275.376 137.649 275.249 137.751L268.625 143.507C268.553 143.571 268.458 143.602 268.363 143.602C268.363 143.602 223.991 143.571 223.919 143.507C223.919 143.507 214.209 137.483 214.13 137.293C214.042 137.103 216.74 137.372 216.811 137.174L216.835 137.182ZM385.318 137.071H410.713L385.318 70.6015V137.071ZM383.334 137.071V68.2454L357.035 137.071H383.334ZM315.043 46.5263C316.067 46.5263 316.9 45.6961 316.9 44.6762C316.9 43.6562 316.067 42.826 315.043 42.826C314.02 42.826 313.187 43.6562 313.187 44.6762C313.187 45.6961 314.02 46.5263 315.043 46.5263ZM246.855 137.064H272.25L246.855 70.5936V137.064ZM244.872 137.064V68.2454L218.572 137.071H244.872V137.064Z" fill="white" stroke="#1B1743" stroke-width="1.5" stroke-linecap="round" stroke-linejoin="round"/>
<path d="M371.181 229.152C371.181 229.152 372.863 248.136 372.863 249.266C372.863 250.397 394.918 302.817 396.623 307.608C398.337 312.4 401.756 321.785 400.622 325.904C399.487 330.015 393.236 333.945 389.634 335.131C386.032 336.317 378.828 336.238 377.496 336C376.171 335.763 369.15 335.874 369.15 335.874L362.303 319.555L368.364 316.566L359.233 290.333L362.993 258.73L371.165 229.152H371.181Z" fill="#1B1743" stroke="#1B1743" stroke-width="1.5" stroke-linecap="round" stroke-linejoin="round"/>
<path d="M368.38 316.566C368.38 316.566 382.596 310.107 389.99 310.383" stroke="white" stroke-width="1.5" stroke-linecap="round" stroke-linejoin="round"/>
<path d="M356.274 311.705L358.091 333.985H260.216C263.683 313.784 263.683 297.931 263.683 297.931C263.683 297.931 258.772 258.557 258.764 253.884C258.764 249.212 254.995 235.763 255.932 233.47C256.868 231.169 277.471 224.939 286.372 221.768C295.274 218.598 307.919 215.807 307.919 215.807L331.117 218.313C331.117 218.313 358.297 223.302 364.152 224.219C370.007 225.136 370.713 226.567 371.181 229.153C371.649 231.738 363.009 258.731 363.009 258.731L356.274 311.712V311.705Z" fill="#1B1743" stroke="#1B1743" stroke-width="1.5" stroke-linecap="round" stroke-linejoin="round"/>
<path d="M334.139 232.386C334.139 232.386 332.33 244.68 329.966 254.769C327.601 264.858 321.056 279.888 321.056 279.888C321.056 279.888 305.158 254.208 302.778 242.301C300.398 230.393 299.66 226.733 299.66 226.733L333.948 226.385L334.139 232.394V232.386Z" fill="white" stroke="#1B1743" stroke-width="1.5" stroke-linecap="round" stroke-linejoin="round"/>
<path d="M330.467 210.43C330.467 210.43 333.759 218.55 335.402 221.705C337.044 224.86 346.548 238.301 346.001 239.368C345.453 240.435 340.709 238.989 339.432 238.396C338.155 237.803 332.315 235.581 332.315 235.581C332.315 235.581 333.593 238.356 333.045 239.242C332.498 240.127 323.755 248.168 323.755 248.168L316.821 248.271C316.821 248.271 315.727 246.958 314.449 245.82C313.172 244.681 304.596 239.273 302.406 237.731C300.217 236.198 300.026 232.189 300.026 232.189C300.026 232.189 288.721 238.309 288.174 236.111C287.626 233.905 290.538 231.288 293.449 223.769C296.361 216.242 297.448 211.379 299.82 207.829C302.184 204.279 303.097 204.137 303.097 204.137L330.459 210.43H330.467Z" fill="white" stroke="#1B1743" stroke-width="1.5" stroke-linecap="round" stroke-linejoin="round"/>
<path d="M328.101 215.071C328.101 215.071 327.395 235.043 327.213 238.49C327.03 241.937 319.938 257.489 318.661 255.442C317.383 253.394 309.156 238 306.602 232.268C304.039 226.536 303.119 215.047 302.754 212.675C302.389 210.296 302.008 199.559 302.008 199.559C302.008 199.559 311.505 213.909 315.344 216.052C319.176 218.194 328.109 215.079 328.109 215.079L328.101 215.071Z" fill="white" stroke="#1B1743" stroke-width="1.5" stroke-linecap="round" stroke-linejoin="round"/>
<path d="M316.178 220.407L327.633 227.428L328.102 215.07L316.178 220.407Z" fill="#1B1743" stroke="#1B1743" stroke-width="1.5" stroke-linecap="round" stroke-linejoin="round"/>
<path d="M362.311 319.547C362.311 319.547 340.7 322.33 339.177 322.275C337.661 322.219 330.839 326.117 328.371 327.92C325.912 329.715 321.088 333.889 321.088 333.889L346.198 334.451C346.198 334.451 349.038 333.802 350.561 333.858C352.084 333.913 354.163 335.131 358.526 335.099C362.89 335.075 367.816 332.988 367.816 332.988L362.303 319.555L362.311 319.547Z" fill="white" stroke="#1B1743" stroke-width="1.5" stroke-linecap="round" stroke-linejoin="round"/>
<path d="M354.25 330.182C354.25 330.182 349.609 329.146 348.102 329.842C346.594 330.538 340.66 333.969 340.66 333.969" stroke="#1B1743" stroke-width="1.5" stroke-linecap="round" stroke-linejoin="round"/>
<path d="M350.475 326.813C350.475 326.813 343.35 326.758 342.168 327.145C340.978 327.533 333.648 333.921 333.648 333.921" stroke="#1B1743" stroke-width="1.5" stroke-linecap="round" stroke-linejoin="round"/>
<path d="M343.666 324.41C343.666 324.41 337.946 324.41 337.081 325.24C336.216 326.071 327.807 332.744 327.164 333.582" stroke="#1B1743" stroke-width="1.5" stroke-linecap="round" stroke-linejoin="round"/>
<path d="M287.649 326.172L291.338 317.91L282.54 316.922C282.54 316.922 281.786 323.761 287.649 326.172Z" fill="white" stroke="#1B1743" stroke-width="1.5" stroke-linecap="round" stroke-linejoin="round"/>
<path d="M272.106 250.183C272.106 250.183 284.07 265.339 284.308 269.087C284.546 272.835 279.191 303.678 279.191 303.678L289.734 306.177C289.734 306.177 286.934 313.545 286.934 317.744C286.934 321.942 287.648 326.172 287.648 326.172C287.648 326.172 266.807 330.291 261.182 329.619C255.557 328.939 253.915 326.781 250.4 321.744C246.878 316.708 251.091 308.232 252.955 303.631C254.827 299.029 254.121 296.673 254.121 296.673L259.46 248.775" fill="#1B1743"/>
<path d="M272.106 250.183C272.106 250.183 284.07 265.339 284.308 269.087C284.546 272.835 279.191 303.678 279.191 303.678L289.734 306.177C289.734 306.177 286.934 313.545 286.934 317.744C286.934 321.942 287.648 326.172 287.648 326.172C287.648 326.172 266.807 330.291 261.182 329.619C255.557 328.939 253.915 326.781 250.4 321.744C246.878 316.708 251.091 308.232 252.955 303.631C254.827 299.029 254.121 296.673 254.121 296.673L259.46 248.775" stroke="#1B1743" stroke-width="1.5" stroke-linecap="round" stroke-linejoin="round"/>
<path d="M279.191 303.677C279.191 303.677 266.538 300.871 258.81 300.578L279.191 303.677Z" fill="white"/>
<path d="M279.191 303.677C279.191 303.677 266.538 300.871 258.81 300.578" stroke="#1B1743" stroke-width="1.5" stroke-linecap="round" stroke-linejoin="round"/>
<path d="M318.7 288.672L322.167 269.451C322.167 269.451 342.421 270.376 351.378 270.874C360.343 271.372 387.062 270.558 387.062 270.558C387.062 270.558 371.672 311.008 370.347 314.265C369.022 317.523 367.864 320.29 367.864 320.29C367.864 320.29 352.266 323.018 336.661 322.599C321.056 322.18 314.083 318.448 314.083 318.448L318.7 288.68V288.672Z" fill="white" stroke="#1B1743" stroke-width="1.5" stroke-linecap="round" stroke-linejoin="round"/>
<path d="M289.735 306.177L297.137 303.244C297.137 303.244 309.743 293.621 310.901 292.514C312.06 291.4 318.7 288.672 318.7 288.672L317.216 296.389C317.216 296.389 339.803 306.501 341.294 307.711C342.786 308.928 339.636 309.964 339.636 309.964C339.636 309.964 342.627 311.893 341.136 312.834C339.644 313.775 334.495 313.577 334.495 313.577C334.495 313.577 331.346 315.277 328.022 315.649C324.705 316.02 317.066 316.4 317.066 316.4C317.066 316.4 317.899 317.752 320.39 318.511C322.881 319.27 330.354 321.697 329.354 322.986C328.363 324.275 321.223 323.01 321.223 323.01C321.223 323.01 307.609 320.021 307.109 319.997C306.609 319.982 302.293 320.978 300.136 320.891C297.978 320.812 292.995 319.958 292.995 319.958L287.022 319.903C287.022 319.903 287.148 309.948 289.727 306.177H289.735Z" fill="white" stroke="#1B1743" stroke-width="1.5" stroke-linecap="round" stroke-linejoin="round"/>
<path d="M317.209 296.389L313.06 294.412" stroke="#1B1743" stroke-width="1.5" stroke-linecap="round" stroke-linejoin="round"/>
<path d="M339.637 309.964L316.884 302.492" stroke="#1B1743" stroke-width="1.5" stroke-linecap="round" stroke-linejoin="round"/>
<path d="M334.496 313.578L313.242 309.807" stroke="#1B1743" stroke-width="1.5" stroke-linecap="round" stroke-linejoin="round"/>
<path d="M317.066 316.399L311.093 316.012" stroke="#1B1743" stroke-width="1.5" stroke-linecap="round" stroke-linejoin="round"/>
<path d="M313.996 148.878C313.996 148.878 312.639 141.532 310.331 141.066C308.022 140.599 293.48 141.667 290.791 145.976C288.101 150.285 287.062 165.133 288.411 166.722C289.759 168.312 298.042 169.766 299.002 169.806C299.962 169.846 303.222 159.219 308.419 155.195C313.615 151.17 313.996 148.878 313.996 148.878Z" fill="#1B1743" stroke="#1B1743" stroke-width="1.5" stroke-linecap="round" stroke-linejoin="round"/>
<path d="M339.415 151.17C339.415 151.17 345.77 154.285 346.928 157.977C348.086 161.67 348.285 165.702 348.285 165.702C348.285 165.702 356.377 168.501 355.417 174.605C354.457 180.708 347.729 184.488 347.15 184.851C346.571 185.215 340.804 194.592 340.804 194.592L340.216 186.702C340.216 186.702 340.597 185.373 331.744 184.654C322.89 183.934 316.725 184.859 314.226 184.187C311.719 183.515 310.76 183.294 310.76 183.294C310.76 183.294 310.18 184.037 307.491 185.476C304.794 186.907 301.144 190.038 299.795 189.026C298.447 188.014 296.701 179.317 296.701 179.317C296.701 179.317 295.527 164.5 295.527 161.812C295.527 159.124 301.485 153.787 303.024 152.498C304.563 151.209 317.265 145.936 320.153 145.082C323.041 144.228 331.513 145.319 334.79 147.359C338.067 149.399 339.415 151.178 339.415 151.178V151.17Z" fill="#1B1743" stroke="#1B1743" stroke-width="1.5" stroke-linecap="round" stroke-linejoin="round"/>
<path d="M343.873 183.184C343.873 183.184 338.502 201.598 337.931 205.409C337.431 208.706 333.441 212.003 331.219 214.185C328.918 216.439 320.922 225.096 317.542 221.91C315.424 219.91 307.387 212.138 305.078 208.983C302.762 205.828 302.318 201.195 301.54 198.285L300.771 195.376C300.771 195.376 296.915 192.933 296.336 189.644C295.757 186.362 293.821 178.994 296.709 179.294C299.596 179.594 299.795 184.204 299.985 185.556C300.176 186.908 301.715 185.619 302.683 184.694C303.643 183.769 306.149 183.674 307.3 182.37C308.45 181.073 305.745 170.992 307.094 171.807C308.442 172.621 309.41 179.76 318.073 180.274C326.737 180.788 332.703 179.476 332.703 179.476C332.703 179.476 336.558 185.761 343.873 183.152V183.184Z" fill="white" stroke="#1B1743" stroke-width="1.5" stroke-linecap="round" stroke-linejoin="round"/>
<path d="M324.881 190.481C324.881 190.481 341.684 189.848 342.16 190.339C342.636 190.829 341.057 196.774 339.629 198.617C338.201 200.459 330.91 200.182 328.689 199.154C326.467 198.126 324.873 190.481 324.873 190.481H324.881Z" stroke="#1B1743" stroke-width="1.5" stroke-linecap="round" stroke-linejoin="round"/>
<path d="M321.875 190.372C321.875 190.372 318.868 198.318 317.131 199.195C315.385 200.081 310.951 200.389 308.571 199.978C306.191 199.575 304.445 198.247 304.128 197.598C303.811 196.958 303.009 189.502 303.009 189.502L321.875 190.364V190.372Z" stroke="#1B1743" stroke-width="1.5" stroke-linecap="round" stroke-linejoin="round"/>
<path d="M321.874 190.371L324.881 190.482" stroke="#1B1743" stroke-width="1.5" stroke-linecap="round" stroke-linejoin="round"/>
<path d="M303.008 189.5L299.985 183.23" stroke="#1B1743" stroke-width="1.5" stroke-linecap="round" stroke-linejoin="round"/>
<path d="M335.354 195.138C335.354 195.138 331.871 198.008 328.856 194.893" stroke="#1B1743" stroke-width="1.5" stroke-linecap="round" stroke-linejoin="round"/>
<path d="M316.328 195.06C316.328 195.06 311.893 196.949 309.672 194.648" stroke="#1B1743" stroke-width="1.5" stroke-linecap="round" stroke-linejoin="round"/>
<path d="M328.055 189.967C328.055 189.967 333.601 187.808 337.885 189.073" stroke="#1B1743" stroke-width="1.5" stroke-linecap="round" stroke-linejoin="round"/>
<path d="M319.178 189.161C319.178 189.161 312.204 187.794 308.237 188.592" stroke="#1B1743" stroke-width="1.5" stroke-linecap="round" stroke-linejoin="round"/>
<path d="M325.691 203.148C325.691 203.148 325.849 206.153 325.532 206.619C325.215 207.078 323.945 208.454 322.684 208.248C321.423 208.043 318.876 206.366 318.876 206.366" stroke="#1B1743" stroke-width="1.5" stroke-linecap="round" stroke-linejoin="round"/>
<path d="M327.127 210.152C327.127 210.152 322.692 213.149 317.773 209.646" stroke="#1B1743" stroke-width="1.5" stroke-linecap="round" stroke-linejoin="round"/>
<path d="M182.34 154.175C182.34 154.175 173.216 136.599 169.662 136.717C166.116 136.836 166.052 142.948 166.052 142.948C166.052 142.948 159.119 137.69 158.214 139.761L157.31 141.825C157.31 141.825 140.84 146.008 134.438 153.756C128.035 161.496 124.949 169.925 127.821 176.028C130.693 182.132 136.088 202.397 136.088 202.397L133.882 210.793L158.539 225.365L164.307 214.81C164.307 214.81 176.961 218.542 178.595 216.984C180.23 215.427 186.91 194.925 186.91 194.925L194.637 189.62C194.637 189.62 187.917 174.795 187.338 170.834C186.759 166.873 184.363 159.156 182.332 154.183L182.34 154.175Z" fill="white" stroke="#1B1743" stroke-width="1.5" stroke-linecap="round" stroke-linejoin="round"/>
<path d="M183.744 199.677C183.744 199.677 181.991 200.974 179.635 196.649" stroke="#1B1743" stroke-width="1.5" stroke-linecap="round" stroke-linejoin="round"/>
<path d="M182.34 154.175C182.34 154.175 173.216 136.599 169.662 136.717C166.116 136.836 166.052 142.948 166.052 142.948C166.052 142.948 159.119 137.69 158.214 139.761L157.31 141.825C157.31 141.825 140.84 146.008 134.438 153.756C128.035 161.496 124.949 169.925 127.821 176.028C130.042 180.741 133.771 193.921 135.35 199.661C137.135 200.396 138.999 200.966 140.848 201.171C148.781 202.057 156.453 194.98 156.453 194.98C156.453 194.98 151.82 191.857 153.541 185.073C155.263 178.29 159.967 178.219 159.967 178.219C159.967 178.219 162.458 183.627 166.251 182.702C170.043 181.776 163.807 176.147 163.53 173.143C163.252 170.138 167.06 167.181 168.155 165.457C169.25 163.734 163.442 162.603 161.602 160.895C159.769 159.188 172.939 157.235 175.842 156.341C178.746 155.448 173.311 155.013 170.828 152.522C168.345 150.04 182.348 154.167 182.348 154.167L182.34 154.175Z" fill="#1B1743" stroke="#1B1743" stroke-width="1.5" stroke-linecap="round" stroke-linejoin="round"/>
<path d="M183.752 176.771C183.839 178.392 183.347 179.736 182.649 179.776C181.951 179.815 181.316 178.527 181.229 176.906C181.142 175.285 181.633 173.941 182.332 173.901C183.03 173.862 183.664 175.15 183.752 176.771Z" fill="#1B1743"/>
<path d="M178.904 170.677C178.904 170.677 182.212 163.482 186.1 168.131" stroke="#1B1743" stroke-width="1.5" stroke-linecap="round" stroke-linejoin="round"/>
<path d="M156.453 194.98L161.966 195.147L162.117 199.574" stroke="#1B1743" stroke-width="1.5" stroke-linecap="round" stroke-linejoin="round"/>
<path d="M167.401 229.105C167.401 229.105 171.931 233.343 172.502 235.881C173.073 238.419 173.351 240.681 173.351 240.681C173.351 240.681 181.57 251.971 182.419 258.186C183.267 264.4 180.721 277.952 180.721 277.952L164.291 229.39L167.408 229.105H167.401Z" fill="#1B1743" stroke="#1B1743" stroke-width="1.5" stroke-linecap="round" stroke-linejoin="round"/>
<path d="M133.326 201.369C133.326 201.369 167.234 225.46 167.416 226.18C167.599 226.891 167.773 233.865 167.773 233.865L128.661 208.121L133.326 201.369Z" fill="white" stroke="#1B1743" stroke-width="1.5" stroke-linecap="round" stroke-linejoin="round"/>
<path d="M167.775 233.865C167.775 233.865 177.104 250.136 177.644 252.635C178.183 255.133 183.745 290.538 183.745 290.538L190.75 333.985H102.657C102.657 333.985 104.577 316.235 105.656 301.75C106.735 287.265 107.242 265.926 112.526 246.966C115.501 236.3 128.671 208.113 128.671 208.113L167.783 233.857L167.775 233.865Z" fill="#D3D3E3" stroke="#1B1743" stroke-width="1.5" stroke-linecap="round" stroke-linejoin="round"/>
<path d="M210.304 286.601C210.304 286.601 214.866 278.473 215.85 277.343C216.826 276.204 221.395 274.583 222.696 274.093C223.998 273.603 234.763 270.029 235.414 270.029C236.064 270.029 236.881 271.492 236.715 273.113C236.548 274.742 233.779 276.687 233.129 276.853C232.478 277.019 241.443 277.019 244.545 277.343C247.639 277.667 253.51 278.805 254.002 280.102C254.494 281.399 254.002 282.703 252.209 282.862C250.416 283.028 246.989 282.537 246.989 282.537L238.508 283.352C238.508 283.352 249.432 284.98 251.059 285.305C252.693 285.629 253.669 287.74 252.852 288.878C252.034 290.017 247.306 289.369 247.306 289.369L239.317 288.878C239.317 288.878 249.75 292.128 250.241 292.776C250.733 293.425 250.408 295.378 248.94 295.702C247.473 296.026 240.626 295.211 240.626 295.211L237.199 295.702C237.199 295.702 242.094 296.35 242.094 296.998C242.094 297.647 242.094 298.627 240.951 298.627C239.809 298.627 232.312 298.461 232.312 298.461C232.312 298.461 228.885 300.414 225.957 300.248C223.022 300.082 210.955 298.619 210.955 298.619L210.304 286.593V286.601Z" fill="white" stroke="#1B1743" stroke-width="1.5" stroke-linecap="round" stroke-linejoin="round"/>
<path d="M233.129 276.854L227.972 279.376C227.972 279.376 227.972 284.294 223.418 287.511" stroke="#1B1743" stroke-width="1.5" stroke-linecap="round" stroke-linejoin="round"/>
<path d="M238.604 282.023C238.604 282.023 237.461 292.049 236.707 294.508" stroke="#1B1743" stroke-width="1.5" stroke-linecap="round" stroke-linejoin="round"/>
<path d="M180.625 288.53L203.021 287.359V299.709L183.473 302.374L180.625 288.53Z" fill="#D3D3E3" stroke="#1B1743" stroke-width="1.5" stroke-linecap="round" stroke-linejoin="round"/>
<path d="M203.021 287.36L210.304 286.355L211.018 298.705L203.021 299.71V287.36Z" fill="white" stroke="#1B1743" stroke-width="1.5" stroke-linecap="round" stroke-linejoin="round"/>
<path d="M138.824 235.793C138.824 235.793 145.56 230.962 149.598 231.769C153.636 232.575 165.489 236.599 168.186 241.968C170.883 247.336 187.306 296.191 187.306 296.191L249.75 291.573L252.059 314.067C252.059 314.067 184.878 328.133 179.491 328.939C174.104 329.746 168.178 329.746 165.489 327.058C162.799 324.369 134.516 263.711 134.516 263.711" fill="#D3D3E3"/>
<path d="M138.824 235.793C138.824 235.793 145.56 230.962 149.598 231.769C153.636 232.575 165.489 236.599 168.186 241.968C170.883 247.336 187.306 296.191 187.306 296.191L249.75 291.573L252.059 314.067C252.059 314.067 184.878 328.133 179.491 328.939C174.104 329.746 168.178 329.746 165.489 327.058C162.799 324.369 134.516 263.711 134.516 263.711" stroke="#1B1743" stroke-width="1.5" stroke-linecap="round" stroke-linejoin="round"/>
<path d="M249.758 291.573L259.889 290.158L260.754 309.355L251.892 310.699L249.758 291.573Z" fill="white" stroke="#1B1743" stroke-width="1.5" stroke-linecap="round" stroke-linejoin="round"/>
<path d="M259.889 290.158C259.889 290.158 265.046 283.603 266.109 280.947C267.172 278.29 272.686 277.934 275.169 277.231C277.66 276.519 281.215 275.104 281.564 276.345C281.913 277.587 282.095 280.243 280.675 281.303C279.255 282.362 275.875 283.074 274.987 283.785C274.098 284.497 273.21 285.201 273.21 285.201L289.378 286.798C289.378 286.798 296.843 285.738 300.215 286.798C303.587 287.857 306.26 287.857 306.435 289.28C306.609 290.703 306.26 292.648 305.372 292.822C304.483 292.996 301.643 292.648 301.104 292.648C301.104 292.648 303.055 294.593 302.881 295.305C302.706 296.017 301.461 297.962 300.747 297.962C300.033 297.962 295.59 298.317 294.884 298.491C294.178 298.665 290.973 301.86 290.267 302.207C289.561 302.555 284.578 304.334 284.578 304.334C284.578 304.334 282.801 305.75 279.247 306.635C275.693 307.521 260.746 309.363 260.746 309.363L259.874 290.158H259.889Z" fill="white" stroke="#1B1743" stroke-width="1.5" stroke-linecap="round" stroke-linejoin="round"/>
<path d="M284.436 303.844C284.436 303.844 282.619 304.192 280.659 304.468" stroke="#1B1743" stroke-width="1.5" stroke-linecap="round" stroke-linejoin="round"/>
<path d="M301.111 292.633L292.408 292.285L283.88 293.171" stroke="#1B1743" stroke-width="1.5" stroke-linecap="round" stroke-linejoin="round"/>
<path d="M294.893 298.484L290.101 298.832L282.635 299.188" stroke="#1B1743" stroke-width="1.5" stroke-linecap="round" stroke-linejoin="round"/>
<path d="M85.5511 334.159L80.5927 284.759C79.8945 277.794 85.2497 271.682 92.2708 271.437C98.4906 271.224 103.869 275.714 104.742 281.85L112.176 334.159H85.559H85.5511Z" fill="#1B1743" stroke="#1B1743" stroke-width="1.5" stroke-linecap="round" stroke-linejoin="round"/>
<path d="M473.577 198.466C473.577 198.466 506.088 215.836 507.485 217.275C508.881 218.714 516.941 322.179 516.941 322.179L418.344 308.896C418.344 308.896 408.134 263.465 406.262 245.114C404.382 226.763 404.921 213.243 405.46 211.693C406 210.144 420.748 202.561 424.168 200.948C427.587 199.335 432.767 197.406 432.767 197.406L473.577 198.458V198.466Z" fill="#D3D3E3" stroke="#1B1743" stroke-width="1.5" stroke-linecap="round" stroke-linejoin="round"/>
<path d="M428.498 268.209C436.519 276.44 454.591 293.921 470.752 302.017" stroke="#1B1743" stroke-width="1.5" stroke-linecap="round" stroke-linejoin="round"/>
<path d="M424.264 263.75C424.264 263.75 425.279 264.873 427.088 266.754" stroke="#1B1743" stroke-width="1.5" stroke-linecap="round" stroke-linejoin="round"/>
<path d="M476.061 297.857C478.417 298.949 480.519 299.747 482.074 300.016" stroke="#1B1743" stroke-width="1.5" stroke-linecap="round" stroke-linejoin="round"/>
<path d="M454.179 285.105C454.179 285.105 463.818 291.533 472.275 295.977" stroke="#1B1743" stroke-width="1.5" stroke-linecap="round" stroke-linejoin="round"/>
<path d="M470.12 309.859C470.12 309.859 492.706 298.703 495.499 297.652C498.291 296.6 509.549 309.282 509.549 309.282L464.162 319.806L470.12 309.859Z" fill="white" stroke="#1B1743" stroke-width="1.5" stroke-linecap="round" stroke-linejoin="round"/>
<path d="M504.623 310.626C504.623 310.626 497.499 300.877 493.976 299.541" stroke="#1B1743" stroke-width="1.5" stroke-linecap="round" stroke-linejoin="round"/>
<path d="M497.791 311.694C497.791 311.694 491.722 302.973 489.572 301.305" stroke="#1B1743" stroke-width="1.5" stroke-linecap="round" stroke-linejoin="round"/>
<path d="M492.309 312.816C492.309 312.816 487.882 304.957 485.335 303.471" stroke="#1B1743" stroke-width="1.5" stroke-linecap="round" stroke-linejoin="round"/>
<path d="M488.58 313.63C488.58 313.63 485.899 311.543 484.907 311.891C483.915 312.239 479.385 315.37 478.56 315.923" stroke="#1B1743" stroke-width="1.5" stroke-linecap="round" stroke-linejoin="round"/>
<path d="M405.461 211.7C405.461 211.7 407 217.662 410.896 229.031C414.791 240.401 417.726 245.833 417.726 245.833L426.683 300.245L470.127 309.859L464.169 319.806C464.169 319.806 439.179 322.019 426.612 318.896C414.045 315.773 408.627 314.16 408 312.753C407.365 311.354 401.693 280.653 401.955 260.048C402.217 239.436 402.74 210.198 405.469 211.7H405.461Z" fill="#D3D3E3" stroke="#1B1743" stroke-width="1.5" stroke-linecap="round" stroke-linejoin="round"/>
<path d="M417.727 245.832L404.62 226.39" stroke="#1B1743" stroke-width="1.5" stroke-linecap="round" stroke-linejoin="round"/>
<path d="M414.529 245.097L405.66 233.506" stroke="#1B1743" stroke-width="1.5" stroke-linecap="round" stroke-linejoin="round"/>
<path d="M424.248 299.542C424.248 299.542 415.085 298.933 410.753 304.041" stroke="#1B1743" stroke-width="1.5" stroke-linecap="round" stroke-linejoin="round"/>
<path d="M465.414 308.863L458.599 319.743" stroke="#1B1743" stroke-width="1.5" stroke-linecap="round" stroke-linejoin="round"/>
<path d="M424.668 297.201C424.668 297.201 420.186 293.856 412.506 295.865" stroke="#1B1743" stroke-width="1.5" stroke-linecap="round" stroke-linejoin="round"/>
<path d="M442.328 319.213L430.682 320.454L432.863 337.635L445.025 337.003L442.328 319.213Z" fill="white" stroke="#1B1743" stroke-width="1.5" stroke-linecap="round" stroke-linejoin="round"/>
<path d="M499.282 212.783C499.282 212.783 517.727 220.682 518.687 224.659C519.647 228.628 530.31 271.331 534.681 293.722C539.052 316.113 540.615 331.697 539.187 332.614C537.751 333.531 514.332 337.39 486.184 338.473C458.036 339.564 446.279 340.014 445.049 338.781C443.827 337.548 441.661 320.169 442.328 319.22C442.994 318.272 506.073 307.558 506.073 307.558C506.073 307.558 489.833 253.019 489.849 250.861C489.865 248.702 498.187 234.154 501.448 230.177" fill="#D3D3E3"/>
<path d="M499.282 212.783C499.282 212.783 517.727 220.682 518.687 224.659C519.647 228.628 530.31 271.331 534.681 293.722C539.052 316.113 540.615 331.697 539.187 332.614C537.751 333.531 514.332 337.39 486.184 338.473C458.036 339.564 446.279 340.014 445.049 338.781C443.827 337.548 441.661 320.169 442.328 319.22C442.994 318.272 506.073 307.558 506.073 307.558C506.073 307.558 489.833 253.019 489.849 250.861C489.865 248.702 498.187 234.154 501.448 230.177" stroke="#1B1743" stroke-width="1.5" stroke-linecap="round" stroke-linejoin="round"/>
<path d="M506.064 307.551C506.064 307.551 516.838 306.056 524.518 314.113" stroke="#1B1743" stroke-width="1.5" stroke-linecap="round" stroke-linejoin="round"/>
<path d="M524.519 309.678C524.519 309.678 529.366 314.509 530.58 318.944" stroke="#1B1743" stroke-width="1.5" stroke-linecap="round" stroke-linejoin="round"/>
<path d="M430.682 320.455C430.682 320.455 406.31 312.287 404.668 313.394C403.026 314.501 393.609 322.518 393.49 323.688C393.379 324.859 393.664 327.823 394.584 328.258C395.505 328.693 397.187 329.16 397.187 329.16C397.187 329.16 399.797 337.92 400.868 338.75C401.939 339.58 405.136 340.316 406.643 340.585C408.151 340.845 432.855 337.643 432.855 337.643L430.674 320.463L430.682 320.455Z" fill="white" stroke="#1B1743" stroke-width="1.5" stroke-linecap="round" stroke-linejoin="round"/>
<path d="M397.186 329.151C397.186 329.151 399.248 325.712 400.256 325.166C401.271 324.621 407.039 322.525 407.039 322.525" stroke="#1B1743" stroke-width="1.5" stroke-linecap="round" stroke-linejoin="round"/>
<path d="M407.953 329.049C407.953 329.049 401.107 330.314 398.949 332.765" stroke="#1B1743" stroke-width="1.5" stroke-linecap="round" stroke-linejoin="round"/>
<path d="M408.5 335.359C408.5 335.359 402.788 337.399 399.789 336.68" stroke="#1B1743" stroke-width="1.5" stroke-linecap="round" stroke-linejoin="round"/>
<path d="M460.211 229.483L453.784 240.386L463.82 315.466L456.68 327.713L443.217 313.948L450.897 240.457L443.4 226.566L451.714 220.066L460.211 229.483Z" fill="white" stroke="#1B1743" stroke-width="1.5" stroke-linecap="round" stroke-linejoin="round"/>
<path d="M469.428 193.761L475.268 196.971C475.268 196.971 475.323 208.364 472.237 218.437C469.151 228.51 466.39 235.262 466.39 235.262L451.237 227.118L436.314 236.464C436.314 236.464 434.275 225.766 435.219 215.994C436.164 206.214 440.281 195.405 440.281 195.405C440.281 195.405 461.368 189.879 469.444 193.777L469.428 193.761Z" fill="#D3D3E3" stroke="#1B1743" stroke-width="1.5" stroke-linecap="round" stroke-linejoin="round"/>
<path d="M463.748 208.822C463.748 208.822 461.043 214.981 459.21 218.041C457.377 221.101 451.229 227.11 451.229 227.11C451.229 227.11 445.025 217.796 443.835 216.175L442.645 214.554C442.645 214.554 450.642 215.306 452.419 214.8C454.196 214.294 463.748 208.83 463.748 208.83V208.822Z" fill="#1B1743" stroke="#1B1743" stroke-width="1.5" stroke-linecap="round" stroke-linejoin="round"/>
<path d="M427.285 172.168C427.285 172.168 430.403 188.376 430.348 190.535C430.292 192.693 428.896 199.279 429.864 201.794C430.832 204.308 441.566 215.14 444.945 217.765C448.317 220.39 453.18 220.145 455.806 217.947C458.432 215.749 467.357 206.261 468.833 203.549C470.301 200.837 471.903 193.642 471.903 193.642C471.903 193.642 476.187 191.515 478.71 187.309C481.233 183.095 482.566 180.225 479.139 178.217L480.709 160.364C480.709 160.364 474.791 154.378 460.788 155.446C446.786 156.513 427.293 172.168 427.293 172.168H427.285Z" fill="white" stroke="#1B1743" stroke-width="1.5" stroke-linecap="round" stroke-linejoin="round"/>
<path d="M473.197 181.806L469.865 189.689L467.882 189.91L468.913 183.933C468.913 183.933 461.011 179.711 460.591 179.387C460.17 179.063 462.336 169.116 462.431 168.191C462.519 167.266 461.932 164.001 450.73 167.353C439.527 170.706 439.139 174.706 433.601 175.695C428.064 176.683 427.524 174.493 427.524 174.493C427.524 174.493 421.495 175.924 418.147 171.441C414.799 166.966 424.676 161.692 424.676 161.692C424.676 161.692 423.073 153.28 427.056 149.595C431.039 145.911 434.609 149.627 434.561 150.085C434.514 150.544 448.944 140.384 456.093 139.933C463.241 139.483 479.409 150.41 482.194 155.944C484.986 161.479 479.139 178.209 479.139 178.209C479.139 178.209 475.498 176.809 473.205 181.806H473.197Z" fill="#1B1743" stroke="#1B1743" stroke-width="1.5" stroke-linecap="round" stroke-linejoin="round"/>
<path d="M439.344 191.246L439.075 203.438L445.199 202.631" stroke="#1B1743" stroke-width="1.5" stroke-linecap="round" stroke-linejoin="round"/>
<path d="M451.412 205.541C451.412 205.541 446.351 209.486 440.972 207.233" stroke="#1B1743" stroke-width="1.5" stroke-linecap="round" stroke-linejoin="round"/>
<path d="M447.517 189.609C447.517 189.609 449.294 193.088 455.268 190.732" stroke="#1B1743" stroke-width="1.5" stroke-linecap="round" stroke-linejoin="round"/>
<path d="M437.48 188.692C437.48 188.692 434.894 190.432 432.078 188.297" stroke="#1B1743" stroke-width="1.5" stroke-linecap="round" stroke-linejoin="round"/>
<path d="M461.725 187.934C461.725 187.934 454.529 185.76 441.248 185.617C441.248 185.617 442.423 189.072 443.644 192.061C444.866 195.05 445.247 197.382 450.134 198.378C455.021 199.374 459.13 197.548 459.908 195.73C460.685 193.911 461.717 187.934 461.717 187.934H461.725Z" stroke="#1B1743" stroke-width="1.5" stroke-linecap="round" stroke-linejoin="round"/>
<path d="M441.25 185.618C441.25 185.618 428.668 182.89 424.955 182.258C424.955 182.258 424.899 185.966 425.851 188.63C426.803 191.303 428.818 193.865 430.714 194.568C432.61 195.272 436.887 196.395 437.981 194.434C438.521 193.469 441.25 185.618 441.25 185.618Z" stroke="#1B1743" stroke-width="1.5" stroke-linecap="round" stroke-linejoin="round"/>
<path d="M424.954 182.257L428.754 178.873" stroke="#1B1743" stroke-width="1.5" stroke-linecap="round" stroke-linejoin="round"/>
<path d="M461.725 187.934L473.197 181.807" stroke="#1B1743" stroke-width="1.5" stroke-linecap="round" stroke-linejoin="round"/>
<path d="M457.156 185.253C457.156 185.253 452.372 183.181 446.097 183.98" stroke="#1B1743" stroke-width="1.5" stroke-linecap="round" stroke-linejoin="round"/>
<path d="M437.838 183.451C437.838 183.451 435.997 180.589 430.476 181.419" stroke="#1B1743" stroke-width="1.5" stroke-linecap="round" stroke-linejoin="round"/>
<path d="M223.213 353.039L242.42 343.385H157.143L132.399 353.039H223.213Z" fill="white" stroke="#1B1743" stroke-width="1.5" stroke-miterlimit="10" stroke-linecap="round"/>
<path d="M213.939 352.69L230.385 344.42H157.365L136.175 352.69H213.939Z" fill="white" stroke="#1B1743" stroke-width="1.5" stroke-miterlimit="10" stroke-linecap="round"/>
<path d="M223.213 353.038H132.399L120.014 294.783H210.829L223.213 353.038Z" fill="white" stroke="#1B1743" stroke-width="1.5" stroke-miterlimit="10" stroke-linecap="round"/>
<path d="M175.509 322.131C177.802 324.4 177.976 327.926 175.898 330.006C173.827 332.085 170.289 331.935 167.996 329.674C165.703 327.404 165.529 323.878 167.608 321.799C169.686 319.719 173.216 319.87 175.509 322.131Z" fill="white" stroke="#1B1743" stroke-width="1.5" stroke-miterlimit="10" stroke-linecap="round"/>
<path d="M347.729 337.004L386.928 354.556L315.915 358.525L283.531 338.142L347.729 337.004Z" fill="white" stroke="#1B1743" stroke-width="1.5" stroke-linecap="round" stroke-linejoin="round"/>
<path d="M342.088 337.406L376.123 359.655L303.659 365.854L292.314 337.77L342.088 337.406Z" fill="white" stroke="#1B1743" stroke-width="1.5" stroke-linecap="round" stroke-linejoin="round"/>
<path d="M459.153 324.439C459.153 321.395 458.368 318.596 457.067 316.422H524.303C528.619 316.422 532.117 319.909 532.117 324.21C532.117 328.511 528.619 331.998 524.303 331.998H457.313C458.463 329.887 459.153 327.277 459.153 324.431V324.439Z" fill="white" stroke="#1B1743" stroke-width="1.5" stroke-miterlimit="10" stroke-linecap="round"/>
<path d="M457.313 333.374H524.303C529.373 333.374 533.498 329.263 533.498 324.21C533.498 319.158 529.373 315.047 524.303 315.047H457.067C456.306 315.047 455.687 315.664 455.687 316.423C455.687 317.182 456.306 317.798 457.067 317.798H524.303C527.857 317.798 530.745 320.676 530.745 324.218C530.745 327.76 527.857 330.638 524.303 330.638H457.313C456.551 330.638 455.933 331.255 455.933 332.014C455.933 332.773 456.551 333.39 457.313 333.39V333.374Z" fill="#D3D3E3" stroke="#1B1743" stroke-width="1.5" stroke-miterlimit="10" stroke-linecap="round"/>
<path d="M466.421 316.422C467.722 318.604 468.508 321.395 468.508 324.439C468.508 327.278 467.818 329.895 466.667 332.006H457.314C458.464 329.895 459.154 327.285 459.154 324.439C459.154 321.395 458.369 318.596 457.068 316.422H466.421Z" fill="white" stroke="#1B1743" stroke-width="1.5" stroke-miterlimit="10" stroke-linecap="round"/>
<path d="M457.257 342.625C457.257 339.581 456.471 336.782 455.17 334.607H522.406C526.722 334.607 530.221 338.094 530.221 342.395C530.221 346.696 526.722 350.183 522.406 350.183H455.416C456.566 348.072 457.257 345.463 457.257 342.617V342.625Z" fill="white" stroke="#1B1743" stroke-width="1.5" stroke-miterlimit="10" stroke-linecap="round"/>
<path d="M455.417 351.56H522.407C527.476 351.56 531.602 347.448 531.602 342.396C531.602 337.344 527.476 333.232 522.407 333.232H455.171C454.409 333.232 453.79 333.849 453.79 334.608C453.79 335.367 454.409 335.984 455.171 335.984H522.407C525.961 335.984 528.849 338.862 528.849 342.404C528.849 345.946 525.961 348.824 522.407 348.824H455.417C454.655 348.824 454.036 349.441 454.036 350.2C454.036 350.959 454.655 351.575 455.417 351.575V351.56Z" fill="#807D9B" stroke="#1B1743" stroke-width="1.5" stroke-miterlimit="10" stroke-linecap="round"/>
<path d="M464.517 334.6C465.818 336.782 466.604 339.573 466.604 342.617C466.604 345.455 465.913 348.072 464.771 350.183H455.417C456.568 348.072 457.258 345.463 457.258 342.617C457.258 339.573 456.472 336.774 455.171 334.6H464.525H464.517Z" fill="white" stroke="#1B1743" stroke-width="1.5" stroke-miterlimit="10" stroke-linecap="round"/>
<defs>
<filter id="filter0_dddd_534_6997" x="31.3203" y="23.4297" width="570.855" height="409.846" filterUnits="userSpaceOnUse" color-interpolation-filters="sRGB">
<feFlood flood-opacity="0" result="BackgroundImageFix"/>
<feColorMatrix in="SourceAlpha" type="matrix" values="0 0 0 0 0 0 0 0 0 0 0 0 0 0 0 0 0 0 127 0" result="hardAlpha"/>
<feOffset dy="-4"/>
<feGaussianBlur stdDeviation="2"/>
<feComposite in2="hardAlpha" operator="out"/>
<feColorMatrix type="matrix" values="0 0 0 0 0.105882 0 0 0 0 0.0901961 0 0 0 0 0.262745 0 0 0 0.16 0"/>
<feBlend mode="normal" in2="BackgroundImageFix" result="effect1_dropShadow_534_6997"/>
<feColorMatrix in="SourceAlpha" type="matrix" values="0 0 0 0 0 0 0 0 0 0 0 0 0 0 0 0 0 0 127 0" result="hardAlpha"/>
<feOffset dx="6" dy="-2"/>
<feGaussianBlur stdDeviation="5.5"/>
<feComposite in2="hardAlpha" operator="out"/>
<feColorMatrix type="matrix" values="0 0 0 0 0.105882 0 0 0 0 0.0901961 0 0 0 0 0.262745 0 0 0 0.1 0"/>
<feBlend mode="normal" in2="effect1_dropShadow_534_6997" result="effect2_dropShadow_534_6997"/>
<feColorMatrix in="SourceAlpha" type="matrix" values="0 0 0 0 0 0 0 0 0 0 0 0 0 0 0 0 0 0 127 0" result="hardAlpha"/>
<feOffset dx="-4"/>
<feGaussianBlur stdDeviation="8"/>
<feComposite in2="hardAlpha" operator="out"/>
<feColorMatrix type="matrix" values="0 0 0 0 0.105882 0 0 0 0 0.0901961 0 0 0 0 0.262745 0 0 0 0.22 0"/>
<feBlend mode="normal" in2="effect2_dropShadow_534_6997" result="effect3_dropShadow_534_6997"/>
<feColorMatrix in="SourceAlpha" type="matrix" values="0 0 0 0 0 0 0 0 0 0 0 0 0 0 0 0 0 0 127 0" result="hardAlpha"/>
<feOffset dx="6" dy="-3"/>
<feGaussianBlur stdDeviation="7.5"/>
<feComposite in2="hardAlpha" operator="out"/>
<feColorMatrix type="matrix" values="0 0 0 0 0.105882 0 0 0 0 0.0901961 0 0 0 0 0.262745 0 0 0 0.09 0"/>
<feBlend mode="normal" in2="effect3_dropShadow_534_6997" result="effect4_dropShadow_534_6997"/>
<feBlend mode="normal" in="SourceGraphic" in2="effect4_dropShadow_534_6997" result="shape"/>
</filter>
</defs>
</svg>
